<svg width="58" height="43" viewBox="0 0 58 43" fill="none" xmlns="http://www.w3.org/2000/svg">
<path fill-rule="evenodd" clip-rule="evenodd" d="M54.8196 0C60.6552 11.5726 56.8646 20.743 55.8812 29.9705C49.2887 35.697 40.7242 41.0477 30.85 44.121C28.6662 44.7806 26.324 45.9347 24.3454 45.9953C21.0068 46.141 13.9909 42.8296 10.9642 41.2941C6.64875 39.122 2.58535 36.2463 0 32.4594C0.421706 31.5175 1.31672 30.2213 2.25206 29.2569C4.85939 26.5263 8.20811 23.6864 12.2739 21.354C14.058 15.1189 16.4429 9.08848 18.571 3.06926C18.647 3.04029 18.7697 2.90666 18.7988 2.98236C20.2395 3.5609 21.6285 3.55161 23.2388 3.89186C27.1362 4.74806 31.505 6.37901 35.6995 7.55577C39.3744 5.11214 44.7 3.3405 49.2776 2.1146C51.4146 1.55958 53.3997 1.0625 54.8196 0ZM12.7318 27.0809C18.9102 24.8102 22.4333 22.4245 27.4748 19.4595C24.7328 15.0381 21.4577 11.9484 19.4476 6.0327C19.2555 5.75887 18.9987 5.77007 18.7128 5.70558C17.0497 12.936 13.316 19.3074 12.7318 27.0809ZM29.1805 18.4615C32.9201 15.7328 36.7647 13.0509 40.9242 10.5091C38.0606 9.17168 34.8804 8.82296 31.8294 7.90418C28.7785 6.9854 25.6225 6.01989 22.6475 5.07214C22.3438 5.18801 22.1516 4.91418 21.8011 5.13472C24.5561 8.68326 27.6533 13.5766 29.1805 18.4615ZM42.4076 6.21128C42.9681 6.08421 43.1555 5.66555 42.8761 5.16462C42.2107 5.24496 42.6241 5.86832 42.4076 6.21128ZM45.2409 4.52271C45.4152 4.9769 45.6074 5.25072 45.8464 5.41988C46.6056 5.13021 46.525 4.46669 46.7592 3.94336C46.3393 3.75644 45.5042 4.07508 45.2409 4.52271ZM37.8412 7.69324C38.1787 8.34556 38.7036 8.57922 39.5096 8.18488C39.2012 7.60826 39.7617 7.48119 39.2433 6.81111C38.3501 6.97835 38.3726 7.49047 37.8412 7.69324ZM50.3903 3.4258C51.0267 3.26976 51.3481 2.97352 51.1738 2.51934C50.7473 2.76884 49.796 2.78468 50.3903 3.4258ZM30.9023 18.412C34.7398 20.2457 38.923 21.1664 42.9188 22.5058C47.0195 23.8919 51.0444 25.3069 55.0224 26.8267C56.1896 19.4383 58.4376 11.4641 54.3896 2.50733C46.3856 7.73101 39.2213 13.3285 30.9023 18.412ZM43.2794 8.48223C42.7255 8.17288 42.4378 9.23729 41.6739 8.83448C41.9467 9.77182 43.9253 9.71117 43.2794 8.48223ZM27.2346 16.34C26.973 15.6587 26.8051 14.7681 26.1219 15.0288C26.3834 15.7101 26.5513 16.6007 27.2346 16.34ZM11.5449 24.6697C11.4465 24.1865 11.8439 23.8613 11.5823 23.1801C10.2982 23.2361 10.6517 24.8369 11.5449 24.6697ZM9.29172 24.9219C9.51947 24.835 9.68258 25.0332 9.91033 24.9463C9.82314 24.7192 10.0218 24.5566 9.93465 24.3295C9.70689 24.4164 9.54379 24.2182 9.31604 24.3051C9.5082 24.579 9.28045 24.6659 9.29172 24.9219ZM8.28045 25.9153C8.50821 25.8284 8.81188 25.7125 9.03964 25.6256C8.95245 25.3985 8.8362 25.0957 8.74902 24.8686C8.59718 24.9266 8.44535 24.9845 8.21759 25.0714C8.33384 25.3742 8.03016 25.4901 8.28045 25.9153ZM6.74903 27.3675C7.53728 27.1535 7.79589 26.0134 6.90266 26.1806C7.07703 26.6348 6.33564 26.7441 6.74903 27.3675ZM10.3136 28.2639C11.1778 28.0209 11.4121 27.4976 11.2264 26.7873C10.9228 26.9032 10.7306 26.6294 10.3801 26.8499C10.8225 27.549 9.58529 27.5003 10.3136 28.2639ZM1.83805 32.7128C3.90029 35.1371 6.37118 37.4922 8.85512 38.9745C13.5549 41.6942 19.056 43.327 24.3359 44.6104C24.8098 40.177 25.2547 35.6679 25.6058 31.3681C25.9504 27.5048 27.1171 24.1957 26.9884 20.6865C20.1634 25.8074 11.638 28.5396 1.83805 32.7128ZM33.4272 27.2556C32.5197 25.3454 31.0874 23.2015 30.0767 20.1156C29.7731 20.2315 29.5809 19.9577 29.2304 20.1782C30.346 23.3108 31.7315 25.5593 33.4272 27.2556ZM2.33093 31.0493C2.45192 32.0446 4.23363 31.0177 3.8493 30.47C3.14824 30.9111 2.65893 30.3167 2.33093 31.0493ZM40.197 23.8047C37.3156 22.6476 34.3584 21.5195 31.658 20.3802C31.4658 20.1063 31.2962 20.3446 31.1265 20.5829C34.2332 26.8613 37.6501 32.5873 41.6939 36.7723C41.7924 37.2555 41.1091 37.5162 41.6565 38.2619C45.6399 36.3949 48.9821 33.9915 51.641 31.8487C52.5117 31.1693 53.8379 30.3162 54.0965 29.176C50.2188 27.0106 44.6239 25.587 40.197 23.8047ZM26.0464 44.3049C30.729 43.1257 35.3245 41.7194 40.7859 38.9413C36.5855 34.1217 32.6662 28.6742 29.0281 22.5986C28.7944 30.1515 26.461 36.7697 26.0464 44.3049ZM27.2535 30.2187C27.1841 29.8113 27.5945 28.6132 26.9 28.6178C27.0453 28.9963 26.454 30.1766 27.2535 30.2187Z" fill="#6EA7E1"/>
</svg>
