<svg width="122" height="81" viewBox="0 0 122 81" fill="none" xmlns="http://www.w3.org/2000/svg">
<path fill-rule="evenodd" clip-rule="evenodd" d="M8.925 66.713C9.525 67.013 10.225 67.113 10.825 66.713C11.225 66.4129 11.625 66.5129 12.125 66.5129C12.725 66.6129 13.425 66.313 14.125 66.313C14.925 66.313 15.525 65.8129 16.325 66.0129C17.025 66.2129 17.725 65.6129 18.425 66.1129C18.525 66.2129 18.925 66.2129 19.125 66.1129C20.325 65.5129 21.725 65.713 23.025 65.213C23.825 64.9129 24.825 65.0129 25.625 65.1129C26.625 65.2129 27.525 64.8129 28.425 64.5129C28.525 64.5129 28.525 64.413 28.525 64.313C28.525 64.313 28.525 64.213 28.425 64.213C27.425 64.213 26.525 63.8129 25.525 64.1129C24.125 64.4129 22.725 64.1129 21.325 64.0129C21.025 64.0129 20.825 63.7129 20.525 63.6129H20.725H20.625C20.525 63.4129 20.225 63.2129 20.325 63.1129C20.525 62.5129 21.225 62.113 21.725 62.313C21.825 62.313 21.825 62.4129 21.925 62.4129C22.125 62.5129 22.025 63.1129 22.425 62.7129C22.625 62.5129 22.625 62.2129 22.425 61.9129C22.225 61.7129 22.125 61.4129 22.025 61.1129C22.025 60.9129 22.125 60.6129 22.225 60.5129C22.325 60.4129 22.625 60.5129 22.825 60.6129C23.025 60.7129 23.125 61.0129 23.225 61.0129C23.425 61.0129 23.525 60.8129 23.725 60.6129C23.825 60.5129 24.025 60.313 24.025 60.313C24.525 60.613 25.025 60.3129 25.525 60.2129C26.725 60.9129 28.025 60.4129 29.225 60.7129C30.525 61.0129 31.825 61.413 33.025 61.813C33.525 62.013 33.825 61.913 34.225 61.813C34.925 61.713 35.725 61.813 36.425 61.813C37.525 61.913 38.625 62.1129 39.725 62.2129L39.825 62.1129C39.825 62.0129 39.825 61.9129 39.725 61.9129C38.525 61.4129 37.325 60.713 36.025 60.313C34.025 59.613 31.925 59.013 29.825 58.313C29.225 58.113 28.725 57.9129 28.125 57.6129C27.725 57.4129 27.325 57.1129 26.825 57.2129C25.425 57.2129 24.225 56.6129 22.925 56.4129C21.625 56.3129 20.325 55.7129 19.025 55.5129C18.325 55.4129 17.725 55.2129 17.025 55.2129C15.025 55.3129 13.025 55.0129 11.025 55.2129C10.425 55.3129 9.825 55.2129 9.225 55.1129C8.525 55.0129 7.925 54.9129 7.225 55.1129C6.725 55.3129 6.225 55.1129 5.625 55.1129C5.225 55.1129 4.825 55.0129 4.525 55.1129C4.125 55.2129 3.625 55.3129 3.325 55.6129C2.925 56.0129 3.325 56.4129 3.325 56.9129C3.325 57.6129 3.225 58.4129 3.925 59.0129C3.925 59.7129 3.925 60.3129 3.825 61.0129C3.825 61.1129 3.625 61.2129 3.425 61.2129C3.025 61.3129 2.625 61.3129 2.425 60.9129C2.125 60.5129 1.925 60.9129 1.725 61.0129C1.525 61.1129 1.225 61.1129 1.125 61.0129C1.025 60.8129 0.825001 60.3129 0.925001 60.2129C2.125 59.2129 1.725 57.9129 1.825 56.7129C1.825 56.1129 1.525 55.8129 0.925001 55.6129C0.225001 55.5129 -0.0750008 54.913 0.0249992 54.313C0.124999 53.413 -0.274999 52.3129 0.425001 51.5129C0.625001 49.5129 1.525 47.6129 1.825 45.6129C1.925 45.2129 2.025 44.9129 2.225 44.5129C2.825 42.9129 3.425 41.3129 3.925 39.6129C4.225 38.6129 4.325 37.5129 4.625 36.5129C4.725 36.1129 4.925 35.713 5.125 35.313C5.225 35.213 5.325 35.1129 5.325 35.0129C5.325 33.9129 5.325 32.713 6.225 31.813C6.425 30.713 6.925 29.8129 7.525 28.9129C7.725 28.6129 7.825 28.213 7.825 27.813C7.825 26.713 8.125 25.713 8.525 24.813C9.125 23.413 9.525 22.0129 9.725 20.5129C9.825 19.9129 9.925 19.313 10.225 18.813C11.225 16.413 11.825 13.813 12.225 11.313C12.425 10.313 12.625 9.41294 13.325 8.61294C13.325 8.71294 13.325 8.71296 13.325 8.81296C13.325 8.91296 13.325 8.91294 13.425 9.01294C13.425 8.91294 13.425 8.81295 13.325 8.71295C13.425 8.01295 13.425 7.41295 13.525 6.71295C13.625 6.31295 13.825 5.81294 14.225 5.61294C14.625 5.41294 14.725 5.11295 14.625 4.71295C14.525 4.41295 14.425 4.11293 14.325 3.91293C14.125 3.11293 14.625 2.61295 15.225 2.71295C15.425 2.71295 15.725 2.81296 15.825 2.81296C16.425 2.71296 16.925 2.51295 17.425 2.21295C17.825 2.01295 18.025 1.91295 18.425 2.21295C18.525 2.21295 18.725 2.21294 18.725 2.11294C18.825 1.81294 19.025 1.61294 19.325 1.51294C20.025 1.31294 20.625 1.21294 21.225 1.01294C21.825 0.912937 22.225 1.11294 22.625 1.51294C22.925 1.31294 23.125 1.01296 23.525 0.812956C23.725 0.712956 24.025 0.712956 24.125 0.812956C24.425 0.912956 24.625 1.31296 24.825 1.31296C25.025 1.31296 25.225 0.91295 25.425 0.71295C25.625 0.61295 25.825 0.512931 26.025 0.412931C27.325 0.312931 28.625 0.0129436 30.025 0.112944C31.625 0.212944 33.325 0.412937 34.925 0.0129375C35.425 -0.0870625 35.625 0.412956 35.825 0.812956C36.025 1.31296 36.325 1.31296 36.525 0.812956C36.725 0.312956 37.025 0.112944 37.525 0.112944C38.825 0.112944 40.025 0.21295 41.325 0.21295C41.425 0.21295 41.525 0.21295 41.525 0.21295C43.525 0.91295 45.725 1.21296 47.725 1.81296C48.325 2.01296 48.925 2.31294 49.625 2.51294C50.725 2.91294 51.725 3.61296 52.925 3.81296C53.225 3.91296 53.525 4.21293 53.825 4.41293C54.025 4.51293 54.225 4.81296 54.325 4.81296C55.525 4.61296 56.225 5.61295 57.025 6.21295C58.225 7.01295 59.225 8.01295 60.425 8.71295C60.825 8.91295 61.125 9.21294 61.425 9.61294C62.625 10.9129 63.825 12.0129 65.025 13.2129C65.225 13.4129 65.425 13.7129 65.525 13.9129C65.925 15.0129 66.525 15.913 67.225 16.813C67.925 17.613 67.925 18.0129 67.625 19.2129C67.525 19.5129 67.625 19.613 67.825 19.813C68.125 20.013 68.725 19.9129 68.825 19.6129C68.925 19.4129 69.025 19.2129 69.125 19.0129C69.225 18.6129 69.225 18.013 69.425 17.813C70.025 17.213 70.725 16.8129 71.425 16.4129C72.025 16.1129 72.725 15.9129 73.125 16.7129C73.225 16.813 73.425 16.8129 73.525 16.9129C73.425 17.3129 73.225 17.8129 72.725 17.9129C72.125 18.0129 71.625 18.413 71.125 18.7129C70.625 19.0129 70.225 19.4129 70.125 20.1129C70.025 20.6129 69.825 20.913 69.425 21.2129C69.225 21.313 69.025 21.6129 69.025 21.7129C69.225 22.6129 68.425 23.0129 68.225 23.7129C68.025 24.313 67.625 24.9129 67.325 25.5129C66.925 26.4129 66.425 27.2129 66.525 28.2129C66.025 30.0129 65.525 31.8129 64.925 33.6129C64.725 34.1129 64.625 34.6129 64.525 35.1129C64.225 36.7129 63.825 38.3129 63.425 39.9129C63.125 41.2129 62.925 42.513 62.625 43.813C62.425 44.713 62.125 45.7129 61.825 46.6129C61.425 47.7129 61.425 48.8129 61.325 49.9129C61.225 51.5129 61.125 53.2129 60.525 54.7129C60.425 54.8129 60.425 55.0129 60.425 55.1129C60.725 56.3129 60.325 57.313 59.725 58.313C59.425 58.713 59.525 59.1129 59.625 59.6129C59.825 60.4129 59.725 61.1129 59.225 61.7129C59.025 61.9129 58.925 62.2129 58.925 62.5129C58.925 63.3129 59.125 64.1129 59.125 65.0129C59.125 65.6129 59.525 66.013 59.925 66.313C60.625 66.813 61.325 67.3129 62.325 67.0129C63.225 66.7129 64.225 66.6129 65.025 66.0129C65.325 65.8129 65.725 65.6129 66.025 65.5129C67.625 65.0129 69.125 64.4129 70.725 63.9129C71.025 63.8129 71.425 63.813 71.825 63.813C71.925 63.813 72.125 63.913 72.225 63.813C73.925 62.813 75.825 63.0129 77.625 62.5129C79.025 62.1129 80.425 62.013 81.825 61.813C82.525 61.713 83.025 61.8129 83.425 62.4129C83.625 62.7129 83.825 62.7129 84.125 62.4129C84.925 61.4129 86.125 61.5129 87.225 61.6129C87.725 61.6129 88.125 62.1129 88.625 61.5129C88.725 61.4129 88.925 61.4129 89.025 61.4129C89.725 61.7129 90.525 61.5129 91.225 61.4129C91.625 61.3129 91.825 61.6129 91.825 61.9129C91.825 62.3129 91.725 62.8129 91.725 63.2129C91.325 63.3129 90.825 63.5129 90.425 63.4129C89.825 63.3129 89.225 62.813 88.625 63.313C88.125 63.113 87.625 62.913 87.225 62.813C86.925 62.713 86.625 62.8129 86.425 63.1129C86.225 63.5129 86.025 63.7129 85.525 63.7129C84.425 63.6129 83.425 63.8129 82.425 64.1129C82.125 64.2129 81.725 64.313 81.325 64.313C79.925 64.313 78.525 64.7129 77.125 65.1129C76.325 65.3129 75.525 65.3129 74.725 65.4129C74.725 65.4129 74.625 65.5129 74.625 65.6129L74.725 65.713C76.025 65.213 77.325 65.613 78.625 65.213C79.425 65.013 80.225 65.1129 81.125 65.0129C81.825 64.9129 82.225 65.213 82.625 65.713C82.925 66.113 83.325 66.0129 83.225 65.4129C83.225 65.3129 83.225 65.213 83.325 65.213C83.725 65.113 84.025 65.0129 84.425 65.0129C84.825 64.9129 85.025 65.2129 85.225 65.6129C85.325 65.8129 85.625 65.8129 85.725 65.6129C85.925 65.5129 86.025 65.113 86.125 65.213C86.825 65.4129 87.425 65.213 88.125 65.213C88.725 65.213 89.425 65.5129 90.125 65.4129C90.825 66.1129 91.625 65.713 92.425 65.713C93.025 65.713 93.625 65.9129 94.125 66.0129C95.125 66.1129 95.325 66.4129 95.425 67.5129C95.425 67.9129 95.125 68.2129 94.825 68.0129C94.225 67.5129 93.425 67.6129 92.725 67.4129C92.125 67.3129 91.525 67.313 90.925 67.313C89.625 67.213 89.625 67.2129 88.525 66.5129C88.425 66.6129 88.325 66.813 88.225 66.813C86.925 66.613 85.725 66.8129 84.525 66.9129C83.825 67.0129 83.225 66.813 82.525 66.813C82.225 66.813 81.925 66.9129 81.725 67.0129C81.225 67.2129 80.725 67.213 80.325 66.713C80.025 66.4129 79.825 66.513 79.625 66.813C79.325 67.313 78.925 67.4129 78.525 67.4129C76.625 67.7129 74.625 67.6129 72.725 67.4129C72.425 67.4129 72.225 67.2129 71.925 67.0129C71.725 66.9129 71.425 66.5129 71.325 66.5129C71.025 66.6129 71.225 67.013 71.225 67.313C71.225 67.413 71.125 67.513 71.025 67.713C71.025 67.713 70.925 67.813 70.825 67.713C69.325 67.513 68.025 68.213 66.625 68.313C66.025 68.313 65.525 68.7129 64.925 68.5129C64.725 68.4129 64.425 68.713 64.125 68.813C63.625 69.013 63.225 69.3129 62.725 69.5129C62.125 69.7129 62.025 69.7129 61.625 69.1129C61.525 69.0129 61.525 68.813 61.425 68.713C61.325 68.813 61.325 69.0129 61.225 69.1129C61.125 69.3129 61.225 69.613 61.025 69.713C60.925 69.813 60.625 70.0129 60.525 69.9129C60.225 69.8129 60.025 69.6129 59.825 69.4129C59.325 69.0129 59.325 68.6129 59.825 68.0129C59.925 67.9129 60.025 67.813 60.125 67.713C60.125 67.613 60.125 67.413 60.025 67.313C59.625 67.213 59.325 67.1129 58.925 67.0129C58.625 66.9129 58.525 67.013 58.425 67.313C58.325 67.913 58.025 68.4129 57.625 68.9129C57.325 69.3129 56.825 69.413 56.425 69.313C56.025 69.113 55.725 68.813 55.625 68.313C55.625 67.913 55.725 67.4129 55.725 67.0129C55.725 66.3129 55.425 66.1129 54.725 66.4129C54.625 66.4129 54.425 66.5129 54.325 66.6129C54.325 66.5129 54.325 66.5129 54.325 66.4129C54.425 65.4129 54.425 65.413 55.425 65.313C55.925 65.313 56.325 65.0129 56.425 64.6129C56.525 64.2129 56.625 63.713 56.625 63.313C56.625 62.813 56.525 62.2129 56.625 61.7129C57.025 60.0129 57.425 58.3129 57.825 56.7129C57.925 56.2129 58.125 55.7129 58.225 55.2129C58.525 53.6129 58.825 51.913 59.125 50.313C59.525 48.613 59.425 46.913 60.225 45.313C60.025 44.513 60.425 43.8129 60.725 43.2129C60.825 42.9129 60.925 42.613 60.925 42.313C60.925 40.413 61.425 38.613 61.925 36.813C62.325 35.513 62.825 34.2129 63.025 32.9129C63.425 30.8129 64.225 28.9129 64.825 26.9129C64.925 26.6129 65.125 26.3129 65.125 26.1129C65.125 25.2129 65.425 24.3129 65.925 23.6129C66.525 22.8129 66.525 21.9129 66.725 21.1129C66.925 20.2129 66.725 19.413 65.925 18.7129C65.325 18.1129 65.025 17.213 64.125 16.813C63.925 16.713 63.725 16.3129 63.525 16.1129C62.325 14.6129 61.025 13.113 59.525 11.813C58.525 11.013 57.525 10.2129 56.525 9.41293C54.825 7.91293 52.725 7.01295 50.825 5.71295C49.425 5.41295 48.325 4.41296 46.825 4.31296C46.425 4.31296 45.925 4.11294 45.525 4.01294C44.225 3.61294 42.925 3.21296 41.625 2.81296C41.525 2.81296 41.425 2.41296 41.425 2.31296V2.21295L41.325 2.31296C40.925 2.41296 40.525 2.61294 40.225 2.51294C38.825 2.01294 37.425 3.01296 36.025 2.31296C35.825 2.21296 35.625 2.41294 35.425 2.51294C34.725 2.81294 34.025 2.61295 33.525 2.21295C33.025 1.71295 32.725 1.91293 32.325 2.41293C32.125 2.61293 31.825 2.71295 31.525 2.71295C30.025 2.81295 28.525 2.81296 27.025 2.81296C25.525 2.81296 24.025 3.21294 22.525 3.11294C21.625 3.11294 20.625 3.31295 19.725 3.71295C19.125 3.91295 18.625 4.11295 18.025 4.21295C17.325 4.31295 16.725 4.41294 16.025 4.61294C15.725 4.71294 15.525 4.91296 15.625 5.31296C15.725 5.71296 15.825 6.01293 15.825 6.41293C15.825 6.71293 15.625 6.91293 15.225 6.91293C15.625 8.31293 15.525 9.71294 15.225 11.1129C15.125 11.7129 14.825 12.1129 14.125 12.0129C13.725 12.0129 13.625 12.3129 13.525 12.6129C13.125 14.0129 13.025 15.4129 12.525 16.7129C12.125 17.7129 12.025 18.7129 11.925 19.7129C11.725 20.6129 11.525 21.6129 11.125 22.5129C10.625 23.4129 10.825 24.413 10.625 25.313C10.525 25.713 10.425 26.0129 10.225 26.4129C9.825 27.0129 9.925 27.9129 9.225 28.4129C8.525 29.0129 9.125 30.013 8.825 30.813C8.725 30.913 8.725 31.1129 8.725 31.2129C8.225 32.713 7.325 34.0129 7.325 35.6129C7.325 35.7129 7.225 35.9129 7.125 36.0129C6.625 36.5129 6.625 37.2129 6.525 37.9129C6.325 38.9129 6.125 39.813 5.925 40.813C5.625 42.113 5.125 43.4129 4.825 44.7129C4.425 46.3129 3.925 47.9129 3.525 49.5129C3.225 50.4129 2.925 51.3129 2.425 52.2129C2.025 52.9129 2.625 53.7129 3.425 53.5129C4.025 53.4129 4.625 53.4129 5.225 53.4129C6.325 53.4129 7.425 53.4129 8.525 53.4129C10.125 53.3129 11.625 53.3129 13.225 53.4129C14.825 53.4129 16.525 53.3129 18.125 53.5129C18.925 53.6129 19.825 53.4129 20.425 54.2129C20.525 54.3129 20.825 54.313 21.025 54.313C21.625 54.413 22.225 54.4129 22.825 54.5129C24.225 54.8129 25.525 55.313 27.025 55.313C27.225 55.313 27.525 55.3129 27.725 55.4129C29.025 56.2129 30.625 56.2129 31.925 56.9129C32.325 57.1129 32.725 57.213 33.225 57.313C37.325 58.513 37.325 58.5129 42.025 61.0129C42.225 61.1129 42.425 61.0129 42.625 61.1129C43.825 61.4129 45.025 62.013 46.025 62.813C46.625 63.313 47.025 63.8129 47.925 63.6129C48.325 63.5129 48.625 63.7129 48.925 64.0129C49.125 64.2129 49.425 64.3129 49.725 64.4129C49.825 64.5129 49.825 64.713 49.925 64.813L50.025 64.713C49.925 64.613 49.825 64.5129 49.725 64.4129C49.925 64.3129 50.125 64.113 50.325 64.213C51.225 64.4129 52.225 64.513 53.125 64.813C53.325 64.913 53.525 65.2129 53.625 65.4129C53.725 65.7129 53.525 66.1129 53.525 66.5129C53.525 67.0129 53.925 67.1129 54.225 67.1129C54.225 67.5129 54.225 67.813 54.325 68.213C54.425 68.713 54.325 69.4129 54.625 69.713C55.025 70.213 55.725 70.4129 56.325 70.6129C56.725 70.8129 57.125 70.9129 57.625 71.0129C57.925 71.1129 58.025 70.9129 58.025 70.6129C58.025 70.4129 58.125 70.2129 58.225 70.0129C58.325 69.9129 58.525 69.8129 58.625 69.9129C58.725 69.9129 58.925 70.013 58.925 70.213C59.025 70.4129 59.025 70.613 59.025 70.813C59.025 71.213 58.825 71.713 59.025 71.813C59.425 72.213 59.825 72.6129 60.525 72.5129C60.525 73.1129 60.525 73.713 60.525 74.313C60.525 74.713 60.025 75.213 59.625 75.213C59.225 75.213 58.925 75.013 58.725 74.713C58.525 74.4129 58.525 73.7129 58.125 74.0129C57.125 74.5129 56.525 74.1129 55.925 73.5129C55.225 72.9129 54.625 72.7129 53.625 73.0129C53.025 73.2129 52.325 73.113 51.625 73.213C50.325 73.313 49.225 72.8129 48.625 71.6129C48.225 70.8129 47.625 70.4129 46.725 70.213C46.025 70.113 45.425 69.813 44.725 69.713C43.225 69.313 41.725 68.8129 40.125 69.0129C39.725 69.1129 39.225 69.013 38.825 68.813C37.225 68.313 35.525 67.9129 33.725 67.9129C32.925 67.9129 32.125 67.4129 31.325 67.6129C30.725 67.7129 30.125 67.4129 29.625 67.9129C29.525 68.0129 29.125 68.0129 29.025 67.9129C28.025 67.4129 27.125 67.8129 26.125 67.9129C25.125 68.0129 24.225 68.213 23.225 67.813C23.025 67.713 22.625 67.8129 22.325 67.9129C21.925 68.0129 21.625 68.313 21.325 68.313C20.625 68.413 19.825 68.1129 19.125 68.4129C18.525 68.6129 17.825 68.8129 17.225 68.9129C15.425 69.3129 13.525 69.2129 11.625 69.5129C11.025 69.6129 10.825 69.313 10.625 68.813C10.425 68.413 10.325 68.4129 9.925 69.0129C9.625 69.1129 9.225 69.3129 8.925 69.4129C8.525 69.5129 8.425 68.5129 7.825 69.0129C7.525 69.2129 7.425 69.613 7.125 69.813C7.025 69.913 6.725 69.9129 6.525 69.9129C6.425 69.9129 6.325 69.7129 6.225 69.6129C6.225 69.2129 6.125 68.9129 6.225 68.5129C6.325 67.9129 6.025 67.513 5.425 67.313C4.425 67.113 4.025 66.4129 3.725 65.4129C3.625 64.9129 3.825 64.5129 4.025 64.1129C5.025 64.0129 4.925 63.1129 5.325 62.5129C5.625 62.6129 5.725 62.9129 5.825 63.1129C5.925 63.3129 5.925 63.5129 6.225 63.5129C7.125 63.4129 7.225 64.213 7.625 64.713C7.125 64.713 6.525 64.0129 6.025 64.6129C5.625 65.1129 6.225 65.713 6.225 66.313C6.225 66.413 6.425 66.5129 6.625 66.5129C6.725 66.5129 6.925 66.5129 7.025 66.4129C7.225 65.9129 7.525 65.313 7.725 64.813C9.025 64.913 9.125 65.813 8.925 66.713C8.925 66.813 8.825 66.813 8.825 66.813V66.9129C8.825 66.8129 8.925 66.813 8.925 66.713ZM50.925 67.6129C50.825 67.6129 50.825 67.6129 50.725 67.5129C50.825 67.6129 50.925 67.6129 50.925 67.6129ZM24.725 62.0129C24.725 61.7129 24.325 61.5129 24.125 61.6129C23.725 61.7129 23.425 62.1129 23.525 62.4129C23.625 62.6129 23.825 62.9129 24.125 62.9129C24.325 62.9129 24.725 62.4129 24.725 62.0129ZM52.825 67.213C52.725 67.113 52.525 67.0129 52.325 67.0129C52.225 67.0129 52.025 67.1129 51.925 67.1129C51.925 67.1129 51.825 67.313 51.925 67.313C52.025 67.513 52.225 67.613 52.325 67.813H52.525C52.625 67.713 52.625 67.513 52.825 67.213ZM53.725 68.813C53.625 68.713 53.625 68.6129 53.525 68.5129C53.525 68.5129 53.425 68.5129 53.325 68.5129C53.425 68.6129 53.425 68.713 53.525 68.813C53.625 68.813 53.725 68.813 53.725 68.813ZM7.525 67.0129L7.625 66.9129L7.525 66.813V67.0129Z" fill="#F9F6EE"/>
<path fill-rule="evenodd" clip-rule="evenodd" d="M116.825 36.1129C116.925 36.0129 117.225 36.0129 117.225 35.9129C117.525 35.2129 118.025 34.5129 117.325 33.7129C117.125 33.5129 117.125 33.1129 117.225 32.9129C117.625 32.2129 117.625 31.3129 117.825 30.5129C117.925 30.1129 118.125 29.6129 118.225 29.2129C118.425 28.4129 118.925 27.9129 119.625 27.6129C120.025 27.4129 120.225 27.5129 120.425 28.0129C120.425 28.1129 120.425 28.3129 120.425 28.4129C120.125 28.9129 119.925 29.4129 120.425 29.9129C120.925 30.3129 120.825 31.0129 120.725 31.5129C120.725 31.9129 120.625 32.3129 120.225 32.3129C120.025 32.3129 119.725 32.1129 119.425 31.9129C119.425 31.6129 119.425 31.3129 119.425 31.0129C119.425 30.8129 119.425 30.6129 119.325 30.3129C119.225 29.9129 118.925 29.6129 118.825 29.8129C118.725 29.9129 118.625 30.2129 118.725 30.3129C119.025 30.8129 118.825 31.3129 118.525 31.7129H118.425C118.425 31.7129 118.525 31.7129 118.525 31.6129C118.825 31.6129 119.125 31.6129 119.425 31.6129C119.425 32.1129 119.225 32.6129 119.625 33.1129C119.825 33.3129 119.825 33.5129 120.025 33.7129C120.425 34.2129 120.325 34.8129 120.325 35.4129C120.225 36.0129 119.825 36.3129 119.425 36.6129C119.425 36.4129 119.425 36.2129 119.425 35.9129C119.425 35.7129 119.225 35.5129 119.125 35.4129C119.125 35.4129 118.825 35.5129 118.825 35.6129C118.625 35.9129 118.625 36.2129 118.925 36.4129C119.125 36.5129 119.325 36.5129 119.525 36.6129C119.225 37.2129 119.025 37.9129 119.225 38.6129C119.325 39.1129 119.725 39.6129 118.925 39.8129C118.825 39.8129 118.825 40.2129 118.825 40.4129C118.725 41.5129 118.425 42.5129 117.825 43.5129C117.525 44.0129 117.225 44.0129 116.825 43.5129C116.725 43.4129 116.825 42.9129 116.525 43.3129C116.325 43.5129 116.225 43.9129 116.325 44.1129C116.425 44.3129 116.725 44.5129 116.925 44.7129C117.425 45.2129 117.625 45.7129 117.225 46.3129C116.925 46.7129 116.725 47.2129 116.725 47.8129C116.625 48.4129 116.625 49.0129 116.425 49.6129C115.925 50.9129 115.825 52.2129 115.925 53.5129C115.925 53.9129 116.025 54.3129 115.925 54.6129C115.225 56.1129 115.525 57.8129 115.025 59.4129C114.925 59.8129 114.625 60.1129 114.525 60.4129C114.425 60.7129 114.225 61.1129 114.225 61.5129C114.425 63.1129 113.725 64.5129 113.325 66.0129C113.425 66.2129 113.625 66.4129 113.625 66.5129C113.325 67.3129 113.125 68.1129 113.025 68.9129C113.025 69.2129 112.825 69.5129 112.625 69.7129C111.925 70.2129 112.125 71.1129 111.825 71.7129C112.225 72.8129 111.225 73.7129 111.525 74.8129C111.525 75.0129 111.325 75.4129 111.125 75.6129C110.725 76.3129 110.325 77.1129 109.725 77.6129C109.125 78.2129 108.825 78.7129 108.825 79.5129C108.825 79.9129 108.325 80.2129 108.025 80.0129C106.725 79.0129 104.825 79.2129 103.525 78.1129C103.125 77.8129 102.525 77.7129 102.025 77.5129C101.325 77.2129 100.625 77.0129 100.125 76.4129C99.825 76.1129 99.325 76.0129 98.925 76.3129C98.425 76.7129 97.825 76.7129 97.225 76.5129C96.125 76.2129 95.025 75.9129 94.025 75.6129C93.825 75.6129 93.725 75.3129 93.725 75.1129C93.625 74.9129 93.725 74.7129 93.725 74.4129C93.725 73.9129 94.025 73.7129 94.425 73.8129C95.725 74.1129 97.025 74.4129 98.325 74.6129C99.825 74.8129 101.225 75.4129 102.625 75.7129C103.125 75.8129 103.525 76.1129 104.025 76.4129C104.625 76.7129 105.225 77.1129 105.825 77.4129C106.225 77.6129 106.625 77.5129 106.825 77.2129C107.325 76.4129 107.825 75.6129 107.825 74.6129V74.7129C108.425 74.8129 108.925 75.0129 109.525 75.1129C109.625 75.1129 109.825 74.8129 109.925 74.6129C109.925 74.5129 109.825 74.2129 109.825 74.2129C109.125 74.1129 109.025 73.7129 109.025 73.1129C109.025 72.7129 108.725 72.6129 108.425 72.8129C108.225 72.9129 107.925 73.0129 107.825 72.8129C107.725 71.8129 106.625 71.8129 106.125 71.2129C105.625 70.6129 104.925 70.1129 104.225 69.6129C103.825 69.3129 103.325 69.0129 102.925 68.7129C102.525 68.3129 102.325 67.6129 101.825 67.3129C101.325 67.0129 100.725 67.0129 100.125 66.7129C98.625 65.9129 97.025 65.2129 95.725 64.1129C95.425 63.9129 95.025 63.8129 94.625 63.9129C94.325 64.0129 94.025 63.9129 93.725 63.9129C92.825 63.8129 92.525 63.1129 93.125 62.3129C93.225 62.1129 93.625 61.8129 93.825 61.9129C94.525 62.1129 95.325 62.1129 96.025 62.2129C96.825 62.3129 97.625 62.6129 98.225 63.2129C99.225 64.1129 100.425 64.7129 101.625 65.3129C102.725 65.8129 103.625 66.6129 104.625 67.2129C105.025 67.4129 105.325 67.8129 105.725 68.0129C106.425 68.4129 106.925 68.9129 107.225 69.6129C107.525 70.4129 108.325 70.6129 108.925 71.0129C108.925 71.0129 109.225 70.9129 109.225 70.8129C109.325 70.5129 109.425 70.2129 109.425 69.9129C109.425 68.8129 109.825 68.0129 111.025 67.8129C111.425 67.7129 111.525 67.2129 111.125 67.0129C110.725 66.7129 110.425 66.3129 110.525 65.9129C110.725 64.4129 110.825 62.9129 111.125 61.4129C111.625 59.1129 111.825 56.7129 112.225 54.3129C112.325 53.5129 112.525 52.7129 112.625 51.9129C112.825 50.9129 113.025 50.0129 113.825 49.3129C113.925 49.2129 113.925 48.9129 113.925 48.6129H114.025L113.925 48.7129C113.825 48.6129 113.725 48.5129 113.725 48.4129C113.825 47.4129 113.925 46.5129 113.925 45.5129C113.925 44.8129 113.925 44.2129 114.525 43.6129C114.625 43.5129 114.625 43.2129 114.525 43.0129C114.225 42.3129 115.325 42.3129 115.125 41.7129C115.025 41.3129 115.125 40.8129 115.125 40.4129C115.225 39.9129 115.325 39.4129 115.325 38.8129C115.425 38.0129 115.625 37.4129 116.425 36.9129C116.825 36.7129 116.825 36.3129 116.825 36.1129ZM116.625 40.4129C116.725 40.8129 116.825 41.4129 117.025 41.9129C117.025 42.0129 117.225 42.1129 117.325 42.1129C117.425 42.1129 117.525 41.9129 117.525 41.9129C117.525 40.9129 117.525 40.0129 118.025 39.1129C118.225 38.8129 118.025 38.4129 117.825 38.1129C117.625 37.8129 117.325 37.9129 117.125 38.1129C116.625 38.7129 116.925 39.5129 116.625 40.4129ZM111.525 69.5129C111.425 69.4129 111.325 69.3129 111.225 69.3129C111.025 69.3129 110.825 69.8129 110.925 70.0129C110.925 70.1129 111.025 70.1129 111.125 70.1129C111.325 70.2129 111.625 69.8129 111.525 69.5129ZM115.225 48.9129C115.225 48.8129 115.325 48.7129 115.325 48.7129H115.225C115.125 48.7129 115.125 48.8129 115.225 48.9129Z" fill="#F9F6EE"/>
<path fill-rule="evenodd" clip-rule="evenodd" d="M89.725 71.2129C89.325 71.3129 88.925 71.5129 88.425 71.6129C88.025 71.7129 87.525 71.6129 87.125 71.6129C86.025 71.6129 84.925 71.5129 83.725 71.5129C82.625 71.5129 81.525 71.6129 80.425 71.7129C79.325 71.7129 78.225 71.4129 77.125 71.5129C76.025 71.6129 74.925 71.6129 73.825 71.5129C72.625 71.4129 71.325 72.0129 70.025 71.2129C69.925 71.1129 69.525 71.2129 69.425 71.3129C68.325 72.0129 67.125 71.7129 65.925 71.9129C65.525 72.0129 65.025 71.5129 64.525 71.3129L64.425 71.2129C64.425 70.9129 64.425 70.7129 64.425 70.4129L64.525 70.3129C65.025 70.3129 65.525 70.2129 66.125 70.3129C66.425 70.3129 66.625 70.6129 66.825 70.7129C67.225 71.0129 67.325 70.8129 67.425 70.4129C67.525 70.1129 67.625 69.8129 67.925 69.8129C69.125 69.7129 70.225 69.1129 71.425 69.6129C72.625 69.2129 73.825 69.5129 75.025 69.4129C76.825 69.3129 78.625 69.3129 80.425 69.3129C81.025 69.3129 81.625 69.3129 82.125 69.6129C82.425 69.8129 82.825 69.8129 83.225 69.6129C83.625 69.4129 84.025 69.2129 84.525 69.2129C86.525 69.2129 88.525 69.3129 90.625 69.4129C90.925 69.4129 91.125 69.6129 91.325 69.9129C91.625 70.3129 91.825 70.1129 91.925 69.8129C92.125 69.5129 92.325 69.4129 92.625 69.5129C92.925 69.6129 93.125 69.8129 93.425 69.8129C95.725 69.8129 97.725 70.7129 99.825 71.6129C100.525 71.9129 101.225 72.0129 102.025 72.2129C102.125 72.2129 102.225 72.2129 102.225 72.1129C102.225 72.0129 102.225 71.8129 102.225 71.7129C101.425 71.3129 100.725 70.7129 100.125 70.0129C99.625 69.4129 98.825 69.2129 98.125 69.1129C97.525 69.0129 97.125 68.7129 96.825 68.3129C96.725 68.2129 96.725 67.9129 96.725 67.7129C96.725 67.5129 96.825 67.3129 97.125 67.4129C97.425 67.5129 97.825 67.3129 98.225 67.6129C98.825 68.0129 99.525 68.4129 100.125 68.8129C101.225 68.6129 101.825 69.2129 102.325 70.0129C102.425 70.2129 102.725 70.3129 102.825 70.4129C103.425 70.8129 103.825 71.2129 104.125 71.9129C104.425 72.6129 104.925 73.1129 105.625 73.4129C106.425 73.8129 107.325 74.1129 107.925 74.8129V74.7129C107.225 75.3129 106.525 75.9129 106.425 76.8129C106.425 76.8129 106.125 76.9129 106.025 76.8129C105.825 76.6129 105.625 76.4129 105.525 76.1129C105.225 75.1129 104.325 74.7129 103.525 74.6129C102.625 74.5129 101.725 74.3129 101.025 73.8129C100.325 73.4129 99.325 73.5129 98.925 72.6129C98.925 72.5129 98.625 72.4129 98.525 72.5129C96.825 73.1129 95.425 71.8129 93.725 71.9129C92.925 71.5129 92.125 71.6129 91.325 71.5129C90.725 71.6129 90.225 71.4129 89.725 71.2129Z" fill="#F9F6EE"/>
<path fill-rule="evenodd" clip-rule="evenodd" d="M109.625 15.713C109.225 16.013 108.825 16.513 108.325 16.513C107.725 16.613 107.025 16.5129 106.325 16.4129C104.625 16.1129 102.925 15.813 101.325 15.113C100.625 14.813 99.725 15.113 99.225 14.513C98.925 14.013 98.725 14.213 98.425 14.513C98.225 14.713 97.925 14.813 97.625 14.813C96.925 14.813 96.125 14.913 95.425 14.813C94.525 14.713 93.625 14.813 92.725 14.813C91.125 14.813 89.625 14.8129 88.025 14.9129C87.125 14.9129 86.225 15.013 85.325 15.013C84.425 15.113 83.625 15.413 82.725 15.313C82.025 15.913 81.125 15.513 80.325 15.813C78.825 16.313 77.225 16.413 75.825 17.013C75.125 17.313 74.525 17.313 73.825 17.113C73.725 16.913 73.625 16.713 73.625 16.513C73.425 16.013 73.525 15.713 73.925 15.613C74.025 15.513 74.225 15.5129 74.325 15.4129C76.025 15.0129 77.625 14.513 79.325 14.113C79.825 14.013 80.325 13.913 80.825 14.313C81.125 14.513 81.325 14.413 81.625 14.213C82.325 13.613 83.225 13.2129 84.125 13.4129C84.825 13.5129 85.425 12.813 86.025 13.113C86.725 13.413 87.125 13.013 87.725 13.013C88.525 13.013 89.325 12.913 90.225 13.013C91.525 13.113 92.925 12.913 94.225 13.113C95.325 13.313 96.625 13.213 97.825 13.113C98.925 13.013 100.025 12.7129 101.025 13.4129C101.725 13.2129 102.325 13.413 103.025 13.613C103.825 13.913 104.825 14.013 105.325 14.813C105.425 14.913 105.625 15.0129 105.725 14.9129C106.325 14.5129 106.925 14.5129 107.425 14.9129C107.925 15.2129 108.425 14.913 108.925 15.113C109.225 15.113 109.625 15.313 109.625 15.713Z" fill="#F9F6EE"/>
<path fill-rule="evenodd" clip-rule="evenodd" d="M95.625 47.9129C95.625 47.6129 95.625 47.3129 95.525 47.0129C95.525 46.6129 95.525 46.5129 96.025 46.5129C96.325 46.5129 96.625 46.4129 96.825 46.4129C97.125 46.5129 97.325 46.713 97.625 46.713C98.525 46.613 99.325 46.8129 100.225 46.5129C100.525 46.4129 101.125 46.613 101.525 46.813C102.325 47.313 103.125 47.513 104.025 47.713C104.325 47.813 104.625 47.9129 104.825 48.1129C105.925 49.1129 105.925 49.1129 105.525 50.6129C105.325 51.4129 105.125 52.2129 104.825 52.9129C104.525 53.5129 104.225 54.213 104.325 54.813C104.425 56.013 103.725 56.413 102.825 56.713C102.925 56.813 103.125 57.0129 103.325 57.1129C103.525 57.2129 103.825 57.1129 103.625 57.5129C103.325 58.0129 102.725 58.4129 103.025 59.1129C103.025 59.1129 102.825 59.313 102.725 59.313C102.225 59.013 101.925 59.213 101.725 59.713C101.625 60.013 101.225 60.013 101.025 59.713C100.925 59.513 100.825 59.3129 100.725 59.1129C100.725 58.4129 100.425 58.0129 99.625 58.0129C99.225 58.0129 98.825 57.7129 98.425 57.5129C97.825 57.2129 97.825 56.9129 98.325 56.6129C98.725 56.3129 99.025 56.013 99.525 56.213C100.425 56.513 100.925 56.0129 101.425 55.4129V55.313L101.325 55.4129C101.025 55.2129 100.925 54.9129 101.125 54.6129C101.525 53.8129 101.825 53.0129 102.025 52.1129C102.125 51.3129 101.925 50.8129 101.225 50.4129C100.425 49.9129 99.525 49.4129 98.725 49.0129C98.525 48.9129 98.125 48.8129 97.925 48.9129C96.925 49.2129 96.225 48.6129 95.625 47.9129ZM103.425 49.6129C103.425 49.7129 103.425 49.813 103.425 49.813C103.525 49.913 103.725 49.913 103.725 49.713C103.725 49.713 103.625 49.6129 103.625 49.5129C103.625 49.6129 103.525 49.6129 103.425 49.6129ZM103.625 53.1129C103.625 53.0129 103.625 53.0129 103.625 52.9129H103.525C103.525 53.0129 103.525 53.0129 103.525 53.1129C103.425 53.1129 103.525 53.1129 103.625 53.1129Z" fill="#F9F6EE"/>
<path fill-rule="evenodd" clip-rule="evenodd" d="M72.525 73.4129C72.525 73.1129 72.425 72.813 72.825 72.713C73.025 72.713 73.325 72.6129 73.525 72.6129C74.825 72.8129 76.225 72.9129 77.525 72.6129C77.825 72.6129 78.125 72.813 78.425 72.813C78.625 72.813 78.825 72.813 79.025 72.713C79.425 72.613 79.725 72.4129 80.125 72.4129C81.825 72.5129 83.525 72.313 85.225 72.713C85.425 72.713 85.725 72.813 85.825 72.713C86.725 72.213 87.525 72.513 88.425 72.713C89.525 73.113 90.525 73.313 91.725 73.313C92.225 73.313 92.725 73.5129 93.125 73.9129C93.525 74.3129 93.325 75.013 92.925 75.213C92.325 75.4129 91.625 75.613 91.225 75.213C90.425 74.513 89.325 75.113 88.525 74.313C88.425 74.213 88.225 74.3129 88.125 74.4129C87.825 74.5129 87.525 74.7129 87.325 74.6129C85.425 74.2129 83.425 74.5129 81.525 74.4129C79.825 74.4129 78.225 74.4129 76.525 74.4129C75.825 74.4129 75.025 74.0129 74.325 74.1129C73.425 74.3129 73.125 73.4129 72.525 73.4129Z" fill="#F9F6EE"/>
<path fill-rule="evenodd" clip-rule="evenodd" d="M82.925 44.5129C82.525 44.4129 82.025 44.3129 81.625 44.0129C80.525 43.2129 79.425 43.2129 78.225 43.4129C77.825 43.5129 77.525 43.7129 77.125 43.4129C77.025 43.3129 76.625 43.3129 76.525 43.4129C75.825 43.9129 75.125 44.113 74.325 44.313C73.525 44.513 72.925 45.1129 72.125 45.4129C71.225 45.9129 70.225 45.9129 69.325 45.4129C69.125 45.3129 69.025 44.913 69.125 44.613C69.325 44.213 69.525 43.813 70.025 43.713C70.925 43.613 71.725 43.313 72.525 42.813C72.825 42.713 73.125 42.613 73.425 42.613C75.125 42.513 76.825 42.213 78.525 42.113C79.225 42.113 79.925 42.713 80.525 42.113C80.625 42.013 80.825 42.113 80.925 42.213C81.725 42.913 82.725 42.913 83.625 43.213C83.925 43.313 84.225 43.413 84.125 43.813C84.125 44.113 83.825 44.3129 83.525 44.4129C83.525 44.4129 83.325 44.4129 82.925 44.5129Z" fill="#F9F6EE"/>
<path fill-rule="evenodd" clip-rule="evenodd" d="M109.625 15.713C110.225 15.413 110.825 15.0129 111.325 15.8129C112.725 16.5129 114.125 17.2129 115.525 17.9129C116.125 18.2129 116.825 18.4129 116.925 19.2129C116.925 19.3129 117.225 19.5129 117.425 19.6129C118.425 19.6129 119.125 20.3129 119.725 21.0129C120.125 21.5129 120.625 22.0129 121.125 22.4129C121.225 22.5129 121.325 22.8129 121.225 23.0129C121.225 23.3129 120.925 23.2129 120.725 23.3129C119.725 23.6129 118.925 23.2129 118.525 22.3129C118.325 21.8129 117.925 21.5129 117.525 21.2129C117.025 21.0129 116.625 20.7129 116.225 20.5129C115.825 20.2129 115.325 20.0129 114.925 19.6129C114.425 19.2129 113.825 18.9129 113.125 18.8129C112.825 18.7129 112.525 18.4129 112.125 18.3129C111.725 18.1129 112.125 17.3129 111.425 17.5129C110.925 17.7129 110.625 17.2129 110.225 17.0129C109.325 16.7129 109.425 16.613 109.625 15.713ZM113.625 18.3129V18.1129L113.425 18.2129L113.625 18.3129Z" fill="#F9F6EE"/>
<path fill-rule="evenodd" clip-rule="evenodd" d="M85.225 20.213C84.925 20.613 84.625 21.013 84.025 21.213C83.425 21.413 82.925 21.713 82.325 21.813C81.425 22.113 80.525 22.213 79.725 21.613C79.525 21.413 79.125 21.3129 78.925 21.4129C77.925 21.7129 76.925 22.013 75.925 22.313C75.625 22.413 75.225 22.713 74.925 22.813C74.325 22.913 74.025 23.213 73.925 23.813C73.925 23.913 73.725 24.113 73.725 24.213C73.525 24.513 73.125 24.413 73.025 24.213C72.725 23.713 72.725 23.313 73.125 23.013C73.725 22.713 74.225 22.313 74.625 21.713C74.825 21.413 75.225 21.113 75.525 21.113C76.225 21.113 76.625 20.613 77.125 20.313C78.225 19.813 79.325 19.913 80.425 19.813C80.825 20.213 81.225 20.313 81.825 20.113C82.325 20.013 82.825 20.013 83.325 20.113C83.725 20.213 83.825 20.013 84.125 19.813C84.625 19.413 84.625 19.4129 85.125 19.9129C85.125 20.2129 85.225 20.213 85.225 20.213Z" fill="#F9F6EE"/>
<path fill-rule="evenodd" clip-rule="evenodd" d="M80.025 36.713C79.025 36.713 78.325 36.713 77.625 36.713C77.125 36.713 76.625 36.813 76.125 37.113C75.625 37.413 75.025 37.513 74.425 37.713C74.225 37.713 73.925 37.6129 73.825 37.513C73.725 37.313 73.725 37.1129 73.725 36.9129C73.925 36.3129 74.225 35.813 74.925 35.613C75.525 35.413 76.125 35.213 76.625 35.213C78.225 35.413 79.725 34.913 81.225 35.013C82.225 35.1129 83.125 35.113 84.025 35.613C84.125 35.713 84.325 35.9129 84.225 35.9129C84.125 36.1129 84.025 36.313 83.825 36.313C82.725 36.813 81.225 36.913 80.025 36.713Z" fill="#F9F6EE"/>
<path fill-rule="evenodd" clip-rule="evenodd" d="M78.425 49.613C77.925 49.813 77.625 49.613 77.225 49.313C76.925 49.013 76.525 48.713 76.125 48.613C75.725 48.413 75.225 48.4129 74.825 48.4129C74.425 48.4129 74.225 48.713 74.025 49.113C73.925 49.413 73.625 49.513 73.325 49.313C73.025 49.113 72.625 49.013 72.325 49.313C71.825 49.813 71.225 50.013 70.625 50.313C70.525 50.313 70.225 50.1129 70.125 50.0129C70.025 49.9129 70.125 49.613 70.125 49.613C70.925 49.013 71.525 48.4129 72.425 48.0129C73.325 47.6129 74.225 47.3129 75.025 46.9129C75.525 46.7129 76.025 46.8129 76.525 47.0129C76.825 47.2129 77.025 47.3129 77.325 47.5129C77.925 48.0129 78.525 48.4129 79.325 48.5129C79.625 48.5129 79.825 48.813 79.725 49.213C79.625 49.613 79.425 49.713 79.125 49.713C78.825 49.613 78.625 49.613 78.425 49.613Z" fill="#F9F6EE"/>
<path fill-rule="evenodd" clip-rule="evenodd" d="M78.625 28.713C78.425 29.313 78.325 29.813 77.625 30.113C76.525 30.513 75.325 30.8129 74.125 30.9129C73.625 31.0129 73.325 30.813 73.225 30.513C73.025 29.913 73.125 29.313 73.625 29.113C74.725 28.513 76.025 28.313 77.225 28.013C77.625 27.913 78.125 28.213 78.525 28.313C78.625 28.413 78.625 28.613 78.625 28.713Z" fill="#F9F6EE"/>
<path fill-rule="evenodd" clip-rule="evenodd" d="M99.125 30.113C99.425 30.013 99.725 29.813 99.925 29.813C101.225 30.313 102.725 30.213 103.825 31.313C104.725 32.213 104.825 32.213 103.825 33.013C103.725 33.1129 103.325 33.1129 103.225 33.013C102.025 31.913 100.525 31.6129 98.925 31.4129C97.925 31.3129 97.825 31.013 98.225 30.113C98.425 29.713 98.525 29.713 99.125 30.113C99.125 30.213 99.025 30.3129 98.925 30.4129C98.925 30.4129 98.925 30.513 99.025 30.513C99.025 30.413 99.125 30.213 99.125 30.113Z" fill="#F9F6EE"/>
<path fill-rule="evenodd" clip-rule="evenodd" d="M62.325 73.6129C62.725 73.3129 63.225 73.0129 63.725 73.0129C64.725 73.0129 65.625 73.0129 66.625 73.1129C66.925 73.1129 67.225 73.2129 67.525 73.1129C68.125 72.9129 68.725 72.8129 69.225 73.0129C69.825 73.2129 70.225 72.813 70.725 72.813C71.025 72.813 71.225 73.0129 71.525 73.1129C71.625 73.1129 71.625 73.4129 71.625 73.5129C71.325 73.7129 71.125 74.1129 70.725 74.1129C69.725 74.3129 68.725 74.4129 67.625 74.4129C67.125 74.4129 66.625 74.3129 66.125 74.4129C65.525 74.5129 65.125 74.413 64.825 73.813C64.625 73.413 64.225 73.513 63.825 73.713C63.625 73.813 63.325 74.213 63.125 74.213C62.925 74.213 62.625 73.9129 62.425 73.713C62.425 73.513 62.325 73.5129 62.325 73.6129Z" fill="#F9F6EE"/>
<path fill-rule="evenodd" clip-rule="evenodd" d="M95.625 56.4129C95.525 56.5129 95.525 56.713 95.425 56.813C95.125 56.913 94.825 57.0129 94.525 56.9129C92.825 56.3129 91.025 56.2129 89.225 56.0129C88.625 55.9129 88.025 55.813 87.625 55.213C87.525 55.013 87.525 54.8129 87.525 54.6129C87.525 54.5129 87.725 54.4129 87.925 54.4129C88.625 54.4129 89.225 54.4129 89.925 54.5129C90.225 54.5129 90.425 54.8129 90.725 54.9129C90.825 55.0129 91.025 55.1129 91.125 55.1129C91.925 54.7129 92.625 55.413 93.225 55.313C94.125 55.113 94.625 55.513 95.025 56.213C95.225 56.313 95.525 56.3129 95.625 56.4129Z" fill="#F9F6EE"/>
<path fill-rule="evenodd" clip-rule="evenodd" d="M11.625 60.9129C10.725 61.4129 9.625 61.413 8.625 61.213C7.325 61.013 6.725 61.213 5.725 62.213C5.025 61.613 4.925 60.9129 4.825 60.0129C4.825 59.7129 5.125 59.4129 5.425 59.6129C5.725 59.8129 5.825 59.913 6.325 59.813C7.425 59.513 8.625 59.8129 9.725 59.5129C9.925 59.5129 10.125 59.713 10.325 59.813L10.225 59.9129C10.225 59.8129 10.225 59.813 10.325 59.713C10.425 59.713 10.425 59.713 10.525 59.713C11.525 59.713 11.625 59.8129 11.625 60.9129Z" fill="#F9F6EE"/>
<path fill-rule="evenodd" clip-rule="evenodd" d="M101.925 22.113C102.525 22.113 103.125 22.113 103.725 22.013C105.225 21.813 106.325 22.213 106.925 23.713C107.125 24.113 107.625 24.313 107.625 24.813C107.625 25.013 107.525 25.213 107.325 25.313C107.225 25.413 107.025 25.313 106.925 25.313C106.225 24.913 106.025 23.913 105.125 23.713C104.425 23.613 103.625 23.613 102.925 23.613C102.125 23.613 101.525 23.213 101.125 22.513C101.325 22.313 101.625 22.213 101.925 22.113Z" fill="#F9F6EE"/>
<path fill-rule="evenodd" clip-rule="evenodd" d="M88.025 19.5129C88.525 19.5129 88.925 19.6129 89.425 19.9129C90.125 20.4129 91.125 20.8129 92.125 20.4129C92.325 20.3129 92.525 20.4129 92.825 20.4129C93.225 20.4129 93.525 20.9129 93.425 21.4129C93.225 22.0129 92.825 22.2129 92.225 21.9129C91.825 21.7129 91.625 21.7129 91.225 21.9129C90.525 22.3129 89.825 22.213 89.225 21.613C88.725 21.213 88.125 20.913 87.525 20.613C87.325 20.513 87.225 20.313 87.225 20.113C87.225 19.913 87.425 19.713 87.525 19.613C87.525 19.613 87.625 19.513 87.725 19.613C87.725 19.413 87.825 19.4129 88.025 19.5129Z" fill="#F9F6EE"/>
<path fill-rule="evenodd" clip-rule="evenodd" d="M95.625 47.813C95.425 48.313 95.125 48.7129 94.425 48.7129C93.325 48.7129 92.225 48.7129 91.025 48.7129C90.725 48.7129 90.425 48.5129 90.225 48.4129C89.925 48.2129 89.825 47.9129 90.025 47.6129C90.125 47.4129 90.325 47.2129 90.525 47.2129C91.225 47.1129 91.925 46.9129 92.625 47.4129C93.225 47.8129 93.825 47.513 94.325 46.813C94.425 46.713 94.525 46.6129 94.725 46.6129C95.025 46.5129 95.125 46.8129 95.125 47.0129C95.225 47.3129 95.325 47.613 95.625 47.813Z" fill="#F9F6EE"/>
<path fill-rule="evenodd" clip-rule="evenodd" d="M16.225 63.513C15.725 63.913 15.225 64.013 14.525 63.813C14.025 63.613 13.925 63.513 14.025 63.113C14.325 62.313 14.625 62.013 15.325 62.313C16.325 62.613 17.225 62.2129 18.125 62.4129C18.325 62.4129 18.525 62.4129 18.825 62.4129C19.525 62.4129 19.725 62.6129 19.725 63.4129C19.725 64.0129 19.425 64.313 18.925 64.113C18.125 63.613 17.125 64.113 16.225 63.513Z" fill="#F9F6EE"/>
<path fill-rule="evenodd" clip-rule="evenodd" d="M84.725 51.4129C84.625 51.6129 84.425 51.8129 84.425 52.0129C84.425 52.4129 84.625 52.7129 84.625 53.1129C84.825 54.0129 85.125 54.6129 86.225 54.4129C86.525 54.3129 86.825 54.813 86.725 55.213C86.425 56.113 86.325 56.2129 85.525 55.9129C85.225 55.8129 85.025 55.7129 84.725 55.6129C84.525 55.4129 84.325 55.2129 84.025 55.1129C83.625 54.8129 83.425 54.5129 83.625 54.0129C84.025 53.1129 83.725 52.2129 83.825 51.4129C83.825 51.2129 83.825 51.013 83.925 50.713C83.925 50.613 84.125 50.4129 84.225 50.4129C84.425 50.5129 84.725 50.513 84.725 50.713C84.725 50.813 84.725 51.1129 84.725 51.4129Z" fill="#F9F6EE"/>
<path fill-rule="evenodd" clip-rule="evenodd" d="M86.825 35.313C87.225 35.213 87.625 35.3129 88.125 35.7129C88.325 35.9129 88.825 35.813 89.125 35.813C89.625 35.913 90.025 36.1129 90.225 36.5129C90.325 36.7129 90.325 37.0129 90.125 37.1129C90.025 37.2129 89.725 37.313 89.525 37.313C89.425 37.313 89.225 37.2129 89.125 37.2129C88.025 36.7129 86.925 36.1129 85.525 36.5129C85.425 36.5129 85.225 36.2129 85.225 36.1129C85.225 35.9129 85.325 35.6129 85.525 35.6129C85.825 35.3129 86.225 35.313 86.825 35.313Z" fill="#F9F6EE"/>
<path fill-rule="evenodd" clip-rule="evenodd" d="M96.225 19.9129C96.425 19.9129 96.625 19.913 96.825 20.013C97.025 20.113 97.125 20.313 97.125 20.513C97.225 20.813 97.125 21.113 96.825 21.213C96.125 21.313 95.425 21.413 94.625 21.513C94.425 21.513 94.225 21.413 94.125 21.213C94.025 21.013 94.025 20.713 94.125 20.613C94.425 20.313 94.825 20.1129 95.225 19.9129C95.525 19.8129 95.825 19.9129 96.225 19.9129Z" fill="#F9F6EE"/>
<path fill-rule="evenodd" clip-rule="evenodd" d="M100.125 22.0129C99.825 22.4129 99.525 22.4129 99.225 22.2129C98.725 21.9129 98.625 21.4129 98.625 20.9129C98.625 20.6129 98.925 20.3129 99.125 20.4129C99.925 20.6129 100.725 21.1129 101.525 21.2129C101.925 21.2129 102.025 21.713 101.925 22.113C101.625 22.213 101.125 22.2129 100.925 22.6129C100.725 22.3129 100.425 22.2129 100.125 22.0129C100.125 21.9129 100.125 21.9129 100.125 21.9129C100.125 22.0129 100.125 22.0129 100.125 22.0129Z" fill="#F9F6EE"/>
<path fill-rule="evenodd" clip-rule="evenodd" d="M93.125 42.6129C93.025 42.6129 93.025 42.7129 92.925 42.7129C92.425 43.1129 91.825 43.7129 91.125 43.0129C90.625 42.6129 90.425 42.6129 90.125 43.1129C89.925 43.4129 89.625 43.4129 89.425 43.1129C89.325 42.9129 89.125 42.7129 89.125 42.5129C89.125 42.3129 89.225 42.0129 89.325 41.9129C90.425 41.7129 91.525 41.4129 92.525 42.1129C92.625 42.2129 92.825 42.3129 92.925 42.3129C93.125 42.5129 93.125 42.5129 93.125 42.6129Z" fill="#F9F6EE"/>
<path fill-rule="evenodd" clip-rule="evenodd" d="M95.025 29.0129C95.525 29.0129 95.925 29.0129 96.325 29.1129C97.025 29.2129 97.425 29.8129 97.225 30.5129C97.225 30.7129 96.825 31.1129 96.625 31.0129C96.125 30.8129 95.525 30.6129 95.025 30.4129C94.725 30.3129 94.525 29.613 94.725 29.213C94.825 29.113 95.025 29.0129 95.025 29.0129Z" fill="#F9F6EE"/>
<path fill-rule="evenodd" clip-rule="evenodd" d="M10.225 64.213C9.825 64.313 9.525 64.3129 9.425 63.9129C9.425 63.7129 9.325 63.413 9.425 63.313C9.525 63.213 9.825 63.113 10.025 63.213C10.425 63.413 10.725 63.4129 11.025 63.1129C11.425 62.6129 11.925 62.6129 12.425 62.6129C12.725 62.6129 12.925 63.013 12.825 63.213C12.625 63.613 12.425 64.0129 11.925 64.1129C11.525 64.1129 11.225 64.213 10.925 64.313C10.625 64.213 10.425 64.213 10.225 64.213Z" fill="#F9F6EE"/>
<path fill-rule="evenodd" clip-rule="evenodd" d="M74.425 52.7129C73.825 53.3129 73.125 53.6129 72.425 53.9129C71.825 54.1129 71.425 53.9129 70.925 53.2129C71.725 52.8129 72.425 52.4129 73.225 52.1129C73.725 51.8129 73.925 52.0129 74.425 52.7129Z" fill="#F9F6EE"/>
<path fill-rule="evenodd" clip-rule="evenodd" d="M14.825 60.813C14.325 61.1129 14.025 61.5129 13.325 61.1129C12.925 60.8129 12.225 61.313 11.725 60.813C11.825 60.813 11.825 60.7129 11.925 60.7129C12.225 60.3129 12.525 59.8129 12.925 59.6129C13.425 59.4129 14.025 59.6129 14.625 59.6129C15.025 59.6129 15.225 60.013 15.425 60.313V60.2129C15.125 60.5129 14.925 60.713 14.825 60.813Z" fill="#F9F6EE"/>
<path fill-rule="evenodd" clip-rule="evenodd" d="M60.825 72.113C61.025 71.913 61.225 71.7129 61.425 71.5129C61.925 71.1129 62.325 70.6129 62.925 70.5129C63.525 70.313 63.925 70.9129 64.425 71.2129L64.525 71.3129C63.925 72.2129 62.925 72.313 62.025 72.5129C61.625 72.6129 61.225 72.213 60.825 72.113Z" fill="#F9F6EE"/>
<path fill-rule="evenodd" clip-rule="evenodd" d="M89.225 47.4129C89.125 47.7129 89.125 48.1129 89.025 48.4129C89.025 48.5129 88.825 48.6129 88.725 48.6129C88.325 48.5129 88.025 48.413 87.725 48.213C87.325 48.013 86.525 48.513 86.625 47.713C86.725 47.113 87.425 47.313 87.925 47.213C88.325 47.213 88.625 47.0129 89.025 47.0129C89.025 47.1129 89.125 47.3129 89.225 47.4129Z" fill="#F9F6EE"/>
<path fill-rule="evenodd" clip-rule="evenodd" d="M19.025 61.3129C18.325 61.3129 18.025 61.3129 17.825 61.3129C17.725 61.3129 17.525 61.1129 17.525 61.0129C17.625 60.5129 17.725 60.0129 18.225 59.7129C18.425 59.6129 18.725 59.6129 18.825 59.7129C19.425 59.9129 19.725 60.4129 19.725 61.1129C19.725 61.2129 19.525 61.4129 19.525 61.4129C19.225 61.3129 18.925 61.2129 19.025 61.3129Z" fill="#F9F6EE"/>
<path fill-rule="evenodd" clip-rule="evenodd" d="M102.025 39.4129C102.125 39.4129 102.325 39.4129 102.425 39.5129C102.925 39.9129 103.025 40.413 102.725 40.813C102.525 41.113 102.325 41.4129 102.025 41.6129C101.925 41.7129 101.725 41.713 101.625 41.713C101.625 41.713 101.525 41.6129 101.525 41.5129C101.325 40.8129 101.525 40.2129 101.725 39.6129C101.725 39.6129 101.925 39.5129 102.025 39.4129Z" fill="#F9F6EE"/>
<path fill-rule="evenodd" clip-rule="evenodd" d="M120.425 28.4129C121.025 28.0129 120.925 27.4129 120.925 26.9129C120.925 26.3129 121.325 26.2129 121.725 26.1129C121.625 26.8129 121.925 27.613 121.525 28.313C121.425 28.513 121.125 28.7129 121.025 28.9129C120.825 28.7129 120.625 28.5129 120.425 28.4129Z" fill="#F9F6EE"/>
<path fill-rule="evenodd" clip-rule="evenodd" d="M85.825 49.213C85.725 49.413 85.625 49.6129 85.525 49.6129C85.325 49.6129 85.025 49.6129 84.925 49.4129C84.525 48.9129 84.525 48.2129 85.025 47.6129C85.025 47.6129 85.125 47.5129 85.225 47.5129C85.325 47.5129 85.525 47.613 85.525 47.713C85.625 48.213 85.725 48.813 85.825 49.213Z" fill="#F9F6EE"/>
<path fill-rule="evenodd" clip-rule="evenodd" d="M94.425 29.5129C94.225 29.8129 94.125 30.113 93.925 30.213C93.725 30.413 93.325 30.4129 93.125 30.1129C93.025 30.0129 92.925 29.7129 93.025 29.5129C93.025 29.3129 93.125 29.1129 93.325 28.9129C93.425 28.8129 93.725 28.713 93.925 28.713C94.125 29.013 94.225 29.3129 94.425 29.5129Z" fill="#F9F6EE"/>
<path fill-rule="evenodd" clip-rule="evenodd" d="M15.225 60.4129C15.325 60.3129 15.425 60.2129 15.525 60.1129C15.925 59.7129 16.225 59.7129 16.425 60.0129C16.625 60.4129 16.525 60.7129 16.125 60.9129C15.925 61.0129 15.625 61.213 15.325 61.213C15.125 61.213 15.025 61.013 14.825 60.813C14.925 60.713 15.125 60.5129 15.225 60.4129Z" fill="#F9F6EE"/>
<path fill-rule="evenodd" clip-rule="evenodd" d="M87.025 28.813C87.225 28.713 87.425 28.5129 87.625 28.5129C87.725 28.5129 88.025 28.713 88.025 28.813C88.125 29.113 88.125 29.3129 88.125 29.6129C87.925 29.6129 87.725 29.7129 87.525 29.6129C87.425 29.6129 87.225 29.413 87.225 29.313C87.125 29.213 87.125 29.013 87.025 28.813Z" fill="#F9F6EE"/>
<path fill-rule="evenodd" clip-rule="evenodd" d="M97.825 38.8129C97.925 38.8129 97.925 38.7129 98.025 38.7129C98.225 38.6129 98.425 38.2129 98.725 38.4129C99.025 38.6129 99.225 39.0129 99.125 39.3129C99.125 39.4129 98.925 39.5129 98.825 39.5129C98.725 39.5129 98.525 39.4129 98.425 39.3129C98.225 39.2129 98.125 39.0129 97.825 38.8129Z" fill="#F9F6EE"/>
<path fill-rule="evenodd" clip-rule="evenodd" d="M85.225 20.313C85.225 20.113 85.225 19.813 85.225 19.713C85.325 19.513 85.525 19.4129 85.725 19.4129C85.925 19.4129 86.025 19.7129 86.125 19.9129C86.225 20.3129 85.925 20.4129 85.625 20.4129C85.525 20.3129 85.325 20.213 85.225 20.313Z" fill="#F9F6EE"/>
<path fill-rule="evenodd" clip-rule="evenodd" d="M87.125 28.8129C86.825 28.8129 86.525 28.9129 86.225 28.8129C86.025 28.8129 85.925 28.5129 85.825 28.3129C85.825 28.2129 85.925 28.0129 85.925 28.0129C86.025 27.9129 86.225 27.9129 86.325 28.0129C86.625 28.2129 86.825 28.5129 87.125 28.8129Z" fill="#F9F6EE"/>
<path fill-rule="evenodd" clip-rule="evenodd" d="M90.625 29.313C90.125 29.313 89.825 29.7129 89.625 30.0129C89.625 30.1129 89.325 30.1129 89.225 30.0129C89.125 29.9129 89.125 29.7129 89.125 29.6129C89.325 28.8129 89.625 28.813 90.625 29.313Z" fill="#F9F6EE"/>
<path fill-rule="evenodd" clip-rule="evenodd" d="M92.525 37.513C92.325 37.713 92.125 37.913 91.825 38.013C91.625 38.1129 91.425 37.7129 91.425 37.4129C91.525 37.1129 91.825 36.913 92.025 37.013C92.325 37.1129 92.325 37.313 92.525 37.513Z" fill="#F9F6EE"/>
<path fill-rule="evenodd" clip-rule="evenodd" d="M70.225 53.1129C69.725 53.7129 69.525 53.8129 69.025 53.4129L68.925 53.213C69.025 53.113 69.125 53.0129 69.125 53.0129C69.625 53.0129 69.925 53.1129 70.225 53.1129Z" fill="#F9F6EE"/>
<path fill-rule="evenodd" clip-rule="evenodd" d="M21.625 61.213C21.525 61.413 21.425 61.513 21.325 61.613C21.325 61.613 21.125 61.6129 21.125 61.513C20.925 61.213 20.725 60.913 20.525 60.613C20.525 60.513 20.625 60.313 20.725 60.313C20.825 60.213 21.025 60.313 21.125 60.313C21.325 60.613 21.425 60.913 21.625 61.213Z" fill="#F9F6EE"/>
<path fill-rule="evenodd" clip-rule="evenodd" d="M99.125 44.213C99.525 44.213 99.825 44.1129 100.225 44.1129C100.325 44.1129 100.425 44.3129 100.425 44.4129C100.425 44.5129 100.425 44.6129 100.425 44.6129C100.325 44.7129 100.125 44.813 100.025 44.713C99.825 44.613 99.525 44.413 99.125 44.213Z" fill="#F9F6EE"/>
<path fill-rule="evenodd" clip-rule="evenodd" d="M90.625 29.313C90.825 29.213 91.025 29.0129 91.225 29.0129C91.425 29.0129 91.625 29.213 91.725 29.313C91.825 29.613 91.825 29.9129 91.425 30.0129C91.225 30.0129 91.025 29.913 90.925 29.813C90.725 29.713 90.725 29.513 90.625 29.313Z" fill="#F9F6EE"/>
<path fill-rule="evenodd" clip-rule="evenodd" d="M119.425 25.5129C119.325 25.4129 119.225 25.413 119.225 25.313C119.225 25.113 119.225 24.913 119.225 24.713C119.225 24.613 119.425 24.5129 119.525 24.5129C119.625 24.5129 119.825 24.613 119.825 24.713C120.025 24.913 119.725 25.4129 119.425 25.5129Z" fill="#F9F6EE"/>
<path fill-rule="evenodd" clip-rule="evenodd" d="M97.925 38.713C97.625 38.513 97.325 38.413 97.025 38.213C96.925 38.213 96.925 38.013 96.925 37.813L97.025 37.713C97.125 37.713 97.325 37.713 97.425 37.813C97.625 38.113 97.725 38.513 97.925 38.713Z" fill="#F9F6EE"/>
<path fill-rule="evenodd" clip-rule="evenodd" d="M93.525 37.213C93.725 37.513 93.925 37.613 93.925 37.813C93.925 37.913 93.825 38.1129 93.725 38.1129C93.625 38.1129 93.425 38.0129 93.425 37.9129C93.425 37.8129 93.425 37.613 93.525 37.213Z" fill="#F9F6EE"/>
<path fill-rule="evenodd" clip-rule="evenodd" d="M100.925 38.813C100.825 39.013 100.825 39.213 100.625 39.313C100.525 39.413 100.425 39.4129 100.325 39.4129C100.325 39.3129 100.225 39.1129 100.225 39.0129C100.325 38.8129 100.525 38.7129 100.625 38.5129C100.625 38.5129 100.725 38.5129 100.825 38.5129C100.925 38.6129 100.925 38.713 100.925 38.813Z" fill="#F9F6EE"/>
<path fill-rule="evenodd" clip-rule="evenodd" d="M75.825 53.313C75.725 53.413 75.625 53.513 75.525 53.513C75.425 53.413 75.425 53.313 75.325 53.213C75.325 53.213 75.425 53.013 75.425 53.113C75.625 53.213 75.725 53.313 75.825 53.313Z" fill="#F9F6EE"/>
<path fill-rule="evenodd" clip-rule="evenodd" d="M95.725 56.4129C95.625 56.2129 95.525 56.013 95.425 55.813C95.425 55.713 95.525 55.6129 95.625 55.5129H95.825C95.925 55.6129 96.025 55.713 96.025 55.813C95.925 56.013 95.725 56.2129 95.725 56.4129Z" fill="#F9F6EE"/>
<path fill-rule="evenodd" clip-rule="evenodd" d="M97.225 56.6129C97.225 56.7129 97.225 56.9129 97.225 57.0129C97.225 57.0129 97.125 57.0129 97.025 57.1129C97.025 57.0129 97.025 56.813 97.025 56.713C97.025 56.613 97.125 56.6129 97.225 56.6129Z" fill="#F9F6EE"/>
<path fill-rule="evenodd" clip-rule="evenodd" d="M72.525 73.4129C72.625 73.6129 72.725 73.8129 72.725 74.0129C72.725 74.1129 72.625 74.313 72.625 74.313C72.525 74.513 72.225 74.2129 72.325 74.0129C72.325 73.8129 72.425 73.6129 72.525 73.4129Z" fill="#F9F6EE"/>
<path fill-rule="evenodd" clip-rule="evenodd" d="M62.225 73.5129C62.125 73.6129 62.025 73.713 61.925 73.813L61.825 73.713C61.925 73.413 62.125 73.5129 62.225 73.5129Z" fill="#F9F6EE"/>
<path fill-rule="evenodd" clip-rule="evenodd" d="M99.225 44.213C99.125 44.113 99.025 44.0129 98.925 43.9129C98.925 43.9129 98.825 43.813 98.925 43.713L99.025 43.6129C99.125 43.7129 99.125 43.8129 99.225 43.9129C99.225 44.0129 99.125 44.113 99.225 44.213Z" fill="#F9F6EE"/>
<path fill-rule="evenodd" clip-rule="evenodd" d="M95.825 42.6129C95.825 42.6129 95.825 42.5129 95.925 42.5129C96.025 42.5129 96.025 42.5129 96.125 42.5129C96.125 42.5129 96.125 42.6129 96.025 42.6129C95.925 42.7129 95.925 42.7129 95.825 42.6129Z" fill="#F9F6EE"/>
<path fill-rule="evenodd" clip-rule="evenodd" d="M70.325 53.1129C70.525 53.1129 70.625 53.1129 70.825 53.1129C70.625 53.1129 70.425 53.1129 70.325 53.1129Z" fill="#F9F6EE"/>
<path fill-rule="evenodd" clip-rule="evenodd" d="M77.025 52.9129C76.925 52.9129 76.925 53.0129 76.925 53.0129C76.925 52.9129 76.825 52.9129 76.825 52.8129C76.825 52.7129 76.925 52.7129 77.025 52.9129Z" fill="#F9F6EE"/>
<path fill-rule="evenodd" clip-rule="evenodd" d="M84.725 55.4129V55.5129L84.825 55.4129H84.725Z" fill="#F9F6EE"/>
<path fill-rule="evenodd" clip-rule="evenodd" d="M64.425 70.4129L64.325 70.213L64.525 70.3129L64.425 70.4129Z" fill="#F9F6EE"/>
<path fill-rule="evenodd" clip-rule="evenodd" d="M116.825 36.0129C116.725 36.0129 116.725 35.9129 116.625 35.9129C116.725 36.0129 116.725 36.0129 116.825 36.0129Z" fill="#F9F6EE"/>
<path fill-rule="evenodd" clip-rule="evenodd" d="M39.625 26.113C39.625 26.313 39.825 26.613 39.725 26.813C39.725 27.013 39.525 27.213 39.325 27.313C39.225 27.413 38.825 27.313 38.825 27.113C38.625 26.613 38.325 26.213 37.625 26.613C37.125 26.013 36.525 26.013 35.825 26.213C35.725 26.213 35.525 26.213 35.425 26.113C34.825 25.313 33.925 25.5129 33.125 25.4129C32.725 25.3129 32.325 25.413 32.025 25.313C31.125 25.113 30.225 25.013 29.325 25.313C28.925 25.413 28.425 25.313 28.025 25.313C27.525 25.313 27.325 25.4129 27.625 25.9129L27.525 26.113C27.325 26.113 27.025 26.113 26.825 26.013C26.425 25.913 26.025 25.613 25.625 25.513C25.125 25.913 24.525 25.513 23.925 25.713C23.325 25.913 22.625 25.9129 21.925 25.9129C21.625 25.9129 21.325 25.913 21.025 25.713C20.825 25.613 20.625 25.413 20.625 25.213C20.625 25.013 20.725 24.713 20.825 24.613C21.625 24.313 22.325 23.613 23.325 24.013C23.625 24.113 24.025 23.913 24.325 23.813C25.225 23.513 26.225 23.313 27.225 23.513C27.625 23.613 28.125 23.513 28.525 23.513C30.025 23.313 31.525 23.413 33.025 23.713C33.625 23.813 34.225 23.913 34.725 24.213C35.225 24.513 35.825 24.713 36.425 24.613C36.625 24.613 36.925 24.7129 37.025 24.9129C37.525 25.6129 38.225 25.8129 38.925 25.9129C39.325 25.8129 39.425 26.013 39.625 26.113Z" fill="#F9F6EE"/>
<path fill-rule="evenodd" clip-rule="evenodd" d="M28.425 8.51294C28.325 8.71294 28.125 8.91294 28.025 9.01294C27.825 9.21294 27.525 9.31295 27.225 9.11295C26.925 8.91295 26.625 8.51295 26.725 8.21295C26.825 8.01295 27.025 7.61295 27.325 7.61295C28.225 7.41295 29.025 7.21295 29.925 7.11295C31.025 7.11295 32.125 7.21295 33.225 7.21295C34.325 7.21295 35.425 7.21295 36.525 7.21295C37.525 7.21295 38.425 7.41296 39.325 7.81296C40.125 8.11296 40.825 8.71295 41.825 8.71295C42.625 8.71295 43.425 9.21293 44.125 9.41293C44.925 9.71293 45.125 9.91295 45.025 10.713C45.025 11.513 44.825 12.3129 44.725 13.1129C44.725 13.2129 44.425 13.4129 44.225 13.4129C44.125 13.4129 44.025 13.2129 43.925 13.1129C43.825 12.9129 43.825 12.7129 43.825 12.4129C43.825 12.2129 43.725 12.013 43.725 11.713C43.725 11.013 43.225 10.6129 42.625 10.5129C41.525 10.3129 40.625 9.51293 39.525 9.91293C38.925 9.51293 38.325 9.11295 37.725 8.71295C37.525 8.51295 37.225 8.41295 37.025 8.21295C36.625 7.91295 36.325 8.01293 36.025 8.41293C35.825 8.71293 35.525 8.71294 35.325 8.51294C34.925 8.21294 34.525 8.11295 34.125 8.21295C32.225 9.01295 30.625 9.21296 28.825 8.81296C28.725 8.81296 28.525 8.61294 28.425 8.51294C28.425 8.51294 28.425 8.41293 28.325 8.41293H28.225C28.225 8.41293 28.325 8.41294 28.425 8.51294ZM29.725 8.31296C29.725 8.21296 29.725 8.21295 29.725 8.11295L29.625 8.01294C29.625 8.11294 29.625 8.21296 29.525 8.31296C29.625 8.31296 29.625 8.31296 29.725 8.31296Z" fill="#F9F6EE"/>
<path fill-rule="evenodd" clip-rule="evenodd" d="M42.325 51.4129C43.025 50.8129 43.125 50.8129 43.625 51.3129C43.625 51.5129 43.525 51.7129 43.525 51.9129L43.625 52.0129C43.725 51.9129 43.925 51.8129 43.925 51.8129C43.825 51.6129 43.725 51.4129 43.625 51.2129C44.125 51.2129 44.625 51.2129 45.125 51.2129C45.725 51.3129 46.225 51.5129 46.425 52.1129C47.325 52.0129 48.025 52.5129 48.625 53.1129C48.925 53.5129 49.025 53.9129 48.925 54.4129C48.825 54.7129 48.425 55.0129 48.225 54.8129C47.425 54.0129 46.125 54.0129 45.425 53.1129C45.225 52.9129 44.725 52.7129 44.425 52.7129C43.325 52.8129 42.425 52.3129 41.525 51.7129C41.225 51.5129 41.125 51.4129 40.725 51.6129C39.825 52.0129 38.925 51.9129 38.125 51.5129C37.425 51.2129 36.725 51.0129 36.025 50.7129C35.825 50.6129 35.625 50.5129 35.525 50.3129C35.425 50.1129 35.325 49.9129 35.425 49.7129C35.525 49.5129 35.725 49.3129 35.925 49.4129C36.725 49.5129 37.525 49.7129 38.325 49.8129C38.925 49.9129 39.525 50.1129 40.125 50.1129C40.925 50.1129 41.525 50.4129 41.925 51.1129C42.025 51.2129 42.225 51.3129 42.325 51.4129Z" fill="#F9F6EE"/>
<path fill-rule="evenodd" clip-rule="evenodd" d="M35.125 35.6129C34.525 36.2129 33.925 36.6129 33.025 36.5129C31.725 36.3129 30.425 36.7129 29.025 36.6129C28.825 36.6129 28.525 36.7129 28.325 36.6129C27.425 36.1129 26.325 36.2129 25.325 35.9129C25.125 35.8129 25.025 35.6129 24.925 35.4129C24.825 35.1129 25.125 34.8129 25.425 34.7129C25.825 34.6129 26.425 34.5129 26.725 34.7129C27.325 35.0129 27.925 35.1129 28.625 35.0129C29.425 35.5129 30.225 35.2129 30.925 35.1129C32.025 35.0129 33.125 35.2129 34.225 35.1129C34.625 35.2129 34.825 35.5129 35.125 35.6129Z" fill="#F9F6EE"/>
<path fill-rule="evenodd" clip-rule="evenodd" d="M19.925 16.313C19.825 16.813 19.725 17.213 19.525 17.613C19.025 18.913 18.225 20.113 18.325 21.613C18.325 21.713 18.325 21.9129 18.225 22.0129C17.525 23.2129 17.425 24.313 18.025 25.613C18.325 26.113 17.625 26.713 16.925 26.613C16.725 26.613 16.525 26.313 16.525 26.213C16.525 25.613 16.825 25.0129 16.325 24.5129C16.225 24.4129 16.225 24.0129 16.325 23.9129C16.825 23.2129 17.025 22.413 17.225 21.613C17.525 20.213 18.125 18.913 18.425 17.613C18.525 17.013 18.825 16.5129 19.125 16.0129C19.125 15.9129 19.425 15.8129 19.525 15.9129C19.625 15.9129 19.825 16.113 19.925 16.313Z" fill="#F9F6EE"/>
<path fill-rule="evenodd" clip-rule="evenodd" d="M41.025 23.813C41.025 23.313 41.025 22.713 41.425 22.313C41.925 21.613 41.925 20.8129 41.825 20.1129C41.625 19.0129 41.825 18.0129 42.325 17.1129C42.725 16.4129 43.125 15.713 42.925 14.813C42.925 14.613 43.025 14.413 43.225 14.213C43.325 14.113 43.425 14.0129 43.625 14.0129C43.625 14.0129 43.725 14.113 43.825 14.213C44.425 15.513 44.125 16.7129 43.725 17.9129C43.625 18.1129 43.425 18.3129 43.325 18.4129C42.725 18.8129 42.725 19.4129 42.825 20.0129C42.925 20.4129 43.025 20.913 43.025 21.313C43.025 22.213 42.825 22.913 41.925 23.313C41.425 23.413 41.225 23.613 41.025 23.813Z" fill="#F9F6EE"/>
<path fill-rule="evenodd" clip-rule="evenodd" d="M43.025 37.4129C43.125 37.4129 43.125 37.4129 43.225 37.4129C44.525 37.7129 45.525 38.4129 46.625 39.0129C47.325 39.4129 47.625 40.1129 47.525 40.9129C47.525 41.0129 47.325 41.213 47.225 41.213C46.725 41.113 46.225 41.0129 45.725 40.9129C45.125 39.9129 44.125 39.4129 43.125 39.0129C42.725 38.8129 42.525 38.1129 42.825 37.6129C42.825 37.5129 42.925 37.4129 43.025 37.4129Z" fill="#F9F6EE"/>
<path fill-rule="evenodd" clip-rule="evenodd" d="M47.725 48.713C46.325 48.113 44.825 47.613 43.825 46.213C43.625 45.913 43.225 45.813 42.925 45.613C42.625 45.413 42.625 45.113 42.625 44.813C42.725 44.513 43.025 44.3129 43.325 44.4129C43.625 44.5129 43.925 44.813 44.125 44.713C44.825 44.513 45.125 44.913 45.425 45.313C45.625 45.613 45.725 46.013 45.925 46.313C46.025 46.413 46.325 46.613 46.425 46.613C47.225 46.513 47.525 47.013 47.725 47.613C47.825 48.013 47.725 48.413 47.725 48.713ZM44.825 45.713C44.825 45.813 44.825 45.913 44.825 46.013L44.925 45.9129C44.925 45.8129 44.825 45.713 44.825 45.713Z" fill="#F9F6EE"/>
<path fill-rule="evenodd" clip-rule="evenodd" d="M55.025 18.0129C54.625 17.5129 54.425 17.0129 54.725 16.4129C54.725 16.3129 54.925 16.2129 55.025 16.1129C55.125 16.1129 55.325 16.113 55.425 16.213C55.625 16.413 55.825 16.7129 55.925 16.9129C56.325 17.9129 56.825 18.7129 58.125 18.6129C58.725 18.6129 59.225 19.113 59.025 19.813C58.725 19.913 58.525 20.1129 58.225 20.1129C58.025 20.1129 57.825 20.0129 57.625 20.0129C57.025 19.9129 56.325 19.913 55.725 19.713C55.025 19.413 55.525 18.4129 55.025 18.0129Z" fill="#F9F6EE"/>
<path fill-rule="evenodd" clip-rule="evenodd" d="M50.925 28.4129C51.425 28.4129 51.725 28.713 51.925 29.213C52.325 29.913 52.525 30.713 53.225 31.213V31.4129C53.125 31.5129 52.925 31.613 52.825 31.613C52.325 31.413 51.725 31.213 51.525 30.813C50.825 29.513 49.525 29.113 48.525 28.313C48.325 28.113 48.025 27.913 47.925 27.713C47.825 27.513 47.825 27.313 47.825 27.113C47.825 26.913 48.225 26.813 48.525 27.213C48.925 27.813 49.925 27.813 50.125 28.613C50.325 28.713 50.725 28.4129 50.925 28.4129Z" fill="#F9F6EE"/>
<path fill-rule="evenodd" clip-rule="evenodd" d="M22.425 30.813C22.825 30.713 23.125 30.613 23.525 30.613C23.925 30.613 24.225 30.813 24.425 31.113C24.625 31.313 24.425 31.613 24.225 31.613C23.925 31.713 23.625 31.913 23.425 31.813C22.225 31.613 21.125 31.513 19.925 31.713C19.825 31.713 19.625 31.613 19.525 31.513C19.425 31.413 19.325 31.313 19.325 31.213C19.325 31.113 19.425 30.9129 19.525 30.9129C20.525 31.1129 21.425 30.113 22.425 30.813Z" fill="#F9F6EE"/>
<path fill-rule="evenodd" clip-rule="evenodd" d="M27.725 31.713C26.925 31.713 26.125 31.913 25.325 31.513C25.225 31.513 25.225 31.413 25.225 31.313C25.225 31.213 25.225 31.113 25.325 31.113C25.925 31.013 26.425 30.6129 27.025 30.9129C27.525 31.1129 27.825 31.2129 28.225 30.9129C28.725 30.6129 29.225 30.713 29.725 31.013C29.825 31.113 29.925 31.2129 29.925 31.4129C29.925 31.5129 29.725 31.713 29.625 31.713C29.525 31.813 29.325 31.813 29.225 31.813C28.625 31.713 28.225 31.713 27.725 31.713Z" fill="#F9F6EE"/>
<path fill-rule="evenodd" clip-rule="evenodd" d="M21.725 11.713C21.725 12.113 21.725 12.413 21.725 12.813C21.725 13.313 21.425 13.513 20.925 13.713C20.525 13.813 20.125 13.513 20.125 13.213C20.225 12.213 20.525 11.213 21.025 10.313C21.125 10.213 21.325 10.213 21.425 10.213C21.525 10.213 21.725 10.4129 21.725 10.5129C21.725 10.8129 21.625 11.313 21.725 11.713C21.625 11.713 21.625 11.713 21.725 11.713Z" fill="#F9F6EE"/>
<path fill-rule="evenodd" clip-rule="evenodd" d="M30.125 43.1129C29.925 43.2129 29.725 43.313 29.725 43.313C29.525 43.1129 29.325 42.8129 29.125 42.7129C28.425 42.6129 28.325 41.8129 27.825 41.6129C27.325 41.5129 26.825 41.5129 26.225 41.5129C26.125 41.5129 26.025 41.5129 26.025 41.4129C25.925 41.3129 25.825 41.2129 25.825 41.1129C25.825 41.0129 25.925 40.813 26.025 40.813C26.725 40.6129 27.325 40.5129 28.025 40.9129C28.825 41.3129 29.725 41.6129 30.025 42.5129C30.025 42.6129 30.025 42.9129 30.125 43.1129Z" fill="#F9F6EE"/>
<path fill-rule="evenodd" clip-rule="evenodd" d="M59.025 19.813C59.425 19.713 59.925 19.7129 60.325 20.0129C60.625 20.2129 60.825 20.5129 60.925 20.9129C61.025 21.4129 61.225 21.9129 61.425 22.4129C61.525 22.6129 61.425 22.8129 61.425 23.0129C61.425 23.1129 61.225 23.213 61.125 23.313C61.025 23.313 60.825 23.2129 60.825 23.1129C60.525 21.8129 59.625 20.913 59.025 19.813Z" fill="#F9F6EE"/>
<path fill-rule="evenodd" clip-rule="evenodd" d="M57.125 27.6129C56.525 27.3129 55.825 27.0129 55.125 26.7129C54.825 26.6129 54.825 26.2129 54.925 25.9129C55.025 25.7129 55.325 25.5129 55.325 25.6129C56.025 26.1129 57.025 26.2129 57.525 27.0129C57.625 27.2129 57.625 27.4129 57.725 27.5129C57.625 27.6129 57.425 27.6129 57.125 27.6129Z" fill="#F9F6EE"/>
<path fill-rule="evenodd" clip-rule="evenodd" d="M51.025 14.713C51.925 14.813 52.525 14.7129 53.125 14.9129C53.525 15.0129 53.425 15.4129 53.225 15.6129C53.125 15.8129 52.925 15.9129 52.825 16.0129C52.725 16.0129 52.525 15.913 52.425 15.813C51.825 15.113 51.225 15.213 50.525 15.813C50.225 16.113 49.525 15.6129 49.525 15.1129C49.525 15.0129 49.625 14.813 49.725 14.813C50.025 14.713 50.325 14.813 50.625 14.813C50.925 14.713 51.125 14.713 51.025 14.713Z" fill="#F9F6EE"/>
<path fill-rule="evenodd" clip-rule="evenodd" d="M43.925 33.613C44.025 33.613 44.025 33.513 44.125 33.613C44.925 34.013 45.825 34.213 46.325 35.113C46.425 35.213 46.425 35.413 46.325 35.513C46.225 35.6129 46.025 35.613 45.925 35.613C45.125 35.313 44.425 34.913 43.925 34.313C43.825 34.213 43.825 34.0129 43.825 33.9129C43.825 33.7129 43.825 33.613 43.925 33.613Z" fill="#F9F6EE"/>
<path fill-rule="evenodd" clip-rule="evenodd" d="M31.625 42.4129C31.825 42.4129 32.225 42.5129 32.625 42.6129C32.725 42.7129 32.925 42.9129 32.925 43.1129C32.925 43.3129 32.725 43.5129 32.625 43.6129C32.025 43.9129 31.225 43.6129 31.025 43.0129C30.825 42.8129 31.025 42.4129 31.625 42.4129Z" fill="#F9F6EE"/>
<path fill-rule="evenodd" clip-rule="evenodd" d="M33.225 48.813C33.225 49.313 32.825 49.7129 32.525 49.5129C32.125 49.2129 31.725 48.9129 31.325 48.6129C31.225 48.5129 31.325 48.313 31.325 48.213C31.425 48.113 31.625 48.0129 31.725 48.0129C32.125 48.1129 32.525 48.2129 32.925 48.4129C33.125 48.4129 33.125 48.713 33.225 48.813Z" fill="#F9F6EE"/>
<path fill-rule="evenodd" clip-rule="evenodd" d="M39.425 44.113C39.425 43.713 39.625 43.6129 39.925 43.5129C40.625 43.4129 41.025 43.813 41.425 44.213C41.525 44.213 41.525 44.3129 41.525 44.4129C41.425 44.5129 41.425 44.713 41.325 44.713C41.025 44.813 40.625 44.9129 40.325 45.0129C39.725 45.1129 39.425 44.913 39.425 44.113Z" fill="#F9F6EE"/>
<path fill-rule="evenodd" clip-rule="evenodd" d="M51.825 22.613C51.825 22.713 51.825 22.813 51.825 22.813C51.325 23.013 50.725 23.2129 50.225 23.4129C50.125 23.4129 49.925 23.113 49.825 23.013C49.825 22.813 49.925 22.513 50.125 22.513C50.625 22.213 51.125 22.2129 51.625 22.4129C51.625 22.3129 51.725 22.513 51.825 22.613Z" fill="#F9F6EE"/>
<path fill-rule="evenodd" clip-rule="evenodd" d="M54.425 24.0129C54.325 24.1129 54.225 24.313 54.225 24.313C53.725 24.213 53.125 24.1129 52.825 23.6129C52.725 23.4129 52.725 23.1129 52.825 23.0129C52.925 22.9129 53.225 22.813 53.425 22.813C54.025 23.013 54.325 23.4129 54.425 24.0129Z" fill="#F9F6EE"/>
<path fill-rule="evenodd" clip-rule="evenodd" d="M40.625 37.0129C40.625 36.9129 40.625 36.713 40.725 36.613C40.925 36.413 41.125 36.413 41.225 36.613C41.425 36.913 41.725 37.1129 41.925 37.4129C42.025 37.5129 41.925 37.9129 41.825 37.9129C41.725 38.0129 41.325 38.0129 41.225 37.9129C41.025 37.8129 40.825 37.4129 40.625 37.0129Z" fill="#F9F6EE"/>
<path fill-rule="evenodd" clip-rule="evenodd" d="M36.625 44.213C36.525 44.113 36.425 44.013 36.425 43.813C36.425 43.313 36.825 42.913 37.225 43.013C37.625 43.113 38.025 43.313 38.425 43.513L38.525 43.713C38.425 43.813 38.325 44.0129 38.225 43.9129C37.725 43.7129 37.225 43.713 36.825 44.113C36.825 44.313 36.725 44.213 36.625 44.213Z" fill="#F9F6EE"/>
<path fill-rule="evenodd" clip-rule="evenodd" d="M25.725 9.71295C25.325 9.71295 25.025 9.41295 25.025 9.11295C24.925 8.71295 25.125 8.31295 25.425 8.21295C25.525 8.21295 25.725 8.21295 25.825 8.21295C26.325 8.51295 26.425 9.01294 26.125 9.51294C26.025 9.61294 25.825 9.61295 25.725 9.71295Z" fill="#F9F6EE"/>
<path fill-rule="evenodd" clip-rule="evenodd" d="M49.825 41.1129C50.025 41.1129 50.225 41.113 50.325 41.213C50.625 41.613 50.825 42.1129 51.025 42.5129C51.025 42.5129 51.025 42.713 50.925 42.713C50.825 42.713 50.625 42.813 50.525 42.813C50.125 42.513 49.625 42.2129 49.625 41.6129C49.625 41.5129 49.825 41.3129 49.825 41.1129Z" fill="#F9F6EE"/>
<path fill-rule="evenodd" clip-rule="evenodd" d="M24.125 9.31297C24.125 10.113 23.625 10.3129 22.925 10.0129C22.825 10.0129 22.725 9.71296 22.725 9.71296C22.825 9.51296 23.025 9.21295 23.225 9.01295C23.325 8.91295 23.625 8.81294 23.825 8.91294C23.925 8.91294 24.025 9.21297 24.125 9.31297Z" fill="#F9F6EE"/>
<path fill-rule="evenodd" clip-rule="evenodd" d="M20.025 41.213C20.025 41.213 19.825 41.313 19.625 41.313L19.525 41.213C19.525 41.113 19.525 41.0129 19.625 41.0129C20.225 40.8129 20.825 40.513 21.425 40.313C21.525 40.313 21.725 40.513 21.825 40.713C21.825 40.713 21.725 41.0129 21.625 41.0129C21.125 41.0129 20.725 41.113 20.025 41.213Z" fill="#F9F6EE"/>
<path fill-rule="evenodd" clip-rule="evenodd" d="M48.825 37.213C48.225 37.213 47.825 37.0129 47.525 36.5129C47.525 36.4129 47.425 36.313 47.525 36.313C47.625 36.213 47.825 36.1129 47.825 36.1129C48.325 36.4129 48.925 36.6129 49.525 36.6129C49.525 36.6129 49.625 36.713 49.625 36.813C49.525 36.913 49.525 37.0129 49.425 37.1129C49.125 37.2129 48.925 37.113 48.825 37.213Z" fill="#F9F6EE"/>
<path fill-rule="evenodd" clip-rule="evenodd" d="M40.625 37.0129C40.325 37.1129 40.025 37.2129 39.825 37.3129C39.125 37.5129 38.725 37.1129 38.725 36.4129C38.725 36.3129 38.825 36.1129 38.925 36.0129C39.025 35.9129 39.225 35.9129 39.325 36.0129C39.525 36.1129 39.625 36.3129 39.825 36.5129C40.025 36.7129 40.325 36.8129 40.625 37.0129Z" fill="#F9F6EE"/>
<path fill-rule="evenodd" clip-rule="evenodd" d="M46.425 26.313C46.825 26.313 47.225 26.6129 47.125 26.9129C47.025 27.1129 46.825 27.3129 46.625 27.5129C46.525 27.4129 46.325 27.3129 46.225 27.1129C46.125 26.9129 46.025 26.613 46.225 26.313C46.325 26.413 46.425 26.413 46.425 26.313Z" fill="#F9F6EE"/>
<path fill-rule="evenodd" clip-rule="evenodd" d="M39.625 26.113C39.825 25.813 40.025 25.5129 40.025 25.1129C40.025 24.4129 40.525 24.113 40.925 23.713C40.925 23.813 40.925 24.0129 41.025 24.1129C41.225 24.9129 41.025 25.513 40.225 25.813C40.025 26.013 39.825 26.013 39.625 26.113Z" fill="#F9F6EE"/>
<path fill-rule="evenodd" clip-rule="evenodd" d="M16.925 42.713C16.525 43.113 16.025 43.513 15.325 43.313C15.225 43.313 15.125 43.213 15.125 43.213C15.125 43.213 15.125 43.0129 15.225 43.0129C15.725 42.8129 16.225 42.6129 16.625 42.4129C16.625 42.4129 16.725 42.4129 16.825 42.5129C16.925 42.5129 16.925 42.613 16.925 42.713Z" fill="#F9F6EE"/>
<path fill-rule="evenodd" clip-rule="evenodd" d="M50.325 36.9129C50.925 36.9129 51.425 37.3129 51.525 38.0129C51.525 38.1129 51.525 38.3129 51.425 38.4129C51.225 38.6129 51.025 38.513 50.925 38.313C50.625 38.013 50.425 37.613 50.125 37.213C50.125 37.113 50.225 37.0129 50.325 36.9129Z" fill="#F9F6EE"/>
<path fill-rule="evenodd" clip-rule="evenodd" d="M49.225 15.0129C49.225 15.2129 49.125 15.4129 49.125 15.6129C49.125 15.7129 48.925 15.713 48.825 15.813C48.825 15.813 48.725 15.7129 48.725 15.6129C48.725 15.2129 48.625 14.9129 48.625 14.5129C48.625 14.4129 48.825 14.213 48.925 14.213C49.025 14.213 49.125 14.3129 49.225 14.4129C49.125 14.6129 49.125 14.8129 49.225 15.0129Z" fill="#F9F6EE"/>
<path fill-rule="evenodd" clip-rule="evenodd" d="M34.925 43.1129C35.125 43.1129 35.725 43.7129 35.825 44.0129C35.825 44.1129 35.625 44.313 35.525 44.313C35.025 44.413 34.625 43.813 34.825 43.313C34.825 43.213 34.825 43.2129 34.925 43.1129Z" fill="#F9F6EE"/>
<path fill-rule="evenodd" clip-rule="evenodd" d="M20.125 25.5129C20.025 25.6129 19.825 25.7129 19.525 25.9129C19.425 25.7129 19.225 25.413 19.225 25.213C19.225 25.113 19.425 24.913 19.625 24.813C19.925 24.813 20.125 25.0129 20.125 25.5129Z" fill="#F9F6EE"/>
<path fill-rule="evenodd" clip-rule="evenodd" d="M20.025 46.1129C20.025 46.2129 20.025 46.3129 20.025 46.3129C19.825 46.5129 19.525 46.6129 19.325 46.7129C19.225 46.7129 19.125 46.6129 19.025 46.5129C19.025 46.5129 19.025 46.4129 19.025 46.3129C19.125 45.8129 19.525 45.6129 20.025 45.9129C19.925 46.0129 20.025 46.1129 20.025 46.1129Z" fill="#F9F6EE"/>
<path fill-rule="evenodd" clip-rule="evenodd" d="M22.525 46.4129C22.325 46.5129 22.125 46.6129 21.925 46.6129C21.525 46.7129 21.225 46.413 21.325 46.213C21.425 46.113 21.625 46.0129 21.825 45.9129C22.125 45.9129 22.425 46.1129 22.525 46.4129Z" fill="#F9F6EE"/>
<path fill-rule="evenodd" clip-rule="evenodd" d="M30.025 47.213C30.325 47.213 30.525 47.413 30.625 47.713C30.625 47.813 30.525 48.0129 30.425 48.0129C30.125 48.2129 29.725 47.8129 29.825 47.4129C29.725 47.4129 29.925 47.313 30.025 47.213Z" fill="#F9F6EE"/>
<path fill-rule="evenodd" clip-rule="evenodd" d="M47.725 48.713C47.825 48.713 48.025 48.6129 48.125 48.6129C48.425 48.5129 48.725 48.5129 48.825 48.9129C48.825 49.0129 48.725 49.2129 48.625 49.2129C48.325 49.4129 48.225 49.1129 48.025 49.0129C47.925 48.9129 47.825 48.813 47.725 48.713Z" fill="#F9F6EE"/>
<path fill-rule="evenodd" clip-rule="evenodd" d="M39.825 31.213C39.725 31.413 39.625 31.6129 39.525 31.6129C39.325 31.7129 39.025 31.513 39.125 31.313C39.125 31.213 39.225 31.0129 39.325 30.9129C39.525 31.0129 39.625 31.113 39.825 31.213Z" fill="#F9F6EE"/>
<path fill-rule="evenodd" clip-rule="evenodd" d="M24.025 35.513C23.825 35.513 23.625 35.613 23.425 35.613C23.325 35.613 23.225 35.313 23.325 35.213C23.425 35.013 23.625 34.913 23.925 35.013C23.925 35.1129 23.925 35.313 24.025 35.513Z" fill="#F9F6EE"/>
<path fill-rule="evenodd" clip-rule="evenodd" d="M35.125 35.6129C35.525 35.5129 35.825 35.7129 35.925 36.1129C35.925 36.2129 35.825 36.4129 35.825 36.5129C35.825 36.5129 35.725 36.5129 35.625 36.5129C35.325 36.2129 35.025 36.0129 35.125 35.6129Z" fill="#F9F6EE"/>
<path fill-rule="evenodd" clip-rule="evenodd" d="M36.825 36.213C36.925 36.113 37.025 36.0129 37.125 36.0129C37.325 36.0129 37.425 36.2129 37.325 36.5129C37.225 36.6129 37.025 36.6129 37.025 36.6129C36.825 36.4129 36.825 36.313 36.825 36.213Z" fill="#F9F6EE"/>
<path fill-rule="evenodd" clip-rule="evenodd" d="M33.325 43.213C33.425 43.113 33.525 43.0129 33.625 43.0129C33.925 43.1129 34.125 43.3129 34.125 43.6129C34.125 43.7129 34.025 43.8129 33.925 43.9129C33.925 43.9129 33.825 43.913 33.725 43.813C33.425 43.713 33.225 43.513 33.325 43.213Z" fill="#F9F6EE"/>
<path fill-rule="evenodd" clip-rule="evenodd" d="M24.925 40.813L24.825 40.713C24.825 40.613 24.825 40.6129 24.925 40.5129C25.025 40.6129 25.025 40.613 25.125 40.713C25.025 40.713 24.925 40.813 24.925 40.813Z" fill="#F9F6EE"/>
<path fill-rule="evenodd" clip-rule="evenodd" d="M18.525 41.613C18.425 41.713 18.425 41.9129 18.325 41.9129C18.225 41.9129 18.025 41.813 18.025 41.813C18.025 41.713 18.025 41.5129 18.125 41.5129C18.325 41.4129 18.425 41.513 18.525 41.613Z" fill="#F9F6EE"/>
<path fill-rule="evenodd" clip-rule="evenodd" d="M27.925 46.9129C28.025 46.9129 28.225 46.9129 28.325 46.9129C28.425 46.9129 28.425 47.0129 28.525 47.0129C28.425 47.1129 28.325 47.213 28.225 47.213C28.025 47.113 28.025 46.9129 27.925 46.9129Z" fill="#F9F6EE"/>
<path fill-rule="evenodd" clip-rule="evenodd" d="M15.725 46.5129C15.825 46.5129 15.825 46.4129 15.925 46.4129C15.925 46.5129 16.025 46.613 16.025 46.713C15.925 46.713 15.825 46.713 15.825 46.713C15.725 46.713 15.725 46.6129 15.725 46.5129Z" fill="#F9F6EE"/>
<path fill-rule="evenodd" clip-rule="evenodd" d="M17.925 46.213C17.925 46.313 17.925 46.3129 17.825 46.4129C17.725 46.3129 17.625 46.313 17.625 46.213C17.725 46.213 17.725 46.1129 17.825 46.1129C17.825 46.1129 17.825 46.113 17.925 46.213Z" fill="#F9F6EE"/>
<path fill-rule="evenodd" clip-rule="evenodd" d="M22.025 35.313C21.925 35.413 21.925 35.5129 21.825 35.5129C21.725 35.4129 21.625 35.313 21.625 35.213L21.725 35.1129C21.825 35.2129 21.925 35.313 22.025 35.313Z" fill="#F9F6EE"/>
<path fill-rule="evenodd" clip-rule="evenodd" d="M43.125 33.6129C43.125 33.7129 43.025 33.713 43.025 33.813C42.925 33.713 42.925 33.7129 42.825 33.6129C42.925 33.6129 42.925 33.5129 43.025 33.5129L43.125 33.6129Z" fill="#F9F6EE"/>
<path fill-rule="evenodd" clip-rule="evenodd" d="M41.425 32.4129C41.525 32.4129 41.625 32.5129 41.725 32.5129C41.525 32.8129 41.625 32.5129 41.425 32.4129Z" fill="#F9F6EE"/>
<path fill-rule="evenodd" clip-rule="evenodd" d="M31.425 31.313C31.325 31.313 31.225 31.4129 31.125 31.4129C31.125 31.4129 31.025 31.313 31.025 31.213C31.125 31.213 31.225 31.1129 31.325 31.1129C31.325 31.2129 31.325 31.313 31.425 31.313Z" fill="#F9F6EE"/>
<path fill-rule="evenodd" clip-rule="evenodd" d="M50.925 28.313H50.825L50.925 28.4129V28.313Z" fill="#F9F6EE"/>
<path fill-rule="evenodd" clip-rule="evenodd" d="M33.725 31.313H33.525V31.213L33.725 31.313Z" fill="#F9F6EE"/>
<path fill-rule="evenodd" clip-rule="evenodd" d="M40.625 32.0129C40.725 31.9129 40.825 31.9129 41.025 32.0129H40.625Z" fill="#F9F6EE"/>
<path fill-rule="evenodd" clip-rule="evenodd" d="M40.525 32.0129C40.425 32.1129 40.425 32.113 40.325 32.213C40.325 32.213 40.325 32.1129 40.425 32.1129C40.425 32.0129 40.525 32.0129 40.525 32.0129Z" fill="#F9F6EE"/>
<path fill-rule="evenodd" clip-rule="evenodd" d="M41.525 32.4129C41.325 32.2129 41.225 32.1129 41.025 31.9129C41.125 32.1129 41.325 32.3129 41.525 32.4129Z" fill="#F9F6EE"/>
<path fill-rule="evenodd" clip-rule="evenodd" d="M15.025 35.9129V35.813H15.125L15.025 35.9129Z" fill="#F9F6EE"/>
<path fill-rule="evenodd" clip-rule="evenodd" d="M17.025 46.6129L16.925 46.713L16.825 46.6129L16.925 46.5129C16.925 46.5129 16.925 46.6129 17.025 46.6129Z" fill="#F9F6EE"/>
<path fill-rule="evenodd" clip-rule="evenodd" d="M27.925 46.813C27.825 46.713 27.825 46.7129 27.725 46.6129H27.825C27.925 46.8129 27.925 46.813 27.925 46.813Z" fill="#F9F6EE"/>
</svg>
