<svg width="38" height="45" viewBox="0 0 38 45" fill="none" xmlns="http://www.w3.org/2000/svg">
<path fill-rule="evenodd" clip-rule="evenodd" d="M2.02078 8.99987C4.03258 8.90532 6.28231 10.56 8.13817 11.9995C9.89858 13.3018 12.4826 14.9685 12.6549 16.6819C11.4127 17.7081 10.0765 15.7852 9.09778 15.0803C7.79086 14.1962 6.50772 13.5807 6.00673 12.6253C5.10535 12.5592 4.59135 13.8126 3.63037 13.5435C0.914587 12.7423 0.903854 10.2649 2.02078 8.99987Z" fill="#F9F6EE"/>
<path fill-rule="evenodd" clip-rule="evenodd" d="M16.6009 4.77476C16.3425 8.21314 18.2031 12.2972 16.351 15.3767C14.084 12.349 14.9276 8.46317 14.6906 4.8395C14.0583 3.81242 13.426 2.78534 13.5042 1.54967C15.8344 -2.71748 19.109 2.99106 16.6009 4.77476Z" fill="#F9F6EE"/>
<path fill-rule="evenodd" clip-rule="evenodd" d="M18.2407 44.5328C16.5697 43.5351 15.0062 42.3404 14.2548 40.9073C12.6684 37.5696 14.3179 33.6125 13.9138 29.9828C12.0384 31.8563 10.4075 34.3747 8.17453 35.0303C3.18389 35.1174 -1.24165 26.9907 0.318017 23.6664C0.790108 22.6458 2.78468 21.1782 3.8057 20.7131C7.04198 19.1566 14.2176 18.8138 16.6867 23.6563C17.0922 24.4744 17.3004 26.1221 17.8489 27.6147C18.8504 30.4627 21.8559 37.1322 21.807 39.4066C21.74 42.1824 20.4318 44.11 18.2407 44.5328ZM3.69119 22.9516C3.00491 22.4916 2.55703 22.8436 2.22834 23.6016C3.17117 24.3721 3.93564 23.5965 3.69119 22.9516ZM6.66641 30.4569C6.69711 28.6839 5.61135 27.2387 3.91659 25.9724C3.14561 27.8524 4.49956 30.2111 6.66641 30.4569ZM4.8809 31.6977C4.09917 31.1003 3.59867 29.2077 2.78668 29.4461C3.40127 30.0374 3.76443 32.0255 4.8809 31.6977ZM7.40898 25.6636C8.10177 25.0192 6.35948 23.2156 5.84549 24.4689C6.32878 24.9885 6.4955 25.9318 7.40898 25.6636ZM6.08948 26.051C7.23486 27.6992 7.53239 29.6514 9.28675 31.1207C10.1946 30.0825 7.80152 28.6904 8.91799 28.3626C9.37148 28.7807 9.01296 29.4372 10.0396 29.7421C9.88499 28.4646 9.47433 25.9392 7.70137 25.9085C7.95187 26.3862 8.79877 27.9566 8.02869 27.9622C7.88574 27.2876 7.11051 25.5859 6.08948 26.051ZM11.7743 22.5078C11.9894 22.1139 13.47 21.8997 12.8256 21.2069C11.5899 21.1287 10.3603 20.8834 9.14833 21.0738C10.4734 21.4565 10.33 21.7191 11.7743 22.5078ZM13.1585 24.0307C13.7856 23.3505 12.8544 23.1829 12.7711 22.7112C12.3828 23.2662 12.502 23.6722 13.1585 24.0307ZM14.5833 28.1325C15.4018 26.7898 14.0357 24.7654 13.0984 24.7649C13.8322 25.7622 12.9719 27.3378 14.5833 28.1325ZM15.5153 26.4257C15.7961 26.0676 16.196 26.1156 16.3874 25.453C15.9935 25.2379 15.5996 25.0228 15.2713 24.8436C15.1279 25.1062 14.9487 25.4344 14.8053 25.697C15.235 25.8465 15.4259 26.1212 15.5153 26.4257ZM16.6367 40.7592C15.354 39.2065 16.1137 35.7863 14.4963 35.1587C14.6984 36.9736 14.3446 40.2746 16.6367 40.7592ZM17.9562 40.3719C18.1 39.172 17.4868 35.769 16.3223 36.4968C16.5067 37.8759 17.0971 39.1357 17.9562 40.3719ZM19.5521 36.0446C19.9106 35.3882 19.5712 33.6688 18.7173 34.1399C19.1647 34.7252 18.4957 35.6382 19.5521 36.0446ZM20.1105 41.8892C20.3256 41.4953 20.5407 41.1014 20.7199 40.7732C20.523 40.6656 20.326 40.5581 20.129 40.4505C19.914 40.8444 19.6989 41.2383 19.5196 41.5665C19.7166 41.6741 19.9135 41.7816 20.1105 41.8892Z" fill="#F9F6EE"/>
<path fill-rule="evenodd" clip-rule="evenodd" d="M30.0125 21.7294C30.2206 23.3772 32.2622 23.3841 33.4318 24.3637C35.222 25.7674 36.6598 27.6604 37.0351 29.3142C36.5271 30.4004 35.9656 31.1165 35.3743 31.7311C29.4711 30.212 24.3161 24.6697 22.6646 20.3589C16.2725 17.5501 24.3614 4.92226 28.7184 6.61973C31.1297 7.51036 35.0002 15.2488 34.7246 17.3142C34.2935 19.9764 32.3646 21.4798 30.0125 21.7294ZM25.667 8.61808C25.5115 9.21496 24.4066 10.1457 24.9975 10.4683C25.4099 9.24475 27.1708 9.60975 25.667 8.61808ZM26.5932 19.0952C26.6001 17.0536 26.0637 15.2266 24.3093 13.7573C24.3024 15.7989 25.2448 17.5066 26.5932 19.0952ZM31.1968 16.7513C30.3136 16.1838 30.6251 14.0528 29.1026 14.4998C29.7829 15.1269 29.6385 17.264 31.1968 16.7513ZM27.2165 13.8959C28.3563 14.774 27.4661 16.2481 29.3163 16.9176C29.7288 15.694 28.3153 13.1324 27.2165 13.8959ZM31.8849 13.4624C31.3779 12.6742 31.1754 11.7965 30.1967 11.0917C29.9993 11.9213 30.87 13.7604 31.8849 13.4624ZM29.0343 20.0873C29.8095 21.789 30.3602 18.5956 29.0343 20.0873V20.0873ZM31.2672 19.4317C32.163 18.7278 30.3788 17.1569 29.9663 18.3805C30.6945 18.6077 30.2704 19.2283 31.2672 19.4317ZM30.237 26.6246C29.7895 26.0394 28.6442 24.3912 27.4918 24.7847C28.2079 25.3462 29.1503 27.0539 30.237 26.6246Z" fill="#F9F6EE"/>
<path fill-rule="evenodd" clip-rule="evenodd" d="M15.6205 16.0863C18.7833 18.41 21.0679 21.8735 23.0304 24.9905C24.8677 27.8688 27.9285 31.1595 26.4164 35.0211C20.8069 30.9352 19.3947 25.5619 16.4241 20.7012C13.72 20.5029 12.7967 16.4192 15.6205 16.0863ZM22.1528 25.1931C21.1388 23.6166 20.4058 20.7449 18.1077 20.4274C19.1576 21.9382 20.601 24.6014 22.1528 25.1931ZM25.4092 31.4031C25.4637 29.8987 24.5455 27.5224 22.7427 27.3902C23.4286 28.7874 24.5204 30.0654 25.4092 31.4031Z" fill="#F9F6EE"/>
</svg>
