<svg width="108" height="108" viewBox="0 0 108 108" fill="none" xmlns="http://www.w3.org/2000/svg">
<circle cx="54.0488" cy="53.5713" r="53" fill="#F9F6EE" stroke="#FF9DBA"/>
<path fill-rule="evenodd" clip-rule="evenodd" d="M33.6762 86.0893C32.9178 86.2189 32.1012 86.2405 31.75 87.1265C31.7012 87.2922 31.215 87.4146 31.1568 87.3065C30.4867 86.831 29.5049 86.8021 29.3022 85.6568C29.2441 85.5487 29.1277 85.3326 29.0695 85.2245C28.5157 84.9652 27.9132 84.8715 27.7292 84.2736C26.9635 82.5951 25.3416 81.3776 24.8969 79.5262C24.6548 78.8202 24.7036 78.6546 25.2875 78.2008C25.7644 77.8046 26.2994 77.5165 26.7274 77.2861C27.2625 76.998 27.0973 76.9475 26.7388 76.0254C26.5643 75.7013 26.6619 75.3699 26.6526 75.0962C26.7014 74.9305 26.906 74.5415 27.0712 74.592C27.4504 74.5272 27.839 74.7361 28.1507 74.2895C28.5112 73.6772 29.095 73.2235 28.7947 72.4094C28.5433 71.4297 28.7386 70.767 29.4783 70.09C30.111 69.4705 30.3063 68.8078 30.3364 68.0947C30.4735 67.3239 30.5524 66.4451 30.6313 65.5662C30.7684 64.7955 31.0801 64.3489 31.7803 64.1112C31.8873 64.0536 31.8873 64.0536 31.9943 63.996C32.4712 63.5998 33.4624 63.9025 33.7647 63.1821C34.0088 62.3537 34.0877 61.4749 34.2248 60.7042C33.643 59.6236 34.0918 58.4062 33.7239 57.2104C33.4818 56.5044 33.5119 55.7913 33.1046 55.0349C32.7555 54.3865 32.7275 53.5653 32.6994 52.7441C32.7295 52.031 32.6526 51.3755 32.4686 50.7776C32.1684 49.9635 32.1403 49.1423 32.5496 48.3644C32.9101 47.7521 32.8332 47.0966 32.9215 46.4915C32.9723 44.7915 32.965 42.9834 33.8906 41.3699C34.0464 41.1466 33.9789 40.7648 34.0183 40.3254C34.1762 38.5677 34.8296 36.9614 35.7553 35.3479C37.6741 32.5026 40.049 30.2481 42.4727 27.8279C42.7356 27.547 43.1636 27.3165 43.5428 27.2517C45.0015 26.8845 46.4601 26.5172 47.977 26.258C49.3286 25.9484 50.6314 25.8044 51.953 26.2079C52.1182 26.2584 52.4486 26.3592 52.7208 26.352C54.7914 26.3522 56.6179 27.1808 58.5513 27.9517C58.9399 28.1606 59.2703 28.2615 59.7659 28.4128C62.5253 29.436 65.1383 30.9561 67.4396 32.9229C69.1778 34.3565 71.2952 35.7253 72.6729 37.7713C73.4782 39.0103 74.7114 40.0189 75.8377 41.0851C76.459 41.7263 76.9151 42.317 77.2154 43.131C77.9718 44.5358 78.7282 45.9405 79.5916 47.2877C80.3968 48.5267 80.7158 49.8882 81.093 51.3578C81.4307 53.2667 81.7684 55.1757 81.9992 57.1423C82.0667 57.5241 82.0272 57.9635 81.9878 58.4029C81.9577 59.1161 81.7136 59.9444 82.0627 60.5928C81.7978 62.4081 81.6981 64.2738 80.4421 65.7864C79.6536 66.6291 78.9814 67.688 78.7467 68.7901C78.649 69.1215 78.5514 69.4528 78.2886 69.7337C76.7603 71.2536 75.5137 73.0399 73.4805 74.1347C72.0894 74.8838 70.6308 75.251 69.2209 75.4526C68.3555 75.6398 67.3831 75.8847 66.5176 76.0719C64.7286 76.3383 62.8325 76.6623 61.0248 76.3812C59.217 76.1001 57.4093 75.819 55.5921 75.2642C54.601 74.9616 53.561 74.8246 52.5886 75.0695C51.9953 75.2495 51.4509 75.2639 50.9948 74.6732C50.9366 74.5651 50.6644 74.5723 50.5574 74.6299C49.9829 75.3574 49.2151 75.2133 48.5056 75.1772C48.2333 75.1844 48.0193 75.2996 47.8635 75.5229C47.7077 75.7462 47.61 76.0776 47.6682 76.1856C47.9009 76.6179 48.3477 76.9348 48.6874 77.3095C49.2017 78.0082 49.1322 79.1608 48.3249 79.4561C47.7899 79.7442 47.0803 79.7081 47.0014 80.5869C46.9526 80.7526 46.5733 80.8174 46.3011 80.8246C45.2612 80.6876 44.2794 80.6587 43.3745 81.2854C42.6254 81.6887 41.7506 81.6022 40.9735 81.1843C40.2545 80.8745 40.2057 81.0402 39.9034 81.7605C39.2105 83.8063 39.2105 83.8063 36.8002 83.4315C36.4698 83.3306 35.9836 83.453 35.9441 83.8924C35.7187 85.2683 34.4741 85.5203 33.6762 86.0893ZM39.9625 51.621C39.7485 51.7362 39.5927 51.9595 39.4857 52.0171C38.8644 51.376 38.6711 50.5043 39.0222 49.6183C39.1687 49.1213 39.3733 48.7323 39.3546 48.1848C39.5426 45.7141 41.3357 42.379 44.2737 40.6576C45.2368 40.139 46.4232 39.7789 47.4726 40.1896C48.8523 40.7012 50.0762 41.436 50.8814 42.6751C51.2887 43.4315 51.6866 43.9142 52.4056 44.224C52.7942 44.4329 53.1339 44.8075 53.3085 45.1317C53.8997 46.486 55.056 46.8391 56.2706 47.3002C56.9313 47.5019 57.5921 47.7037 58.2529 47.9054C58.5833 48.0063 58.9718 48.2153 58.9812 48.489C59.2233 49.195 59.4654 49.9009 60.4472 49.9298C61.0685 50.571 61.5246 51.1617 62.1459 51.8029C62.067 52.6817 62.9605 53.3157 62.9886 54.1369C62.9979 54.4106 63.1143 54.6267 63.3377 54.7852C64.173 55.3111 65.0665 55.9451 65.7948 56.5287C66.8535 57.2131 67.4842 58.128 67.6962 59.5471C68.0433 61.7298 67.3899 63.3361 65.9687 64.7983C65.9874 65.3458 65.8409 65.8428 65.3059 66.1309C64.0706 66.6567 62.9517 67.3986 61.4255 67.384C60.9881 67.3408 60.56 67.5713 60.239 67.7441C59.811 67.9746 59.3248 68.097 58.7804 68.1114C57.4194 68.1473 56.0584 68.1832 54.8044 68.1615C54.367 68.1182 53.9784 67.9093 53.648 67.8084C53.1524 67.6571 52.608 67.6715 52.18 67.9019C51.5379 68.2477 51.0029 68.5357 50.3027 68.7734C49.8165 68.8958 49.2627 68.6365 48.7952 69.3064C48.5417 69.861 47.8997 70.2067 47.3158 70.6605C46.8389 71.0567 46.3039 71.3447 45.8759 71.5752C45.3408 71.8633 44.864 72.2595 44.6105 72.8141C44.5617 72.9798 44.5128 73.1455 44.464 73.3112C44.4827 73.8586 46.037 74.6944 46.4069 74.3558C47.5746 73.4483 48.7611 73.0882 50.1896 73.4341C50.52 73.535 50.841 73.3621 51.162 73.1892C51.5901 72.9588 52.0763 72.8363 52.5043 72.6059C53.2534 72.2025 54.177 72.1234 54.9053 72.7069C55.4591 72.9663 55.9547 73.1176 56.6061 73.0456C57.0923 72.9232 57.5879 73.0745 58.0834 73.2258C58.8512 73.37 59.6772 73.6221 60.552 73.7087C62.6901 74.0906 64.7607 74.0908 66.7544 73.4354C68.2131 73.0682 69.6135 72.5929 71.1886 72.4417C72.0052 72.4202 72.5402 72.1321 72.9589 71.6278C73.9032 70.5618 74.9058 69.6038 75.9571 68.4802C76.3758 67.9759 76.6875 67.5293 76.9991 67.0827C77.5154 66.2472 77.7014 65.3107 78.6156 64.9578C78.7226 64.9002 78.8785 64.6769 78.8203 64.5689C79.027 62.6455 79.1848 60.8879 79.2845 59.0222C79.2751 58.7485 79.2658 58.4747 79.1494 58.2586C78.5094 57.07 78.6278 55.7517 78.3669 54.4983C78.0292 52.5893 78.1195 50.4499 76.7512 48.6777C76.693 48.5697 76.5766 48.3535 76.6254 48.1879C76.6555 47.4747 76.267 47.2658 75.762 46.8407C75.2571 46.4157 74.9568 45.6017 74.6077 44.9533C73.7838 43.1668 72.1619 41.9493 71.017 40.3356C69.8024 39.8744 69.4346 38.6786 68.3759 37.9942C68.0943 37.7277 67.8616 37.2954 67.7941 36.9136C67.7265 36.5318 67.6101 36.3157 67.1728 36.2725C66.6284 36.2868 66.2398 36.0779 65.793 35.7609C65.0647 35.1774 64.4434 34.5362 63.6081 34.0103C61.2673 32.4829 58.6148 31.4022 56.0206 30.4295C55.632 30.2206 55.1946 30.1773 54.8642 30.0764C51.9001 29.4423 48.9059 29.5213 45.8722 30.0397C44.8998 30.2845 43.9856 30.6374 43.1388 31.3721C42.2921 32.1068 41.4454 32.8415 40.7639 33.6266C40.1312 34.2461 39.4404 34.7575 38.9729 35.4274C38.1937 36.5439 37.6379 37.8188 37.1891 39.0362C36.6334 40.3112 36.6313 41.8455 35.7452 43.0196C35.6382 43.0772 35.7545 43.2934 35.7057 43.459C35.5177 45.9298 35.2716 48.2926 34.9766 50.821C34.8884 51.4261 34.8001 52.0312 35.091 52.5714C35.1585 52.9532 35.2843 53.4431 35.2448 53.8825C35.3291 56.3461 35.5203 58.7521 36.363 61.0861C36.5375 61.4103 36.6051 61.7921 36.5074 62.1234C36.2633 62.9518 36.3984 63.7154 36.7569 64.6375C36.9408 65.2354 36.5709 65.5739 36.2593 66.0205C36.3174 66.1286 36.3175 66.1286 36.3756 66.2366C36.7736 66.7193 36.8806 66.6617 37.1434 66.3808C37.3969 65.8261 37.7085 65.3795 37.962 64.8249C38.5666 63.3842 38.9572 62.0588 38.9011 60.4164C38.8543 59.0477 38.5353 57.6862 38.9259 56.3608C39.0235 56.0295 38.8489 55.7053 38.6744 55.3811C38.3253 54.7328 38.4136 54.1277 38.7741 53.5154C38.9787 53.1264 39.0764 52.7951 39.281 52.4061C39.5345 51.8515 39.7485 51.7362 39.9625 51.621ZM44.1096 69.3204C44.3236 69.2051 44.5958 69.198 44.8098 69.0827C44.9168 69.0251 44.9657 68.8594 44.9075 68.7514C44.7423 68.7009 44.5771 68.6505 44.4701 68.7081C44.3142 68.9314 44.2654 69.0971 44.1096 69.3204C43.9538 69.5437 43.7979 69.767 43.5351 70.0479C43.2629 70.0551 43.0489 70.1703 42.7767 70.1775C42.6697 70.2351 42.6208 70.4008 42.572 70.5665C42.679 70.5088 42.8442 70.5593 42.9512 70.5017C43.1652 70.3864 43.3211 70.1631 43.4769 69.9398C43.5351 70.0479 43.5351 70.0479 43.5933 70.1559C43.7096 70.3721 43.826 70.5882 44.147 70.4153C44.254 70.3577 44.2447 70.084 44.1865 69.9759C44.2353 69.8102 44.1189 69.5941 44.1096 69.3204ZM33.0731 71.639C32.9567 71.4229 32.8403 71.2068 32.6169 71.0483C32.5587 70.9402 32.2866 70.9474 32.1795 71.005C32.0725 71.0626 32.0237 71.2283 31.9749 71.394C32.0331 71.5021 32.1983 71.5525 32.3635 71.6029C32.5868 71.7614 32.8009 71.6462 33.0731 71.639C33.2382 71.6895 33.2964 71.7975 33.4128 72.0136C33.0523 72.6259 33.0128 73.0653 33.576 73.5984C35.1677 75.5291 37.2363 77.0636 39.3537 78.4325C39.5771 78.591 39.8004 78.7494 40.0726 78.7423C40.403 78.8431 40.8404 78.8864 41.0544 78.7711C41.3755 78.5983 41.3079 78.2165 41.2404 77.8347C41.1728 77.4529 41.0565 77.2368 40.9889 76.855L41.1541 76.9055L41.0471 76.9631C40.4933 76.7037 39.9001 76.8837 39.5022 76.4011C39.1042 75.9184 38.5411 75.3853 37.9874 75.1259C37.2684 74.8161 36.7635 74.3911 36.2003 73.858C35.8024 73.3753 35.0346 73.2312 34.4809 72.9718C34.0923 72.7628 33.9177 72.4387 33.471 72.1217C33.578 72.0641 33.578 72.0641 33.685 72.0064C33.792 71.9488 33.8408 71.7831 33.8897 71.6175C33.7245 71.567 33.6663 71.459 33.5593 71.5166C33.2871 71.5238 33.1801 71.5814 33.0731 71.639ZM33.768 68.0589C33.6703 68.3903 33.7867 68.6064 34.1077 68.4335C34.729 69.0747 35.2921 69.6078 35.9135 70.249C36.4184 70.674 36.3301 71.2791 36.2418 71.8842C36.2117 72.5973 36.5234 72.1507 36.8444 71.9779C36.9514 71.9203 37.2818 72.0211 37.2818 72.0211C37.4262 73.0585 38.5639 72.8641 39.1852 73.5052C40.2626 74.7371 41.8657 75.4072 43.0013 76.7471C43.2829 77.0137 43.6226 77.3883 44.06 77.4315C44.6626 77.5252 45.0605 78.0079 45.4585 78.4906C45.5167 78.5986 45.7889 78.5914 45.8377 78.4258C45.8865 78.2601 45.9353 78.0944 45.8771 77.9864C45.7026 77.6622 45.3628 77.2876 45.0813 77.021C43.3036 76.0268 42.1587 74.4131 40.5462 73.4693C40.1576 73.2604 39.9249 72.8281 39.7503 72.504C39.3919 71.5819 38.2937 71.3369 38.1492 70.2996C37.3139 69.7736 36.4204 69.1397 35.6433 68.7218C35.2547 68.5129 34.7009 68.2535 34.1659 68.5416C34.0495 68.3255 33.8843 68.275 33.768 68.0589C34.0214 67.5043 34.2167 66.8416 34.5772 66.2293C34.5772 66.2293 34.4027 65.9051 34.2375 65.8547C33.6349 65.761 33.2069 65.9915 33.0604 66.4885C32.9233 67.2593 33.3212 67.7419 33.768 68.0589ZM32.5332 82.9413C31.6304 82.0336 30.6693 81.0178 29.7664 80.1101C29.7082 80.002 29.6012 80.0597 29.5431 79.9516C29.4942 80.1173 29.4454 80.283 29.5036 80.391C30.1343 81.3059 30.7067 82.1127 31.4444 82.97C31.726 83.2366 32.2122 83.1142 32.5332 82.9413C32.6402 82.8837 32.9218 83.1502 32.9613 82.7108C32.8543 82.7684 32.7472 82.8261 32.5332 82.9413ZM47.3608 51.2614C47.5353 51.5856 47.6611 52.0754 47.8356 52.3996C48.1265 52.9399 48.6221 53.0912 49.099 52.695C50.0527 51.9027 50.9482 51.0024 51.8438 50.102C51.9508 50.0444 51.9414 49.7706 51.8832 49.6626C51.825 49.5545 51.6017 49.396 51.4947 49.4536C50.6874 49.7489 49.8802 50.0442 49.2381 50.3899C48.5961 50.7356 47.954 51.0814 47.3608 51.2614C47.2538 51.319 46.8652 51.1101 46.9909 51.5999C47.0979 51.5423 47.312 51.4271 47.3608 51.2614ZM60.5815 58.6389C60.191 59.9643 59.179 60.6486 57.8274 60.9582C57.1272 61.1959 56.2524 61.1093 55.3963 61.5703C54.9195 61.9665 54.1423 61.5486 53.5792 61.0155C53.0161 60.4824 52.667 59.834 52.1038 59.3009C51.6571 58.9839 51.629 58.1627 51.8825 57.6081C52.029 57.111 52.5058 56.7149 52.5453 56.2755C52.5172 55.4543 53.1011 55.0005 53.6361 54.7124C53.9571 54.5395 54.4433 54.4171 54.648 54.0281C55.0968 52.8108 56.0692 52.5659 57.3232 52.5877C57.9258 52.6813 58.5772 52.6094 59.024 52.9264C59.024 52.9264 59.2962 52.9192 59.238 52.8111C59.2868 52.6454 59.3356 52.4798 59.2774 52.3717C58.7631 51.6729 58.1418 51.0318 57.6857 50.441C56.9387 49.31 55.801 49.5044 54.7122 49.5332C54.6052 49.5908 54.3912 49.706 54.3424 49.8717C54.1959 50.3687 53.6121 50.8225 53.9612 51.4708C54.0193 51.5789 53.9799 52.0183 53.7659 52.1335C52.6657 53.4229 51.2839 54.4457 49.9022 55.4685C49.4742 55.6989 49.0461 55.9294 48.4435 55.8357C48.0061 55.7925 47.6758 55.6916 47.2384 55.6483C45.761 55.4681 44.9069 54.3947 45.1323 53.0189C45.1624 52.3057 45.2507 51.7006 45.446 51.0379C45.7971 50.1519 46.0901 49.1579 46.9368 48.4232C47.8905 47.6309 48.7372 46.8962 49.933 46.8098C50.2052 46.8027 50.4193 46.6874 50.6333 46.5722C50.8473 46.4569 50.9449 46.1256 50.8286 45.9095C50.654 45.5853 50.4213 45.1531 50.2561 45.1026C49.4883 44.9585 49.1974 44.4182 48.7413 43.8275C48.6831 43.7194 48.5667 43.5033 48.5085 43.3952C47.5568 42.6532 45.5444 42.7611 44.6977 43.4958C43.53 44.4033 42.702 45.6855 42.2532 46.9029C41.7556 48.2859 40.6554 49.5752 41.4212 51.2537C41.1771 52.0821 41.2052 52.9033 41.3984 53.7749C41.5823 54.3729 41.6011 54.9203 41.785 55.5182C42.0271 56.2242 41.8318 56.8869 41.6365 57.5496C41.49 58.0466 41.0713 58.5509 41.3041 58.9831C41.8464 60.5031 41.1348 62.0014 40.8606 63.5429C40.5282 64.9764 40.254 66.5179 39.2608 67.7496C39.105 67.9729 38.7351 68.3114 38.8027 68.6932C38.8214 69.2407 39.5216 69.0031 39.8032 69.2696C40.0266 69.4281 40.0359 69.7018 40.2593 69.8603C40.8806 70.5015 41.425 70.4871 42.0089 70.0334C42.5439 69.7453 43.079 69.4572 43.2743 68.7944C43.4114 68.0237 44.1116 67.786 44.6467 67.4979C45.9889 66.9146 47.4382 66.2736 48.7223 65.5821C48.9363 65.4669 49.2574 65.294 49.4226 65.3445C50.2579 65.8704 50.7254 65.2005 51.2604 64.9124C51.6885 64.6819 52.1747 64.5595 52.6214 64.8765C52.8448 65.035 53.2822 65.0782 53.5544 65.0711C54.9736 65.1432 56.2276 65.1649 57.5886 65.129C58.133 65.1147 58.5704 65.1579 59.0171 65.4749C59.0753 65.583 59.5616 65.4605 59.6686 65.4029C60.2919 64.5097 61.3225 64.3729 62.2949 64.1281C64.5027 63.3575 65.0772 62.63 65.0511 60.2744C64.9836 59.8927 64.8578 59.4028 64.6833 59.0786C64.1596 58.1061 63.1685 57.8035 62.2749 57.1695C62.2168 57.0614 62.0027 57.1767 61.7305 57.1839C61.1373 57.3639 60.6605 57.7601 60.5815 58.6389ZM57.9291 57.5581C58.3478 57.0539 58.6106 56.773 58.9223 56.3264C59.0293 56.2688 58.8547 55.9446 58.8547 55.9446C57.9706 55.5844 57.1446 55.3322 56.3561 56.1749C56.2491 56.2326 56.0351 56.3478 55.9281 56.4054C55.286 56.7511 55.0907 57.4138 55.0606 58.127C55.07 58.4007 55.0793 58.6745 55.4585 58.6097C55.8959 58.6529 56.3333 58.6962 56.6543 58.5233C57.0824 58.2928 57.5592 57.8967 57.9291 57.5581ZM38.1839 80.8743C38.1257 80.7663 38.1164 80.4926 37.9512 80.4421C37.2904 80.2404 36.6297 80.0386 36.0759 79.7792C36.0759 79.7792 35.9107 79.7288 35.8037 79.7864C35.8037 79.7864 35.7549 79.9521 35.813 80.0602C36.3762 80.5933 37.1533 81.0111 38.0769 80.932C38.1351 81.04 38.0769 80.932 38.1839 80.8743ZM32.8135 76.7967C32.7065 76.8543 32.5413 76.8039 32.4343 76.8615C32.4925 76.9696 32.5019 77.2433 32.6089 77.1857C32.667 77.2937 32.8811 77.1785 32.9881 77.1209C32.9299 77.0128 32.8717 76.9048 32.8135 76.7967ZM31.3963 75.1902C31.2893 75.2478 31.0171 75.255 31.0753 75.3631C31.0265 75.5288 31.1917 75.5792 31.1429 75.7449C31.2499 75.6872 31.3569 75.6296 31.4639 75.572C31.5709 75.5144 31.5127 75.4063 31.3963 75.1902ZM33.8026 78.6337L33.8515 78.468C33.7933 78.36 33.6281 78.3095 33.4629 78.2591L33.4141 78.4248C33.5793 78.4752 33.6375 78.5833 33.8026 78.6337ZM34.6038 82.9415C34.7108 82.8838 34.8179 82.8262 34.983 82.8767C34.9249 82.7686 34.8667 82.6606 34.8667 82.6606C34.7597 82.7182 34.6527 82.7758 34.4875 82.7254C34.5456 82.8334 34.6038 82.9415 34.6038 82.9415ZM27.5514 79.0726L27.6002 78.9069C27.4932 78.9645 27.435 78.8565 27.328 78.9141C27.2792 79.0798 27.2792 79.0798 27.3374 79.1878C27.4444 79.1302 27.4444 79.1302 27.5514 79.0726ZM50.6044 53.6965C50.4974 53.7541 50.3904 53.8117 50.2834 53.8693L50.4486 53.9198C50.4974 53.7541 50.6044 53.6965 50.6044 53.6965Z" fill="#FF9DBA" fill-opacity="0.21"/>
<path fill-rule="evenodd" clip-rule="evenodd" d="M98.3434 47.5053C98.4109 47.8871 98.5761 47.9375 98.5273 48.1032C98.5554 48.9244 97.8157 49.6015 97.1642 49.6735C95.7451 49.6013 94.277 49.6948 92.8578 49.6227C91.4387 49.5505 90.0683 49.3127 88.6003 49.4062C87.8419 49.5358 87.2694 48.729 87.3483 47.8502C87.4761 46.8057 88.0599 46.3519 88.9835 46.2727C89.8001 46.2512 90.6167 46.2297 91.4915 46.3162C91.6567 46.3666 91.8707 46.2514 92.0359 46.3018C93.6484 47.2456 95.4863 46.8135 97.2358 46.9866C97.6244 47.1955 98.013 47.4044 98.3434 47.5053Z" fill="#FF9DBA" fill-opacity="0.21"/>
<path fill-rule="evenodd" clip-rule="evenodd" d="M88.7546 65.0739C88.8034 64.9082 88.6289 64.5841 88.7265 64.2527C89.0777 63.3667 89.8756 62.7977 90.7015 63.0499C91.4693 63.194 92.4023 63.3886 93.1794 63.8065C94.1217 64.2748 95.1129 64.5774 96.0947 64.6063C97.0183 64.5271 97.7373 64.8369 98.5144 65.2548C99.1263 65.6222 99.4661 65.9968 99.2614 66.3858C98.9103 67.2718 98.3846 67.8336 97.675 67.7976C97.0724 67.7039 96.4117 67.5021 95.6533 67.6317C95.274 67.6965 94.8855 67.4876 94.4969 67.2787C93.885 66.9112 93.3312 66.6519 92.5728 66.7815C91.805 66.6373 89.3177 65.607 88.7546 65.0739Z" fill="#FF9DBA" fill-opacity="0.21"/>
<path fill-rule="evenodd" clip-rule="evenodd" d="M71.1148 17.7021C71.1242 17.9758 71.2987 18.3 71.2499 18.4657C71.0546 19.1284 70.8593 19.7911 70.6058 20.3458C69.9337 21.4046 69.4267 22.5139 68.978 23.7313C68.7827 24.394 68.3152 25.0639 67.8477 25.7338C67.5848 26.0147 67.2056 26.0795 66.9822 25.921C66.3121 25.4455 65.6908 24.8043 65.8767 23.8679C66.0928 22.2183 66.7462 20.612 67.7882 19.2146C68.4115 18.3214 69.3164 17.6948 70.5122 17.6084C70.7263 17.4932 70.9496 17.6517 71.1148 17.7021Z" fill="#FF9DBA" fill-opacity="0.21"/>
<path fill-rule="evenodd" clip-rule="evenodd" d="M45.3334 11.0944C46.071 11.9517 46.4295 12.8737 46.681 13.8534C46.8836 14.9988 47.2514 16.1946 47.4541 17.34C47.5892 18.1036 47.2775 18.5502 46.4702 18.8455C46.1492 19.0183 45.7118 18.9751 45.6443 18.5933C45.1694 17.4551 44.4224 16.3241 44.2686 15.013C44.066 13.8676 43.4841 12.7871 42.9023 11.7065C42.495 10.9501 42.5251 10.2369 42.8461 10.0641C43.3811 9.77597 43.7697 9.98491 44.3235 10.2443C44.7702 10.5613 45.11 10.9359 45.3334 11.0944Z" fill="#FF9DBA" fill-opacity="0.21"/>
<path fill-rule="evenodd" clip-rule="evenodd" d="M82.8106 31.4762C82.4408 31.8147 82.0709 32.1533 81.5941 32.5494C81.2731 32.7223 81.0009 32.7295 80.7193 32.4629C80.4377 32.1964 80.2144 32.0379 80.0398 31.7137C79.7582 31.4471 79.7977 31.0077 79.9535 30.7844C80.2652 30.3378 80.5187 29.7832 80.9955 29.387C81.6282 28.7676 82.2121 28.3138 82.903 27.8024C83.3798 27.4063 83.9824 27.4999 84.585 27.5936C85.0224 27.6369 85.4203 28.1196 85.2157 28.5085C84.8064 29.2865 84.4459 29.8988 83.8714 30.6263C83.6085 30.9072 83.1805 31.1377 82.8106 31.4762Z" fill="#FF9DBA" fill-opacity="0.21"/>
<path fill-rule="evenodd" clip-rule="evenodd" d="M33.5692 86.147C33.6274 86.255 33.5203 86.3126 33.5785 86.4207C33.6274 86.255 33.6274 86.255 33.5692 86.147Z" fill="#FF9DBA" fill-opacity="0.21"/>
<path fill-rule="evenodd" clip-rule="evenodd" d="M60.5815 58.6389C60.6885 58.5813 60.7956 58.5236 60.8537 58.6317L60.7467 58.6893C60.6885 58.5813 60.6885 58.5813 60.5815 58.6389Z" fill="#FF9DBA" fill-opacity="0.21"/>
<path d="M22.8034 64.4L17.7937 64.1783L18.1262 57.6612L14.8011 58.3927L14.9563 64.5108L10.7667 64.3335L9.56972 48.4398L14.5351 47.8191L14.6903 54.1145L18.3035 54.0037L18.636 47.4866L23.2689 47.7748L22.8034 64.4ZM40.0455 63.5133L35.1909 64.9098L34.1713 61.5183L29.7822 61.8286L29.0507 65.1758L24.041 64.2227L29.3389 47.2427L34.0604 47.3979L40.0455 63.5133ZM33.2403 58.3927L31.6664 53.1835L30.4029 58.5701L33.2403 58.3927ZM64.0468 61.5848L60.1011 64.533L54.6037 58.8582L54.6702 64.6438L49.1949 64.5108L49.8156 57.9272L45.2936 64.2227L40.2173 63.9567L46.1137 56.3534L40.3725 50.6786L44.3182 47.7304L50.126 53.6047L50.3033 47.3092L54.4929 47.5309L54.5594 54.3805L59.1258 48.0408L64.202 48.3068L58.3056 55.91L64.0468 61.5848ZM84.1215 64.1118L78.6684 64.3557L77.8925 55.3337L75.0552 62.5823L73.1045 62.9148L70.8213 55.7992L69.1366 64.666L64.548 63.5798L68.0726 47.3979L71.5528 47.2871L74.368 55.4889L77.7374 47.3314L81.4171 47.7083L84.1215 64.1118ZM88.4733 64.5552L85.2812 64.5108L85.5694 47.2649L90.5792 47.5309L90.025 54.3362L94.6579 47.2649L98.6258 47.5752L98.6036 64.4L92.9954 64.5995L93.5274 55.7327L88.4733 64.5552Z" fill="#FF9DBA"/>
</svg>
