<svg width="32" height="33" viewBox="0 0 32 33" fill="none" xmlns="http://www.w3.org/2000/svg">
<path d="M24.0999 2.37354L29.6639 8.17354V30.2295H8.87891V30.3015H29.7349V8.24654L24.0999 2.37354Z" fill="#909090"/>
<path d="M24.0316 2.30176H8.80859V30.2298H29.6646V8.17476L24.0316 2.30176Z" fill="#FF9DBA"/>
<path d="M8.65562 3.80176H2.26562V10.6288H22.3656V3.80176H8.65562Z" fill="#7A7B7C"/>
<path d="M22.4715 10.5127H2.39453V3.68066H22.4715V10.5127Z" fill="#F9F6EE"/>
<path d="M9.05114 4.83592H7.74414V9.63592H8.77214V8.01692L8.99914 8.02992C9.21979 8.02688 9.43841 7.98735 9.64614 7.91292C9.82876 7.85091 9.99661 7.75184 10.1391 7.62192C10.2853 7.49936 10.4001 7.34373 10.4741 7.16792C10.5754 6.87664 10.6112 6.56663 10.5791 6.25992C10.5734 6.04077 10.535 5.82371 10.4651 5.61592C10.4022 5.46573 10.3085 5.33034 10.1902 5.21841C10.0719 5.10648 9.93158 5.02049 9.77814 4.96592C9.64586 4.91693 9.50876 4.88207 9.36914 4.86192C9.26367 4.84475 9.157 4.83605 9.05014 4.83592M8.86114 7.12992H8.77214V5.64992H8.96514C9.05032 5.64378 9.13579 5.65685 9.21524 5.68818C9.29469 5.71951 9.36608 5.76829 9.42414 5.83092C9.54446 5.99194 9.60873 6.18792 9.60714 6.38892C9.60714 6.63492 9.60714 6.85792 9.38514 7.01492C9.22525 7.10299 9.04317 7.14361 8.86114 7.12992ZM12.5321 4.82292C12.4211 4.82292 12.3131 4.83092 12.2371 4.83392L11.9991 4.83992H11.2191V9.63992H12.1371C12.4879 9.64894 12.8371 9.5895 13.1651 9.46492C13.4293 9.36062 13.663 9.19181 13.8451 8.97392C14.0236 8.75507 14.151 8.4992 14.2181 8.22492C14.297 7.91485 14.3353 7.59585 14.3321 7.27592C14.3517 6.89808 14.3225 6.51929 14.2451 6.14892C14.1711 5.87661 14.0341 5.62552 13.8451 5.41592C13.6969 5.24643 13.5146 5.11013 13.3101 5.01592C13.135 4.93472 12.9506 4.87496 12.7611 4.83792C12.6858 4.82557 12.6095 4.81988 12.5331 4.82092M12.3511 8.75792H12.2511V5.69392H12.2641C12.4703 5.67008 12.6789 5.70729 12.8641 5.80092C12.9998 5.90925 13.1103 6.04572 13.1881 6.20092C13.2721 6.36426 13.3205 6.54353 13.3301 6.72692C13.3391 6.94692 13.3301 7.12692 13.3301 7.27592C13.3338 7.44755 13.3228 7.61918 13.2971 7.78892C13.2657 7.96299 13.2087 8.13146 13.1281 8.28892C13.0371 8.43576 12.9127 8.5591 12.7651 8.64892C12.6419 8.72893 12.4957 8.76617 12.3491 8.75492M17.4291 4.83992H14.9991V9.63992H16.0271V7.73592H17.3271V6.84392H16.0271V5.73192H17.4271V4.83992" fill="#FF9DBA"/>
<path d="M21.7807 20.5568C21.7807 20.5568 24.9687 19.9788 24.9687 21.0678C24.9687 22.1568 22.9937 21.7138 21.7807 20.5568ZM19.4237 20.6398C18.9171 20.7514 18.4235 20.9153 17.9507 21.1288L18.3507 20.2288C18.7507 19.3288 19.1657 18.1018 19.1657 18.1018C19.6418 18.9059 20.1972 19.6603 20.8237 20.3538C20.3521 20.424 19.8847 20.5202 19.4237 20.6418V20.6398ZM18.1617 14.1398C18.1617 13.1908 18.4687 12.9318 18.7077 12.9318C18.9467 12.9318 19.2157 13.0468 19.2247 13.8708C19.1467 14.6993 18.9732 15.5161 18.7077 16.3048C18.3427 15.643 18.1543 14.8985 18.1607 14.1428L18.1617 14.1398ZM13.5127 24.6558C12.5347 24.0708 15.5637 22.2698 16.1127 22.2118C16.1097 22.2128 14.5367 25.2678 13.5127 24.6558ZM25.8997 21.1968C25.8897 21.0968 25.7997 19.9898 23.8297 20.0368C23.0085 20.0224 22.1877 20.0803 21.3767 20.2098C20.5906 19.4185 19.9139 18.5256 19.3647 17.5548C19.7105 16.5541 19.92 15.5114 19.9877 14.4548C19.9587 13.2548 19.6717 12.5668 18.7517 12.5768C17.8317 12.5868 17.6977 13.3918 17.8187 14.5898C17.9371 15.3948 18.1607 16.1809 18.4837 16.9278C18.4837 16.9278 18.0587 18.2508 17.4967 19.5668C16.9347 20.8828 16.5507 21.5728 16.5507 21.5728C15.5733 21.8906 14.6532 22.3632 13.8257 22.9728C13.0017 23.7398 12.6667 24.3288 13.1007 24.9178C13.4747 25.4258 14.7837 25.5408 15.9537 24.0078C16.5743 23.2152 17.1422 22.3827 17.6537 21.5158C17.6537 21.5158 19.4377 21.0268 19.9927 20.8928C20.5477 20.7588 21.2187 20.6528 21.2187 20.6528C21.2187 20.6528 22.8477 22.2918 24.4187 22.2338C25.9897 22.1758 25.9137 21.2948 25.9037 21.1988" fill="#F9F6EE"/>
<path d="M23.9531 2.37891V8.25191H29.5861L23.9531 2.37891Z" fill="#909090"/>
<path d="M24.0312 2.30176V8.17476H29.6642L24.0312 2.30176Z" fill="#E97497"/>
<path d="M8.97497 4.75877H7.66797V9.55877H8.69997V7.94077L8.92797 7.95377C9.14861 7.95073 9.36723 7.9112 9.57497 7.83677C9.75759 7.77477 9.92543 7.6757 10.068 7.54577C10.213 7.42288 10.3268 7.26727 10.4 7.09177C10.5012 6.80049 10.5371 6.49048 10.505 6.18377C10.4993 5.96463 10.4608 5.74756 10.391 5.53977C10.328 5.38958 10.2344 5.25419 10.1161 5.14226C9.99778 5.03034 9.85741 4.94434 9.70397 4.88977C9.57108 4.8403 9.4333 4.8051 9.29297 4.78477C9.1875 4.7676 9.08083 4.7589 8.97397 4.75877M8.78497 7.05277H8.69597V5.57277H8.88997C8.97515 5.56663 9.06062 5.57971 9.14007 5.61104C9.21952 5.64236 9.29091 5.69115 9.34897 5.75377C9.46929 5.91479 9.53356 6.11078 9.53197 6.31177C9.53197 6.55777 9.53197 6.78077 9.30997 6.93777C9.15008 7.02585 8.968 7.06546 8.78597 7.05177M12.456 4.74577C12.345 4.74577 12.237 4.75377 12.161 4.75677L11.926 4.76277H11.146V9.56277H12.064C12.4148 9.57179 12.7639 9.51235 13.092 9.38777C13.3561 9.28347 13.5899 9.11466 13.772 8.89677C13.9504 8.67793 14.0778 8.42206 14.145 8.14777C14.2238 7.8377 14.2622 7.5187 14.259 7.19877C14.2785 6.82093 14.2493 6.44214 14.172 6.07177C14.0979 5.79946 13.9609 5.54837 13.772 5.33877C13.6238 5.16928 13.4415 5.03298 13.237 4.93877C13.0618 4.85757 12.8775 4.79781 12.688 4.76077C12.6126 4.74842 12.5363 4.74273 12.46 4.74377M12.278 8.68077H12.178V5.61677H12.191C12.3971 5.59293 12.6058 5.63014 12.791 5.72377C12.9266 5.8321 13.0372 5.96857 13.115 6.12377C13.1989 6.28711 13.2473 6.46638 13.257 6.64977C13.266 6.86977 13.257 7.04977 13.257 7.19877C13.2607 7.3704 13.2496 7.54203 13.224 7.71177C13.1925 7.88584 13.1356 8.05432 13.055 8.21177C12.9639 8.35862 12.8396 8.48195 12.692 8.57177C12.5687 8.65178 12.4225 8.68902 12.276 8.67777M17.353 4.76277H14.923V9.56277H15.951V7.65877H17.251V6.76677H15.951V5.65477H17.351V4.76277" fill="#FF9DBA"/>
</svg>
