<svg width="179" height="86" viewBox="0 0 179 86" fill="none" xmlns="http://www.w3.org/2000/svg">
<g filter="url(#filter0_d_414_1031)">
<g clip-path="url(#clip0_414_1031)">
<rect y="37.2983" width="172.872" height="47.2762" rx="23.6381" transform="rotate(-12.46 0 37.2983)" fill="#BEE173"/>
<path fill-rule="evenodd" clip-rule="evenodd" d="M42.1351 60.5917C42.1351 60.5917 46.8501 52.7637 46.1002 49.3701C45.3504 45.9765 41.9914 43.8333 38.5978 44.5832C35.2042 45.333 33.061 48.692 33.8109 52.0856C34.5607 55.4792 42.1351 60.5917 42.1351 60.5917ZM40.6172 52.956C42.1354 52.6205 43.0942 51.1179 42.7587 49.5997C42.4233 48.0815 40.9206 47.1227 39.4024 47.4581C37.8842 47.7936 36.9254 49.2963 37.2608 50.8145C37.5963 52.3327 39.099 53.2915 40.6172 52.956Z" fill="#F9F6EE"/>
<path d="M66.5138 49.4737L69.1037 53.9881C67.7981 54.7853 66.5419 55.3061 65.2978 55.581C60.469 56.648 56.3567 53.9517 55.4249 49.7344C54.5675 45.8545 56.3676 40.9892 62.0188 39.7405C63.0099 39.5215 64.0851 39.483 65.3427 39.6696L64.8694 43.733C64.3074 43.5917 63.7358 43.6075 63.2297 43.7193C60.5939 44.3017 59.7296 46.1956 60.0977 47.8615C60.6336 50.2864 62.4105 51.0217 64.2029 50.6257C65.0253 50.444 65.8221 50.0467 66.5138 49.4737ZM84.4787 36.149L76.9527 53.7356L71.2413 52.41L74.6825 46.3639L66.3932 40.2779L69.7631 37.012L76.702 42.0915L79.3014 34.8381L84.4787 36.149ZM94.5192 49.1242L89.7016 50.5426L84.9772 34.8667C86.4447 33.901 88.1929 33.2051 89.9009 32.8277C95.531 31.5837 99.0192 33.1572 99.8999 37.1426C100.534 40.0104 98.4259 43.4839 92.838 44.7186L94.5192 49.1242ZM89.9613 37.1049L91.465 41.1074C93.2039 40.3693 94.8685 39.0947 94.547 37.6398C94.2488 36.2902 93.0991 35.9914 91.8339 36.2709C91.1802 36.4154 90.5545 36.6863 89.9613 37.1049ZM105.203 34.4006L107.8 46.6542L103.454 47.1057L100.279 30.7336L110.578 28.9002L111.43 33.3564L105.203 34.4006ZM129.535 26.1932L122.009 43.7799L116.298 42.4543L119.739 36.4081L111.449 30.3221L114.819 27.0563L121.758 32.1358L124.358 24.8823L129.535 26.1932ZM141.6 38.7212L137.145 40.2805L134.927 28.7395L130.939 29.9082L129.716 24.2734L142.535 22.2369L143.315 26.2667L138.704 27.6174L141.6 38.7212Z" fill="#F9F6EE"/>
</g>
</g>
<defs>
<filter id="filter0_d_414_1031" x="-3.45525" y="0" width="185.91" height="90.3714" filterUnits="userSpaceOnUse" color-interpolation-filters="sRGB">
<feFlood flood-opacity="0" result="BackgroundImageFix"/>
<feColorMatrix in="SourceAlpha" type="matrix" values="0 0 0 0 0 0 0 0 0 0 0 0 0 0 0 0 0 0 127 0" result="hardAlpha"/>
<feOffset dy="3.45525"/>
<feGaussianBlur stdDeviation="1.72762"/>
<feComposite in2="hardAlpha" operator="out"/>
<feColorMatrix type="matrix" values="0 0 0 0 0.744356 0 0 0 0 0.883333 0 0 0 0 0.449028 0 0 0 0.24 0"/>
<feBlend mode="normal" in2="BackgroundImageFix" result="effect1_dropShadow_414_1031"/>
<feBlend mode="normal" in="SourceGraphic" in2="effect1_dropShadow_414_1031" result="shape"/>
</filter>
<clipPath id="clip0_414_1031">
<rect y="37.2983" width="172.872" height="47.2762" rx="23.6381" transform="rotate(-12.46 0 37.2983)" fill="white"/>
</clipPath>
</defs>
</svg>
