<svg width="80" height="104" viewBox="0 0 80 104" fill="none" xmlns="http://www.w3.org/2000/svg">
<path fill-rule="evenodd" clip-rule="evenodd" d="M41.104 78.4657C41.204 78.5657 41.2041 78.6657 41.3041 78.8657C41.4041 79.0657 41.404 79.2657 41.104 79.3657C40.8041 79.4657 40.6041 79.4657 40.3041 79.4657C39.8041 79.4657 39.2041 79.3657 38.7041 79.3657C38.1041 79.3657 37.6041 79.0657 37.2041 78.6657C37.1041 78.5657 37.0041 78.4657 36.9041 78.3657C36.9041 78.3657 36.8041 78.2657 36.7041 78.2657H36.604C36.704 78.3657 36.7041 78.4657 36.8041 78.4657C36.9041 78.5657 37.0041 78.5657 37.2041 78.5657C37.3041 78.8657 37.2041 79.1657 36.9041 79.2657C35.2041 79.3657 33.5041 79.4657 31.8041 78.9657C31.5041 78.8657 31.2041 78.8657 31.0041 78.8657C30.0041 78.6657 28.9041 78.5657 27.9041 78.3657C27.2041 78.1657 26.5041 77.9657 25.9041 77.5657C25.3041 77.1657 24.8041 76.8657 24.0041 76.9657C23.6041 77.0657 23.504 76.5657 23.604 76.1657C23.604 75.7657 23.504 75.7657 23.104 75.8657C22.204 76.1657 21.904 76.0657 21.604 75.2657C21.304 74.3657 20.7041 74.0657 20.0041 74.1657C19.4041 74.2657 19.0041 74.2657 18.7041 73.8657C17.2041 73.8657 16.3041 72.8657 15.4041 71.9657H15.5041L15.4041 72.0657C15.0041 71.8657 14.6041 71.7657 14.3041 71.5657C13.7041 71.2657 13.4041 70.8657 13.7041 70.1657C13.8041 69.9657 13.7041 69.7657 13.7041 69.5657C13.7041 69.2657 13.304 69.0657 13.104 69.2657C12.604 69.6657 12.2041 69.6657 11.8041 69.1657C10.9041 67.9657 9.60407 67.0657 9.00407 65.6657C8.90407 65.5657 8.80406 65.4657 8.70405 65.3657C8.00406 65.2657 7.80407 64.7657 7.50407 64.2657C7.10407 63.5657 6.70407 62.8657 6.40407 62.1657C5.90407 60.9657 5.20407 59.8657 4.40407 58.8657C4.00407 58.3657 3.80405 57.8657 3.60405 57.3657C3.20405 56.1657 3.00405 54.8657 2.10405 53.8657C1.90405 51.8657 0.904061 50.0657 0.804061 48.0657C0.804061 47.8657 0.904073 47.6657 1.00407 47.4657C1.10407 47.2657 1.10407 47.2657 1.00407 47.1657C0.104073 46.1657 0.204054 44.8657 0.204054 43.6657C0.204054 42.0657 0.304067 40.3657 0.404067 38.7657C0.404067 38.4657 0.504061 38.1657 0.304061 37.9657C0.00406054 37.4657 -0.0959517 36.8657 0.104048 36.2657C0.304048 35.7657 0.00404829 35.0657 0.604048 34.6657C0.804048 34.5657 0.70406 34.1657 0.804061 33.8657C0.904061 33.3657 1.30405 33.4657 1.60405 33.3657C1.50405 33.1657 1.50407 32.9657 1.40407 32.8657C0.804067 32.1657 0.804061 32.1657 1.30406 31.2657L1.40407 31.3657H1.30406C1.40406 30.7657 1.50407 30.2657 1.40407 29.6657C1.30407 28.6657 1.60407 27.8657 1.90407 26.9657C2.00407 26.6657 2.20406 26.4657 2.30406 26.2657C3.10406 24.7657 3.90405 23.2657 4.20405 21.5657C4.30405 21.0657 4.60405 20.8657 5.10405 20.9657C5.40405 21.0657 5.70405 20.8657 5.70405 20.5657C5.60405 19.7657 5.90407 19.1657 6.50407 18.8657C6.90407 17.4657 8.20406 16.8657 8.80406 15.6657C8.90406 15.3657 9.40405 15.2657 9.70405 15.0657C9.70405 15.1657 9.70406 15.1657 9.80406 15.2657C9.80406 15.2657 9.90407 15.2657 10.0041 15.2657C9.90407 15.2657 9.80406 15.1657 9.70405 15.1657C9.90405 14.6657 10.1041 14.1657 10.4041 13.6657C10.8041 12.9657 11.3041 12.2657 12.2041 12.1657C12.3041 11.7657 12.404 11.2657 12.604 10.9657C13.804 9.66568 14.804 8.16568 16.104 6.96568C16.704 6.46568 17.4041 6.06568 18.0041 5.66568C18.2041 5.56568 18.6041 5.96569 18.7041 5.56569C18.9041 4.96569 19.1041 4.56569 19.8041 4.36569C20.2041 4.16569 20.4041 3.56568 20.8041 3.26568C21.4041 2.86568 22.1041 2.46568 22.9041 2.16568C23.6041 1.86568 24.404 1.56568 25.104 1.26568C25.704 0.965683 26.3041 0.765683 26.9041 0.765683C27.6041 0.765683 28.2041 0.565689 28.8041 0.365689C29.3041 0.165689 29.8041 0.0656861 30.2041 0.0656861C31.7041 -0.134314 32.0041 0.06568 32.7041 1.46568C32.8041 1.66568 32.8041 1.96569 32.7041 2.06569C32.5041 2.36569 32.2041 2.16569 31.9041 2.06569C31.8041 2.16569 31.7041 2.36568 31.7041 2.46568C31.7041 3.06568 31.5041 3.46568 30.8041 3.66568C30.1041 3.96568 29.5041 4.36568 28.8041 4.76568L28.7041 4.66568C28.7041 4.66568 28.604 4.66569 28.604 4.56569C28.704 4.66569 28.8041 4.66568 28.9041 4.76568C28.8041 5.06568 28.704 5.26569 28.604 5.56569C28.504 5.76569 28.304 5.86569 28.604 6.06569C28.704 6.06569 28.8041 5.96569 29.0041 5.86569C29.8041 5.66569 30.204 5.76569 30.604 6.36569C30.604 6.46569 30.7041 6.46569 30.7041 6.56569C31.1041 6.86569 30.8041 7.56568 31.4041 7.76568C31.8041 7.86568 32.204 7.86568 32.604 7.96568C32.904 8.06568 33.2041 7.96568 33.3041 7.66568C33.6041 7.16568 34.0041 7.06569 34.5041 6.86569C36.3041 6.06569 38.2041 5.66569 40.0041 5.36569C40.3041 5.26569 40.6041 5.16568 40.8041 5.26568C41.9041 5.56568 43.0041 5.36568 44.2041 5.26568C44.8041 5.16568 45.4041 5.36568 45.8041 5.76568C46.2041 6.16568 46.5041 5.86568 46.9041 5.76568C47.9041 5.56568 48.9041 5.76569 49.8041 6.06569C50.7041 6.46569 51.5041 6.86568 52.5041 6.66568C52.8041 6.66568 53.0041 6.76569 53.3041 6.86569C54.4041 7.16569 55.5041 7.46569 56.604 7.86569C57.404 8.16569 58.2041 8.56569 58.9041 8.86569C59.4041 9.06569 59.8041 9.56569 60.5041 9.36569C60.7041 9.26569 61.0041 9.46568 61.3041 9.66568C62.3041 10.3657 63.3041 10.9657 64.3041 11.6657C64.4041 11.7657 64.604 11.8657 64.604 11.9657C64.804 12.8657 65.4041 13.1657 66.3041 13.2657C68.6041 14.7657 70.704 16.4657 72.104 18.8657C72.304 19.1657 72.5041 19.4657 72.8041 19.6657C73.3041 19.9657 73.5041 20.2657 73.7041 20.7657C73.9041 21.2657 74.4041 21.6657 74.7041 22.0657C75.1041 22.4657 75.4041 22.9657 75.604 23.4657C75.9041 24.1657 76.3041 24.8657 75.9041 25.6657C75.8041 25.9657 76.1041 25.8657 76.3041 25.8657C76.8041 25.8657 77.1041 26.0657 77.0041 26.4657C76.9041 27.1657 76.9041 27.7657 77.5041 28.1657C78.0041 29.1657 78.4041 30.1657 78.5041 31.1657C78.7041 32.7657 79.1041 34.3657 79.0041 36.0657C78.9041 37.1657 79.1041 38.3657 79.2041 39.4657C79.3041 40.6657 79.0041 41.7657 78.8041 42.8657C78.6041 43.8657 78.6041 44.9657 78.2041 45.9657C77.9041 46.7657 77.9041 47.7657 77.8041 48.6657C77.6041 49.5657 76.804 50.2657 76.604 51.1657C76.4041 52.3657 75.9041 53.3657 75.3041 54.2657C74.9041 54.8657 74.5041 55.4657 74.104 56.0657C73.704 56.5657 73.9041 57.3657 73.104 57.6657C72.9041 58.0657 72.7041 58.5657 72.5041 58.9657C72.3041 59.4657 72.1041 59.9657 71.4041 60.1657C71.0041 60.2657 70.8041 60.6657 70.5041 61.0657C69.4041 62.6657 68.9041 63.1657 67.0041 64.4657C66.4041 64.8657 66.0041 65.4657 65.5041 65.8657C65.5041 65.8657 65.4041 65.9657 65.5041 66.0657C65.8041 66.7657 66.0041 67.3657 66.3041 68.0657C66.3041 68.1657 66.6041 68.1657 66.7041 68.1657C67.2041 67.9657 67.7041 67.6657 68.3041 67.4657C68.8041 67.2657 69.4041 67.4657 69.604 67.9657C69.9041 68.9657 70.2041 70.0657 70.4041 71.0657C70.5041 71.8657 69.8041 72.2657 69.4041 72.8657C68.1041 73.2657 67.2041 74.1657 66.3041 75.0657C66.1041 75.2657 65.7041 75.3657 65.3041 75.4657C65.0041 75.5657 64.704 75.4657 64.604 75.1657C64.4041 74.8657 64.3041 74.5657 64.0041 75.0657C63.7041 75.5657 63.6041 75.9657 62.8041 76.0657C62.1041 76.1657 61.5041 76.6657 60.9041 76.8657C59.6041 77.3657 58.2041 77.8657 56.9041 78.3657C55.5041 78.8657 54.7041 78.9657 56.0041 80.8657C56.8041 82.0657 57.4041 83.3657 57.8041 84.7657C58.0041 85.4657 58.2041 85.5657 58.8041 85.3657C58.9041 85.3657 59.2041 85.5657 59.3041 85.6657C59.4041 85.9657 59.4041 86.2657 59.4041 86.4657C59.4041 86.6657 59.5041 86.8657 59.604 86.9657C60.604 87.5657 61.7041 88.0657 63.0041 87.8657C63.3041 87.7657 63.8041 87.6657 64.0041 87.8657C65.3041 88.6657 66.8041 88.3657 68.2041 88.7657C68.6041 88.8657 69.0041 88.9657 69.4041 89.0657C69.8041 89.1657 70.0041 89.3657 70.2041 89.7657C70.3041 89.9657 70.4041 90.1657 70.604 89.9657C70.9041 89.6657 71.1041 89.6657 71.2041 90.0657C71.3041 90.4657 71.6041 90.6657 71.9041 90.8657C73.2041 91.7657 73.2041 91.7657 72.8041 93.2657C72.7041 93.5657 72.5041 93.8657 72.604 94.0657C73.0041 94.9657 72.4041 95.3657 71.8041 95.8657C71.4041 96.2657 70.9041 96.6657 70.4041 96.8657C68.5041 97.9657 66.5041 99.0657 64.604 100.166C64.104 100.466 63.6041 100.666 63.0041 100.766C62.0041 101.066 61.0041 101.166 60.104 101.566C58.104 102.466 56.0041 102.766 53.8041 102.866C53.2041 102.866 52.5041 102.966 51.9041 103.066C51.1041 103.266 50.404 103.366 49.604 102.966C48.8041 102.666 48.0041 102.866 47.3041 102.966C46.4041 102.966 45.6041 103.166 44.8041 102.666C43.7041 102.766 42.9041 102.166 42.0041 101.766C41.7041 101.166 41.7041 100.366 41.0041 99.8657C40.9041 99.7657 40.8041 99.4657 40.8041 99.2657C41.0041 98.4657 40.1041 97.6657 40.9041 96.8657C40.9041 96.8657 40.9041 96.7657 40.8041 96.6657C40.6041 95.9657 40.7041 95.7657 40.9041 95.2657C41.1041 94.9657 41.2041 94.6657 41.4041 94.3657C41.7041 93.8657 42.0041 93.5657 42.604 93.5657C43.204 93.5657 43.8041 93.2657 44.104 92.8657C44.704 91.9657 45.6041 91.7657 46.5041 91.8657C47.2041 91.8657 47.6041 91.5657 47.9041 91.0657C48.4041 90.4657 48.404 89.5657 49.104 89.1657C49.204 89.0657 49.1041 88.7657 49.2041 88.5657C49.3041 88.2657 49.404 87.9657 49.604 87.8657C50.604 87.6657 50.5041 87.0657 50.4041 86.2657C50.3041 85.6657 50.3041 84.9657 50.3041 84.3657C50.3041 84.0657 50.4041 83.6657 50.2041 83.5657C49.6041 82.9657 49.8041 82.2657 49.9041 81.5657C50.0041 81.1657 49.9041 80.6657 49.8041 80.2657C49.8041 80.0657 49.5041 79.8657 49.4041 79.8657C48.5041 79.8657 47.7041 79.8657 46.8041 79.7657C46.3041 79.7657 46.2041 79.4657 46.3041 79.0657C46.3041 78.9657 46.4041 78.7657 46.4041 78.6657C46.4041 78.5657 46.4041 78.5657 46.3041 78.4657C46.3041 78.4657 46.204 78.3657 46.104 78.3657C46.104 78.4657 46.0041 78.5657 46.0041 78.6657C46.0041 78.7657 46.1041 78.8657 46.2041 79.0657C46.1041 79.1657 46.0041 79.1657 45.8041 79.2657C44.4041 79.9657 44.4041 79.9657 43.4041 78.7657C43.3041 78.6657 43.204 78.6657 43.104 78.6657C43.104 78.6657 43.0041 78.7657 43.0041 78.8657C43.0041 78.9657 43.0041 79.1657 43.0041 79.2657C42.9041 79.5657 42.5041 79.6657 42.3041 79.4657C42.0041 79.1657 41.6041 78.7657 41.3041 78.4657C41.6041 78.2657 41.3041 78.4657 41.104 78.4657ZM35.7041 68.0657C35.5041 67.9657 35.3041 67.7657 35.2041 67.6657C35.5041 67.1657 35.9041 67.2657 36.3041 67.5657C37.2041 68.3657 38.1041 68.3657 39.2041 67.6657C39.6041 67.3657 39.9041 67.1657 39.9041 66.6657C39.8041 65.0657 40.404 63.4657 40.604 61.8657C40.604 61.4657 40.8041 61.1657 41.2041 61.0657C41.5041 60.9657 41.8041 61.3657 41.9041 61.7657C42.0041 62.3657 42.0041 63.0657 42.104 63.6657C42.0041 64.1657 41.9041 64.7657 41.8041 65.2657C41.8041 65.2657 41.9041 65.3657 42.0041 65.3657C42.1041 65.3657 42.1041 65.2657 42.2041 65.2657C42.6041 64.6657 42.204 64.1657 42.104 63.6657C42.8041 63.0657 43.2041 62.2657 43.3041 61.4657C43.5041 59.9657 44.5041 58.7657 44.8041 57.2657C44.8041 57.0657 45.1041 56.9657 45.3041 56.8657C45.4041 56.8657 45.6041 56.8657 45.7041 56.8657C45.8041 56.9657 45.9041 57.0657 45.9041 57.2657C45.9041 57.4657 45.8041 57.6657 45.7041 57.8657C45.3041 58.8657 45.0041 59.8657 44.5041 60.8657C44.0041 61.8657 44.1041 62.9657 44.0041 63.9657C43.9041 64.7657 43.6041 65.6657 43.4041 66.4657C43.2041 67.2657 43.1041 68.1657 42.9041 68.9657L43.0041 69.1657C43.1041 69.1657 43.3041 69.1657 43.4041 69.0657C43.5041 68.8657 43.7041 68.5657 43.7041 68.5657C43.3041 67.9657 43.6041 67.4657 43.9041 66.9657C44.3041 66.2657 44.604 65.5657 44.604 64.7657C44.604 64.2657 44.9041 64.2657 45.5041 64.5657C45.6041 64.2657 45.8041 63.8657 45.3041 63.6657C45.1041 63.5657 44.8041 63.4657 45.0041 63.2657C45.4041 62.6657 45.3041 61.8657 45.9041 61.3657C46.3041 61.0657 46.4041 60.6657 46.3041 60.1657C46.1041 59.3657 46.3041 58.5657 46.604 57.8657C46.704 57.4657 47.0041 57.3657 47.4041 57.3657C48.1041 57.2657 48.1041 57.2657 48.0041 56.5657C47.9041 56.1657 47.8041 55.8657 48.4041 55.8657C48.5041 55.8657 48.7041 55.6657 48.7041 55.6657C48.3041 54.6657 48.8041 53.8657 49.104 52.9657C49.3041 52.3657 49.5041 51.7657 49.604 51.1657C49.704 50.8657 49.404 50.6657 49.104 50.6657C48.604 50.6657 48.0041 50.5657 47.604 50.7657C46.604 51.2657 45.6041 51.3657 44.5041 51.4657C44.4041 51.4657 44.204 51.6657 44.104 51.8657C44.0041 52.1657 44.1041 52.4657 44.0041 52.6657C43.9041 52.7657 43.7041 52.8657 43.5041 52.9657C43.5041 52.9657 43.3041 52.7657 43.3041 52.6657C43.2041 52.4657 43.1041 52.1657 43.0041 52.1657C42.6041 52.1657 42.604 52.4657 42.604 52.7657C42.604 53.5657 42.2041 54.1657 41.8041 54.6657C41.7041 54.7657 41.5041 54.7657 41.4041 54.7657C41.3041 54.7657 41.2041 54.5657 41.2041 54.4657C41.2041 53.7657 41.6041 53.2657 41.8041 52.6657C41.8041 52.5657 41.8041 52.3657 41.7041 52.2657C40.7041 51.4657 39.5041 51.8657 39.2041 53.0657C38.8041 54.8657 38.7041 56.7657 37.7041 58.3657C37.6041 58.4657 37.604 58.6657 37.604 58.7657C38.0041 59.4657 37.5041 60.1657 37.5041 60.8657C37.5041 61.1657 37.5041 61.5657 37.604 61.9657C37.604 62.0657 37.7041 62.0657 37.7041 62.1657H37.9041C38.3041 61.5657 38.704 61.0657 39.104 60.3657C39.604 59.4657 39.9041 58.5657 40.3041 57.6657C40.4041 57.4657 40.7041 57.5657 40.9041 57.6657C41.1041 57.8657 41.3041 58.1657 41.2041 58.4657C40.9041 59.4657 40.5041 60.4657 40.104 61.4657C39.904 62.0657 39.7041 62.6657 39.5041 63.2657C39.4041 63.6657 39.204 64.0657 39.104 64.4657C38.5041 65.7657 38.1041 65.8657 36.7041 65.5657C36.3041 65.4657 36.1041 65.2657 35.9041 64.8657C35.8041 64.5657 35.8041 64.2657 35.604 64.0657C35.5041 63.8657 35.3041 63.8657 35.104 63.9657C34.904 64.1657 34.604 64.3657 34.604 64.5657C34.404 65.4657 34.0041 66.3657 33.2041 66.8657C33.0041 66.9657 33.1041 67.2657 33.4041 67.3657C34.1041 67.5657 34.7041 67.8657 35.5041 67.6657C35.4041 67.7657 35.6041 67.9657 35.7041 68.0657ZM32.8041 58.4657C32.9041 58.2657 33.0041 58.1657 33.104 57.9657C33.3041 57.8657 33.6041 57.8657 33.7041 57.7657C34.1041 56.9657 34.5041 56.0657 34.8041 55.1657C35.2041 53.8657 35.8041 52.6657 36.5041 51.4657C37.0041 50.6657 36.9041 50.5657 36.3041 49.9657C36.0041 49.6657 35.6041 49.3657 35.4041 49.0657C35.1041 48.2657 35.0041 48.9657 34.8041 49.0657C34.1041 49.2657 33.3041 49.4657 32.5041 49.6657C32.1041 49.7657 31.9041 50.0657 31.9041 50.4657C31.9041 50.8657 31.7041 51.3657 31.8041 51.7657C31.9041 52.5657 31.8041 53.3657 31.4041 54.0657C31.7041 54.6657 31.1041 55.0657 31.0041 55.5657C30.9041 56.1657 31.104 56.6657 31.104 57.2657C31.104 58.6657 30.9041 59.9657 30.5041 61.2657C29.9041 61.6657 30.2041 62.1657 30.4041 62.5657C30.4041 62.6657 30.6041 62.8657 30.7041 62.8657C30.8041 62.8657 31.0041 62.7657 31.0041 62.6657C31.5041 61.6657 32.0041 60.6657 31.8041 59.3657C31.7041 58.6657 31.8041 57.9657 31.9041 57.2657C31.9041 57.0657 32.1041 56.9657 32.3041 56.8657C32.4041 56.8657 32.6041 56.9657 32.7041 57.0657C32.9041 57.3657 33.1041 57.6657 33.2041 57.9657C33.0041 58.1657 32.9041 58.2657 32.8041 58.4657ZM25.3041 18.5657C25.5041 18.4657 25.7041 18.4657 25.8041 18.3657C25.9041 18.7657 26.2041 19.0657 26.0041 19.5657C25.6041 20.2657 25.2041 20.8657 25.3041 21.6657C25.3041 21.8657 25.1041 22.2657 24.8041 22.2657C24.2041 22.5657 23.8041 22.7657 24.3041 23.4657C24.6041 23.8657 24.4041 24.2657 24.2041 24.6657C24.0041 24.9657 23.7041 25.1657 23.5041 25.4657C23.5041 25.6657 23.604 25.9657 23.604 26.0657C23.304 26.6657 23.0041 27.1657 22.9041 27.8657C22.9041 28.0657 22.5041 28.2657 22.3041 28.3657C22.1041 28.4657 22.004 28.6657 22.104 28.8657C22.304 29.1657 22.4041 29.6657 22.7041 29.7657C23.1041 29.9657 23.2041 29.3657 23.3041 29.1657C23.7041 28.6657 23.9041 27.9657 24.3041 27.5657C24.9041 26.9657 24.6041 26.2657 24.9041 25.5657C25.0041 25.2657 25.2041 24.8657 25.3041 24.5657C25.4041 24.2657 25.7041 24.2657 26.0041 24.1657C26.5041 24.0657 26.7041 23.6657 26.3041 23.2657C26.1041 22.9657 26.0041 22.7657 26.2041 22.5657C26.4041 22.2657 26.6041 22.0657 26.9041 21.7657C27.2041 22.0657 27.104 22.6657 27.604 22.6657C28.004 22.6657 28.3041 22.8657 28.2041 23.3657C28.1041 23.8657 28.0041 24.3657 27.9041 24.8657C27.8041 25.2657 27.4041 25.4657 26.9041 25.4657C26.7041 25.4657 26.3041 24.9657 26.4041 25.6657C26.5041 26.2657 26.8041 26.7657 26.7041 27.3657C26.6041 27.7657 26.4041 27.8657 26.0041 27.6657C25.9041 27.6657 25.704 27.5657 25.604 27.5657C25.504 27.7657 25.3041 27.9657 25.4041 28.0657C26.0041 29.4657 25.3041 30.3657 24.5041 31.3657C24.2041 31.6657 23.9041 31.6657 23.5041 31.6657C23.3041 32.0657 23.1041 32.5657 22.9041 32.9657C22.9041 33.0657 23.004 33.2657 23.104 33.2657C23.704 33.2657 24.4041 33.1657 25.0041 33.0657C26.4041 32.6657 27.904 32.6657 29.104 31.5657C29.204 31.4657 29.3041 31.4657 29.4041 31.3657L29.5041 31.2657C29.5041 31.2657 29.4041 31.0657 29.4041 31.1657C29.3041 31.1657 29.204 31.1657 29.104 31.2657C29.004 31.3657 29.1041 31.4657 29.0041 31.6657C28.4041 31.6657 28.1041 31.3657 28.0041 30.7657C28.0041 30.3657 28.0041 30.0657 28.0041 29.6657C28.2041 28.0657 28.9041 26.6657 29.5041 25.2657C29.6041 25.0657 29.8041 24.9657 30.0041 24.8657C30.1041 24.9657 30.1041 25.1657 30.2041 25.2657C31.0041 25.9657 31.0041 26.8657 31.0041 27.7657C31.0041 28.0657 30.8041 28.2657 30.5041 28.1657C30.4041 28.1657 30.204 28.1657 30.104 28.1657C30.304 28.8657 30.4041 29.4657 30.3041 30.2657C30.2041 30.5657 30.5041 30.7657 30.8041 30.7657C31.2041 30.7657 31.6041 30.9657 32.0041 30.5657C32.4041 30.2657 32.8041 29.9657 33.2041 29.7657C33.6041 29.5657 33.8041 29.7657 34.104 30.0657C34.3041 29.9657 34.604 29.8657 34.604 29.7657C34.8041 28.7657 34.8041 27.7657 35.604 27.0657C35.704 26.9657 35.604 26.7657 35.604 26.6657C35.3041 25.6657 35.904 24.8657 36.104 24.0657C36.204 23.7657 36.5041 23.7657 36.8041 24.0657C37.2041 24.3657 37.1041 25.0657 37.7041 25.1657C37.6041 25.6657 37.4041 26.1657 37.3041 26.5657C37.2041 26.9657 36.6041 26.8657 36.5041 27.1657C36.3041 28.0657 36.204 28.9657 36.104 29.8657C36.104 29.9657 36.3041 30.0657 36.4041 30.0657C36.8041 29.9657 37.1041 30.0657 37.4041 30.2657C37.8041 30.5657 38.2041 30.7657 38.7041 30.9657C39.8041 31.4657 40.0041 31.4657 40.4041 30.2657C40.5041 30.0657 40.5041 29.8657 40.7041 29.6657C40.8041 29.5657 40.9041 29.4657 41.0041 29.4657C41.1041 29.4657 41.2041 29.6657 41.2041 29.7657C41.2041 30.3657 41.1041 30.8657 41.0041 31.4657C40.9041 31.8657 40.9041 32.1657 40.8041 32.5657C40.0041 32.7657 39.3041 33.2657 38.4041 33.2657C37.2041 33.2657 36.3041 33.0657 35.8041 31.8657C35.6041 31.4657 35.3041 31.3657 35.0041 31.3657C34.6041 31.2657 34.3041 31.3657 34.104 31.7657C34.0041 31.9657 33.7041 32.1657 33.5041 32.2657C33.0041 32.4657 32.4041 32.5657 32.0041 32.9657C31.3041 33.5657 30.504 34.0657 29.604 34.2657C28.704 34.4657 28.204 35.5657 27.104 35.0657C26.904 34.9657 26.5041 35.4657 26.2041 35.4657C25.9041 35.4657 25.5041 35.1657 25.2041 35.2657C24.8041 35.3657 24.604 35.7657 24.104 35.7657C22.804 35.8657 22.5041 35.7657 21.9041 34.5657C21.7041 34.0657 21.4041 33.6657 21.3041 33.1657C21.2041 32.7657 21.1041 32.2657 21.2041 31.9657C21.6041 31.1657 21.4041 30.6657 20.9041 30.0657C20.5041 29.5657 20.504 29.0657 20.604 28.4657C20.704 27.7657 20.8041 27.0657 20.9041 26.3657C21.3041 26.0657 21.6041 25.7657 21.5041 25.2657C21.4041 24.4657 21.504 23.5657 21.104 22.7657C21.504 22.6657 22.004 22.6657 22.104 22.1657C22.304 21.5657 22.5041 20.9657 22.3041 20.2657C22.2041 20.2657 22.0041 20.3657 21.9041 20.3657C21.5041 20.3657 21.0041 20.2657 21.3041 20.9657C21.4041 21.0657 21.204 21.3657 21.104 21.4657C20.904 21.8657 21.004 22.2657 21.104 22.6657C20.504 23.7657 19.6041 24.6657 19.3041 25.9657C19.3041 26.0657 19.1041 26.1657 19.0041 26.1657C18.8041 26.2657 18.5041 26.1657 18.4041 26.2657C18.4041 26.5657 18.4041 26.7657 18.4041 27.0657C18.6041 27.5657 18.704 27.5657 19.104 27.1657C19.204 27.0657 19.3041 26.9657 19.4041 26.8657C19.5041 26.8657 19.7041 26.9657 19.7041 27.0657C19.8041 28.1657 19.604 28.5657 18.604 28.9657C18.304 29.0657 17.9041 29.1657 17.8041 29.5657C17.6041 30.1657 17.3041 31.7657 17.4041 32.0657C17.5041 32.2657 17.6041 32.4657 17.7041 32.6657C18.0041 33.0657 18.3041 33.4657 18.5041 33.9657C18.8041 34.5657 19.1041 35.2657 18.9041 36.0657C18.7041 36.7657 18.8041 37.3657 18.9041 37.9657C18.9041 38.0657 18.9041 38.2657 18.9041 38.3657C18.2041 38.8657 18.0041 39.8657 17.0041 39.9657C16.5041 39.3657 16.604 38.5657 16.604 37.8657L16.7041 37.7657V37.8657C16.3041 37.8657 16.1041 37.5657 16.0041 37.1657C16.0041 36.9657 16.1041 36.7657 16.0041 36.5657C16.0041 36.3657 15.804 36.1657 15.604 36.0657C15.404 35.9657 15.0041 36.1657 14.9041 36.4657C14.8041 36.6657 14.8041 36.8657 14.8041 37.0657C15.0041 37.6657 14.604 37.7657 14.104 37.9657C14.004 37.9657 13.9041 38.0657 13.9041 38.0657C13.8041 38.2657 13.8041 38.4657 13.8041 38.6657C13.8041 38.7657 14.004 38.8657 14.104 38.8657C14.404 38.8657 14.804 38.6657 15.104 38.6657C15.404 38.5657 15.604 38.8657 15.604 39.1657C15.604 39.2657 15.6041 39.2657 15.5041 39.3657C15.5041 39.5657 15.4041 39.7657 15.4041 39.9657C15.3041 40.5657 15.2041 40.5657 14.3041 40.3657C14.0041 40.2657 13.7041 40.4657 13.8041 40.7657C14.2041 41.6657 13.9041 42.7657 14.5041 43.6657C14.7041 44.0657 14.7041 44.4657 14.8041 44.8657C14.8041 45.0657 14.704 45.2657 14.604 45.4657C14.504 45.5657 14.4041 45.6657 14.3041 45.6657C14.2041 45.6657 14.0041 45.5657 14.0041 45.4657C13.8041 44.3657 13.6041 43.3657 13.4041 42.2657C13.3041 41.5657 13.3041 40.9657 12.5041 40.7657C12.4041 40.7657 12.3041 40.4657 12.2041 40.2657C11.9041 39.5657 11.7041 38.9657 11.4041 38.2657C11.8041 38.2657 12.2041 38.3657 12.4041 38.2657C12.6041 38.0657 12.8041 37.6657 12.8041 37.3657C12.9041 36.7657 12.9041 36.0657 12.9041 35.4657C12.9041 35.3657 12.7041 35.0657 12.5041 35.0657C12.3041 35.0657 12.0041 35.1657 12.0041 35.3657C11.7041 36.0657 11.5041 36.6657 11.3041 37.3657C11.2041 37.6657 11.4041 38.0657 11.4041 38.3657C11.2041 38.5657 10.9041 38.7657 10.9041 38.9657C10.9041 39.7657 10.904 40.6657 11.104 41.4657C11.404 42.6657 11.8041 43.7657 11.4041 45.0657C11.3041 45.2657 11.5041 45.5657 11.5041 45.8657C11.6041 46.1657 11.7041 46.5657 11.7041 46.8657C11.8041 47.6657 11.9041 48.5657 12.0041 49.3657C12.0041 49.4657 12.004 49.6657 12.104 49.7657C12.204 49.8657 12.2041 50.0657 12.3041 50.0657C12.5041 50.1657 12.7041 50.3657 12.8041 50.2657C12.9041 50.2657 13.104 49.9657 13.104 49.7657C12.904 49.0657 12.8041 48.3657 12.8041 47.6657C12.8041 47.4657 12.8041 47.2657 12.9041 47.0657C12.9041 46.9657 13.1041 46.8657 13.2041 46.7657C13.3041 46.7657 13.5041 46.8657 13.5041 46.8657C13.6041 47.1657 13.7041 47.3657 13.7041 47.6657C13.7041 49.2657 14.0041 50.8657 14.5041 52.4657C14.6041 52.7657 14.6041 53.1657 14.7041 53.5657C14.7041 53.6657 14.604 53.8657 14.604 53.9657C14.604 54.0657 14.604 54.0657 14.604 54.1657L14.7041 54.2657C14.7041 54.1657 14.8041 54.0657 14.8041 53.9657C14.8041 53.8657 14.7041 53.6657 14.7041 53.5657C15.1041 53.4657 15.5041 53.4657 15.9041 53.2657C16.3041 53.1657 16.404 52.6657 16.104 52.4657C15.504 51.9657 14.9041 51.4657 14.7041 50.6657C14.3041 49.4657 14.104 48.1657 14.104 46.8657C14.104 46.7657 14.4041 46.5657 14.5041 46.5657C14.7041 46.5657 15.0041 46.6657 15.0041 46.8657C15.2041 47.6657 15.4041 48.3657 15.5041 49.1657C15.5041 49.3657 15.4041 49.5657 15.3041 49.7657C15.6041 50.0657 15.9041 50.3657 15.9041 50.8657C15.9041 51.3657 16.4041 51.3657 16.7041 51.4657C17.0041 51.5657 17.2041 51.3657 17.3041 51.0657C17.6041 50.3657 17.9041 49.5657 18.2041 48.8657C18.4041 48.4657 18.804 47.9657 19.104 47.7657C19.604 47.4657 20.1041 47.1657 20.7041 47.1657C21.0041 47.1657 21.4041 47.5657 21.7041 47.8657C22.3041 48.3657 22.9041 48.6657 23.7041 48.2657C24.1041 48.6657 24.5041 48.8657 25.0041 48.7657C26.3041 48.5657 27.5041 48.3657 28.8041 48.1657C29.1041 48.0657 29.3041 47.8657 29.3041 47.5657C29.5041 47.0657 29.6041 46.4657 29.8041 45.9657C29.8041 45.8657 30.004 45.8657 30.104 45.7657C30.204 45.8657 30.3041 45.9657 30.3041 46.1657C30.3041 46.5657 30.2041 46.9657 30.2041 47.4657C30.2041 47.5657 30.3041 47.7657 30.4041 47.7657C30.5041 47.7657 30.7041 47.7657 30.8041 47.6657C31.0041 47.4657 31.2041 47.2657 31.3041 46.9657C31.6041 45.8657 31.2041 44.9657 30.3041 44.3657C29.9041 44.0657 29.5041 43.8657 29.0041 43.5657C28.7041 43.3657 28.904 42.3657 28.104 42.8657C27.604 43.1657 27.104 42.8657 26.604 42.8657C26.304 42.8657 26.0041 42.7657 25.8041 42.5657C25.3041 42.1657 24.7041 42.0657 24.0041 41.9657C23.2041 41.8657 22.6041 41.2657 22.7041 40.5657C22.7041 39.7657 22.7041 39.0657 23.4041 38.4657C24.0041 37.8657 24.7041 37.2657 25.4041 36.9657C25.9041 36.7657 26.2041 36.4657 26.5041 36.0657C26.7041 35.7657 27.0041 35.5657 27.3041 35.4657C28.0041 35.2657 28.6041 35.0657 29.4041 35.2657C30.1041 35.4657 30.7041 34.5657 31.4041 34.9657C31.5041 34.9657 31.504 34.9657 31.604 34.9657C32.604 34.8657 33.4041 35.4657 34.3041 35.4657C35.2041 35.4657 35.8041 36.5657 36.9041 36.1657C37.0041 36.1657 37.2041 36.3657 37.3041 36.5657C37.6041 36.9657 37.8041 37.3657 38.104 37.8657C38.3041 38.1657 38.6041 38.1657 38.8041 37.9657C39.0041 37.7657 39.3041 37.5657 39.5041 37.8657C40.1041 38.5657 40.8041 38.2657 41.4041 37.9657C41.6041 38.1657 41.8041 38.4657 42.0041 38.4657C42.6041 38.4657 43.1041 38.6657 43.3041 39.2657C43.3041 39.3657 43.5041 39.4657 43.604 39.5657C43.8041 39.7657 44.0041 39.6657 44.3041 39.1657C44.6041 38.9657 44.9041 38.7657 45.2041 38.5657C46.7041 37.8657 48.4041 37.9657 50.0041 37.9657C50.4041 37.9657 50.7041 38.2657 50.8041 38.5657C51.0041 39.0657 51.2041 39.6657 51.4041 40.1657C51.6041 40.6657 51.5041 41.0657 51.2041 41.3657C50.5041 42.3657 49.7041 43.1657 48.3041 43.2657C47.8041 43.2657 47.4041 43.6657 47.0041 43.0657C46.8041 42.7657 46.5041 42.8657 46.3041 43.1657C45.9041 43.6657 45.5041 43.6657 45.0041 43.2657C44.9041 43.2657 44.704 43.2657 44.604 43.3657C44.0041 43.4657 44.0041 43.4657 43.8041 42.8657C43.7041 42.5657 43.604 42.3657 43.604 42.0657C44.204 41.9657 44.9041 41.9657 45.5041 41.6657C46.3041 41.2657 47.0041 40.9657 47.9041 41.1657C48.2041 41.2657 48.704 40.9657 49.104 40.7657C49.3041 40.6657 49.3041 40.2657 49.3041 39.9657C49.3041 39.7657 49.1041 39.5657 48.9041 39.5657C48.7041 39.4657 48.5041 39.5657 48.3041 39.4657C47.5041 39.2657 46.904 40.1657 46.104 39.8657C45.904 39.8657 45.7041 39.9657 45.5041 40.0657C44.9041 40.2657 44.3041 40.4657 43.7041 40.6657C43.6041 40.6657 43.3041 40.5657 43.2041 40.4657C43.0041 40.1657 42.8041 40.0657 42.5041 40.0657C41.9041 40.0657 41.6041 39.7657 41.3041 39.2657C41.4041 39.1657 41.7041 39.3657 41.7041 39.0657C41.6041 39.1657 41.5041 39.2657 41.4041 39.3657C41.2041 39.4657 40.8041 39.7657 40.7041 39.7657C40.3041 39.4657 39.9041 39.5657 39.5041 39.5657C38.5041 39.3657 37.5041 39.8657 36.604 39.4657C36.604 39.2657 36.5041 39.0657 36.5041 38.8657C36.3041 38.0657 35.9041 37.5657 35.0041 37.5657C34.6041 37.5657 34.2041 37.3657 33.8041 37.2657C33.0041 37.0657 32.1041 36.8657 31.3041 36.7657C30.7041 36.6657 30.2041 37.1657 30.3041 37.8657C30.3041 38.3657 30.504 38.8657 30.604 39.3657C29.804 38.8657 29.4041 38.1657 29.4041 37.2657C29.4041 37.2657 29.3041 37.0657 29.3041 37.1657C29.2041 37.1657 29.0041 37.2657 29.0041 37.3657C28.9041 37.7657 28.7041 37.9657 28.3041 37.8657C27.9041 37.7657 27.6041 37.8657 27.3041 38.0657C26.7041 38.5657 26.0041 38.9657 25.4041 39.3657C25.1041 39.5657 25.3041 39.7657 25.4041 39.8657C25.6041 40.0657 25.8041 40.2657 26.0041 40.4657C26.2041 40.1657 26.5041 39.9657 26.7041 39.6657C27.1041 39.3657 27.6041 39.6657 27.7041 40.1657C27.7041 40.3657 27.8041 40.6657 28.0041 40.6657C28.5041 40.8657 29.104 40.9657 29.604 41.0657C29.604 41.1657 29.7041 41.3657 29.7041 41.3657C29.8041 41.4657 29.9041 41.4657 30.0041 41.4657C30.0041 41.4657 30.104 41.3657 30.104 41.2657C30.104 41.1657 30.1041 41.0657 30.0041 40.8657C30.3041 40.5657 30.5041 40.2657 30.5041 39.8657C30.5041 39.5657 30.504 39.3657 30.604 39.0657C31.304 39.1657 31.2041 40.2657 32.0041 40.2657C32.1041 40.2657 32.2041 40.5657 32.2041 40.7657C32.2041 41.0657 32.1041 41.4657 32.0041 41.7657C32.0041 41.9657 32.1041 42.1657 32.2041 42.3657C32.6041 42.7657 33.3041 42.7657 33.7041 42.4657C33.9041 42.2657 34.1041 42.1657 34.4041 42.0657C34.8041 41.8657 34.8041 41.5657 34.8041 41.1657C34.8041 40.9657 34.8041 40.7657 34.7041 40.5657C34.8041 40.5657 35.0041 40.4657 35.104 40.4657C35.8041 40.4657 36.2041 40.1657 36.4041 39.5657C36.4041 39.4657 36.6041 39.3657 36.7041 39.2657C36.7041 39.6657 36.8041 40.0657 36.8041 40.5657C36.0041 40.8657 36.2041 41.5657 35.9041 42.1657C35.7041 42.4657 35.5041 42.7657 35.2041 42.8657C35.0041 42.9657 34.7041 43.0657 34.7041 43.1657C34.7041 43.5657 35.1041 43.4657 35.3041 43.4657C35.5041 43.4657 35.7041 43.3657 35.9041 43.3657C36.3041 43.3657 36.604 43.6657 36.604 44.0657C36.704 44.5657 36.5041 44.9657 36.104 45.1657C35.104 45.5657 34.2041 45.7657 33.2041 45.1657C33.0041 45.0657 32.7041 44.9657 32.4041 44.9657C32.3041 44.9657 32.104 45.0657 32.104 45.1657C32.0041 45.6657 32.0041 46.1657 32.0041 46.6657C32.0041 47.1657 32.3041 47.4657 32.8041 47.3657C33.2041 47.3657 33.604 47.2657 34.104 47.1657C34.904 47.0657 35.6041 47.1657 36.4041 47.6657C37.6041 48.3657 38.704 49.3657 40.104 49.8657C40.704 50.5657 41.4041 49.9657 42.0041 50.1657C42.5041 49.4657 43.2041 49.8657 43.8041 49.9657C44.2041 49.6657 44.604 49.4657 45.104 49.3657C45.904 49.2657 46.7041 49.2657 47.4041 48.9657C48.4041 48.5657 49.5041 48.5657 50.604 48.4657C50.8041 48.4657 51.0041 48.5657 51.2041 48.6657C51.8041 49.1657 52.1041 50.3657 51.7041 50.9657C51.2041 51.8657 50.7041 52.6657 50.7041 53.7657C50.7041 54.0657 50.6041 54.3657 50.4041 54.5657C49.9041 55.2657 49.8041 56.0657 49.9041 56.7657C50.0041 57.6657 49.9041 58.4657 49.7041 59.2657C49.5041 60.0657 49.5041 60.7657 50.104 61.4657C50.5041 61.9657 50.3041 62.3657 49.7041 62.6657C49.7041 62.6657 49.8041 63.0657 49.8041 63.1657C49.7041 63.3657 49.604 63.4657 49.604 63.6657C49.604 63.7657 49.7041 63.7657 49.8041 63.8657C49.8041 63.7657 49.9041 63.7657 49.9041 63.6657C49.9041 63.4657 49.8041 63.2657 49.8041 63.0657C50.8041 63.7657 51.1041 64.4657 50.8041 65.3657C50.6041 66.0657 50.1041 66.5657 50.0041 67.3657C50.0041 67.9657 50.404 68.3657 51.104 68.1657C51.404 68.0657 51.6041 67.8657 51.9041 67.9657C52.3041 68.0657 52.6041 68.0657 52.9041 67.8657C53.4041 67.4657 53.8041 67.6657 54.3041 67.7657C55.1041 67.8657 55.7041 67.3657 56.3041 66.9657C56.4041 66.8657 56.4041 66.6657 56.4041 66.5657C56.4041 66.2657 56.5041 66.0657 56.9041 66.0657C57.4041 66.0657 57.8041 65.8657 58.3041 65.7657C58.6041 65.7657 59.0041 65.6657 59.3041 65.7657C60.8041 66.3657 61.9041 65.9657 62.9041 64.7657C63.5041 64.5657 63.8041 64.1657 64.0041 63.6657C64.4041 63.4657 64.7041 63.2657 65.0041 62.8657C65.2041 62.5657 65.4041 62.2657 65.7041 62.1657C67.0041 61.7657 67.804 60.6657 68.604 59.7657C69.104 59.1657 69.5041 58.4657 70.104 57.9657C70.704 57.4657 71.1041 56.7657 71.4041 56.0657C71.6041 55.5657 71.9041 55.0657 72.2041 54.5657C72.6041 53.8657 72.9041 53.1657 73.0041 52.3657C73.1041 51.1657 73.304 49.9657 74.104 48.9657C74.604 48.2657 75.0041 47.4657 75.2041 46.6657C75.5041 45.8657 75.7041 45.0657 76.4041 44.4657C76.8041 44.1657 77.0041 43.4657 76.7041 43.0657C76.1041 42.1657 76.3041 41.2657 76.5041 40.3657C76.6041 39.6657 76.5041 38.9657 76.3041 38.2657C76.0041 36.8657 75.1041 35.4657 75.4041 33.8657C75.4041 33.6657 75.2041 33.4657 75.2041 33.2657C75.1041 31.8657 74.0041 30.8657 73.9041 29.4657C73.1041 28.8657 73.1041 27.8657 72.5041 27.1657C72.3041 26.9657 72.3041 26.6657 72.2041 26.3657C72.2041 26.2657 72.3041 26.0657 72.4041 26.0657C72.5041 25.9657 72.7041 26.0657 72.8041 26.1657C72.9041 26.2657 73.0041 26.3657 73.104 26.4657C73.5041 26.7657 73.7041 26.7657 73.8041 26.3657C73.9041 25.8657 74.1041 25.4657 73.8041 24.9657C72.9041 23.4657 72.1041 21.9657 71.2041 20.4657C70.7041 19.7657 70.2041 19.0657 70.0041 18.2657C70.0041 18.0657 69.804 17.8657 69.604 17.7657C69.204 17.4657 68.7041 17.2657 68.3041 17.0657C68.1041 16.9657 67.9041 17.0657 67.7041 17.1657C67.5041 17.2657 67.3041 17.4657 67.2041 17.5657C66.7041 18.3657 66.0041 18.9657 65.0041 19.0657C64.8041 19.0657 64.704 19.2657 64.604 19.4657C64.4041 19.7657 64.304 20.0657 64.104 20.3657C64.104 20.3657 63.8041 20.3657 63.8041 20.2657C63.7041 20.1657 63.704 19.9657 63.604 19.8657C63.5041 19.7657 63.4041 19.6657 63.3041 19.6657C63.2041 19.6657 63.104 19.9657 63.104 19.9657C63.404 20.1657 63.404 20.4657 63.104 20.6657C62.904 20.9657 62.6041 21.1657 62.3041 21.4657C62.1041 21.6657 61.904 21.9657 62.104 22.2657C62.904 23.6657 62.4041 25.3657 63.0041 26.8657C63.2041 27.2657 62.8041 27.9657 63.0041 28.3657C63.4041 29.2657 63.4041 30.3657 63.7041 31.2657C64.1041 32.2657 63.7041 33.2657 62.8041 33.8657C62.4041 34.0657 61.904 34.0657 61.604 33.6657C61.404 33.4657 61.2041 33.1657 61.2041 32.9657C61.1041 32.5657 61.0041 32.1657 60.9041 31.7657C60.8041 31.5657 60.7041 31.3657 60.5041 31.3657C60.2041 31.3657 60.0041 31.4657 59.7041 31.5657C59.5041 31.6657 59.4041 31.8657 59.3041 32.0657C58.9041 32.7657 58.4041 33.1657 57.7041 33.4657C57.3041 33.6657 57.0041 33.8657 56.604 34.0657C56.0041 34.4657 55.4041 34.4657 54.8041 34.1657C54.0041 33.7657 53.3041 33.3657 52.9041 32.4657C52.6041 31.6657 52.0041 31.4657 51.2041 31.5657C50.5041 31.6657 49.8041 31.8657 49.2041 32.2657C49.0041 32.4657 48.8041 32.6657 48.5041 32.7657C48.2041 32.9657 48.0041 32.9657 47.7041 32.7657C47.5041 32.6657 47.3041 32.7657 47.2041 32.9657C47.1041 33.2657 47.1041 33.7657 46.9041 33.9657C46.2041 34.5657 45.7041 35.3657 45.3041 36.1657C45.2041 36.2657 45.1041 36.3657 45.0041 36.4657C43.9041 36.8657 43.0041 37.4657 41.7041 37.3657C41.3041 36.7657 40.8041 36.0657 40.4041 35.4657C40.2041 35.1657 40.1041 34.7657 40.2041 34.4657C40.6041 33.6657 40.1041 32.7657 40.4041 31.9657C40.5041 31.5657 40.5041 31.2657 40.604 30.8657C40.904 30.8657 41.2041 30.8657 41.5041 30.8657C41.5041 31.9657 41.704 33.1657 42.104 34.1657C42.204 34.4657 42.3041 34.6657 42.5041 34.9657C42.7041 35.2657 43.1041 35.2657 43.4041 35.0657C44.2041 34.2657 44.7041 33.2657 45.7041 32.5657C46.6041 31.8657 47.3041 30.9657 48.2041 30.3657C48.5041 30.1657 48.5041 29.8657 48.3041 29.6657C48.1041 29.3657 47.9041 29.1657 47.7041 28.8657C48.1041 28.3657 47.9041 27.7657 47.9041 27.1657C47.9041 26.9657 48.2041 26.8657 48.4041 27.0657C48.7041 27.2657 48.9041 27.5657 49.2041 27.7657C49.3041 27.8657 49.3041 27.8657 49.4041 27.9657C49.4041 28.2657 49.4041 28.5657 49.5041 28.7657C49.6041 28.9657 49.7041 29.1657 49.9041 29.2657C50.9041 29.5657 51.8041 29.1657 52.8041 28.8657C53.1041 28.7657 53.1041 28.2657 52.9041 27.9657C52.5041 26.7657 53.0041 25.8657 53.7041 25.0657C53.8041 24.9657 54.1041 24.9657 54.3041 25.0657C54.4041 25.0657 54.5041 25.2657 54.5041 25.3657C54.3041 26.2657 54.2041 27.1657 54.5041 28.0657C54.6041 28.2657 54.4041 28.4657 54.3041 28.6657C54.1041 29.0657 54.0041 29.4657 53.8041 29.8657C53.7041 30.2657 53.9041 30.5657 54.2041 30.6657C54.3041 30.7657 54.404 30.8657 54.604 30.8657C54.8041 31.3657 54.9041 31.9657 55.4041 32.3657C55.7041 32.5657 55.904 32.5657 56.104 32.2657C56.204 32.0657 56.3041 31.8657 56.4041 31.7657C57.2041 31.2657 57.8041 30.5657 58.2041 29.6657C58.3041 29.4657 58.6041 29.2657 58.9041 29.1657C59.2041 29.0657 59.6041 28.9657 59.9041 28.8657C60.7041 28.6657 60.8041 28.5657 60.604 27.6657C60.5041 26.8657 60.3041 26.1657 60.2041 25.3657C60.0041 23.6657 59.8041 21.9657 60.9041 20.3657C61.1041 20.0657 61.2041 19.6657 61.2041 19.3657C61.0041 18.3657 61.9041 17.9657 62.3041 17.3657C62.8041 16.4657 63.5041 16.5657 64.3041 16.9657C64.3041 16.9657 64.4041 16.9657 64.5041 16.8657C64.7041 16.7657 64.9041 16.7657 64.8041 16.4657C64.7041 16.1657 64.7041 15.9657 64.7041 15.6657C65.0041 15.3657 64.9041 14.9657 64.9041 14.6657C65.1041 14.6657 65.3041 14.5657 65.5041 14.5657C65.6041 14.7657 65.6041 14.9657 65.7041 15.1657C65.7041 15.1657 65.9041 15.1657 66.104 15.1657C66.104 15.0657 66.1041 14.9657 66.0041 14.9657C65.8041 14.8657 65.6041 14.7657 65.5041 14.6657C65.3041 14.6657 65.2041 14.7657 65.0041 14.7657C64.9041 15.0657 64.9041 15.4657 64.8041 15.7657C64.0041 15.5657 63.4041 15.0657 63.5041 14.0657C63.5041 13.8657 63.3041 13.5657 63.2041 13.5657C62.6041 13.6657 62.4041 13.0657 62.0041 12.8657C61.9041 12.7657 61.704 12.8657 61.604 12.8657C61.604 12.8657 61.5041 12.9657 61.5041 13.0657C61.6041 13.5657 61.7041 14.0657 61.8041 14.5657C61.9041 14.9657 61.7041 15.2657 61.3041 15.4657C61.0041 15.5657 60.7041 15.6657 60.5041 15.3657C60.2041 14.9657 60.0041 15.0657 59.7041 15.4657C59.5041 15.6657 59.3041 15.8657 59.104 16.0657C59.0041 16.1657 58.8041 16.1657 58.7041 16.0657C58.6041 16.0657 58.5041 15.8657 58.5041 15.7657C58.5041 15.0657 58.6041 14.3657 59.5041 14.0657C60.0041 13.9657 60.2041 13.5657 60.4041 13.1657C60.6041 12.7657 60.8041 12.4657 61.104 12.0657C61.3041 11.7657 61.3041 11.5657 61.0041 11.3657C60.6041 11.1657 60.2041 10.9657 59.8041 10.8657C58.5041 10.6657 57.2041 10.1657 55.9041 9.66568C54.2041 9.16568 52.5041 8.46568 50.8041 7.96568C49.8041 7.66568 48.904 7.26568 48.104 6.76568C48.104 6.56568 48.0041 6.46568 48.0041 6.26568C47.9041 6.46568 47.8041 6.66568 47.7041 6.76568C47.2041 6.86568 46.6041 7.06569 46.0041 6.86569C45.5041 6.66569 44.9041 6.56569 44.4041 6.56569C43.5041 6.56569 43.104 6.86568 43.104 7.76568C43.0041 8.66568 42.7041 9.36568 42.4041 10.1657C42.0041 11.1657 41.4041 12.1657 41.3041 13.2657C41.3041 13.5657 40.9041 13.7657 40.7041 14.0657C40.9041 14.7657 40.5041 15.2657 40.2041 15.8657C39.7041 16.6657 39.204 17.5657 39.104 18.5657C39.0041 19.9657 38.104 21.0657 37.604 22.3657C37.5041 22.5657 37.0041 22.5657 36.9041 22.2657C36.8041 21.9657 36.7041 21.6657 36.8041 21.4657C36.9041 20.8657 37.0041 20.1657 37.4041 19.8657C37.9041 19.3657 37.6041 18.8657 37.9041 18.3657C38.5041 17.2657 38.7041 16.0657 39.3041 14.9657C39.9041 13.8657 40.0041 12.6657 40.7041 11.6657C40.9041 11.3657 40.9041 10.9657 41.0041 10.6657C41.0041 10.5657 40.9041 10.4657 40.8041 10.3657C40.8041 10.3657 40.604 10.3657 40.604 10.4657C40.3041 10.7657 40.1041 11.1657 39.8041 11.4657C39.7041 11.5657 39.5041 11.5657 39.4041 11.5657C39.3041 11.5657 39.2041 11.2657 39.3041 11.2657C39.7041 10.7657 40.0041 10.1657 40.4041 9.76568C41.2041 9.06568 41.5041 8.16569 42.0041 7.36569C42.0041 7.36569 41.9041 7.06569 41.8041 7.06569C40.9041 7.06569 40.1041 7.06569 39.2041 7.06569C38.4041 7.06569 37.5041 7.56568 36.7041 7.16568C36.6041 7.16568 36.3041 7.36568 36.2041 7.46568C36.0041 7.96568 35.7041 8.06569 35.2041 7.86569C35.0041 7.76569 34.9041 7.86569 34.9041 8.06569C34.9041 8.16569 34.9041 8.36568 35.0041 8.46568C35.1041 8.56568 35.3041 8.56569 35.4041 8.56569C36.0041 8.46569 36.4041 8.56569 36.7041 9.06569C37.0041 9.56569 37.1041 10.1657 36.8041 10.7657C36.7041 10.9657 36.6041 11.1657 36.5041 11.3657C35.4041 12.9657 35.4041 12.9657 35.0041 14.9657C34.9041 15.4657 34.9041 15.9657 34.3041 16.2657C34.0041 16.3657 33.9041 16.5657 33.9041 16.9657C33.9041 17.9657 33.7041 18.7657 32.8041 19.3657C32.7041 19.4657 32.604 19.7657 32.604 19.8657C32.604 20.1657 32.704 20.4657 32.604 20.6657C32.0041 21.6657 31.904 22.8657 31.604 23.8657C31.504 24.2657 31.2041 24.4657 30.9041 24.5657C30.6041 24.6657 30.2041 24.7657 29.9041 24.8657C29.8041 23.8657 30.204 22.8657 30.604 21.9657C31.004 20.8657 31.5041 19.8657 31.8041 18.7657C32.0041 17.8657 32.4041 16.9657 32.8041 16.1657C33.2041 15.4657 33.3041 14.8657 33.0041 14.1657C32.7041 13.3657 32.6041 12.5657 33.4041 11.8657C33.8041 11.4657 34.0041 10.9657 34.2041 10.3657C34.3041 10.1657 34.4041 9.76569 34.3041 9.56569C34.2041 9.26569 33.8041 9.36568 33.604 9.46568C33.204 9.56568 32.8041 9.76568 32.4041 9.76568C31.6041 9.76568 31.3041 10.2657 31.2041 10.7657C31.1041 11.2657 31.404 11.8657 30.604 12.0657C30.504 12.0657 30.5041 12.3657 30.5041 12.4657C30.6041 12.7657 30.7041 12.9657 30.7041 13.2657C30.7041 13.5657 30.6041 13.8657 30.4041 13.9657C30.1041 14.2657 29.9041 13.8657 29.8041 13.6657C29.7041 13.3657 29.5041 13.1657 29.2041 13.1657C28.8041 13.1657 28.3041 13.0657 27.9041 13.0657C27.8041 13.0657 27.704 13.1657 27.604 13.2657C27.404 13.4657 27.2041 13.6657 27.0041 13.8657C26.3041 14.3657 26.1041 14.9657 26.5041 15.7657C26.6041 16.0657 26.7041 16.2657 26.9041 16.5657C27.0041 16.8657 26.9041 17.0657 26.3041 17.2657C26.2041 17.2657 26.204 17.2657 26.104 17.3657C26.004 16.8657 26.0041 16.4657 25.9041 15.9657C25.9041 15.8657 25.704 15.8657 25.604 15.7657C25.504 15.8657 25.4041 15.9657 25.5041 16.0657C25.6041 16.5657 25.6041 17.0657 26.2041 17.2657C26.4041 17.6657 26.504 18.1657 26.104 18.4657C25.604 18.5657 25.5041 18.5657 25.3041 18.5657C25.2041 18.7657 25.1041 18.9657 25.0041 19.0657C25.0041 19.0657 24.9041 19.1657 24.9041 19.2657V19.3657C24.9041 19.2657 24.9041 19.1657 25.0041 19.0657C25.2041 19.0657 25.3041 18.8657 25.3041 18.5657ZM24.2041 17.4657C24.3041 17.3657 24.6041 17.3657 24.4041 17.0657C24.3041 17.1657 24.2041 17.3657 24.2041 17.4657C24.2041 17.5657 24.2041 17.6657 24.2041 17.7657C24.1041 17.6657 24.2041 17.5657 24.2041 17.4657ZM37.5041 52.8657C37.3041 53.1657 37.0041 53.4657 36.8041 53.8657H36.7041L36.8041 53.9657C37.4041 54.0657 37.5041 54.0657 37.5041 53.5657C37.5041 53.2657 37.5041 53.0657 37.5041 52.8657ZM53.9041 81.4657C53.9041 81.5657 53.9041 81.5657 53.9041 81.4657C53.8041 81.1657 53.704 80.7657 53.604 80.4657C53.604 80.3657 53.5041 80.3657 53.5041 80.3657C53.4041 80.4657 53.3041 80.6657 53.3041 80.6657C53.5041 80.9657 53.7041 81.2657 53.9041 81.4657ZM37.3041 76.4657C37.1041 76.3657 36.904 76.1657 36.604 76.0657C36.604 76.0657 36.4041 76.1657 36.4041 76.2657L36.5041 76.3657C36.8041 76.4657 37.0041 76.4657 37.3041 76.4657ZM33.7041 75.7657C33.6041 75.6657 33.5041 75.6657 33.4041 75.5657L33.3041 75.6657C33.4041 75.7657 33.6041 75.7657 33.7041 75.7657C34.0041 76.1657 34.3041 76.4657 34.8041 76.6657C34.9041 76.6657 35.0041 76.6657 35.0041 76.6657C35.0041 76.5657 35.1041 76.3657 35.0041 76.2657C34.6041 75.9657 34.2041 75.8657 33.7041 75.7657ZM47.9041 64.6657C47.7041 64.5657 47.5041 64.3657 47.3041 64.2657C47.2041 63.8657 47.1041 63.4657 47.0041 63.0657C46.9041 62.3657 47.0041 61.6657 47.9041 61.3657C48.4041 61.1657 48.4041 60.6657 47.9041 60.1657C47.8041 60.0657 47.6041 59.8657 47.4041 59.7657C47.1041 59.6657 47.204 60.0657 47.104 60.1657C47.0041 60.7657 46.9041 61.2657 46.4041 61.6657C46.0041 62.0657 46.1041 62.5657 46.2041 63.0657C46.3041 63.6657 46.6041 64.1657 47.2041 64.2657C47.5041 64.3657 47.7041 64.4657 47.9041 64.6657C48.0041 64.8657 48.104 65.1657 48.104 65.4657C48.204 65.7657 48.2041 66.0657 48.2041 66.2657C48.2041 66.3657 48.4041 66.3657 48.5041 66.3657C48.5041 66.2657 48.604 66.2657 48.604 66.1657C48.5041 65.5657 48.6041 64.8657 47.9041 64.6657ZM48.104 68.4657C48.204 68.5657 48.2041 68.7657 48.3041 68.7657C48.4041 68.8657 48.5041 68.7657 48.604 68.7657C48.5041 68.6657 48.5041 68.5657 48.4041 68.4657C48.4041 68.4657 48.204 68.4657 48.104 68.4657C47.404 67.7657 47.1041 66.9657 47.5041 65.9657V65.7657C47.4041 65.6657 47.3041 65.5657 47.2041 65.5657C47.1041 65.5657 46.9041 65.6657 46.9041 65.7657C46.8041 66.2657 46.7041 66.7657 46.7041 67.2657C46.7041 67.6657 46.4041 67.8657 46.0041 67.8657C45.6041 67.8657 45.604 68.1657 45.604 68.4657C45.704 69.2657 45.9041 69.3657 46.7041 69.2657C47.3041 69.1657 47.704 68.9657 48.104 68.4657ZM46.5041 76.6657C46.8041 76.9657 47.5041 76.9657 47.5041 77.6657C47.5041 77.9657 47.8041 78.0657 48.104 78.1657C49.104 78.2657 49.7041 77.6657 50.2041 77.0657C50.2041 77.0657 50.204 76.9657 50.104 76.8657C50.104 76.8657 50.0041 76.7657 49.9041 76.7657C49.6041 76.7657 49.3041 76.8657 49.104 76.9657C48.704 77.0657 48.6041 76.9657 48.8041 76.4657C48.9041 76.1657 49.0041 75.9657 48.8041 75.7657C48.6041 75.6657 48.3041 75.6657 48.2041 75.7657C47.7041 76.1657 47.1041 76.2657 46.5041 76.0657C46.4041 76.0657 46.4041 76.0657 46.3041 76.0657C45.8041 76.2657 45.5041 76.1657 45.2041 75.7657C45.1041 75.5657 44.7041 75.7657 44.7041 75.9657C44.6041 76.3657 44.6041 76.8657 44.9041 77.1657C45.2041 77.5657 45.4041 76.8657 45.8041 76.9657C46.0041 76.7657 46.3041 76.6657 46.5041 76.6657ZM23.0041 55.3657C23.2041 55.6657 23.404 55.8657 23.604 56.1657C23.604 56.4657 23.7041 56.7657 23.7041 56.9657C23.8041 57.3657 23.9041 57.6657 24.3041 57.7657C24.8041 58.7657 25.1041 59.7657 24.9041 60.8657C24.9041 61.1657 25.0041 61.4657 24.9041 61.6657C24.8041 61.8657 24.4041 61.8657 24.2041 61.9657C24.0041 62.0657 23.7041 62.2657 23.5041 62.4657C22.9041 62.1657 22.704 61.3657 22.104 60.9657C21.904 60.8657 22.0041 60.2657 21.8041 59.9657C21.6041 59.7657 21.1041 59.7657 20.9041 59.5657C20.6041 59.3657 20.4041 59.0657 20.2041 58.7657C19.6041 58.0657 19.104 57.2657 18.604 56.5657C18.404 56.3657 18.2041 56.1657 18.0041 55.9657C17.8041 55.8657 17.5041 55.9657 17.5041 56.1657C17.5041 56.6657 17.4041 57.1657 17.5041 57.6657C17.5041 57.9657 17.7041 58.3657 17.9041 58.3657C18.7041 58.5657 18.904 59.4657 19.604 59.8657C20.604 60.3657 21.4041 61.2657 21.9041 62.3657C22.1041 62.7657 22.4041 62.7657 22.8041 62.6657C23.1041 62.5657 23.404 62.5657 23.604 62.4657C23.604 63.3657 23.6041 63.4657 24.2041 63.5657C25.3041 63.7657 26.2041 64.1657 26.8041 65.0657C26.9041 65.2657 27.1041 65.2657 27.3041 65.1657C27.5041 65.1657 27.8041 65.1657 27.9041 65.2657C28.2041 65.5657 28.404 65.7657 28.604 65.1657C28.804 64.5657 29.1041 63.8657 29.0041 63.3657C28.8041 62.4657 29.1041 61.5657 29.0041 60.5657C28.9041 60.0657 29.1041 59.4657 29.3041 58.8657C29.3041 58.6657 29.6041 58.3657 29.7041 58.3657C30.2041 58.4657 30.4041 58.2657 30.2041 57.8657C29.9041 57.3657 29.7041 56.7657 30.0041 56.2657C30.5041 55.3657 30.504 54.4657 30.604 53.5657C30.704 52.5657 30.8041 51.5657 31.0041 50.5657C31.0041 50.2657 30.804 50.1657 30.604 50.2657C29.904 50.2657 29.2041 50.4657 28.8041 51.1657C28.7041 51.3657 28.5041 51.6657 28.3041 51.8657C28.2041 51.9657 28.1041 51.9657 28.0041 52.0657C28.0041 51.9657 27.9041 51.8657 27.9041 51.6657C27.8041 50.8657 27.8041 50.8657 27.3041 50.8657C25.7041 50.6657 25.8041 50.6657 24.9041 52.1657C24.9041 52.2657 24.8041 52.2657 24.7041 52.2657C24.4041 51.6657 24.3041 50.9657 23.5041 50.6657C22.6041 50.3657 22.604 50.3657 22.104 50.9657C22.004 51.0657 21.9041 51.1657 21.9041 51.3657C21.8041 51.5657 21.5041 51.4657 21.4041 51.2657C21.3041 51.1657 21.3041 50.9657 21.3041 50.8657C21.2041 50.6657 21.3041 50.2657 20.9041 50.2657C20.7041 50.2657 20.5041 50.5657 20.5041 50.7657C20.3041 52.0657 19.8041 53.1657 19.3041 54.3657C19.0041 55.0657 19.204 55.4657 19.604 55.8657L19.5041 55.9657V55.8657C19.7041 55.6657 19.9041 55.4657 20.0041 55.1657C20.2041 54.4657 20.404 53.6657 20.604 52.9657C20.704 52.6657 21.0041 52.5657 21.3041 52.7657C21.4041 52.7657 21.4041 52.8657 21.5041 52.8657C22.2041 53.5657 22.2041 53.5657 22.5041 52.7657C22.7041 52.2657 22.7041 51.6657 23.2041 51.2657C23.6041 52.5657 23.4041 53.7657 22.8041 54.9657C22.4041 55.7657 21.9041 56.5657 21.5041 57.3657C21.2041 57.8657 21.204 58.4657 21.604 58.9657C21.804 59.1657 22.1041 59.1657 22.3041 58.9657C22.3041 57.6657 22.7041 56.5657 23.0041 55.3657ZM19.4041 20.0657C18.3041 20.9657 17.504 22.0657 17.104 23.1657C17.004 23.4657 16.7041 23.7657 16.5041 24.0657C16.3041 24.2657 16.0041 24.4657 16.0041 24.6657C15.7041 25.7657 15.3041 26.8657 14.5041 27.6657C14.4041 27.7657 14.4041 27.9657 14.4041 28.0657C14.3041 29.0657 13.8041 29.9657 13.4041 30.8657C13.3041 31.0657 13.3041 31.2657 13.3041 31.4657C13.3041 31.5657 13.4041 31.7657 13.5041 31.7657C13.6041 31.8657 13.8041 31.8657 13.9041 31.7657C14.1041 31.6657 14.3041 31.5657 14.4041 31.3657C14.8041 30.8657 15.2041 30.8657 15.7041 31.1657C15.8041 31.1657 15.8041 31.2657 15.9041 31.2657C16.0041 31.2657 16.104 31.2657 16.104 31.2657C16.204 31.1657 16.3041 30.9657 16.2041 30.8657C16.1041 30.3657 16.0041 29.7657 15.4041 29.4657C15.8041 28.9657 16.3041 28.3657 16.7041 27.8657C17.1041 27.4657 17.304 27.0657 17.104 26.5657C16.904 25.9657 17.104 25.4657 17.604 25.0657C17.904 24.8657 18.1041 24.4657 18.4041 24.1657C18.9041 23.2657 18.504 22.0657 19.604 21.3657C19.704 21.2657 19.604 20.9657 19.604 20.7657C19.504 20.6657 19.4041 20.3657 19.4041 20.0657ZM56.3041 94.9657C55.8041 94.7657 55.4041 94.1657 54.8041 94.6657C54.5041 94.9657 54.0041 94.9657 53.604 94.8657C53.5041 94.8657 53.204 94.9657 53.104 95.1657C52.604 95.9657 52.204 96.4657 51.604 96.7657C51.404 96.8657 51.104 96.6657 51.104 96.4657C51.104 96.0657 50.904 95.5657 51.604 95.4657C51.8041 95.3657 51.9041 95.1657 51.7041 94.9657C50.9041 94.4657 50.1041 94.3657 49.3041 94.9657C49.0041 94.6657 48.7041 94.6657 48.3041 94.6657C48.3041 94.2657 48.1041 94.1657 47.8041 94.2657C47.3041 94.4657 47.2041 95.1657 46.5041 95.3657C45.6041 95.5657 45.4041 96.2657 45.8041 97.2657C45.5041 97.3657 45.204 97.4657 45.104 97.6657C44.604 98.1657 44.5041 98.5657 44.9041 99.1657C45.2041 99.7657 45.7041 100.166 46.4041 100.166C46.7041 100.166 46.8041 100.566 46.7041 100.866C46.7041 100.966 46.7041 101.166 46.7041 101.266C46.8041 101.266 47.0041 101.266 47.0041 101.166C47.6041 100.466 48.4041 100.266 49.3041 100.566C49.9041 100.766 50.6041 100.666 51.2041 100.766C52.6041 101.166 54.0041 100.566 55.5041 100.666C55.9041 100.666 56.4041 100.266 56.8041 100.066C57.5041 99.6657 58.404 100.066 59.104 99.7657C59.8041 99.4657 60.5041 99.0657 61.3041 99.0657C61.6041 99.0657 61.8041 98.9657 62.104 98.8657C62.8041 98.6657 63.404 98.3657 64.104 98.0657C64.5041 97.8657 64.8041 97.6657 65.2041 97.4657C65.7041 97.3657 66.204 97.1657 66.604 97.0657C67.4041 96.8657 68.0041 96.3657 68.3041 95.6657C68.4041 95.4657 68.5041 95.2657 68.2041 95.1657C68.1041 95.0657 67.9041 95.0657 67.8041 95.1657C66.8041 95.8657 65.8041 96.6657 64.4041 96.5657C64.4041 96.5657 64.3041 96.7657 64.2041 96.8657C64.3041 96.8657 64.3041 96.9657 64.4041 96.9657C65.1041 96.6657 65.0041 97.2657 65.2041 97.5657C64.4041 97.7657 63.5041 97.9657 62.7041 98.0657C61.8041 98.1657 60.8041 98.1657 60.0041 98.4657C58.5041 98.9657 56.9041 98.7657 55.4041 99.2657C54.9041 99.4657 54.4041 99.3657 53.9041 99.3657C52.7041 99.2657 51.5041 99.1657 50.3041 99.4657C50.1041 99.4657 49.9041 99.4657 49.7041 99.3657C49.6041 99.3657 49.5041 99.1657 49.4041 99.0657C49.4041 98.9657 49.4041 98.7657 49.4041 98.6657C49.5041 98.3657 49.6041 97.9657 49.7041 97.6657C49.8041 97.3657 50.1041 97.1657 50.3041 97.2657C52.7041 97.6657 55.1041 97.7657 57.4041 96.8657C59.5041 96.7657 61.4041 95.6657 63.4041 95.1657C63.7041 95.0657 63.904 94.9657 64.104 94.7657C64.704 94.1657 65.4041 93.9657 66.104 93.5657C66.604 93.2657 66.804 93.3657 67.104 93.6657C67.4041 93.9657 67.7041 93.8657 67.8041 93.5657C67.9041 93.0657 68.1041 92.7657 68.7041 92.5657C69.0041 92.4657 69.0041 91.8657 68.8041 91.6657C68.7041 91.5657 68.6041 91.4657 68.5041 91.3657C67.7041 91.2657 67.1041 90.7657 66.4041 90.3657C65.9041 90.0657 65.4041 89.8657 64.8041 89.9657C64.5041 89.9657 64.3041 90.1657 64.0041 90.1657C63.5041 90.1657 63.0041 89.8657 62.604 90.2657C62.104 90.7657 62.4041 91.3657 62.5041 91.8657C62.6041 92.6657 62.2041 93.1657 61.4041 93.4657C61.1041 93.5657 60.904 93.6657 60.604 93.7657C59.704 93.9657 58.8041 94.0657 57.8041 94.2657C56.9041 94.0657 56.6041 94.5657 56.3041 94.9657ZM18.8041 68.3657C18.9041 68.4657 19.1041 68.4657 19.2041 68.5657C19.5041 68.9657 19.8041 69.0657 20.3041 69.0657C20.6041 69.0657 20.9041 69.1657 21.0041 69.5657C21.1041 69.8657 21.1041 70.2657 21.0041 70.6657C21.0041 70.8657 20.8041 71.0657 20.5041 70.9657C19.6041 70.8657 18.8041 70.4657 18.2041 69.8657C17.7041 69.4657 17.3041 68.7657 16.8041 68.5657C15.2041 67.9657 14.7041 66.2657 13.3041 65.5657C12.9041 64.9657 12.5041 64.2657 11.9041 63.6657C11.4041 63.1657 11.004 62.5657 10.604 61.9657C9.30405 60.2657 8.50407 58.3657 7.40407 56.6657C7.00407 55.9657 6.70405 55.2657 6.70405 54.4657C6.70405 53.9657 6.40405 53.5657 6.10405 53.0657C6.00405 52.8657 5.70405 52.6657 5.60405 52.3657C5.40405 51.9657 5.50406 51.4657 5.80406 51.1657C5.90406 51.0657 6.30405 51.1657 6.60405 51.1657C6.60405 51.0657 6.60407 50.8657 6.50407 50.7657C6.20407 50.2657 6.10407 49.9657 6.40407 49.5657C6.70407 49.0657 6.60407 48.5657 6.50407 48.0657C6.40407 47.4657 5.80407 47.7657 5.40407 47.5657C5.10407 47.3657 5.00406 47.2657 5.30406 46.9657C5.40406 46.7657 5.70405 46.6657 5.70405 46.4657C5.70405 46.1657 5.60407 45.8657 5.40407 45.6657C5.30407 45.5657 5.00406 45.5657 4.80406 45.5657C4.60406 45.5657 4.50406 45.7657 4.30406 45.8657C4.10406 45.9657 3.70405 45.7657 3.70405 45.4657C3.70405 44.0657 3.30405 42.7657 3.60405 41.3657C3.80405 40.0657 3.80405 38.6657 3.20405 37.3657C3.10405 37.1657 3.10405 36.7657 3.10405 36.5657C3.40405 35.8657 3.30405 35.0657 3.60405 34.2657C3.90405 33.4657 4.10405 32.6657 4.20405 31.7657C4.30405 29.8657 5.20406 28.1657 5.80406 26.4657C6.00406 25.9657 6.30406 25.4657 6.80406 25.0657C7.00406 24.9657 7.10405 24.7657 7.10405 24.5657C7.40405 23.3657 8.20406 22.3657 8.80406 21.3657C9.10406 20.9657 9.50407 20.6657 10.0041 20.5657C10.0041 20.6657 10.004 20.6657 10.104 20.7657L10.2041 20.8657C10.1041 20.7657 10.1041 20.7657 10.0041 20.6657C10.0041 19.6657 10.4041 18.8657 10.9041 18.0657C11.1041 17.7657 11.4041 17.4657 11.5041 17.1657C11.6041 16.4657 11.8041 15.9657 12.5041 15.6657C12.8041 15.4657 12.9041 14.9657 13.2041 14.5657C13.4041 14.2657 14.004 14.0657 14.104 13.7657C14.504 12.5657 15.9041 12.1657 16.2041 10.8657C16.2041 10.6657 16.6041 10.5657 16.9041 10.3657C17.2041 10.1657 17.5041 9.96568 17.7041 9.76568C19.5041 7.76568 22.0041 6.36568 23.8041 4.46568C23.9041 4.36568 24.2041 4.26568 24.4041 4.26568C24.5041 4.16568 24.7041 4.16569 24.8041 4.06569C24.9041 3.96569 25.0041 3.76568 25.0041 3.66568C25.0041 3.56568 24.8041 3.46568 24.7041 3.46568C24.3041 3.56568 23.8041 3.66569 23.5041 3.86569C22.7041 4.36569 21.9041 5.06568 21.2041 5.76568C20.8041 6.16568 20.4041 6.56569 19.9041 6.86569C19.0041 7.46569 16.6041 9.46568 15.9041 10.2657C14.8041 11.4657 13.704 12.6657 12.604 13.8657C12.204 14.6657 11.904 15.4657 11.104 15.8657C10.604 16.8657 9.40407 17.2657 9.00407 18.4657C8.90407 18.8657 8.60405 19.0657 8.20405 19.1657C7.70405 19.2657 7.50407 19.5657 7.40407 20.0657C7.30407 20.6657 7.20407 21.3657 7.00407 21.9657C6.70407 22.5657 6.30407 23.0657 5.90407 23.5657C5.60407 24.0657 5.10407 24.4657 4.90407 24.9657C4.50407 26.2657 4.00407 27.5657 3.90407 28.8657C3.80407 30.1657 2.90406 31.2657 3.30406 32.5657C3.30406 32.6657 3.20405 32.8657 3.10405 32.9657C2.70405 33.4657 2.60405 34.1657 2.70405 34.7657C2.70405 35.0657 2.80406 35.3657 2.80406 35.5657C2.70406 36.2657 2.50407 36.9657 2.40407 37.6657C2.20407 38.3657 2.80405 38.9657 2.70405 39.7657C2.60405 41.0657 2.70405 42.4657 2.70405 43.8657C2.70405 44.5657 2.80407 45.1657 3.00407 45.7657C3.30407 46.4657 3.40405 47.1657 3.10405 47.8657C2.90405 48.4657 3.00406 48.9657 3.30406 49.5657C3.70406 50.4657 4.10407 51.3657 4.50407 52.2657C4.70407 52.7657 4.90406 53.1657 4.80406 53.6657C4.70406 54.2657 4.90405 54.7657 5.20405 55.2657C6.00405 56.3657 6.30405 57.7657 7.20405 58.7657C7.30405 59.6657 7.80405 60.2657 8.60405 60.8657C8.90405 61.1657 9.20407 61.4657 9.50407 61.7657C10.0041 62.2657 10.4041 62.8657 10.4041 63.6657C10.4041 63.7657 10.604 63.9657 10.604 63.9657C11.704 63.6657 11.9041 64.7657 12.3041 65.2657C12.9041 65.9657 13.404 66.8657 14.104 67.6657C14.004 68.2657 14.8041 68.1657 14.8041 68.5657C14.9041 69.3657 15.5041 68.9657 15.9041 69.1657C16.2041 69.2657 16.404 69.4657 16.604 69.5657C16.804 69.6657 16.9041 69.9657 17.0041 70.0657C18.4041 70.5657 19.5041 71.4657 20.0041 72.8657C20.0041 72.8657 20.3041 72.8657 20.4041 72.8657C20.7041 72.5657 21.0041 72.5657 21.3041 72.8657C21.9041 73.4657 22.7041 73.8657 23.5041 74.1657C23.5041 74.2657 23.4041 74.2657 23.4041 74.3657C23.4041 74.3657 23.4041 74.4657 23.4041 74.5657C23.4041 74.4657 23.5041 74.3657 23.5041 74.2657C23.9041 74.2657 24.3041 74.1657 24.7041 74.1657C25.1041 74.2657 25.5041 74.4657 25.9041 74.5657C26.0041 74.5657 26.004 74.5657 26.104 74.4657C26.104 74.4657 26.2041 74.3657 26.2041 74.2657C26.1041 74.1657 26.0041 73.9657 26.0041 73.9657C25.6041 73.9657 25.2041 74.0657 24.8041 74.0657C24.2041 73.5657 23.6041 73.0657 23.0041 72.5657C22.5041 72.1657 22.1041 71.6657 21.7041 71.1657C21.6041 71.0657 21.6041 70.7657 21.7041 70.5657C21.9041 70.1657 22.2041 70.2657 22.4041 70.4657C22.8041 70.7657 23.204 70.7657 23.604 70.6657C24.104 70.5657 24.6041 70.6657 25.0041 70.9657C25.4041 71.1657 25.9041 71.2657 26.4041 71.4657C26.8041 71.5657 27.204 71.6657 27.604 71.9657C28.004 72.2657 28.4041 72.2657 28.8041 72.1657C29.1041 72.0657 29.3041 72.3657 29.4041 72.6657C29.5041 72.9657 29.7041 73.1657 30.0041 73.0657C30.2041 73.0657 30.404 72.9657 30.604 72.9657C32.304 73.3657 34.0041 74.0657 35.8041 73.9657C36.7041 74.5657 37.604 74.6657 38.604 74.5657C40.0041 75.1657 41.4041 74.9657 42.8041 74.7657C42.9041 74.7657 42.9041 74.7657 43.0041 74.7657C43.7041 74.7657 44.5041 74.5657 45.104 74.7657C45.904 74.9657 46.404 74.2657 47.104 74.2657C47.404 74.2657 47.7041 74.1657 47.9041 74.2657C48.5041 74.5657 49.0041 74.3657 49.5041 74.0657C49.8041 73.8657 50.1041 73.9657 50.2041 74.2657C50.5041 74.6657 50.704 75.1657 51.104 75.4657C51.3041 75.6657 51.7041 75.7657 52.0041 75.9657C52.1041 75.9657 52.1041 75.9657 52.2041 75.9657H52.3041C52.2041 75.9657 52.1041 75.9657 52.0041 75.9657C52.1041 75.6657 52.2041 75.2657 52.2041 74.9657C52.2041 74.1657 52.2041 73.9657 52.8041 73.8657C54.2041 73.5657 55.7041 73.2657 57.2041 72.8657C57.8041 73.1657 58.3041 72.5657 58.8041 72.5657C59.3041 72.5657 59.4041 71.9657 59.8041 71.8657C60.3041 71.7657 60.8041 71.6657 61.2041 71.5657C62.0041 71.2657 62.7041 70.8657 62.8041 69.9657C62.9041 68.9657 62.2041 68.4657 61.4041 67.9657C60.9041 67.6657 60.6041 67.7657 60.2041 68.3657C60.0041 68.6657 59.7041 68.9657 59.4041 68.9657C58.6041 68.9657 58.0041 69.8657 57.2041 69.3657C56.6041 69.7657 55.904 70.1657 55.104 70.3657C54.8041 70.4657 54.404 70.7657 54.104 70.6657C53.3041 70.3657 52.6041 70.8657 51.8041 71.0657C51.0041 71.1657 50.3041 71.6657 49.5041 71.2657C49.4041 71.1657 49.1041 71.4657 48.9041 71.4657C48.6041 71.5657 48.1041 71.7657 47.9041 71.5657C47.3041 71.0657 46.9041 71.4657 46.4041 71.7657C46.1041 71.9657 45.7041 71.9657 45.4041 71.9657C43.6041 71.9657 41.8041 72.0657 40.104 72.0657C39.0041 72.0657 37.8041 71.9657 36.8041 71.3657C36.2041 70.9657 35.6041 70.4657 34.9041 70.5657C34.4041 69.8657 33.6041 70.1657 32.9041 69.9657C32.2041 69.7657 31.5041 69.5657 30.9041 69.3657C30.0041 69.0657 29.204 68.4657 28.104 68.4657C27.104 68.4657 26.2041 67.7657 25.5041 67.0657C25.2041 66.7657 24.8041 66.5657 24.4041 66.7657C24.0041 66.9657 23.5041 66.7657 23.2041 66.4657C22.8041 65.8657 22.1041 65.7657 21.7041 65.3657C21.2041 64.7657 20.6041 64.5657 19.9041 64.4657C19.6041 64.3657 19.304 64.0657 19.104 63.7657C18.604 63.1657 18.2041 62.4657 17.7041 61.8657C16.5041 61.5657 15.9041 60.5657 15.3041 59.5657C15.1041 59.2657 14.8041 59.0657 14.5041 58.8657C13.5041 58.0657 12.8041 57.0657 12.3041 55.9657C11.9041 55.0657 11.5041 54.1657 11.0041 53.2657C10.1041 51.5657 9.30406 49.7657 9.30406 47.7657C9.30406 47.4657 9.20405 47.2657 9.10405 46.9657C9.00405 46.6657 8.90407 46.2657 8.90407 45.9657C8.90407 43.8657 8.30406 41.8657 8.30406 39.7657C8.30406 38.9657 8.30405 38.1657 8.60405 37.4657C9.20405 36.2657 9.50407 34.8657 10.0041 33.6657C10.6041 31.9657 11.2041 30.2657 11.8041 28.5657C11.9041 28.2657 12.0041 28.0657 12.2041 27.7657C13.7041 25.2657 15.204 22.8657 16.604 20.3657C17.004 19.7657 17.504 19.4657 18.104 19.3657C18.104 19.5657 18.1041 19.7657 18.2041 19.9657C18.2041 20.0657 18.3041 20.0657 18.3041 20.0657C18.4041 19.9657 18.5041 19.8657 18.4041 19.7657C18.3041 19.5657 18.1041 19.4657 18.0041 19.3657C18.0041 18.8657 17.804 18.1657 18.604 17.9657C18.804 17.9657 19.104 17.8657 19.104 17.6657C19.404 16.7657 20.4041 16.3657 20.9041 15.6657C21.2041 15.2657 21.5041 15.1657 22.0041 15.1657C22.6041 15.1657 22.7041 14.9657 22.7041 14.3657C22.6041 13.7657 22.8041 13.3657 23.3041 13.0657C23.6041 12.7657 24.0041 12.4657 24.4041 12.3657C24.9041 12.1657 25.3041 11.8657 25.7041 11.5657C26.3041 11.0657 26.604 10.5657 26.104 9.76568C25.904 9.36568 25.8041 8.76569 25.7041 8.36569C25.6041 8.16569 25.6041 7.96568 25.5041 7.76568C25.4041 7.56568 24.9041 7.36569 24.8041 7.56569C24.3041 8.06569 23.7041 8.46568 23.0041 8.76568C22.7041 8.86568 22.3041 9.16568 22.2041 9.46568C22.0041 10.1657 21.2041 10.2657 20.9041 10.8657C20.7041 11.4657 19.9041 11.2657 19.8041 11.8657C19.7041 12.5657 19.004 12.6657 18.604 12.9657C17.804 13.5657 16.8041 14.0657 16.3041 14.9657C16.3041 15.0657 16.0041 15.0657 15.9041 15.0657C15.8041 15.8657 15.6041 16.5657 15.0041 17.1657C14.5041 17.5657 14.2041 18.1657 13.8041 18.6657C13.6041 18.9657 13.404 19.2657 13.104 19.3657C12.604 19.5657 12.5041 19.8657 12.5041 20.3657C12.5041 20.6657 12.4041 20.9657 12.3041 21.1657C11.4041 22.1657 11.0041 23.3657 10.2041 24.3657C9.30406 25.4657 9.00406 26.7657 8.30406 27.9657C7.10406 30.0657 6.40407 32.4657 5.50407 34.6657L5.20405 36.9657C5.90405 37.9657 5.30407 39.0657 5.50407 40.0657C5.60407 40.4657 5.40407 40.6657 5.00407 40.9657C4.60407 41.2657 4.70405 41.4657 5.10405 41.5657C5.50405 41.6657 5.70406 41.8657 5.80406 42.2657C5.90406 42.6657 6.00407 43.0657 6.00407 43.5657C6.20407 44.8657 6.30405 46.2657 6.70405 47.5657C7.40405 49.3657 7.20407 51.3657 7.90407 53.1657C8.10407 53.5657 7.80407 54.1657 8.00407 54.6657C8.20407 55.1657 8.60406 55.6657 8.30406 56.2657C8.30406 56.3657 8.40407 56.5657 8.50407 56.5657C9.50407 56.6657 9.80405 57.3657 10.104 58.0657C10.604 59.1657 11.5041 60.0657 11.7041 61.2657C11.8041 61.5657 12.0041 61.8657 12.3041 62.1657C13.4041 63.1657 14.2041 64.4657 15.5041 65.3657C15.8041 65.5657 16.1041 65.9657 16.3041 66.3657C16.6041 67.0657 17.1041 67.5657 17.8041 67.8657C18.4041 67.4657 18.6041 67.8657 18.8041 68.3657ZM56.0041 92.2657C56.6041 92.2657 57.1041 92.0657 57.7041 92.0657C58.0041 92.0657 58.1041 91.8657 58.3041 91.5657C58.9041 90.6657 58.704 89.9657 58.104 89.1657C58.0041 88.9657 57.6041 88.8657 57.4041 88.8657C56.5041 89.0657 55.6041 89.2657 54.7041 89.3657C54.2041 89.3657 53.7041 89.5657 53.3041 89.9657C52.9041 90.2657 52.5041 90.6657 52.2041 90.9657C51.8041 91.3657 51.9041 92.2657 52.5041 92.3657C53.2041 92.4657 53.904 92.7657 54.604 92.5657C55.0041 92.3657 55.5041 92.3657 56.0041 92.2657ZM36.7041 56.1657C36.7041 55.8657 36.8041 55.6657 36.8041 55.3657C36.8041 55.2657 36.7041 55.1657 36.7041 55.1657C36.6041 55.1657 36.4041 55.2657 36.4041 55.2657C36.1041 56.1657 35.9041 57.0657 35.4041 57.8657C34.9041 58.7657 34.4041 59.7657 33.9041 60.6657C33.4041 61.5657 33.4041 62.5657 33.0041 63.4657C32.9041 63.7657 33.0041 64.1657 33.104 64.4657C33.104 64.5657 33.2041 64.5657 33.2041 64.6657C33.3041 64.6657 33.3041 64.5657 33.4041 64.5657C33.7041 63.9657 33.8041 63.1657 34.3041 62.6657C35.2041 61.7657 35.5041 60.5657 35.8041 59.4657C36.0041 58.7657 36.0041 58.0657 36.7041 57.6657C36.8041 57.5657 36.9041 57.2657 36.9041 57.0657C36.9041 56.7657 36.8041 56.4657 36.7041 56.1657ZM76.8041 29.4657C76.8041 29.9657 76.8041 30.5657 76.9041 31.2657C76.9041 31.4657 76.9041 31.6657 76.9041 31.8657C76.9041 31.9657 77.1041 32.0657 77.2041 32.1657C77.4041 32.2657 77.604 32.1657 77.604 31.7657C77.604 31.3657 77.804 30.8657 77.604 30.4657C77.104 29.4657 77.0041 28.3657 76.8041 27.3657C76.8041 27.2657 76.704 27.1657 76.604 27.0657C76.5041 27.2657 76.4041 27.4657 76.4041 27.5657C76.4041 28.2657 76.6041 28.7657 76.8041 29.4657ZM54.2041 83.9657C54.3041 84.2657 54.5041 84.6657 54.7041 85.0657C54.7041 85.1657 55.0041 85.1657 55.104 85.1657C55.204 85.1657 55.4041 85.0657 55.4041 84.9657C55.5041 84.1657 55.104 83.6657 54.604 83.1657C54.604 83.1657 54.5041 83.1657 54.4041 83.1657L54.3041 83.2657C54.2041 83.4657 54.3041 83.6657 54.2041 83.9657ZM31.2041 75.9657C31.3041 76.0657 31.2041 76.2657 31.3041 76.3657C31.3041 76.4657 31.504 76.5657 31.604 76.5657C31.604 76.5657 31.7041 76.4657 31.8041 76.4657C31.9041 76.0657 32.1041 75.6657 32.2041 75.3657C32.2041 75.2657 32.0041 74.9657 31.9041 74.9657C31.7041 74.9657 31.5041 75.0657 31.4041 75.2657C31.2041 75.3657 31.2041 75.6657 31.2041 75.9657ZM26.3041 3.16568C26.1041 2.86568 26.0041 2.56568 25.8041 2.26568C25.7041 2.06568 25.6041 2.16569 25.5041 2.36569C25.2041 2.86569 25.3041 3.36568 25.8041 3.46568C25.9041 3.46568 26.0041 3.46568 26.0041 3.46568C26.2041 3.36568 26.3041 3.26568 26.3041 3.16568ZM62.104 73.3657C61.8041 73.5657 61.404 73.7657 61.104 73.9657C61.0041 73.9657 61.104 74.2657 61.104 74.3657C61.104 74.4657 61.3041 74.5657 61.4041 74.5657C62.0041 74.5657 62.3041 74.2657 62.3041 73.6657C62.3041 73.5657 62.204 73.4657 62.104 73.3657ZM39.3041 76.6657C39.2041 76.5657 39.204 76.4657 39.104 76.2657C39.0041 76.0657 38.704 76.1657 38.604 76.2657C38.404 76.5657 38.4041 76.9657 38.7041 77.1657C38.8041 77.2657 39.0041 77.2657 39.0041 77.2657C39.1041 77.2657 39.2041 77.0657 39.2041 76.9657C39.4041 76.9657 39.3041 76.7657 39.3041 76.6657ZM21.9041 18.0657C22.0041 18.0657 22.004 18.0657 22.104 18.0657C22.404 18.0657 22.604 17.8657 22.604 17.5657C22.604 17.4657 22.6041 17.4657 22.5041 17.3657C22.3041 17.1657 22.1041 17.0657 21.8041 17.2657C21.6041 17.3657 21.5041 17.4657 21.3041 17.6657C21.2041 17.7657 21.2041 17.9657 21.3041 18.0657C21.3041 18.1657 21.504 18.1657 21.604 18.1657C21.804 18.1657 21.9041 18.0657 21.9041 18.0657ZM56.9041 75.2657C56.7041 75.0657 56.5041 74.7657 56.2041 74.5657C56.2041 74.5657 56.1041 74.5657 56.0041 74.5657C56.0041 74.5657 55.9041 74.6657 55.9041 74.7657C55.9041 75.2657 56.1041 75.5657 56.5041 75.6657C56.6041 75.5657 56.7041 75.3657 56.9041 75.2657ZM20.8041 18.6657C20.7041 18.5657 20.704 18.3657 20.604 18.3657C20.504 18.2657 20.4041 18.1657 20.3041 18.1657C20.2041 18.1657 20.2041 18.3657 20.2041 18.4657C20.2041 18.5657 20.2041 18.7657 20.3041 18.8657C20.4041 19.0657 20.6041 19.1657 20.7041 18.9657C20.7041 18.9657 20.8041 18.7657 20.8041 18.6657ZM67.3041 71.3657C67.6041 71.2657 67.9041 70.5657 67.8041 70.3657C67.8041 70.3657 67.704 70.2657 67.604 70.2657C67.304 70.3657 67.0041 71.0657 67.104 71.2657C67.204 71.3657 67.3041 71.3657 67.3041 71.3657ZM43.4041 99.2657C43.3041 99.3657 43.2041 99.4657 43.2041 99.5657C43.2041 99.8657 43.5041 100.166 43.7041 100.166C43.8041 100.166 43.9041 99.9657 43.9041 99.8657C43.8041 99.4657 43.6041 99.2657 43.4041 99.2657ZM23.4041 58.7657C23.3041 58.6657 23.3041 58.5657 23.2041 58.4657C23.1041 58.4657 23.0041 58.5657 22.9041 58.6657C22.8041 58.8657 23.0041 59.0657 23.2041 59.0657C23.3041 58.9657 23.4041 58.8657 23.4041 58.7657ZM46.0041 93.7657C45.9041 93.7657 45.8041 93.5657 45.7041 93.6657C45.6041 93.6657 45.5041 93.8657 45.4041 93.9657C45.4041 94.1657 45.7041 94.3657 45.8041 94.1657C45.9041 93.9657 46.0041 93.8657 46.0041 93.7657ZM23.7041 15.4657C23.6041 15.5657 23.4041 15.7657 23.4041 15.7657C23.5041 15.8657 23.6041 16.0657 23.8041 16.1657C23.9041 16.0657 24.1041 15.9657 24.0041 15.8657C24.0041 15.7657 23.8041 15.6657 23.7041 15.4657ZM61.5041 25.9657C61.5041 25.7657 61.4041 25.7657 61.3041 25.8657C61.3041 25.8657 61.2041 25.9657 61.2041 26.0657C61.3041 26.1657 61.4041 26.2657 61.5041 26.2657C61.4041 26.1657 61.5041 26.0657 61.5041 25.9657ZM31.9041 66.5657C31.8041 66.4657 31.704 66.3657 31.604 66.2657C31.504 66.2657 31.4041 66.3657 31.2041 66.3657C31.3041 66.4657 31.4041 66.5657 31.5041 66.5657C31.6041 66.6657 31.8041 66.5657 31.9041 66.5657ZM77.8041 36.4657C78.0041 36.5657 78.1041 36.6657 78.2041 36.6657C78.3041 36.5657 78.4041 36.4657 78.4041 36.3657C78.4041 36.2657 78.3041 36.2657 78.2041 36.1657C78.1041 36.2657 77.9041 36.3657 77.8041 36.4657ZM54.2041 75.5657C54.1041 75.7657 54.1041 75.9657 54.0041 76.0657L54.104 76.1657C54.204 76.0657 54.3041 75.8657 54.5041 75.7657C54.5041 75.7657 54.4041 75.6657 54.2041 75.5657ZM27.5041 12.3657L27.4041 12.2657C27.3041 12.3657 27.204 12.3657 27.104 12.4657L27.2041 12.5657C27.3041 12.4657 27.4041 12.3657 27.5041 12.3657ZM17.2041 35.0657C17.1041 35.1657 17.1041 35.2657 17.0041 35.3657L17.104 35.4657C17.204 35.3657 17.2041 35.2657 17.3041 35.1657C17.3041 35.1657 17.3041 35.1657 17.2041 35.0657ZM74.104 28.2657C74.104 28.1657 74.104 28.1657 74.104 28.0657C74.104 27.9657 74.0041 27.9657 74.0041 27.8657C74.0041 27.9657 73.9041 28.0657 73.9041 28.1657C74.0041 28.2657 74.104 28.2657 74.104 28.2657ZM20.9041 55.7657C20.9041 55.6657 20.9041 55.6657 20.9041 55.5657C20.8041 55.5657 20.704 55.5657 20.604 55.5657C20.604 55.5657 20.604 55.6657 20.604 55.7657C20.704 55.7657 20.8041 55.7657 20.9041 55.7657ZM63.604 73.1657C63.704 73.2657 63.8041 73.2657 63.9041 73.3657L64.0041 73.2657C63.9041 73.1657 63.8041 73.0657 63.7041 73.0657C63.6041 73.0657 63.604 73.1657 63.604 73.1657ZM67.3041 72.6657C67.3041 72.5657 67.2041 72.5657 67.2041 72.4657C67.2041 72.5657 67.104 72.6657 67.104 72.6657C67.204 72.6657 67.2041 72.7657 67.3041 72.7657C67.2041 72.7657 67.2041 72.6657 67.3041 72.6657ZM55.4041 75.7657C55.3041 75.7657 55.3041 75.8657 55.3041 75.8657C55.3041 75.9657 55.4041 76.0657 55.5041 76.1657C55.6041 76.1657 55.7041 76.0657 55.7041 76.0657C55.6041 75.9657 55.5041 75.8657 55.4041 75.7657ZM69.5041 94.1657L69.4041 94.0657C69.4041 94.1657 69.3041 94.1657 69.3041 94.2657C69.3041 94.3657 69.4041 94.3657 69.4041 94.3657C69.5041 94.2657 69.5041 94.2657 69.5041 94.1657ZM21.2041 16.8657L21.104 16.9657H21.2041V16.8657ZM24.0041 21.6657L24.104 21.7657V21.6657H24.0041ZM18.0041 28.4657C17.9041 28.4657 17.9041 28.4657 17.8041 28.4657C17.8041 28.5657 17.9041 28.5657 17.9041 28.6657C18.0041 28.5657 18.0041 28.4657 18.0041 28.4657ZM1.30406 45.0657L1.20405 44.9657C1.20405 45.0657 1.10405 45.0657 1.10405 45.1657L1.20405 45.2657C1.30405 45.1657 1.30406 45.1657 1.30406 45.0657ZM77.604 40.7657V40.6657C77.5041 40.6657 77.5041 40.7657 77.4041 40.7657C77.5041 40.6657 77.604 40.6657 77.604 40.7657ZM37.4041 64.0657L37.5041 63.9657C37.5041 63.8657 37.5041 63.8657 37.4041 63.7657C37.3041 63.8657 37.3041 63.8657 37.2041 63.8657C37.3041 63.9657 37.4041 63.9657 37.4041 64.0657ZM45.5041 66.4657L45.4041 66.3657C45.4041 66.4657 45.4041 66.5657 45.4041 66.6657C45.4041 66.5657 45.4041 66.4657 45.5041 66.4657ZM29.0041 75.3657H28.9041L29.0041 75.5657V75.3657ZM26.8041 76.2657C26.8041 76.2657 26.7041 76.2657 26.7041 76.3657C26.7041 76.3657 26.7041 76.4657 26.8041 76.4657C26.8041 76.4657 26.9041 76.4657 26.9041 76.3657C26.8041 76.3657 26.8041 76.3657 26.8041 76.2657ZM30.4041 75.7657C30.3041 75.7657 30.204 75.7657 30.104 75.7657L30.2041 75.8657C30.3041 75.8657 30.3041 75.7657 30.4041 75.7657ZM50.4041 75.2657C50.3041 75.2657 50.204 75.2657 50.104 75.2657C50.204 75.2657 50.2041 75.3657 50.3041 75.3657C50.3041 75.3657 50.4041 75.3657 50.4041 75.2657ZM52.3041 87.5657V87.6657L52.4041 87.5657H52.3041ZM44.3041 94.3657V94.2657L44.104 94.3657H44.3041ZM29.7041 74.4657L29.604 74.5657H29.7041V74.4657Z" fill="#BEE173"/>
<path fill-rule="evenodd" clip-rule="evenodd" d="M77.804 27.8657V27.6657L77.704 27.8657H77.804Z" fill="#BEE173"/>
<path fill-rule="evenodd" clip-rule="evenodd" d="M42.104 101.466V101.566C42.104 101.566 42.104 101.566 42.104 101.466Z" fill="#BEE173"/>
<path fill-rule="evenodd" clip-rule="evenodd" d="M63.104 44.7657C63.604 46.1657 63.5041 47.5657 63.0041 48.9657C62.9041 49.1657 62.9041 49.3657 62.9041 49.5657C62.9041 50.6657 62.2041 51.2657 61.3041 51.6657C60.6041 51.9657 60.0041 51.8657 59.4041 51.1657C59.1041 50.8657 58.8041 50.5657 58.7041 50.1657C58.5041 49.6657 58.4041 49.2657 57.9041 49.0657C57.5041 48.8657 57.3041 48.4657 57.2041 48.0657C57.1041 47.5657 57.0041 47.0657 57.0041 46.5657C56.9041 45.8657 57.6041 45.4657 57.8041 44.8657C57.8041 44.8657 58.1041 44.8657 58.2041 44.9657C58.8041 45.3657 59.2041 45.7657 59.3041 46.4657C59.3041 46.8657 59.4041 47.1657 59.5041 47.4657C59.5041 47.5657 59.7041 47.6657 59.8041 47.7657C59.9041 47.7657 60.104 47.6657 60.104 47.5657C60.204 47.3657 60.2041 47.0657 60.3041 46.9657C61.4041 46.7657 61.2041 45.8657 61.4041 45.1657C61.4041 44.9657 61.1041 44.5657 60.9041 44.5657C60.8041 44.5657 60.6041 44.5657 60.5041 44.5657C60.0041 44.5657 59.3041 45.0657 59.0041 44.2657C58.9041 43.9657 59.9041 42.8657 60.4041 42.7657C60.5041 42.7657 60.7041 42.7657 60.8041 42.7657C61.1041 42.8657 61.3041 43.0657 61.604 43.1657C62.0041 43.2657 62.6041 42.7657 63.0041 43.3657C63.0041 43.7657 63.0041 44.3657 63.104 44.7657Z" fill="#BEE173"/>
<path fill-rule="evenodd" clip-rule="evenodd" d="M43.204 43.0657C42.404 43.5657 41.4041 43.8657 40.5041 44.1657C39.8041 44.3657 39.004 44.6657 38.304 44.8657C38.004 44.9657 37.604 44.9657 37.404 44.5657C37.104 44.0657 37.104 43.6657 37.404 43.3657C37.904 42.8657 38.404 42.3657 39.104 42.1657C39.504 42.0657 40.004 41.9657 40.304 41.6657C40.904 41.0657 41.504 41.3657 42.104 41.4657C42.304 41.9657 42.604 42.2657 43.204 41.9657C43.404 41.8657 43.7041 41.9657 44.0041 41.9657C43.7041 42.3657 43.404 42.6657 43.204 43.0657Z" fill="#BEE173"/>
<path fill-rule="evenodd" clip-rule="evenodd" d="M67.0041 53.2657C67.0041 53.1657 66.8041 53.0657 66.9041 52.8657C66.9041 52.3657 67.0041 51.8657 67.5041 51.5657C67.7041 51.3657 67.9041 51.1657 68.104 51.0657C68.104 51.0657 68.4041 51.1657 68.4041 51.2657C68.6041 51.5657 68.6041 51.9657 68.3041 52.2657C68.0041 52.6657 67.6041 52.9657 67.2041 53.2657C67.1041 53.1657 67.1041 53.1657 67.0041 53.2657Z" fill="#BEE173"/>
<path fill-rule="evenodd" clip-rule="evenodd" d="M69.604 31.7657C69.704 32.4657 69.604 33.1657 69.204 33.7657C69.204 33.8657 69.1041 33.8657 69.0041 33.8657L68.9041 33.7657C68.9041 33.0657 69.0041 32.3657 69.0041 31.6657C69.0041 31.5657 69.204 31.4657 69.304 31.4657C69.404 31.4657 69.504 31.6657 69.604 31.7657Z" fill="#BEE173"/>
<path fill-rule="evenodd" clip-rule="evenodd" d="M68.9041 49.5657C68.8041 49.5657 68.5041 49.4657 68.5041 49.4657C68.6041 48.7657 68.704 48.0657 69.304 47.5657C69.304 47.5657 69.4041 47.5657 69.5041 47.5657C69.6041 47.5657 69.604 47.6657 69.604 47.6657C69.604 48.2657 69.504 48.9657 69.104 49.4657C69.104 49.5657 69.0041 49.5657 68.9041 49.5657Z" fill="#BEE173"/>
<path fill-rule="evenodd" clip-rule="evenodd" d="M68.104 44.3657C68.004 44.2657 68.0041 44.1657 67.9041 43.9657C67.8041 43.4657 68.4041 43.3657 68.5041 42.9657C68.5041 42.8657 68.704 42.8657 68.704 42.7657C68.704 42.8657 68.904 43.0657 68.804 43.1657C68.604 43.5657 68.404 43.9657 68.104 44.3657C68.204 44.3657 68.204 44.3657 68.104 44.3657Z" fill="#BEE173"/>
<path fill-rule="evenodd" clip-rule="evenodd" d="M69.804 30.3657C69.704 30.3657 69.604 30.3657 69.604 30.3657C69.404 30.1657 69.604 29.3657 69.804 29.2657H69.904C70.204 29.3657 70.104 30.1657 69.804 30.3657Z" fill="#BEE173"/>
<path fill-rule="evenodd" clip-rule="evenodd" d="M68.804 36.3657C68.704 36.0657 68.704 35.6657 68.604 35.3657C68.604 35.2657 68.704 35.2657 68.804 35.1657C68.904 35.2657 69.0041 35.3657 69.0041 35.4657C69.1041 35.7657 69.104 36.1657 68.804 36.3657Z" fill="#BEE173"/>
<path fill-rule="evenodd" clip-rule="evenodd" d="M70.4041 23.3657C70.5041 23.5657 70.704 23.6657 70.804 23.8657C70.804 23.8657 70.704 24.0657 70.604 24.1657C70.504 24.1657 70.5041 24.0657 70.5041 24.0657C70.5041 23.7657 70.5041 23.5657 70.4041 23.3657Z" fill="#BEE173"/>
<path fill-rule="evenodd" clip-rule="evenodd" d="M70.704 37.5657C70.604 37.6657 70.6041 37.7657 70.5041 37.9657C70.4041 37.8657 70.204 37.7657 70.204 37.6657C70.204 37.5657 70.3041 37.4657 70.4041 37.3657C70.5041 37.4657 70.604 37.5657 70.704 37.5657Z" fill="#BEE173"/>
<path fill-rule="evenodd" clip-rule="evenodd" d="M69.704 39.9657C69.704 40.0657 69.604 40.1657 69.604 40.2657L69.5041 40.1657C69.5041 40.0657 69.604 39.9657 69.604 39.8657C69.604 39.8657 69.704 39.8657 69.704 39.9657Z" fill="#BEE173"/>
<path fill-rule="evenodd" clip-rule="evenodd" d="M70.0041 46.0657C69.9041 46.1657 69.904 46.2657 69.804 46.4657C69.704 46.3657 69.6041 46.2657 69.5041 46.1657C69.5041 46.0657 69.604 45.9657 69.704 45.7657C69.804 45.8657 69.9041 45.9657 70.0041 46.0657Z" fill="#BEE173"/>
<path fill-rule="evenodd" clip-rule="evenodd" d="M42.104 41.5657C42.104 41.4657 42.104 41.2657 42.204 41.1657C42.304 41.1657 42.4041 41.1657 42.5041 41.2657C42.5041 41.3657 42.5041 41.3657 42.4041 41.4657C42.3041 41.4657 42.104 41.4657 42.104 41.5657Z" fill="#BEE173"/>
<path fill-rule="evenodd" clip-rule="evenodd" d="M43.204 43.0657C43.304 43.1657 43.4041 43.1657 43.5041 43.2657C43.5041 43.2657 43.604 43.3657 43.604 43.4657C43.504 43.6657 43.404 43.6657 43.304 43.4657C43.304 43.2657 43.204 43.1657 43.204 43.0657Z" fill="#BEE173"/>
<path fill-rule="evenodd" clip-rule="evenodd" d="M70.5041 23.3657H70.304H70.4041H70.5041Z" fill="#BEE173"/>
<path fill-rule="evenodd" clip-rule="evenodd" d="M68.704 36.3657V36.4657L68.804 36.3657H68.704Z" fill="#BEE173"/>
<path fill-rule="evenodd" clip-rule="evenodd" d="M62.9041 64.9657H62.704L62.804 65.0657L62.9041 64.9657Z" fill="#BEE173"/>
<path fill-rule="evenodd" clip-rule="evenodd" d="M43.5041 22.8657C43.8041 22.5657 44.1041 22.2657 44.4041 22.0657L44.7041 22.1657C44.9041 22.5657 44.8041 22.8657 44.604 23.1657C44.104 23.8657 43.3041 24.3657 43.3041 25.2657C43.3041 25.3657 43.2041 25.4657 43.2041 25.4657C41.8041 25.8657 41.9041 27.1657 41.5041 28.1657C41.5041 28.2657 41.3041 28.3657 41.2041 28.3657C41.1041 28.3657 40.9041 28.2657 40.9041 28.1657C40.8041 27.4657 40.5041 26.8657 40.604 26.0657C40.8041 24.9657 40.8041 23.9657 41.0041 22.8657C41.1041 22.1657 41.3041 21.4657 41.7041 20.8657C42.1041 20.3657 42.2041 19.8657 42.2041 19.2657C42.2041 18.3657 42.5041 17.5657 42.9041 16.8657C43.0041 16.6657 43.3041 16.4657 43.5041 16.2657C43.6041 16.1657 43.8041 16.2657 43.9041 16.2657C44.0041 16.3657 44.1041 16.5657 44.0041 16.5657C43.8041 16.9657 43.5041 17.2657 43.4041 17.6657C43.3041 17.7657 43.5041 18.0657 43.5041 18.2657C43.6041 18.1657 43.7041 18.1657 43.8041 18.0657C43.9041 18.0657 43.8041 17.8657 43.9041 17.8657C44.0041 17.7657 44.2041 17.6657 44.2041 17.6657C44.3041 17.7657 44.5041 18.0657 44.5041 18.1657C44.2041 19.3657 43.8041 20.4657 43.604 21.6657C43.5041 22.1657 43.6041 22.4657 43.5041 22.8657Z" fill="#BEE173"/>
<path fill-rule="evenodd" clip-rule="evenodd" d="M48.604 21.5657C48.304 20.9657 48.904 20.3657 48.804 19.7657C48.704 19.1657 49.5041 18.9657 50.0041 18.7657C50.104 18.7657 50.304 18.8657 50.304 18.9657C50.404 19.2657 50.404 19.5657 50.404 19.7657C50.304 20.2657 50.004 20.8657 49.904 21.3657C49.804 21.7657 49.704 22.1657 49.704 22.5657C49.604 23.3657 49.604 23.2657 48.5041 23.3657C48.0041 23.3657 48.204 23.8657 48.304 24.1657C47.204 23.1657 47.104 22.5657 48.0041 21.5657C48.104 21.4657 48.404 21.5657 48.604 21.5657C48.604 21.5657 48.604 21.6657 48.704 21.6657C48.604 21.5657 48.604 21.5657 48.604 21.5657Z" fill="#BEE173"/>
<path fill-rule="evenodd" clip-rule="evenodd" d="M52.0041 23.5657C52.0041 24.3657 51.804 25.0657 51.304 25.7657C50.904 26.3657 50.5041 26.8657 50.4041 27.6657C50.3041 28.1657 49.8041 28.1657 49.4041 28.1657C49.3041 28.0657 49.304 28.0657 49.204 27.9657C49.204 27.6657 49.204 27.2657 49.604 27.1657C49.604 27.0657 49.604 26.8657 49.704 26.7657C50.204 25.9657 50.6041 25.2657 50.9041 24.3657C51.0041 23.5657 51.5041 23.4657 52.0041 23.5657Z" fill="#BEE173"/>
<path fill-rule="evenodd" clip-rule="evenodd" d="M57.604 15.1657C57.704 15.5657 57.8041 15.9657 57.9041 16.3657C58.0041 16.7657 57.904 17.0657 57.704 17.3657C57.304 17.6657 57.304 18.2657 56.704 18.4657C56.604 18.4657 56.404 18.5657 56.304 18.4657C56.204 18.3657 56.104 18.0657 56.104 17.9657C56.204 17.6657 56.3041 17.4657 56.5041 17.2657C57.0041 16.6657 57.304 15.9657 57.604 15.1657Z" fill="#BEE173"/>
<path fill-rule="evenodd" clip-rule="evenodd" d="M48.204 24.1657C48.404 24.2657 48.7041 24.3657 48.9041 24.5657C49.0041 24.6657 49.204 24.8657 49.204 25.0657C49.104 25.5657 49.004 25.9657 48.804 26.4657C48.804 26.5657 48.404 26.5657 48.304 26.4657C48.204 26.3657 48.104 26.0657 48.104 25.9657C48.104 25.2657 48.204 24.6657 48.204 24.1657Z" fill="#BEE173"/>
<path fill-rule="evenodd" clip-rule="evenodd" d="M55.604 21.1657C55.604 21.6657 55.604 22.1657 55.604 22.5657C55.604 22.6657 55.304 22.8657 55.204 22.8657C55.004 22.8657 54.804 22.6657 54.804 22.4657C54.704 21.9657 54.804 21.3657 55.604 21.1657Z" fill="#BEE173"/>
<path fill-rule="evenodd" clip-rule="evenodd" d="M55.604 21.2657C54.904 20.6657 54.904 19.9657 55.104 19.1657C55.104 19.0657 55.3041 18.9657 55.4041 18.8657C55.4041 18.8657 55.5041 18.9657 55.604 18.9657C55.8041 19.4657 56.0041 19.8657 56.104 20.3657C56.204 20.7657 55.904 20.9657 55.604 21.2657Z" fill="#BEE173"/>
<path fill-rule="evenodd" clip-rule="evenodd" d="M50.804 17.1657C50.704 17.0657 50.604 16.9657 50.604 16.9657C50.604 16.6657 50.704 16.2657 50.804 15.9657C50.804 15.8657 51.104 15.7657 51.304 15.7657C51.304 15.7657 51.5041 15.9657 51.5041 16.0657C51.5041 16.3657 51.404 16.7657 51.304 17.0657C51.104 17.1657 50.904 17.1657 50.804 17.1657Z" fill="#BEE173"/>
<path fill-rule="evenodd" clip-rule="evenodd" d="M44.204 13.9657C44.404 14.3657 44.504 14.7657 44.304 15.1657C44.204 15.2657 43.904 15.4657 43.804 15.3657C43.704 15.3657 43.504 15.0657 43.604 14.8657C43.604 14.5657 43.704 14.0657 44.204 13.9657Z" fill="#BEE173"/>
<path fill-rule="evenodd" clip-rule="evenodd" d="M54.804 29.9657C55.004 29.4657 55.2041 28.9657 55.4041 28.4657C55.4041 28.3657 55.704 28.3657 55.704 28.3657C55.804 28.4657 55.904 28.5657 55.804 28.6657C55.704 29.2657 55.4041 29.6657 54.9041 30.0657C54.9041 30.0657 54.904 30.0657 54.804 29.9657Z" fill="#BEE173"/>
<path fill-rule="evenodd" clip-rule="evenodd" d="M52.204 11.0657C52.404 11.2657 52.604 11.3657 52.704 11.4657C52.604 11.5657 52.504 11.7657 52.304 11.8657C52.204 11.8657 52.0041 11.7657 52.0041 11.7657C52.0041 11.4657 52.104 11.2657 52.204 11.0657Z" fill="#BEE173"/>
<path fill-rule="evenodd" clip-rule="evenodd" d="M46.104 19.7657C46.104 19.8657 46.104 20.0657 46.104 20.1657C46.104 20.2657 45.904 20.2657 45.804 20.2657C45.804 20.1657 45.804 19.9657 45.804 19.9657C45.804 19.8657 46.004 19.8657 46.104 19.7657Z" fill="#BEE173"/>
<path fill-rule="evenodd" clip-rule="evenodd" d="M57.4041 13.7657C57.3041 13.6657 57.1041 13.6657 57.0041 13.5657C56.9041 13.4657 56.9041 13.3657 56.9041 13.2657C57.0041 13.2657 57.004 13.2657 57.104 13.2657C57.204 13.2657 57.204 13.3657 57.204 13.3657C57.304 13.5657 57.3041 13.6657 57.4041 13.7657Z" fill="#BEE173"/>
<path fill-rule="evenodd" clip-rule="evenodd" d="M57.304 13.8657C57.804 14.2657 57.7041 14.7657 57.5041 15.2657C57.5041 14.7657 57.404 14.2657 57.304 13.8657Z" fill="#BEE173"/>
<path fill-rule="evenodd" clip-rule="evenodd" d="M56.204 14.9657C56.104 15.0657 56.0041 15.2657 56.0041 15.3657C55.9041 15.2657 55.804 15.1657 55.804 15.0657C55.804 14.9657 55.9041 14.8657 55.9041 14.7657C56.0041 14.8657 56.104 14.8657 56.204 14.9657Z" fill="#BEE173"/>
<path fill-rule="evenodd" clip-rule="evenodd" d="M46.104 19.7657C46.104 19.5657 46.104 19.3657 46.104 19.1657L46.204 19.0657C46.304 19.1657 46.4041 19.2657 46.4041 19.3657C46.4041 19.4657 46.204 19.6657 46.104 19.7657Z" fill="#BEE173"/>
<path fill-rule="evenodd" clip-rule="evenodd" d="M53.704 19.8657C53.604 19.9657 53.5041 19.9657 53.4041 20.0657L53.304 19.9657C53.404 19.8657 53.504 19.8657 53.604 19.7657C53.704 19.7657 53.704 19.7657 53.704 19.8657Z" fill="#BEE173"/>
<path fill-rule="evenodd" clip-rule="evenodd" d="M46.104 21.4657C46.204 21.5657 46.3041 21.5657 46.4041 21.6657C46.3041 21.7657 46.3041 21.8657 46.2041 21.8657C46.2041 21.8657 46.004 21.7657 46.104 21.7657C46.004 21.6657 46.104 21.5657 46.104 21.4657Z" fill="#BEE173"/>
<path fill-rule="evenodd" clip-rule="evenodd" d="M46.4041 22.7657H46.5041C46.5041 22.8657 46.604 22.9657 46.604 23.0657C46.604 23.2657 46.4041 23.2657 46.4041 23.0657C46.3041 23.0657 46.4041 22.8657 46.4041 22.7657Z" fill="#BEE173"/>
<path fill-rule="evenodd" clip-rule="evenodd" d="M46.604 24.4657C46.704 24.4657 46.8041 24.5657 46.9041 24.5657C46.9041 24.6657 46.804 24.7657 46.804 24.8657C46.704 24.8657 46.704 24.7657 46.704 24.7657C46.604 24.6657 46.604 24.5657 46.604 24.4657Z" fill="#BEE173"/>
<path fill-rule="evenodd" clip-rule="evenodd" d="M44.204 14.0657C44.204 13.9657 44.204 13.7657 44.204 13.6657C44.504 13.7657 44.204 13.8657 44.204 14.0657Z" fill="#BEE173"/>
<path fill-rule="evenodd" clip-rule="evenodd" d="M45.9041 14.2657L45.804 14.3657L45.704 14.2657C45.704 14.0657 45.8041 14.0657 45.9041 14.1657V14.2657Z" fill="#BEE173"/>
<path fill-rule="evenodd" clip-rule="evenodd" d="M52.804 21.8657L52.704 21.7657C52.804 21.6657 52.8041 21.6657 52.9041 21.5657C52.9041 21.6657 53.0041 21.6657 52.9041 21.7657C52.9041 21.7657 52.804 21.7657 52.804 21.8657Z" fill="#BEE173"/>
<path fill-rule="evenodd" clip-rule="evenodd" d="M52.104 23.5657C52.004 23.3657 52.0041 23.1657 51.9041 22.9657C51.9041 22.8657 52.004 22.8657 52.104 22.7657C52.204 22.8657 52.304 22.9657 52.304 23.0657C52.304 23.2657 52.204 23.4657 52.104 23.5657Z" fill="#BEE173"/>
<path fill-rule="evenodd" clip-rule="evenodd" d="M43.104 28.3657C43.104 28.4657 43.104 28.4657 43.104 28.5657C43.004 28.4657 43.0041 28.4657 42.9041 28.3657L43.0041 28.2657C43.1041 28.2657 43.104 28.2657 43.104 28.3657Z" fill="#BEE173"/>
<path fill-rule="evenodd" clip-rule="evenodd" d="M41.5041 31.1657C41.5041 31.0657 41.604 30.9657 41.604 30.8657V30.9657C41.604 31.0657 41.5041 31.0657 41.5041 31.1657Z" fill="#BEE173"/>
<path fill-rule="evenodd" clip-rule="evenodd" d="M54.704 30.9657C54.504 30.5657 54.504 30.2657 54.904 29.9657C55.004 29.9657 55.004 30.0657 55.104 30.0657C55.104 30.4657 55.004 30.7657 54.704 30.9657Z" fill="#BEE173"/>
<path fill-rule="evenodd" clip-rule="evenodd" d="M38.704 12.8657C38.704 12.9657 38.704 12.9657 38.704 13.0657C38.604 12.9657 38.5041 12.9657 38.5041 12.8657L38.604 12.7657C38.604 12.7657 38.604 12.8657 38.704 12.8657Z" fill="#BEE173"/>
<path fill-rule="evenodd" clip-rule="evenodd" d="M47.7041 6.76568C47.9041 6.76568 48.004 6.66568 48.204 6.66568C48.104 7.06568 47.9041 7.06568 47.7041 6.76568Z" fill="#BEE173"/>
<path fill-rule="evenodd" clip-rule="evenodd" d="M51.5041 14.1657V14.2657H51.4041L51.5041 14.1657Z" fill="#BEE173"/>
<path fill-rule="evenodd" clip-rule="evenodd" d="M37.4041 24.8657C37.4041 24.7657 37.5041 24.6657 37.5041 24.5657C37.8041 24.7657 37.5041 24.7657 37.4041 24.8657Z" fill="#BEE173"/>
<path fill-rule="evenodd" clip-rule="evenodd" d="M34.9041 71.1657C34.9041 71.2657 35.0041 71.2657 35.0041 71.3657C34.9041 71.3657 34.804 71.3657 34.704 71.3657C34.704 71.2657 34.704 71.2657 34.704 71.1657C34.804 71.1657 34.9041 71.1657 34.9041 71.1657Z" fill="#BEE173"/>
<path fill-rule="evenodd" clip-rule="evenodd" d="M33.5041 71.0657V71.1657H33.4041L33.5041 71.0657Z" fill="#BEE173"/>
<path fill-rule="evenodd" clip-rule="evenodd" d="M26.4041 43.6657C26.4041 43.7657 26.404 43.9657 26.304 44.0657C26.204 44.1657 26.0041 44.1657 25.9041 44.1657C25.7041 44.0657 25.6041 43.9657 25.4041 43.8657C25.2041 43.8657 25.0041 43.8657 24.9041 43.5657C24.9041 43.3657 25.2041 43.0657 25.5041 43.0657C26.0041 43.0657 26.3041 43.2657 26.4041 43.6657Z" fill="#BEE173"/>
<path fill-rule="evenodd" clip-rule="evenodd" d="M12.4041 44.5657C12.7041 44.5657 12.9041 44.7657 12.9041 45.0657C12.9041 45.3657 12.9041 45.6657 12.5041 45.6657C12.1041 45.7657 12.1041 45.4657 12.0041 45.1657C12.0041 44.8657 12.0041 44.5657 12.4041 44.5657Z" fill="#BEE173"/>
<path fill-rule="evenodd" clip-rule="evenodd" d="M12.3041 42.6657C12.5041 42.7657 12.6041 42.8657 12.7041 42.8657C12.6041 42.9657 12.5041 43.1657 12.4041 43.2657L12.3041 43.1657C12.2041 42.9657 12.3041 42.8657 12.3041 42.6657Z" fill="#BEE173"/>
<path fill-rule="evenodd" clip-rule="evenodd" d="M17.604 29.6657C17.804 29.6657 18.104 29.6657 18.204 29.7657C18.304 29.8657 18.304 30.1657 18.204 30.2657C18.204 30.3657 18.0041 30.4657 17.9041 30.4657C17.8041 30.4657 17.704 30.2657 17.704 30.1657C17.704 29.9657 17.704 29.7657 17.604 29.6657Z" fill="#BEE173"/>
<path fill-rule="evenodd" clip-rule="evenodd" d="M16.804 39.7657C16.804 39.8657 16.804 40.0657 16.704 40.1657C16.704 40.2657 16.5041 40.3657 16.5041 40.3657C16.5041 40.2657 16.5041 40.2657 16.5041 40.1657C16.5041 40.0657 16.504 40.0657 16.604 39.9657C16.604 39.9657 16.704 39.9657 16.804 39.7657Z" fill="#BEE173"/>
<path fill-rule="evenodd" clip-rule="evenodd" d="M43.604 54.4657C43.604 54.8657 43.6041 55.1657 43.5041 55.5657C43.4041 56.2657 43.2041 56.9657 43.0041 57.6657C43.0041 57.7657 42.7041 57.9657 42.5041 57.9657C42.2041 57.9657 42.0041 57.6657 42.0041 57.3657C42.2041 56.3657 42.404 55.4657 42.604 54.4657C42.604 54.3657 42.904 54.1657 43.104 54.1657C43.304 54.1657 43.404 54.3657 43.604 54.4657Z" fill="#BEE173"/>
<path fill-rule="evenodd" clip-rule="evenodd" d="M41.304 59.8657C41.304 59.2657 41.804 58.8657 42.304 59.0657C42.404 59.0657 42.4041 59.1657 42.5041 59.1657C42.7041 59.3657 42.6041 59.7657 42.4041 60.0657C42.2041 60.2657 41.904 60.4657 41.704 60.2657C41.404 60.2657 41.404 60.0657 41.304 59.8657Z" fill="#BEE173"/>
<path fill-rule="evenodd" clip-rule="evenodd" d="M46.2041 54.4657C46.7041 54.9657 46.404 55.4657 46.104 55.9657C46.104 56.0657 45.8041 55.9657 45.8041 55.9657C45.7041 55.3657 45.304 54.7657 46.104 54.3657C46.104 54.3657 46.1041 54.4657 46.2041 54.4657Z" fill="#BEE173"/>
<path fill-rule="evenodd" clip-rule="evenodd" d="M46.0041 54.3657C46.1041 54.0657 46.204 53.7657 46.304 53.5657C46.404 53.4657 46.604 53.3657 46.804 53.3657C46.804 53.5657 47.0041 53.7657 46.9041 53.9657C46.9041 54.3657 46.504 54.4657 46.104 54.5657C46.104 54.4657 46.1041 54.3657 46.0041 54.3657Z" fill="#BEE173"/>
<path fill-rule="evenodd" clip-rule="evenodd" d="M41.5041 56.2657C41.4041 56.3657 41.204 56.4657 41.104 56.6657C41.004 56.5657 40.9041 56.4657 40.9041 56.3657C41.0041 56.1657 41.104 56.0657 41.204 55.8657C41.304 56.0657 41.4041 56.1657 41.5041 56.2657Z" fill="#BEE173"/>
<path fill-rule="evenodd" clip-rule="evenodd" d="M47.5041 55.0657C47.4041 55.0657 47.404 54.9657 47.304 54.9657C47.304 54.9657 47.4041 55.0657 47.5041 55.0657Z" fill="#BEE173"/>
<path fill-rule="evenodd" clip-rule="evenodd" d="M47.604 52.5657L47.704 52.4657V52.5657H47.604Z" fill="#BEE173"/>
<path fill-rule="evenodd" clip-rule="evenodd" d="M47.9041 97.3657C48.0041 97.7657 48.204 98.1657 48.204 98.5657C48.204 98.6657 48.0041 98.8657 47.9041 98.9657C47.9041 98.9657 47.604 98.8657 47.604 98.7657C47.304 98.2657 47.1041 97.7657 46.9041 97.2657C46.9041 97.1657 46.9041 96.9657 47.0041 96.8657C47.1041 96.7657 47.3041 96.8657 47.4041 96.8657C47.6041 97.1657 47.8041 97.2657 47.9041 97.3657Z" fill="#BEE173"/>
<path fill-rule="evenodd" clip-rule="evenodd" d="M45.804 97.3657C46.104 97.5657 46.504 97.7657 46.804 98.0657C46.904 98.1657 46.904 98.4657 46.804 98.6657C46.804 98.7657 46.6041 98.8657 46.5041 98.8657C46.3041 98.8657 46.0041 98.7657 46.0041 98.5657C45.9041 98.0657 45.804 97.6657 45.804 97.3657Z" fill="#BEE173"/>
<path fill-rule="evenodd" clip-rule="evenodd" d="M58.304 95.2657C58.304 95.1657 58.304 95.0657 58.304 95.0657C58.404 95.0657 58.604 95.0657 58.604 95.0657C58.704 95.1657 58.704 95.2657 58.704 95.4657C58.704 95.5657 58.5041 95.6657 58.4041 95.5657C58.4041 95.4657 58.304 95.3657 58.304 95.2657Z" fill="#BEE173"/>
<path fill-rule="evenodd" clip-rule="evenodd" d="M48.4041 94.6657C48.7041 94.7657 49.0041 94.8657 49.4041 94.9657C49.3041 95.3657 49.0041 95.5657 48.7041 95.5657C48.5041 95.5657 48.3041 95.4657 48.2041 95.3657C48.1041 95.2657 48.3041 94.9657 48.3041 94.8657C48.2041 94.7657 48.3041 94.7657 48.4041 94.6657Z" fill="#BEE173"/>
<path fill-rule="evenodd" clip-rule="evenodd" d="M56.304 95.0657C56.404 95.1657 56.604 95.3657 56.704 95.4657C56.704 95.5657 56.704 95.6657 56.604 95.7657C56.504 95.6657 56.304 95.6657 56.304 95.5657C56.304 95.4657 56.304 95.2657 56.304 95.0657Z" fill="#BEE173"/>
<path fill-rule="evenodd" clip-rule="evenodd" d="M48.0041 97.4657V97.3657L47.9041 97.3657L48.0041 97.4657Z" fill="#BEE173"/>
<path fill-rule="evenodd" clip-rule="evenodd" d="M29.0041 17.8657C29.6041 17.9657 30.104 17.7657 30.204 17.0657C30.204 16.7657 30.304 16.5657 30.404 16.2657C30.604 15.6657 31.004 15.7657 31.404 15.8657C31.804 16.9657 31.404 17.7657 30.404 18.3657C30.004 18.5657 29.804 18.8657 29.904 19.3657C30.104 20.4657 29.404 21.0657 28.704 21.6657C28.404 21.8657 28.104 22.0657 27.704 21.9657C27.404 21.8657 27.004 21.9657 26.704 21.8657C26.604 20.5657 26.804 19.3657 27.804 18.4657C28.304 18.0657 28.504 17.4657 28.604 16.7657C28.704 16.1657 28.9041 15.5657 29.0041 14.9657C29.2041 15.1657 29.5041 15.2657 29.5041 15.4657C29.7041 16.3657 29.5041 17.1657 29.0041 17.8657C29.0041 18.2657 29.004 18.6657 28.904 18.9657C28.704 19.0657 28.404 19.1657 28.204 19.3657C28.104 19.3657 28.204 19.5657 28.204 19.7657C28.304 19.7657 28.5041 19.7657 28.5041 19.7657C28.6041 19.5657 28.704 19.2657 28.904 19.0657C28.904 18.5657 29.0041 18.2657 29.0041 17.8657Z" fill="#BEE173"/>
<path fill-rule="evenodd" clip-rule="evenodd" d="M31.404 15.8657C31.204 15.1657 31.4041 14.5657 31.9041 13.9657C32.0041 14.1657 32.004 14.3657 32.104 14.5657C32.204 15.4657 32.204 15.4657 31.404 15.8657Z" fill="#BEE173"/>
<path fill-rule="evenodd" clip-rule="evenodd" d="M24.704 57.2657C25.304 55.9657 25.8041 54.6657 26.4041 53.3657C26.5041 53.1657 26.7041 53.0657 26.9041 53.0657C27.1041 53.0657 27.204 53.3657 27.104 53.7657C26.904 54.4657 26.6041 55.1657 26.5041 55.8657C26.4041 56.4657 25.704 56.8657 25.704 57.5657C25.704 57.8657 25.404 57.9657 25.104 57.6657C25.004 57.4657 24.804 57.3657 24.704 57.2657Z" fill="#BEE173"/>
<path fill-rule="evenodd" clip-rule="evenodd" d="M23.604 56.1657C23.604 55.8657 23.5041 55.5657 23.5041 55.2657C23.5041 55.0657 23.404 54.9657 23.404 54.7657C23.404 54.4657 23.104 53.9657 23.304 53.7657C23.704 53.1657 23.604 52.3657 24.204 51.9657C24.504 52.4657 24.6041 52.9657 24.5041 53.5657C24.4041 54.5657 24.404 55.5657 23.604 56.1657Z" fill="#BEE173"/>
<path fill-rule="evenodd" clip-rule="evenodd" d="M26.4041 59.1657C26.4041 59.2657 26.304 59.3657 26.304 59.4657C26.204 59.3657 26.104 59.3657 26.104 59.2657C26.104 59.2657 26.104 59.1657 26.104 59.0657C26.204 59.0657 26.3041 59.1657 26.4041 59.1657Z" fill="#BEE173"/>
<path fill-rule="evenodd" clip-rule="evenodd" d="M24.604 57.2657C24.604 57.5657 24.504 57.7657 24.204 57.7657C24.404 57.5657 24.604 57.4657 24.604 57.2657Z" fill="#BEE173"/>
<path fill-rule="evenodd" clip-rule="evenodd" d="M32.4041 52.9657L32.5041 53.0657H32.4041V52.9657Z" fill="#BEE173"/>
<path fill-rule="evenodd" clip-rule="evenodd" d="M33.704 38.9657C33.604 39.1657 33.6041 39.4657 33.4041 39.6657C33.1041 39.9657 32.8041 39.8657 32.4041 39.6657C32.3041 39.6657 32.304 39.5657 32.304 39.4657C32.304 39.1657 33.004 38.5657 33.304 38.5657C33.404 38.5657 33.504 38.7657 33.704 38.9657Z" fill="#BEE173"/>
<path fill-rule="evenodd" clip-rule="evenodd" d="M30.204 40.9657C30.004 40.9657 29.904 41.0657 29.704 41.0657C29.904 41.0657 30.004 41.0657 30.204 40.9657Z" fill="#BEE173"/>
<path fill-rule="evenodd" clip-rule="evenodd" d="M23.104 50.5657C23.104 50.8657 23.004 51.0657 22.704 51.1657C22.804 50.8657 22.904 50.6657 23.104 50.5657Z" fill="#BEE173"/>
<path fill-rule="evenodd" clip-rule="evenodd" d="M23.5041 55.2657C23.3041 55.2657 23.2041 55.3657 23.0041 55.3657C23.1041 55.1657 23.3041 54.9657 23.4041 54.8657C23.4041 54.9657 23.4041 55.1657 23.5041 55.2657Z" fill="#BEE173"/>
<path fill-rule="evenodd" clip-rule="evenodd" d="M46.5041 76.6657L46.5041 76.5657L46.4041 76.6657H46.5041Z" fill="#BEE173"/>
</svg>
