<svg width="76" height="78" viewBox="0 0 76 78" fill="none" xmlns="http://www.w3.org/2000/svg">
<path fill-rule="evenodd" clip-rule="evenodd" d="M9.60794 76.6938C8.84952 76.8234 8.03292 76.845 7.68179 77.731C7.63297 77.8967 7.14675 78.0191 7.08857 77.911C6.41843 77.4355 5.43664 77.4066 5.234 76.2613C5.17581 76.1532 5.05944 75.9371 5.00126 75.829C4.4475 75.5697 3.84492 75.476 3.661 74.8781C2.89524 73.1996 1.27341 71.982 0.828681 70.1307C0.586585 69.4247 0.635401 69.2591 1.21927 68.8053C1.69612 68.4091 2.23117 68.121 2.6592 67.8906C3.19424 67.6025 3.02905 67.552 2.67058 66.6299C2.49603 66.3058 2.59368 65.9744 2.58432 65.7007C2.63314 65.535 2.8378 65.146 3.00299 65.1965C3.3822 65.1317 3.77076 65.3406 4.08243 64.894C4.44292 64.2817 5.02679 63.828 4.72651 63.0139C4.47504 62.0342 4.67034 61.3715 5.41004 60.6945C6.04273 60.075 6.23802 59.4123 6.26812 58.6992C6.40523 57.9284 6.48416 57.0496 6.56309 56.1707C6.7002 55.4 7.01187 54.9534 7.7121 54.7157C7.81911 54.6581 7.81911 54.6581 7.92611 54.6005C8.40297 54.2043 9.39412 54.507 9.69643 53.7866C9.94055 52.9582 10.0195 52.0794 10.1566 51.3086C9.57474 50.2281 10.0235 49.0107 9.65569 47.8149C9.41359 47.1089 9.4437 46.3958 9.0364 45.6394C8.6873 44.991 8.65922 44.1698 8.63113 43.3486C8.66124 42.6355 8.58433 41.98 8.40041 41.3821C8.10013 40.568 8.07205 39.7468 8.48136 38.9689C8.84185 38.3566 8.76494 37.7011 8.85323 37.096C8.90407 35.396 8.89673 33.5879 9.82236 31.9744C9.97819 31.7511 9.91065 31.3693 9.95011 30.9299C10.108 29.1722 10.7614 27.5659 11.687 25.9524C13.6058 23.1071 15.9808 20.8526 18.4045 18.4324C18.6673 18.1515 19.0954 17.921 19.4746 17.8562C20.9332 17.489 22.3919 17.1217 23.9087 16.8625C25.2604 16.5529 26.5632 16.4089 27.8847 16.8124C28.0499 16.8628 28.3803 16.9637 28.6525 16.9565C30.7231 16.9567 32.5496 17.7853 34.4831 18.5562C34.8717 18.7651 35.2021 18.866 35.6976 19.0173C38.4571 20.0404 41.0701 21.5606 43.3714 23.5273C45.1096 24.961 47.227 26.3298 48.6047 28.3757C49.4099 29.6148 50.6432 30.6234 51.7694 31.6896C52.3907 32.3308 52.8468 32.9215 53.1471 33.7355C53.9035 35.1403 54.6599 36.545 55.5233 37.8922C56.3286 39.1312 56.6476 40.4927 57.0248 41.9623C57.3625 43.8712 57.7002 45.7802 57.9309 47.7468C57.9985 48.1286 57.959 48.568 57.9195 49.0074C57.8894 49.7205 57.6453 50.5489 57.9944 51.1973C57.7296 53.0125 57.6299 54.8782 56.3739 56.3909C55.5854 57.2336 54.9132 58.2925 54.6784 59.3946C54.5808 59.726 54.4832 60.0573 54.2203 60.3382C52.6921 61.8581 51.4454 63.6444 49.4123 64.7392C48.0212 65.4883 46.5625 65.8555 45.1527 66.0571C44.2873 66.2443 43.3148 66.4892 42.4494 66.6764C40.6604 66.9428 38.7643 67.2668 36.9565 66.9857C35.1488 66.7046 33.341 66.4235 31.5239 65.8687C30.5327 65.5661 29.4928 65.4291 28.5203 65.674C27.9271 65.854 27.3827 65.8684 26.9266 65.2776C26.8684 65.1696 26.5962 65.1768 26.4892 65.2344C25.9147 65.9619 25.1469 65.8178 24.4373 65.7817C24.1651 65.7889 23.9511 65.9041 23.7953 66.1274C23.6394 66.3507 23.5418 66.6821 23.6 66.7901C23.8327 67.2224 24.2795 67.5393 24.6192 67.9139C25.1335 68.6127 25.0639 69.7653 24.2567 70.0606C23.7217 70.3487 23.0121 70.3126 22.9331 71.1914C22.8843 71.3571 22.5051 71.4219 22.2329 71.4291C21.1929 71.2921 20.2111 71.2632 19.3062 71.8899C18.5572 72.2932 17.6824 72.2067 16.9053 71.7888C16.1863 71.479 16.1375 71.6447 15.8352 72.365C15.1423 74.4108 15.1423 74.4108 12.7319 74.036C12.4015 73.9351 11.9153 74.0575 11.8759 74.4969C11.6505 75.8728 10.4058 76.1248 9.60794 76.6938ZM15.8943 42.2255C15.6803 42.3407 15.5244 42.564 15.4174 42.6216C14.7961 41.9805 14.6028 41.1088 14.954 40.2228C15.1004 39.7258 15.3051 39.3368 15.2864 38.7893C15.4743 36.3185 17.2674 32.9835 20.2055 31.2621C21.1685 30.7435 22.355 30.3834 23.4043 30.7941C24.7841 31.3056 26.008 32.0405 26.8132 33.2796C27.2205 34.036 27.6184 34.5187 28.3374 34.8285C28.7259 35.0374 29.0657 35.412 29.2402 35.7362C29.8314 37.0905 30.9878 37.4436 32.2023 37.9047C32.8631 38.1064 33.5239 38.3082 34.1846 38.5099C34.515 38.6108 34.9036 38.8197 34.913 39.0935C35.1551 39.7994 35.3971 40.5054 36.3789 40.5343C37.0003 41.1755 37.4564 41.7662 38.0777 42.4074C37.9988 43.2862 38.8923 43.9202 38.9203 44.7414C38.9297 45.0151 39.0461 45.2312 39.2695 45.3897C40.1048 45.9156 40.9983 46.5496 41.7266 47.1332C42.7853 47.8176 43.416 48.7325 43.628 50.1516C43.9751 52.3343 43.3216 53.9406 41.9004 55.4028C41.9191 55.9503 41.7727 56.4473 41.2376 56.7354C40.0024 57.2612 38.8834 58.0031 37.3572 57.9885C36.9198 57.9453 36.4918 58.1757 36.1708 58.3486C35.7428 58.5791 35.2565 58.7015 34.7121 58.7159C33.3511 58.7518 31.9901 58.7877 30.7361 58.766C30.2987 58.7227 29.9102 58.5138 29.5798 58.4129C29.0842 58.2616 28.5398 58.2759 28.1118 58.5064C27.4697 58.8521 26.9347 59.1402 26.2344 59.3779C25.7482 59.5003 25.1945 59.241 24.727 59.9108C24.4735 60.4655 23.8314 60.8112 23.2476 61.265C22.7707 61.6611 22.2357 61.9492 21.8076 62.1797C21.2726 62.4678 20.7957 62.864 20.5423 63.4186C20.4934 63.5843 20.4446 63.75 20.3958 63.9156C20.4145 64.4631 21.9688 65.2989 22.3386 64.9603C23.5064 64.0528 24.6928 63.6927 26.1214 64.0386C26.4518 64.1395 26.7728 63.9666 27.0938 63.7937C27.5218 63.5633 28.0081 63.4408 28.4361 63.2104C29.1851 62.807 30.1088 62.7279 30.8371 63.3114C31.3908 63.5708 31.8864 63.7221 32.5378 63.6501C33.024 63.5277 33.5196 63.679 34.0152 63.8303C34.783 63.9744 35.6089 64.2266 36.4837 64.3131C38.6219 64.6951 40.6925 64.6953 42.6862 64.0399C44.1448 63.6727 45.5453 63.1973 47.1203 63.0462C47.9369 63.0246 48.472 62.7366 48.8906 62.2323C49.835 61.1663 50.8375 60.2083 51.8889 59.0846C52.3076 58.5804 52.6192 58.1338 52.9309 57.6872C53.4472 56.8517 53.6332 55.9152 54.5474 55.5623C54.6544 55.5047 54.8102 55.2814 54.752 55.1734C54.9587 53.25 55.1166 51.4924 55.2162 49.6267C55.2069 49.353 55.1975 49.0792 55.0812 48.8631C54.4411 47.6745 54.5595 46.3562 54.2987 45.1028C53.961 43.1938 54.0513 41.0544 52.6829 39.2822C52.6248 39.1742 52.5084 38.958 52.5572 38.7924C52.5873 38.0792 52.1987 37.8703 51.6938 37.4452C51.1889 37.0202 50.8886 36.2062 50.5395 35.5578C49.7155 33.7713 48.0937 32.5537 46.9487 30.9401C45.7342 30.4789 45.3664 29.2831 44.3077 28.5987C44.0261 28.3322 43.7934 27.8999 43.7258 27.5181C43.6583 27.1363 43.5419 26.9202 43.1045 26.877C42.5601 26.8913 42.1715 26.6824 41.7248 26.3654C40.9965 25.7819 40.3752 25.1407 39.5398 24.6148C37.1991 23.0874 34.5466 22.0067 31.9523 21.034C31.5638 20.8251 31.1264 20.7818 30.796 20.6809C27.8319 20.0468 24.8377 20.1258 21.804 20.6442C20.8316 20.889 19.9173 21.2419 19.0706 21.9766C18.2239 22.7113 17.3772 23.446 16.6957 24.2311C16.063 24.8506 15.3721 25.362 14.9046 26.0319C14.1255 27.1483 13.5697 28.4233 13.1209 29.6407C12.5651 30.9157 12.5631 32.45 11.6769 33.6241C11.5699 33.6817 11.6863 33.8979 11.6375 34.0635C11.4495 36.5343 11.2034 38.8971 10.9084 41.4255C10.8201 42.0306 10.7318 42.6357 11.0228 43.1759C11.0903 43.5577 11.216 44.0476 11.1766 44.487C11.2608 46.9506 11.4521 49.3566 12.2947 51.6906C12.4693 52.0148 12.5368 52.3966 12.4392 52.7279C12.1951 53.5563 12.3302 54.3199 12.6886 55.242C12.8725 55.8399 12.5027 56.1784 12.191 56.625C12.2492 56.7331 12.2492 56.7331 12.3074 56.8411C12.7053 57.3238 12.8123 57.2662 13.0752 56.9853C13.3287 56.4306 13.6403 55.984 13.8938 55.4294C14.4984 53.9887 14.889 52.6633 14.8328 51.0209C14.786 49.6522 14.467 48.2907 14.8576 46.9653C14.9553 46.634 14.7807 46.3098 14.6062 45.9856C14.257 45.3373 14.3453 44.7322 14.7058 44.1199C14.9105 43.7309 15.0081 43.3996 15.2128 43.0106C15.4663 42.4559 15.6803 42.3407 15.8943 42.2255ZM20.0413 59.9249C20.2554 59.8096 20.5276 59.8024 20.7416 59.6872C20.8486 59.6296 20.8974 59.4639 20.8392 59.3559C20.674 59.3054 20.5088 59.255 20.4018 59.3126C20.246 59.5359 20.1972 59.7016 20.0413 59.9249C19.8855 60.1482 19.7297 60.3715 19.4668 60.6524C19.1946 60.6596 18.9806 60.7748 18.7084 60.782C18.6014 60.8396 18.5526 61.0053 18.5038 61.171C18.6108 61.1133 18.776 61.1638 18.883 61.1062C19.097 60.9909 19.2528 60.7676 19.4087 60.5443C19.4669 60.6524 19.4668 60.6524 19.525 60.7604C19.6414 60.9765 19.7578 61.1927 20.0788 61.0198C20.1858 60.9622 20.1764 60.6885 20.1183 60.5804C20.1671 60.4147 20.0507 60.1986 20.0413 59.9249ZM9.00482 62.2435C8.88845 62.0274 8.77208 61.8113 8.5487 61.6528C8.49051 61.5447 8.21831 61.5519 8.1113 61.6095C8.0043 61.6671 7.95547 61.8328 7.90665 61.9985C7.96483 62.1066 8.13003 62.157 8.29522 62.2074C8.5186 62.3659 8.73262 62.2507 9.00482 62.2435C9.17001 62.2939 9.22819 62.402 9.34456 62.6181C8.98407 63.2304 8.94461 63.6698 9.50773 64.2029C11.0995 66.1336 13.168 67.6681 15.2854 69.0369C15.5088 69.1954 15.7322 69.3539 16.0044 69.3468C16.3348 69.4476 16.7722 69.4909 16.9862 69.3756C17.3072 69.2028 17.2397 68.821 17.1721 68.4392C17.1046 68.0574 16.9882 67.8413 16.9207 67.4595L17.0859 67.5099L16.9789 67.5676C16.4251 67.3082 15.8319 67.4882 15.4339 67.0056C15.036 66.5229 14.4729 65.9898 13.9191 65.7304C13.2002 65.4206 12.6952 64.9956 12.1321 64.4625C11.7342 63.9798 10.9664 63.8356 10.4126 63.5763C10.0241 63.3673 9.8495 63.0432 9.40274 62.7262C9.50975 62.6686 9.50975 62.6686 9.61676 62.6109C9.72377 62.5533 9.7726 62.3876 9.82142 62.222C9.65623 62.1715 9.59804 62.0635 9.49103 62.1211C9.21882 62.1283 9.11182 62.1859 9.00482 62.2435ZM9.69972 58.6634C9.60208 58.9948 9.71846 59.2109 10.0395 59.038C10.6608 59.6792 11.2239 60.2123 11.8452 60.8535C12.3502 61.2785 12.2619 61.8836 12.1736 62.4887C12.1435 63.2018 12.4551 62.7552 12.7762 62.5824C12.8832 62.5248 13.2136 62.6256 13.2136 62.6256C13.358 63.663 14.4956 63.4686 15.1169 64.1097C16.1944 65.3416 17.7975 66.0117 18.9331 67.3516C19.2146 67.6182 19.5544 67.9928 19.9918 68.036C20.5944 68.1297 20.9923 68.6124 21.3902 69.0951C21.4484 69.2031 21.7206 69.1959 21.7694 69.0303C21.8183 68.8646 21.8671 68.6989 21.8089 68.5909C21.6344 68.2667 21.2946 67.8921 21.013 67.6255C19.2354 66.6313 18.0904 65.0176 16.478 64.0738C16.0894 63.8649 15.8566 63.4326 15.6821 63.1085C15.3236 62.1864 14.2255 61.9414 14.081 60.9041C13.2457 60.3781 12.3522 59.7442 11.575 59.3263C11.1865 59.1174 10.6327 58.858 10.0977 59.1461C9.98129 58.93 9.81609 58.8795 9.69972 58.6634C9.95321 58.1088 10.1485 57.446 10.509 56.8338C10.509 56.8338 10.3344 56.5096 10.1693 56.4592C9.56666 56.3655 9.13863 56.596 8.99216 57.093C8.85505 57.8638 9.25297 58.3464 9.69972 58.6634ZM8.46499 73.5458C7.56212 72.6381 6.60107 71.6223 5.69819 70.7146C5.64001 70.6065 5.533 70.6641 5.47482 70.5561C5.42599 70.7218 5.37718 70.8874 5.43536 70.9955C6.06603 71.9104 6.6385 72.7172 7.37618 73.5745C7.65775 73.8411 8.14397 73.7187 8.46499 73.5458C8.572 73.4882 8.85356 73.7547 8.89303 73.3153C8.78602 73.3729 8.67901 73.4306 8.46499 73.5458ZM23.2925 41.8659C23.4671 42.1901 23.5928 42.6799 23.7674 43.0041C24.0583 43.5444 24.5539 43.6957 25.0307 43.2995C25.9845 42.5072 26.88 41.6069 27.7755 40.7065C27.8825 40.6489 27.8732 40.3751 27.815 40.2671C27.7568 40.159 27.5334 40.0005 27.4264 40.0581C26.6192 40.3534 25.8119 40.6487 25.1699 40.9944C24.5278 41.3401 23.8858 41.6859 23.2925 41.8659C23.1855 41.9235 22.797 41.7146 22.9227 42.2044C23.0297 42.1468 23.2437 42.0316 23.2925 41.8659ZM36.5133 49.2434C36.1227 50.5688 35.1108 51.253 33.7592 51.5627C33.0589 51.8003 32.1841 51.7138 31.3281 52.1748C30.8512 52.5709 30.0741 52.1531 29.511 51.62C28.9478 51.0869 28.5987 50.4385 28.0356 49.9054C27.5888 49.5884 27.5608 48.7672 27.8142 48.2126C27.9607 47.7155 28.4376 47.3194 28.477 46.88C28.449 46.0588 29.0328 45.605 29.5679 45.3169C29.8889 45.144 30.3751 45.0216 30.5798 44.6326C31.0285 43.4153 32.001 43.1704 33.255 43.1921C33.8576 43.2858 34.509 43.2139 34.9557 43.5309C34.9557 43.5309 35.2279 43.5237 35.1697 43.4156C35.2186 43.2499 35.2674 43.0843 35.2092 42.9762C34.6949 42.2774 34.0736 41.6363 33.6175 41.0455C32.8704 39.9145 31.7328 40.1089 30.644 40.1376C30.537 40.1953 30.323 40.3105 30.2741 40.4762C30.1277 40.9732 29.5438 41.427 29.8929 42.0753C29.9511 42.1834 29.9116 42.6228 29.6976 42.738C28.5974 44.0274 27.2157 45.0502 25.834 46.073C25.4059 46.3034 24.9779 46.5339 24.3753 46.4402C23.9379 46.397 23.6075 46.2961 23.1701 46.2528C21.6927 46.0726 20.8387 44.9992 21.0641 43.6234C21.0942 42.9102 21.1825 42.3051 21.3778 41.6424C21.7289 40.7564 22.0219 39.7624 22.8686 39.0277C23.8223 38.2354 24.669 37.5007 25.8648 37.4143C26.137 37.4071 26.351 37.2919 26.565 37.1767C26.779 37.0614 26.8767 36.7301 26.7603 36.514C26.5858 36.1898 26.353 35.7576 26.1878 35.7071C25.4201 35.563 25.1291 35.0227 24.673 34.432C24.6148 34.3239 24.4985 34.1078 24.4403 33.9997C23.4886 33.2577 21.4762 33.3656 20.6295 34.1003C19.4617 35.0078 18.6337 36.29 18.185 37.5074C17.6874 38.8904 16.5872 40.1797 17.353 41.8582C17.1088 42.6866 17.1369 43.5078 17.3302 44.3794C17.5141 44.9773 17.5328 45.5248 17.7167 46.1227C17.9588 46.8287 17.7635 47.4914 17.5682 48.1541C17.4218 48.6511 17.0031 49.1554 17.2358 49.5876C17.7782 51.1076 17.0666 52.6058 16.7924 54.1474C16.46 55.5808 16.1858 57.1224 15.1926 58.3541C15.0367 58.5774 14.6669 58.9159 14.7344 59.2977C14.7532 59.8452 15.4534 59.6075 15.735 59.8741C15.9583 60.0326 15.9677 60.3063 16.1911 60.4648C16.8124 61.106 17.3568 61.0916 17.9407 60.6378C18.4757 60.3498 19.0107 60.0617 19.206 59.3989C19.3431 58.6282 20.0434 58.3905 20.5784 58.1024C21.9207 57.519 23.37 56.878 24.6541 56.1866C24.8681 56.0714 25.1891 55.8985 25.3543 55.949C26.1897 56.4749 26.6571 55.805 27.1922 55.5169C27.6202 55.2864 28.1064 55.164 28.5532 55.481C28.7766 55.6395 29.214 55.6827 29.4862 55.6756C30.9054 55.7477 32.1594 55.7694 33.5204 55.7335C34.0648 55.7192 34.5022 55.7624 34.9489 56.0794C35.0071 56.1874 35.4933 56.065 35.6003 56.0074C36.2237 55.1142 37.2543 54.9774 38.2267 54.7326C40.4344 53.962 41.0089 53.2345 40.9829 50.8789C40.9153 50.4971 40.7896 50.0073 40.615 49.6831C40.0914 48.7106 39.1002 48.408 38.2067 47.774C38.1485 47.6659 37.9345 47.7812 37.6623 47.7884C37.0691 47.9684 36.5922 48.3646 36.5133 49.2434ZM33.8609 48.1626C34.2795 47.6584 34.5424 47.3775 34.854 46.9309C34.961 46.8733 34.7865 46.5491 34.7865 46.5491C33.9023 46.1889 33.0764 45.9367 32.2878 46.7794C32.1808 46.8371 31.9668 46.9523 31.8598 47.0099C31.2178 47.3556 31.0225 48.0183 30.9924 48.7315C31.0017 49.0052 31.0111 49.279 31.3903 49.2142C31.8277 49.2574 32.2651 49.3007 32.5861 49.1278C33.0141 48.8973 33.491 48.5012 33.8609 48.1626ZM14.1157 71.4788C14.0575 71.3708 14.0481 71.097 13.883 71.0466C13.2222 70.8449 12.5614 70.6431 12.0076 70.3837C12.0076 70.3837 11.8425 70.3333 11.7354 70.3909C11.7354 70.3909 11.6866 70.5566 11.7448 70.6647C12.3079 71.1978 13.0851 71.6156 14.0087 71.5365C14.0669 71.6445 14.0087 71.5365 14.1157 71.4788ZM8.74527 67.4012C8.63827 67.4588 8.47307 67.4084 8.36607 67.466C8.42426 67.5741 8.43362 67.8478 8.54063 67.7902C8.59881 67.8982 8.81282 67.783 8.91982 67.7254C8.86164 67.6173 8.80345 67.5093 8.74527 67.4012ZM7.3281 65.7947C7.22109 65.8523 6.9489 65.8595 7.00708 65.9676C6.95826 66.1332 7.12345 66.1837 7.07462 66.3494C7.18163 66.2917 7.28864 66.2341 7.39565 66.1765C7.50265 66.1189 7.44447 66.0108 7.3281 65.7947ZM9.73441 69.2382L9.78323 69.0725C9.72505 68.9645 9.55985 68.914 9.39467 68.8636L9.34584 69.0293C9.51103 69.0797 9.56922 69.1878 9.73441 69.2382ZM10.5356 73.546C10.6426 73.4883 10.7496 73.4307 10.9148 73.4812C10.8566 73.3731 10.7984 73.265 10.7984 73.265C10.6914 73.3227 10.5844 73.3803 10.4192 73.3298C10.4774 73.4379 10.5356 73.546 10.5356 73.546ZM3.48315 69.6771L3.53197 69.5114C3.42496 69.569 3.36678 69.461 3.25977 69.5186C3.21095 69.6843 3.21094 69.6843 3.26912 69.7923C3.37613 69.7347 3.37614 69.7347 3.48315 69.6771ZM26.5362 44.3009C26.4292 44.3586 26.3222 44.4162 26.2152 44.4738L26.3804 44.5242C26.4292 44.3586 26.5362 44.3009 26.5362 44.3009Z" fill="#FBE574"/>
<path fill-rule="evenodd" clip-rule="evenodd" d="M74.2751 38.1098C74.3427 38.4916 74.5079 38.542 74.459 38.7077C74.4871 39.5289 73.7474 40.206 73.096 40.278C71.6768 40.2058 70.2088 40.2993 68.7896 40.2272C67.3704 40.155 66 39.9172 64.532 40.0107C63.7736 40.1403 63.2011 39.3335 63.2801 38.4547C63.4078 37.4102 63.9917 36.9564 64.9153 36.8772C65.7319 36.8557 66.5485 36.8341 67.4233 36.9207C67.5885 36.9711 67.8025 36.8559 67.9677 36.9063C69.5802 37.8501 71.418 37.418 73.1676 37.591C73.5562 37.8 73.9447 38.0089 74.2751 38.1098Z" fill="#FBE574"/>
<path fill-rule="evenodd" clip-rule="evenodd" d="M64.6864 55.6784C64.7352 55.5127 64.5607 55.1886 64.6583 54.8572C65.0094 53.9712 65.8073 53.4022 66.6333 53.6544C67.4011 53.7985 68.334 53.9931 69.1112 54.4109C70.0535 54.8793 71.0447 55.1819 72.0265 55.2108C72.9501 55.1316 73.669 55.4414 74.4462 55.8593C75.0581 56.2267 75.3979 56.6013 75.1932 56.9903C74.8421 57.8763 74.3164 58.4381 73.6068 58.4021C73.0042 58.3084 72.3434 58.1066 71.585 58.2362C71.2058 58.301 70.8172 58.0921 70.4287 57.8832C69.8167 57.5157 69.263 57.2564 68.5045 57.386C67.7368 57.2418 65.2495 56.2115 64.6864 55.6784Z" fill="#FBE574"/>
<path fill-rule="evenodd" clip-rule="evenodd" d="M47.0466 8.3066C47.0559 8.58033 47.2305 8.90451 47.1817 9.07018C46.9864 9.73289 46.7911 10.3956 46.5376 10.9503C45.8655 12.0091 45.3585 13.1184 44.9097 14.3358C44.7144 14.9985 44.2469 15.6684 43.7794 16.3383C43.5166 16.6192 43.1374 16.684 42.914 16.5255C42.2439 16.05 41.6226 15.4088 41.8085 14.4724C42.0245 12.8228 42.678 11.2165 43.72 9.81907C44.3433 8.92588 45.2482 8.29925 46.444 8.21291C46.658 8.09767 46.8814 8.25616 47.0466 8.3066Z" fill="#FBE574"/>
<path fill-rule="evenodd" clip-rule="evenodd" d="M21.2651 1.69887C22.0028 2.55615 22.3613 3.47823 22.6127 4.45793C22.8154 5.60331 23.1832 6.79912 23.3858 7.9445C23.5209 8.70808 23.2092 9.15468 22.402 9.44996C22.081 9.62282 21.6436 9.57956 21.576 9.19777C21.1012 8.05957 20.3542 6.92856 20.2004 5.6175C19.9977 4.47213 19.4159 3.39155 18.834 2.31097C18.4267 1.55457 18.4568 0.841422 18.7779 0.668564C19.3129 0.380466 19.7015 0.5894 20.2552 0.848773C20.702 1.16576 21.0417 1.54037 21.2651 1.69887Z" fill="#FBE574"/>
<path fill-rule="evenodd" clip-rule="evenodd" d="M58.7424 22.0807C58.3726 22.4192 58.0027 22.7578 57.5258 23.1539C57.2048 23.3268 56.9326 23.334 56.6511 23.0674C56.3695 22.8009 56.1461 22.6424 55.9716 22.3182C55.69 22.0516 55.7295 21.6122 55.8853 21.3889C56.197 20.9423 56.4504 20.3877 56.9273 19.9915C57.56 19.3721 58.1439 18.9183 58.8347 18.4069C59.3116 18.0107 59.9142 18.1044 60.5168 18.1981C60.9542 18.2414 61.3521 18.7241 61.1474 19.113C60.7381 19.891 60.3776 20.5032 59.8031 21.2308C59.5403 21.5117 59.1123 21.7422 58.7424 22.0807Z" fill="#FBE574"/>
<path fill-rule="evenodd" clip-rule="evenodd" d="M9.50093 76.7514C9.55911 76.8595 9.45211 76.9171 9.51029 77.0252C9.55912 76.8595 9.55911 76.8595 9.50093 76.7514Z" fill="#FBE574"/>
<path fill-rule="evenodd" clip-rule="evenodd" d="M36.5133 49.2434C36.6203 49.1858 36.7273 49.1281 36.7855 49.2362L36.6785 49.2938C36.6203 49.1858 36.6203 49.1858 36.5133 49.2434Z" fill="#FBE574"/>
</svg>
