<svg width="312" height="200" viewBox="0 0 312 200" fill="none" xmlns="http://www.w3.org/2000/svg">
<path fill-rule="evenodd" clip-rule="evenodd" d="M1.29422 26.9322C1.63833 27.0749 1.98243 27.2176 2.32654 27.3603C4.88938 28.9613 8.663 29.5843 11.5272 29.1575C14.3913 28.7307 13.8469 24.1996 10.9352 24.7412C10.6583 24.7609 10.3814 24.7806 9.98978 24.7528C9.74069 24.3804 9.49159 24.008 8.91807 23.7702C6.85342 22.914 4.68566 22.9569 2.45067 22.8373C-0.0137307 22.6226 -0.999836 25.9809 1.29422 26.9322Z" fill="#FF9DBA"/>
<path fill-rule="evenodd" clip-rule="evenodd" d="M27.4724 31.8678C29.6077 34.5024 33.0488 35.9293 36.3752 37.3087C36.7587 38.0059 37.3797 38.1289 37.981 37.9747C38.2104 38.0698 38.5545 38.2125 38.7839 38.3076C40.8486 39.1638 43.1636 36.4911 41.5937 34.7638C39.3634 32.3589 36.84 31.3125 34.0396 30.2857C33.6955 30.143 33.3514 30.0003 33.0073 29.8576C32.6632 29.7149 32.2044 29.5247 31.8603 29.382C30.4838 28.8112 29.368 29.5594 28.8258 30.5454C28.5489 30.5651 28.4342 30.5176 28.1572 30.5373C27.374 30.4816 27.0415 31.2855 27.4724 31.8678Z" fill="#FF9DBA"/>
<path fill-rule="evenodd" clip-rule="evenodd" d="M51.7193 40.1739C52.8779 41.5962 53.7201 42.4836 55.231 43.3792C55.9864 43.827 56.6271 44.2273 57.43 44.5602C57.4972 44.7226 57.5644 44.885 57.5169 44.9999C58.1217 46.4616 59.4112 46.5927 60.432 46.0742L60.5467 46.1217C63.1849 47.2158 64.6854 43.2635 62.2095 42.1022C61.5212 41.8168 60.928 41.3018 60.3348 40.7867C59.971 40.3667 59.445 40.0141 58.7568 39.7287C58.2308 39.376 57.7917 39.463 57.3526 39.55C55.6795 38.7216 54.3228 38.4281 52.3844 38.5661C51.6684 38.6728 51.2408 39.7064 51.7193 40.1739Z" fill="#FF9DBA"/>
<path fill-rule="evenodd" clip-rule="evenodd" d="M78.187 51.5554C79.9978 54.3245 84.6416 55.443 87.6239 56.6797C89.0003 57.2505 90.1161 56.5023 90.5912 55.3538C90.7812 54.8945 90.904 54.2727 90.7024 53.7854C91.2922 52.6846 90.8022 51.2705 89.3504 51.2066C88.1756 51.1231 87.1154 51.0871 86.1028 50.9362C83.8562 49.8701 81.2853 48.9385 79.2043 49.421C78.0967 49.4998 77.6216 50.6483 78.187 51.5554Z" fill="#FF9DBA"/>
<path fill-rule="evenodd" clip-rule="evenodd" d="M104.334 55.2649C104.563 55.36 104.793 55.4552 104.907 55.5027C105.148 56.5445 105.943 57.5467 107.375 57.3333C108.483 57.2545 109.705 57.2232 110.813 57.1444C111.481 57.1525 112.15 57.1606 112.866 57.0539C115.778 56.5123 115.253 52.2584 112.207 52.4752C111.214 52.6016 110.269 52.6132 109.161 52.692C107.662 52.743 106.048 52.7465 104.453 53.0271C103.508 53.0387 103.187 54.7892 104.334 55.2649Z" fill="#FF9DBA"/>
<path fill-rule="evenodd" clip-rule="evenodd" d="M125.464 48.6894C126.259 49.6917 127.778 49.918 128.779 49.1222L128.941 49.0549C129.427 48.8531 129.914 48.6513 130.401 48.4494C131.421 47.9309 132.604 47.3451 133.443 46.6166C135.493 44.9103 133.69 41.4718 131.095 42.5483C129.959 43.0192 128.824 43.4902 127.87 44.1711C126.945 44.4599 126.039 45.026 125.544 45.8972C124.934 46.7208 124.736 47.8495 125.464 48.6894Z" fill="#FF9DBA"/>
<path fill-rule="evenodd" clip-rule="evenodd" d="M136.529 33.637C136.636 34.3539 137.553 34.7344 138.02 34.2554C138.44 33.8911 138.859 33.5269 139.212 33.0002C139.279 33.1626 139.279 33.1626 139.346 33.325C139.567 34.0895 140.513 34.0779 141.047 33.7612C142.649 32.8112 143.259 31.9876 143.742 30.1698C144.178 28.4669 144.269 26.6212 144.428 24.938C144.575 22.3082 140.81 21.0158 139.832 23.7047C138.664 26.8531 136.246 30.4248 136.529 33.637Z" fill="#FF9DBA"/>
<path fill-rule="evenodd" clip-rule="evenodd" d="M131.088 3.25754C132.622 6.04635 134.69 8.5185 136.548 11.1728C136.797 11.5451 137.209 11.8502 137.553 11.9929C137.735 12.2029 137.984 12.5753 138.166 12.7853C139.028 13.95 140.974 13.1427 140.761 11.7088C140.674 11.2692 140.654 10.9919 140.567 10.5522C140.615 10.4374 140.71 10.2077 140.757 10.0929C141.031 8.45721 140.407 6.71827 139.01 5.87023C138.781 5.7751 138.552 5.67997 138.322 5.58483C136.915 3.79019 135.25 2.29254 132.928 1.73332C131.895 1.30522 130.503 2.07311 131.088 3.25754Z" fill="#FF9DBA"/>
<path fill-rule="evenodd" clip-rule="evenodd" d="M114.177 4.18453C114.101 4.69147 114.093 5.36081 114.619 5.71348C115.489 6.20885 116.387 6.31213 117.266 6.13815C117.792 6.49082 118.413 6.6138 119.271 6.16257C119.758 5.96074 120.244 5.7589 120.779 5.44222C120.779 5.44222 120.779 5.44223 120.893 5.48979C121.008 5.53736 121.123 5.58492 121.285 5.51764C122.068 5.57335 122.974 5.00726 123.077 4.10823C123.058 3.83097 123.038 3.55371 123.018 3.27646C123.018 3.27646 123.018 3.27649 123.066 3.16164C124.312 1.12231 121.271 -0.946181 119.479 0.463223C118.687 1.07686 117.762 1.3657 116.951 1.70209C115.768 2.28788 114.537 2.98853 114.177 4.18453Z" fill="#FF9DBA"/>
<path fill-rule="evenodd" clip-rule="evenodd" d="M103.981 19.736C102.841 22.4922 107.085 24.2522 108.225 21.4959C108.748 20.2327 109.27 18.9694 109.793 17.7061C110.078 17.0171 109.972 16.3001 109.77 15.8129C109.845 15.306 109.988 14.9614 110.063 14.4545C110.364 12.4267 107.43 11.0752 106.163 12.8373C104.802 14.829 104.817 17.3916 103.981 19.736Z" fill="#FF9DBA"/>
<path fill-rule="evenodd" clip-rule="evenodd" d="M106.556 35.6007C106.528 35.9928 106.5 36.385 106.749 36.7573C106.816 36.9197 106.836 37.197 106.903 37.3594C106.903 37.3594 106.856 37.4742 106.97 37.5218L107.105 37.8466C107.172 38.009 107.172 38.009 107.287 38.0566C107.575 38.9835 107.911 39.7955 108.409 40.5403C108.611 41.0275 109.042 41.6099 109.711 41.618C109.825 41.6656 109.987 41.5983 110.102 41.6459C110.79 41.9313 111.621 41.8721 112.25 41.3258C113.204 40.6449 113.477 39.0092 112.683 38.0069C112.319 37.5869 112.07 37.2146 111.753 36.6798C111.753 36.6798 111.619 36.3549 111.504 36.3074C111.322 36.0974 111.303 35.8201 111.121 35.6102C110.939 35.4002 110.804 35.0754 110.623 34.8654C110.488 34.5406 110.306 34.3306 110.077 34.2355C109.349 33.3956 108.364 32.8527 107.363 33.6484C106.734 34.1948 106.564 34.9314 106.556 35.6007Z" fill="#FF9DBA"/>
<path fill-rule="evenodd" clip-rule="evenodd" d="M129.387 61.6205C129.636 61.9929 129.838 62.4801 130.04 62.9673C129.612 64.0009 129.92 65.2051 131.182 65.7283L134.967 67.298C137.605 68.392 139.315 64.2576 136.677 63.1636C134.727 62.355 132.825 61.4315 131.065 60.1635C130.357 59.6009 128.802 60.4361 129.387 61.6205Z" fill="#FF9DBA"/>
<path fill-rule="evenodd" clip-rule="evenodd" d="M152.253 71.6385C152.502 72.0109 152.913 72.316 153.21 72.5736C153.269 73.4053 153.653 74.1025 154.57 74.4831C155.144 74.7209 155.765 74.8439 156.386 74.9668C157.351 75.2325 158.431 75.5458 159.538 75.467C159.815 75.4472 160.14 75.3127 160.349 75.1306C160.626 75.1109 160.789 75.0436 161.018 75.1387C163.395 74.9137 163.761 71.4324 161.581 70.5287C159.172 69.5298 155.818 68.5425 153.251 69.2268C152.21 69.4681 151.62 70.569 152.253 71.6385Z" fill="#FF9DBA"/>
<path fill-rule="evenodd" clip-rule="evenodd" d="M182.882 72.6355C183.044 72.5682 183.274 72.6634 183.436 72.5961C183.598 72.5288 183.713 72.5764 183.875 72.5091C184.983 72.4303 186.091 72.3514 187.064 71.9477C189.374 71.5604 191.684 71.173 193.908 70.3459C196.294 69.4516 195.282 65.3995 192.762 65.969C190.29 66.4237 187.358 66.6881 184.992 67.8597C184.276 67.9664 183.56 68.0731 182.911 68.3422C180.601 68.7296 180.208 72.6029 182.882 72.6355Z" fill="#FF9DBA"/>
<path fill-rule="evenodd" clip-rule="evenodd" d="M212.112 61.747C211.779 62.5509 212.115 63.3629 212.918 63.6959C213.215 63.9534 213.673 64.1437 214.018 64.2864C214.524 64.3618 215.192 64.3699 215.679 64.1681C215.841 64.1008 216.003 64.0336 216.051 63.9187C216.098 63.8039 216.213 63.8514 216.213 63.8514C216.767 63.812 217.254 63.6102 217.558 63.1984C219.18 62.5256 220.668 61.528 221.859 60.2729C223.517 58.5386 221.153 55.809 219.044 56.6836C216.935 57.5582 214.664 58.5001 212.824 60.0243C212.472 60.5509 212.12 61.0776 212.112 61.747Z" fill="#FF9DBA"/>
<path fill-rule="evenodd" clip-rule="evenodd" d="M237.278 49.3129C237.547 49.9625 238.188 50.3628 239.018 50.3036C239.18 50.2364 239.295 50.2839 239.343 50.1691C241.72 49.9441 243.876 48.9547 246.1 48.1276C247.722 47.4548 247.766 45.724 247.019 44.6069C247.264 43.3633 246.316 41.7589 244.788 42.202C242.268 42.7715 240.515 44.7354 238.082 45.7446C236.575 46.4649 236.369 48.263 237.278 49.3129Z" fill="#FF9DBA"/>
<path fill-rule="evenodd" clip-rule="evenodd" d="M258.309 45.2507C262.724 46.274 267.557 46.9331 271.849 48.5782C274.535 49.5573 276.15 45.6527 273.512 44.5587C273.282 44.4635 273.168 44.416 272.938 44.3208C270.929 42.6805 268.54 41.9588 266.008 41.5817C264.996 41.4309 264.252 41.9297 263.919 42.7336C262.029 42.7567 260.205 42.9423 258.286 43.3575C257.131 43.5512 257.229 44.9374 258.309 45.2507Z" fill="#FF9DBA"/>
<path fill-rule="evenodd" clip-rule="evenodd" d="M290.327 57.1845C290.901 57.4223 291.474 57.6602 292.048 57.898C293.052 58.7182 294.267 59.3563 295.271 60.1765C296.802 61.3493 298.393 59.4527 297.511 58.0107C297.444 57.8483 297.329 57.8007 297.377 57.6859L297.424 57.571C297.852 56.5375 297.591 55.2185 296.329 54.6953C294.953 54.1245 293.576 53.5537 292.2 52.9829C289.352 52.071 287.689 56.0905 290.327 57.1845Z" fill="#FF9DBA"/>
<path fill-rule="evenodd" clip-rule="evenodd" d="M306.121 74.2305C307.117 75.72 308.41 77.4671 309.988 78.5251C311.566 79.5831 314.19 78.1146 313.154 76.0705C313.087 75.9081 313.019 75.7458 312.79 75.6506C312.675 75.6031 312.723 75.4882 312.608 75.4406C312.177 74.8583 311.631 74.2284 311.038 73.7133C310.56 73.2458 310.129 72.6634 309.698 72.081C308.721 70.8688 307.658 69.2168 305.976 69.0578C305.47 68.9824 304.936 69.2991 304.746 69.7585C304.472 71.3941 305.307 72.9509 306.121 74.2305Z" fill="#FF9DBA"/>
<path fill-rule="evenodd" clip-rule="evenodd" d="M320.75 96.036C321.402 97.3828 322.169 98.7773 322.822 100.124C322.956 100.449 322.976 100.726 323.11 101.051C323.446 101.863 324.011 102.77 324.68 102.778C326.056 103.349 327.936 102.379 327.75 100.553C327.431 98.4027 326.347 96.4735 325.379 94.5919C325.13 94.2195 324.948 94.0095 324.651 93.752C323.932 92.2427 323.26 90.6186 321.464 90.4121C320.958 90.3367 320.471 90.5385 320.166 90.9503C318.9 92.7124 319.916 94.4792 320.75 96.036Z" fill="#FF9DBA"/>
<path fill-rule="evenodd" clip-rule="evenodd" d="M325.949 115.952C325.807 116.297 325.779 116.689 325.866 117.129C325.596 120.38 325.507 123.842 326.507 126.947C326.91 127.922 328.161 127.498 328.331 126.762C328.767 125.059 329.04 123.423 329.361 121.673C330.057 121.289 330.667 120.465 330.541 119.471C330.521 119.194 330.501 118.916 330.482 118.639C330.509 118.247 330.699 117.788 330.727 117.395C330.85 116.774 330.649 116.286 330.399 115.914C330.404 113.629 326.603 113.398 325.949 115.952Z" fill="#FF9DBA"/>
<path fill-rule="evenodd" clip-rule="evenodd" d="M319.043 141.746C318.92 142.368 318.845 142.875 318.607 143.449C318.56 143.564 318.512 143.679 318.302 143.861C318.207 144.09 318.112 144.32 318.132 144.597C317.989 144.942 317.685 145.354 317.542 145.698C316.771 146.589 318.024 147.782 318.978 147.101C319.14 147.033 319.187 146.919 319.35 146.851C319.464 146.899 319.464 146.899 319.627 146.832C319.789 146.764 320.066 146.745 320.228 146.677C321.355 146.876 322.396 146.635 322.871 145.486C323.203 144.682 323.488 143.993 323.821 143.189C324.134 142.108 323.806 140.627 322.611 140.266C322.497 140.218 322.267 140.123 322.153 140.076C321.808 139.933 321.532 139.953 321.255 139.972C320.127 139.774 319.308 140.78 319.043 141.746Z" fill="#FF9DBA"/>
<path fill-rule="evenodd" clip-rule="evenodd" d="M303.869 160.883C303.727 161.228 303.747 161.505 303.719 161.897C303.671 162.012 303.624 162.127 303.462 162.194C302.919 163.18 303.963 164.555 304.964 163.759L305.126 163.692C305.585 163.882 306.024 163.795 306.511 163.593C307.694 163.007 308.628 162.049 309.562 161.091C309.609 160.976 309.771 160.909 309.934 160.842C310.515 160.41 311.097 159.979 311.611 159.385C311.869 159.088 312.011 158.743 312.039 158.351C312.134 158.121 312.182 158.007 312.277 157.777C312.494 156.925 311.767 156.086 310.869 155.982C310.592 156.002 310.315 156.022 310.153 156.089C309.876 156.109 309.484 156.081 309.16 156.215C306.889 157.157 304.982 158.519 303.869 160.883Z" fill="#FF9DBA"/>
<path fill-rule="evenodd" clip-rule="evenodd" d="M280.645 174.796C285.261 176.307 290.29 174.221 293.922 171.287C294.294 171.038 294.436 170.693 294.579 170.349C294.836 170.052 295.208 169.803 295.465 169.506C296.542 168.203 295.047 165.969 293.378 166.756C291.498 167.726 289.457 168.763 287.827 170.105C287.664 170.172 287.617 170.287 287.407 170.469C287.083 170.604 286.873 170.786 286.549 170.921C284.764 171.661 282.885 172.63 280.899 172.883C279.839 172.847 279.565 174.483 280.645 174.796Z" fill="#FF9DBA"/>
<path fill-rule="evenodd" clip-rule="evenodd" d="M260.413 168.154C262.73 170.999 267.259 172.07 270.471 173.402C271.618 173.877 272.572 173.196 272.952 172.278C273.332 171.359 273.138 170.202 271.991 169.727C268.78 168.395 264.821 165.946 261.173 166.317C260.343 166.376 259.867 167.524 260.413 168.154Z" fill="#FF9DBA"/>
<path fill-rule="evenodd" clip-rule="evenodd" d="M254.565 148.509C253.936 149.055 253.765 149.792 254.054 150.719C254.342 151.645 254.306 152.707 254.595 153.634C255.018 154.885 256.375 155.179 257.51 154.708C257.625 154.756 257.625 154.756 257.739 154.803C258.016 154.784 258.341 154.649 258.321 154.372C258.369 154.257 258.254 154.209 258.301 154.094C258.559 153.798 258.654 153.568 258.681 153.176C258.876 150.431 259.89 146.681 258.166 144.351C257.62 143.721 256.79 143.78 256.275 144.374C255.064 145.352 254.676 146.94 254.565 148.509Z" fill="#FF9DBA"/>
<path fill-rule="evenodd" clip-rule="evenodd" d="M263.436 139.406C264.555 140.274 265.663 140.195 266.98 139.934C268.575 139.653 268.907 138.85 269.774 137.729C270.383 136.905 271.586 136.597 272.579 136.47C273.734 136.277 274.727 136.15 275.882 135.957C276.761 135.783 277.188 134.749 276.642 134.119C274.871 131.905 272.588 131.9 270.021 132.584C268.933 132.94 267.865 133.574 267.14 134.35C266.674 134.829 266.207 135.308 265.969 135.882C265.569 136.524 265.13 136.611 264.414 136.717C262.935 137.045 262.317 138.538 263.436 139.406Z" fill="#FF9DBA"/>
<path fill-rule="evenodd" clip-rule="evenodd" d="M285.744 138.433C286.088 138.576 286.432 138.719 286.728 138.976C287.713 139.519 288.651 140.177 289.548 140.28C291.04 140.899 292.531 141.517 294.022 142.135C296.316 143.087 298.2 139.832 296.211 138.469C293.925 136.848 290.472 134.474 287.446 134.968C287.331 134.921 287.331 134.921 287.216 134.873C284.827 134.152 283.287 137.549 285.744 138.433Z" fill="#FF9DBA"/>
<path fill-rule="evenodd" clip-rule="evenodd" d="M303.203 143.653C303.27 143.816 303.452 144.026 303.519 144.188C303.634 144.236 303.634 144.236 303.586 144.35C303.539 144.465 303.654 144.513 303.721 144.675C303.99 145.325 304.583 145.84 304.947 146.26C305.492 146.89 306.2 147.453 306.793 147.968C306.975 148.178 307.272 148.435 307.616 148.578C308.075 148.768 308.486 149.073 309.06 149.311C311.535 150.472 313.198 146.453 310.675 145.406C308.428 144.34 306.894 141.551 304.145 142.026C303.476 142.018 302.819 142.956 303.203 143.653Z" fill="#FF9DBA"/>
<path fill-rule="evenodd" clip-rule="evenodd" d="M322.489 163.625C321.958 165.558 323.137 167.257 324.248 168.795C324.497 169.167 324.746 169.539 325.11 169.959C326.011 171.678 327.304 173.426 328.725 172.266C329.097 172.016 329.124 171.624 329.038 171.184C328.903 170.86 328.769 170.535 328.634 170.21C329.311 169.549 329.624 168.468 328.829 167.465C328.398 166.883 327.852 166.253 327.421 165.671C327.354 165.508 327.354 165.508 327.354 165.508C327.153 165.021 326.789 164.601 326.445 164.458C325.784 163.781 325.124 163.103 324.254 162.608C323.384 162.113 322.66 162.889 322.489 163.625Z" fill="#FF9DBA"/>
<path fill-rule="evenodd" clip-rule="evenodd" d="M329.911 182.714C330.038 183.708 330.441 184.682 331.006 185.589C331.026 185.867 330.998 186.259 331.018 186.536C331.049 187.76 331.147 189.146 331.618 190.283C332.021 191.257 333.291 191.111 333.623 190.307C334.166 189.321 334.249 188.145 334.562 187.064C334.685 186.442 334.808 185.82 334.816 185.151C334.844 184.759 334.737 184.042 334.88 183.697C335.192 182.616 334.932 181.297 333.67 180.774C333.441 180.679 333.211 180.584 332.867 180.441C331.491 179.87 329.631 181.117 329.911 182.714Z" fill="#FF9DBA"/>
<path fill-rule="evenodd" clip-rule="evenodd" d="M329.231 208.4C327.565 210.803 326.97 214.189 327.674 217.037C327.78 217.754 328.583 218.087 329.28 217.703C330.862 216.476 331.231 214.611 331.829 212.84C332.43 212.686 332.849 212.322 333.182 211.518C333.515 210.714 333.8 210.025 334.132 209.221C334.417 208.532 334.311 207.815 333.994 207.28C334.184 206.821 334.422 206.247 334.497 205.74C335.839 203.471 331.939 201.854 330.712 204.17C330.027 205.501 329.572 206.926 329.231 208.4Z" fill="#FF9DBA"/>
<path fill-rule="evenodd" clip-rule="evenodd" d="M317.497 232.865C317.05 233.622 316.603 234.378 316.433 235.115C316.262 235.851 316.646 236.548 317.477 236.489C320.064 236.082 321.845 233.726 322.909 231.477C323.052 231.132 323.08 230.74 323.06 230.463C324.002 228.836 324.648 226.95 324.577 225.172C324.498 224.063 323.371 223.865 322.627 224.364C322.627 224.364 322.627 224.363 322.512 224.316C320.625 225.955 320.086 228.557 318.562 230.616C318.305 230.913 318.048 231.21 317.791 231.507C317.553 232.081 317.525 232.473 317.497 232.865Z" fill="#FF9DBA"/>
<path fill-rule="evenodd" clip-rule="evenodd" d="M302.487 251.932C302.697 251.75 303.021 251.615 303.231 251.433L303.346 251.481C304.988 251.085 306.293 249.878 307.552 248.785C308.268 248.678 308.964 248.294 309.297 247.49C309.392 247.261 309.487 247.031 309.629 246.686C310.532 244.504 307.807 242.971 306.244 244.475C303.981 244.748 302.525 246.969 300.685 248.493C300.522 248.561 300.313 248.743 300.265 248.858C298.263 250.449 300.465 253.246 302.487 251.932Z" fill="#FF9DBA"/>
<path fill-rule="evenodd" clip-rule="evenodd" d="M284.449 262.078C284.144 262.489 283.772 262.739 283.467 263.151C282.628 263.879 283.348 265.388 284.483 264.917C285.876 264.149 287.154 263.334 288.48 262.404C290.264 261.664 292.029 260.646 293.152 259.229C294.486 257.629 292.516 256.543 291.199 256.804L291.037 256.871C290.875 256.939 290.712 257.006 290.712 257.006C290.388 257.141 290.226 257.208 289.901 257.342C289.624 257.362 289.348 257.382 289.023 257.516C287.563 258.122 286.218 258.775 285.007 259.753C283.986 260.271 283.951 261.333 284.449 262.078Z" fill="#FF9DBA"/>
<path fill-rule="evenodd" clip-rule="evenodd" d="M267.962 273.672C268.029 273.834 268.029 273.834 268.144 273.882C268.049 274.112 268.116 274.274 268.021 274.504C267.918 275.403 269.065 275.879 269.627 275.17C270.304 274.509 270.818 273.915 271.447 273.368C272.63 272.782 273.517 271.939 274.221 270.886C274.85 270.339 275.365 269.745 275.946 269.314C277.395 267.762 275.327 265.29 273.495 266.145C271.176 267.201 269.633 268.983 267.793 270.507C266.792 271.303 266.91 272.967 267.962 273.672Z" fill="#FF9DBA"/>
<path fill-rule="evenodd" clip-rule="evenodd" d="M257.798 286.547C257.362 288.25 257.271 290.095 257.065 291.894C256.993 294.016 259.955 294.976 260.696 292.861C261.218 291.598 262.208 289.855 261.556 288.509C261.441 288.461 261.488 288.346 261.374 288.299C261.647 286.663 262.589 285.035 262.633 283.305C262.725 281.459 260.545 280.555 259.307 281.925C258.393 283.161 258.072 284.911 257.798 286.547Z" fill="#FF9DBA"/>
<path fill-rule="evenodd" clip-rule="evenodd" d="M255.426 307.225C255.37 308.009 255.477 308.726 255.584 309.443C255.73 310.715 256.267 312.014 257.177 313.064C258.814 314.954 261.694 313.188 260.868 310.962C260.398 309.825 260.711 308.744 259.963 307.627L259.849 307.579C259.79 306.747 259.798 306.078 259.252 305.448C259.252 305.448 259.252 305.448 259.185 305.286C258.667 304.264 257.195 303.923 256.491 304.976C255.977 305.57 255.462 306.164 255.426 307.225Z" fill="#FF9DBA"/>
<path fill-rule="evenodd" clip-rule="evenodd" d="M264.028 324.112C263.933 324.341 264 324.504 264.02 324.781C263.506 325.375 263.335 326.112 263.509 326.991C264.038 328.959 265.446 330.754 266.672 332.339C267.649 333.551 269.104 335.231 270.737 335.505C271.244 335.58 271.711 335.101 271.624 334.661C271.403 333.897 270.952 333.037 270.454 332.292C270.853 331.651 271.004 330.637 270.391 329.845C269.079 327.82 268.031 324.83 265.975 323.304C265.314 322.627 264.179 323.098 264.028 324.112Z" fill="#FF9DBA"/>
<path fill-rule="evenodd" clip-rule="evenodd" d="M276.316 345.083C276.747 345.665 277.341 346.18 277.886 346.81C278.001 346.858 278.001 346.858 278.068 347.02C279.092 348.118 280.164 349.1 281.141 350.313C281.39 350.685 281.572 350.895 281.821 351.267C283.383 353.664 286.92 350.96 285.311 348.678C285.176 348.354 284.88 348.096 284.631 347.724C284.018 346.931 283.405 346.139 282.677 345.299C281.835 344.412 280.945 343.639 280.15 342.637C279.786 342.217 279.328 342.026 278.889 342.113C276.871 341.142 275.138 343.384 276.316 345.083Z" fill="#FF9DBA"/>
<path fill-rule="evenodd" clip-rule="evenodd" d="M285.46 351.241C285.531 353.019 286.155 354.758 286.942 356.43C286.926 357.769 287.186 359.088 287.285 360.474C287.308 362.367 289.982 362.4 290.781 361.117C292.051 360.971 293.242 359.716 292.523 358.206C291.313 355.283 290.159 351.575 286.995 350.129C286.078 349.748 285.354 350.524 285.46 351.241Z" fill="#FF9DBA"/>
</svg>
