<svg width="70" height="65" viewBox="0 0 70 65" fill="none" xmlns="http://www.w3.org/2000/svg">
<path fill-rule="evenodd" clip-rule="evenodd" d="M2.81863 0.827769C2.87607 0.539359 2.76058 0.366427 2.81803 0.0780174C3.48102 -0.239712 3.48161 0.510057 3.91423 0.596224C4.34684 0.68239 4.63526 0.739827 5.2408 0.710511C5.06847 1.57574 4.57901 2.52772 5.30063 3.42109C5.41612 3.59401 5.21447 3.8537 5.15702 4.14212C5.15821 5.64162 5.1594 7.14112 5.16059 8.64062C5.16178 10.1401 5.30717 11.6683 5.04868 12.9662C4.70401 14.6967 5.13781 16.2824 4.93735 18.0416C4.85118 18.4742 4.93794 18.7913 4.70757 19.1952C4.21811 20.1472 4.91041 20.435 5.54528 21.0112C4.73808 21.3002 4.16185 21.9351 3.98952 22.8003C4.42213 22.8865 4.85475 22.9727 5.28737 23.0588C5.31669 23.6644 6.06704 24.4135 5.2024 24.9909C5.02947 25.1064 4.97202 25.3948 5.11623 25.4236C5.98265 27.0954 5.29213 29.0568 5.69721 30.7867C6.21778 32.6895 6.42122 34.6791 6.62465 36.6686C6.76946 37.4471 6.45291 38.2836 6.42479 39.1776C6.79996 39.5522 7.49226 39.84 7.17572 40.6765C6.97467 41.6859 6.77362 42.6954 7.0339 43.6468C7.06322 44.2523 6.97705 44.6849 6.60247 45.0601C6.42954 45.1756 6.45886 45.7811 6.57435 45.9541C7.35341 46.559 7.41145 47.0203 7.06619 48.0011C6.83582 48.405 6.98062 49.1834 7.15414 49.8177C7.32766 50.452 7.50119 51.0862 7.64599 51.8647C7.15593 52.0669 6.83879 52.1537 6.34873 52.3559C6.5797 52.7018 6.69518 52.8747 7.07036 53.2493C6.66706 53.7687 6.11954 54.2594 5.68752 54.923C4.50515 54.8374 3.81285 54.5495 3.61001 53.3097C3.46521 52.5313 3.1762 51.7241 3.00268 51.0898C2.54015 49.6483 2.22183 48.2356 2.36484 46.7648C2.47914 45.4383 2.4205 44.2272 2.21766 42.9874C2.07286 42.2089 1.92806 41.4304 2.21588 40.7381C2.2446 40.5939 2.30205 40.3055 2.30205 40.3055C2.12852 39.6712 1.92628 39.1811 1.57983 38.6624C1.23338 38.1436 2.0693 37.7103 1.60737 37.0186C1.00123 36.2982 1.05807 35.2601 0.941988 34.3374C0.797188 33.5589 1.28666 32.6069 0.536312 31.8578C0.708646 30.9925 0.131233 30.1279 0.88039 29.3775C1.45662 28.7427 0.331692 28.3687 0.590786 27.8206C0.849881 27.2725 0.647637 26.7824 0.445392 26.2923C0.242552 25.0525 -0.2487 23.7553 0.154005 22.4861C0.240172 22.0535 0.441817 21.7939 0.527983 21.3612C0.585427 21.0728 0.642872 20.7844 0.671594 20.6402C-0.338441 19.6894 0.151028 18.7374 0.207878 17.6993C0.178561 17.0937 1.12996 16.8334 0.668027 16.1417C0.465783 15.6516 0.436466 15.0461 0.23422 14.556C-0.0260633 13.6046 0.00206394 12.7107 0.0876353 11.5283C0.259374 9.91332 0.575323 8.32704 0.574133 6.82754C0.544222 5.47225 0.831439 4.03021 1.08994 2.73235C1.11866 2.58815 1.32031 2.32848 1.32031 2.32848C2.32975 2.52953 1.57881 1.03062 2.32856 1.03003C2.50148 0.914547 2.67442 0.799047 2.81863 0.827769C3.04959 1.17363 2.44464 1.9527 3.65573 1.89407C3.28055 1.51949 3.04959 1.17363 2.81863 0.827769ZM2.45237 11.6994C2.59658 11.7282 2.74079 11.7569 2.74079 11.7569L2.6253 11.584L2.45237 11.6994Z" fill="#C79BFD"/>
<path fill-rule="evenodd" clip-rule="evenodd" d="M66.8407 35.7817C66.7895 35.254 66.7175 34.9332 66.6454 34.6124C67.2149 34.1475 68.3214 34.5728 68.8397 33.5801C68.8397 33.5801 69.4604 33.6429 69.6463 33.8707C69.8323 34.0985 69.9974 34.5331 69.9765 34.74C69.8417 35.0399 69.593 35.4328 69.3443 35.8257C68.7539 36.4975 67.9566 37.1484 67.9451 38.2968C67.8824 38.9175 67.199 39.4754 66.8364 39.9613C66.246 40.6331 65.5417 41.398 64.8583 41.956C64.2888 42.4209 63.8332 42.7929 63.6566 43.5065C63.6148 43.9203 63.1592 44.2923 62.9315 44.4783C62.2481 45.0362 61.3578 45.5733 60.9534 46.4729C60.8185 46.7728 60.3839 46.9379 60.0631 47.01C58.945 47.733 58.945 47.733 58.2919 49.0255C57.9711 49.0976 57.4643 48.9419 57.3504 49.0349C57.0087 49.3139 57.039 50.0484 56.3254 49.8718C56.2324 49.7579 55.8907 50.0369 55.9837 50.1508C56.2929 51.2271 55.0098 51.5154 54.7193 52.3221C54.5217 53.2426 52.8154 52.5477 52.9899 53.9238C52.3065 54.4818 51.644 54.8328 51.1466 55.6186C51.0327 55.7116 50.4121 55.6489 49.9983 55.6071C50.0495 56.1347 50.4005 56.7972 49.552 56.9205C49.4475 57.955 48.4642 58.3781 47.667 59.0291C46.8697 59.68 46.1445 60.6517 44.8823 60.7332C44.4685 60.6914 44.4267 61.1051 44.3848 61.5189L44.3639 61.7258C43.9083 62.0978 43.1226 61.6004 43.039 62.4279C42.9972 62.8417 42.7276 63.4415 42.6858 63.8553C41.1654 63.3881 40.0264 64.3181 38.7642 64.3995C38.5991 63.9649 38.527 63.6441 38.4758 63.1164C38.3317 62.4748 38.3014 61.7402 39.3358 61.8448C39.5334 60.9242 40.4237 60.3872 41.0141 59.7153C42.9409 57.193 45.7466 55.2819 47.5805 52.6457C47.9431 52.1599 48.4916 51.9018 48.9472 51.5298C49.4028 51.1579 50.0653 50.8068 50.221 50.3C50.5533 49.0796 51.5366 48.6564 52.6338 48.1403C52.7477 48.0473 53.1824 47.8822 53.2033 47.6753C53.2148 46.527 54.219 45.8969 54.9233 45.1321C55.7415 44.2742 56.8386 43.7581 57.3779 42.5586C57.5336 42.0518 58.0821 41.7937 58.5168 41.6287C60.4322 40.2547 62.1825 38.446 63.7258 36.6164C64.5231 35.9655 65.5064 35.5424 66.8407 35.7817ZM66.104 37.9017L66.011 37.7879L65.8971 37.8809L65.9901 37.9947C66.0831 38.1086 65.9901 37.9947 66.104 37.9017Z" fill="#C79BFD"/>
<path fill-rule="evenodd" clip-rule="evenodd" d="M33.696 52.5138C33.0601 51.8352 32.5535 51.2266 31.5677 51.1946C31.7883 50.4781 32.3375 49.7722 32.2189 49.3736C31.8523 48.5064 33.0481 48.1505 32.6815 47.2833C32.4335 46.8147 32.9234 45.9095 32.9448 45.2522C33.0361 44.4657 33.1867 43.8785 33.8546 43.5712C34.1239 43.3825 34.4632 43.0646 34.4738 42.736C34.3765 41.6801 34.8664 40.7749 35.227 39.7997C35.297 39.6704 35.1084 39.4012 35.1784 39.2718C35.6576 38.6953 36.4655 38.1294 36.4868 37.4721C36.5781 36.6856 36.1415 35.9477 36.6908 35.2418C37.8592 33.7007 37.9232 31.729 38.5044 30.0373C39.5269 26.9124 40.4201 23.7176 42.0298 20.7434C42.4878 20.824 42.7464 20.964 43.075 20.9747C43.4736 20.856 43.3549 20.4574 43.2363 20.0588C42.751 18.793 42.6217 18.723 43.4296 18.1571C43.9682 17.7798 44.5767 17.2732 44.7973 16.5567C44.9373 16.2981 45.5352 16.1201 45.8638 16.1307C46.5211 16.1521 46.769 16.6207 46.7477 17.2779C46.705 18.5924 46.7917 19.9768 46.2212 21.3399C45.9305 22.1858 45.6399 23.0317 45.4193 23.7482C45.3386 24.2062 45.1287 24.5941 44.9187 24.982C44.3695 25.6879 44.0089 26.6631 43.7183 27.509C43.207 29.0714 42.1785 30.3539 41.9259 32.0563C41.8346 32.8428 41.0267 33.4087 40.4775 34.1146C40.7954 34.4539 41.4527 34.4752 41.232 35.1918C40.9414 36.0377 40.3542 35.887 39.627 35.995C40.8075 38.1387 39.569 39.809 38.4005 41.3501C37.9213 41.9267 37.4527 42.1747 37.4907 43.0312C37.4587 44.0171 36.7102 44.7823 35.913 45.0196C35.6223 45.8654 36.7862 46.4954 36.1669 47.3306C35.7577 47.7778 35.7257 48.7637 35.3864 49.0816C34.8478 49.4589 35.3544 50.0675 34.9451 50.5147C34.5572 50.3048 33.97 50.1541 33.582 49.9442C33.0221 50.9787 33.9273 51.4686 33.696 52.5138ZM35.353 46.0541C35.2237 45.9841 35.0244 46.0434 34.8951 45.9735C34.8844 46.3021 34.6745 46.69 34.6638 47.0186C34.9925 47.0293 35.1218 47.0993 35.4504 47.1099C35.2617 46.8407 35.2724 46.512 35.353 46.0541ZM45.4393 19.0776C45.24 19.137 45.0407 19.1963 44.9114 19.1263C44.9707 19.3256 45.03 19.5249 45.0893 19.7242C45.2186 19.7942 45.4179 19.7349 45.6172 19.6755C45.4879 19.6055 45.4286 19.4063 45.4393 19.0776ZM44.2828 24.3035C44.2828 24.3035 44.3528 24.1742 44.2235 24.1042L44.0942 24.0342C44.0242 24.1635 44.1535 24.2335 44.0835 24.3628C44.2128 24.4328 44.2128 24.4328 44.2828 24.3035Z" fill="#C79BFD"/>
<path fill-rule="evenodd" clip-rule="evenodd" d="M23.6286 11.1681C25.2817 11.785 25.8163 12.4553 25.9047 13.9007C26.063 16.0001 25.4296 18.1179 24.8477 20.0979C24.4713 21.5269 24.3706 23.0587 23.4432 24.2821C22.705 25.4191 23.0689 26.9674 22.9332 28.1723C22.9003 29.1016 23.0565 29.9447 22.9372 30.6849C22.9208 31.1496 22.491 31.46 22.2854 32.0111C22.4067 32.5271 22.8899 33.3352 22.6843 33.8862C22.3758 34.7128 22.4806 35.6936 22.0344 36.4687C21.6396 37.1061 21.5718 37.7085 21.7794 38.4138C21.9357 39.2568 21.6272 40.0834 21.6457 40.875C21.508 40.8236 21.0618 41.5987 20.9076 42.012C20.6505 42.7008 20.3071 43.2004 19.9987 44.027C19.2235 43.5808 18.5861 43.186 17.8973 42.929C17.7925 41.9482 17.774 41.1566 17.6692 40.1758C18.1853 40.0545 18.7014 39.9332 19.1311 39.6227C18.7178 39.4685 18.4937 39.228 18.0804 39.0737C18.0949 37.3528 18.0579 35.7695 18.1587 34.2377C18.2595 32.7059 18.3603 31.1741 18.3233 29.5909C18.2699 28.4723 19.2322 27.5759 18.9032 26.3545C19.6394 23.9612 19.1707 21.4322 20.5093 19.1067C20.6121 18.8312 20.8526 18.6071 20.9555 18.3316C21.196 18.1075 21.3852 18.0211 21.1611 17.7805C20.5751 17.248 20.8321 16.5592 21.0378 16.0081C21.7924 14.4064 22.0474 12.4614 23.6286 11.1681ZM19.5999 42.1518L19.7376 42.2032L19.6512 42.0141L19.5999 42.1518Z" fill="#C79BFD"/>
</svg>
