<svg width="74" height="123" viewBox="0 0 74 123" fill="none" xmlns="http://www.w3.org/2000/svg">
<path fill-rule="evenodd" clip-rule="evenodd" d="M1.05259 44.3287C1.10084 43.5108 0.864013 43.4116 1.00655 43.0523C1.29272 41.2864 2.71586 39.7874 3.75854 39.5955C5.93818 39.6705 8.26036 39.386 10.44 39.4609C12.6196 39.5359 14.6568 39.9701 16.9789 39.6857C18.2113 39.3638 18.7781 41.0679 18.3022 42.9638C17.6839 45.219 16.5929 46.2287 15.1238 46.4514C13.8443 46.544 12.5648 46.6366 11.2381 46.5C11.0013 46.4008 10.6219 46.6609 10.3851 46.5617C8.25483 44.6218 5.22109 45.6557 2.5678 45.3824C2.04702 44.9548 1.52623 44.5271 1.05259 44.3287Z" fill="#FF9DBA"/>
<path fill-rule="evenodd" clip-rule="evenodd" d="M23.0333 5.97364C22.8907 6.33298 23.0322 7.02081 22.7471 7.73948C21.8447 9.66625 20.3745 10.9361 19.1904 10.4401C18.0534 10.1734 16.6796 9.80742 15.638 8.95208C14.3596 7.99755 12.9387 7.40233 11.4224 7.39574C9.95321 7.61842 8.95879 6.99237 7.91721 6.13703C7.11246 5.38089 6.7342 4.59388 7.20895 3.74513C8.1113 1.81837 9.15509 0.579417 10.2449 0.616879C11.1451 0.784407 12.0923 1.18119 13.3247 0.859306C13.9409 0.69837 14.4617 1.12605 14.9824 1.55372C15.7872 2.30986 16.5448 2.83673 17.7772 2.51485C18.9141 2.78158 22.3711 4.85817 23.0333 5.97364Z" fill="#FF9DBA"/>
<path fill-rule="evenodd" clip-rule="evenodd" d="M31.4623 106.926C31.5577 106.337 31.4163 105.649 31.5588 105.29C32.129 103.852 32.6991 102.415 33.3164 101.207C34.7878 98.89 36.0223 96.4738 37.2098 93.8284C37.7799 92.391 38.7765 90.9228 39.7732 89.4546C40.2951 88.8351 40.9113 88.6741 41.1952 89.0026C42.0471 89.988 42.7565 91.3328 42.091 93.3587C41.0921 96.9212 39.4299 100.415 37.247 103.482C35.9181 105.44 34.2582 106.84 32.3625 107.093C31.9831 107.353 31.6992 107.025 31.4623 106.926Z" fill="#FF9DBA"/>
<path fill-rule="evenodd" clip-rule="evenodd" d="M68.9219 119.69C68.1183 117.886 67.9309 115.922 67.9331 113.828C68.0778 111.374 67.9857 108.821 68.1305 106.368C68.227 104.732 68.8914 103.753 70.2663 103.072C70.8353 102.682 71.4986 102.75 71.4504 103.568C71.7321 105.991 72.4404 108.382 72.1531 111.195C72.0084 113.649 72.4798 115.942 72.9512 118.234C73.2812 119.839 72.9479 121.376 72.3789 121.766C71.4305 122.416 70.9097 121.989 70.1521 121.462C69.5842 120.805 69.2059 120.018 68.9219 119.69Z" fill="#FF9DBA"/>
<path fill-rule="evenodd" clip-rule="evenodd" d="M18.7811 77.9483C19.4926 77.1987 20.2042 76.4492 21.1055 75.5696C21.6745 75.1793 22.101 75.1485 22.4321 75.7062C22.7632 76.2639 23.0472 76.5924 23.1886 77.2802C23.5197 77.838 23.2818 78.7859 22.9496 79.2753C22.2851 80.2541 21.6679 81.4622 20.7666 82.3419C19.5332 83.7109 18.4422 84.7206 17.1616 85.8603C16.2604 86.7399 15.3602 86.5724 14.4601 86.4049C13.7968 86.3365 13.3714 85.3203 13.8461 84.4715C14.7956 82.774 15.6026 81.4359 16.7889 79.8376C17.3108 79.2181 18.0695 78.6978 18.7811 77.9483Z" fill="#FF9DBA"/>
</svg>
