<svg width="244" height="384" viewBox="0 0 244 384" fill="none" xmlns="http://www.w3.org/2000/svg">
<path fill-rule="evenodd" clip-rule="evenodd" d="M13.886 366.176C13.9549 366.962 13.8319 367.643 13.9009 368.429C13.0974 368.987 12.4679 370.14 12.5188 371.415C12.4796 375.134 13.3488 378.103 15.3871 381.212C15.579 381.316 15.579 381.316 15.6659 381.613C16.0316 382.312 16.799 382.731 17.4795 382.854C18.5077 384.163 20.8819 383.465 21.2327 381.911C22.1411 381.161 22.5788 379.903 21.9524 378.314C21.1701 375.642 20.5797 373.075 19.7974 370.403C19.6236 369.81 19.3448 369.408 19.066 369.006C18.5265 367.714 17.9869 366.422 17.1506 365.216C16.2274 363.715 14.0449 364.517 13.886 366.176Z" fill="#FF9DBA"/>
<path fill-rule="evenodd" clip-rule="evenodd" d="M12.787 334.899C12.856 335.685 12.838 336.174 13.1167 336.576C13.4464 338.252 13.9679 340.034 14.2976 341.71C14.8191 343.491 16.1621 344.225 17.628 344.278C18.3954 344.697 19.0939 344.33 19.7054 343.667C20.9106 342.829 21.837 341.589 21.4204 339.616C21.3515 338.83 21.2826 338.044 21.2137 337.259C21.4595 335.897 21.6005 334.727 21.6545 333.26C21.6576 330.518 18.0814 329.313 16.3516 331.111L16.2467 331.303C14.379 331.53 12.7722 332.647 12.787 334.899Z" fill="#FF9DBA"/>
<path fill-rule="evenodd" clip-rule="evenodd" d="M16.158 285.868C14.5809 291.49 11.133 300.081 14.844 305.6C15.4015 306.403 16.5706 306.543 16.9904 305.775C17.8118 304.727 18.3365 303.767 18.7742 302.51C19.071 302.423 19.4727 302.143 19.6826 301.759C21.9911 297.534 21.5087 292.033 22.3693 287.266C23.2988 283.285 17.2793 281.991 16.158 285.868Z" fill="#FF9DBA"/>
<path fill-rule="evenodd" clip-rule="evenodd" d="M22.2287 259.254C21.2123 262.938 26.6202 264.895 28.404 261.63C29.7681 259.133 31.2372 256.444 32.4094 253.843C32.8292 253.074 32.8471 252.585 32.7782 251.8C34.1603 248.814 35.3506 245.723 35.5636 242.597C35.6176 241.131 33.6991 240.082 32.494 240.92C26.6781 244.726 23.8238 253.142 22.2287 259.254Z" fill="#FF9DBA"/>
<path fill-rule="evenodd" clip-rule="evenodd" d="M44.9941 204.36C43.3152 207.433 41.7412 210.314 40.0623 213.387C38.9081 215.499 39.9002 217.787 41.9237 218.643C42.0795 219.726 43.4225 220.46 44.4358 219.517C44.8375 219.237 45.1523 218.661 45.554 218.382C49.2564 216.165 51.7747 211.555 52.1286 207.26C52.3385 206.876 52.3565 206.387 52.1827 205.793C52.0449 204.221 51.907 202.65 51.2806 201.06C50.6541 199.471 48.8225 198.72 47.5993 200.047C46.7779 201.094 46.2533 202.055 45.8155 203.312C45.4138 203.591 45.2039 203.975 44.9941 204.36Z" fill="#FF9DBA"/>
<path fill-rule="evenodd" clip-rule="evenodd" d="M47.1015 163.112C47.1015 163.112 47.2933 163.217 47.1884 163.409C47.4311 164.788 48.1625 166.186 48.5971 167.67L48.4922 167.862C48.4742 168.351 48.4562 168.84 48.5431 169.137C48.8368 171.791 48.9386 174.341 49.634 176.716C50.7459 181.064 57.6408 179.843 57.2094 175.617C56.8828 171.199 57.1921 160.146 51.0497 159.533C50.666 159.323 50.1774 159.306 49.6887 159.288C47.8391 159.026 45.7076 161.104 47.1015 163.112Z" fill="#FF9DBA"/>
<path fill-rule="evenodd" clip-rule="evenodd" d="M24.652 137.632C24.3192 138.697 24.7539 140.181 25.6082 140.897C28.9206 143.954 33.1773 145.282 35.3715 149.473C37.6886 152.984 42.5601 150.907 42.4943 147.38C42.7041 146.995 42.6172 146.699 42.6353 146.21C41.871 143.049 41.0018 140.08 38.3339 138.124C37.0958 137.198 35.7348 136.953 34.5477 137.302C32.7341 136.062 30.7107 135.206 28.966 134.751C27.9018 134.419 26.226 134.751 25.7014 135.711C25.1767 136.671 24.9668 137.056 24.652 137.632Z" fill="#FF9DBA"/>
<path fill-rule="evenodd" clip-rule="evenodd" d="M0.957262 148.627C-0.42486 151.613 2.93843 155.944 5.96029 153.605C6.36201 153.326 6.7637 153.046 7.16542 152.767C8.63132 152.82 9.64461 151.877 9.5937 150.602C9.80357 150.218 10.0134 149.834 10.2233 149.45C10.4332 149.066 10.3463 148.769 10.3643 148.28C10.6611 148.193 11.2546 148.018 11.5514 147.931C11.5514 147.931 11.8482 147.844 12.3368 147.861C12.9304 147.687 13.3321 147.407 13.7338 147.128C14.9569 145.801 15.029 143.845 13.704 142.623C12.5709 141.505 11.6117 140.981 9.65713 140.91C7.99937 140.753 6.68932 141.783 5.37925 142.813C3.0919 143.808 2.02457 146.217 0.957262 148.627Z" fill="#FF9DBA"/>
<path fill-rule="evenodd" clip-rule="evenodd" d="M0.499495 169.073C0.550401 170.348 1.08997 171.64 1.73444 172.741C2.63967 174.731 4.34828 176.164 5.97002 177.299C8.65595 178.767 11.6778 176.427 11.681 173.686C11.7859 173.494 11.699 173.197 11.5072 173.092C11.5072 173.092 11.6121 172.9 11.4202 172.795C11.0725 171.607 10.7248 170.42 9.59174 169.302C9.12111 168.796 8.73743 168.586 8.05694 168.464C7.8831 167.87 7.70924 167.276 7.43047 166.874C6.59415 165.669 5.52994 165.337 4.48376 164.516C3.62943 163.8 1.84872 164.324 1.51593 165.389C0.973261 166.838 0.448596 167.798 0.499495 169.073Z" fill="#FF9DBA"/>
<path fill-rule="evenodd" clip-rule="evenodd" d="M18.8285 194.802C20.606 197.02 23.9036 197.824 26.6435 197.824C27.9176 197.772 29.3146 197.039 29.9442 195.887C30.3639 195.119 30.6787 194.542 30.9065 193.669C31.764 191.644 29.7766 189.81 28.1368 189.163C27.0726 188.831 26.1134 188.307 25.0492 187.975C24.4736 187.661 23.6882 187.73 23.1996 187.713C23.0257 187.119 22.7469 186.717 23.0077 187.608C22.8339 187.014 22.5551 186.613 22.0845 186.106C21.2302 185.39 19.8692 185.145 19.0657 185.704C15.6422 188.322 16.4753 192.269 18.8285 194.802Z" fill="#FF9DBA"/>
<path fill-rule="evenodd" clip-rule="evenodd" d="M76.3518 208.522C75.3894 210.74 77.2359 213.744 80.4825 213.273C80.6744 213.378 80.7793 213.186 81.0761 213.098C83.5012 213.675 85.8575 213.466 88.4236 212.873C91.8801 212.018 94.7101 209.574 97.609 207.916C99.4077 206.903 98.6435 203.742 96.3921 203.759C93.7391 204.056 90.8942 204.247 88.2231 205.032C87.3328 205.294 86.4424 205.556 85.3602 205.713C84.6797 205.59 83.9993 205.468 83.5107 205.45C82.6383 205.223 81.661 205.188 80.7887 204.961C78.4864 203.703 76.6337 206.182 76.3518 208.522Z" fill="#FF9DBA"/>
<path fill-rule="evenodd" clip-rule="evenodd" d="M123.283 175.056C122.32 177.274 120.974 179.281 119.925 181.202C119.4 182.162 118.771 183.315 118.246 184.275C116.147 188.116 121.903 191.261 124.194 187.524C127.114 182.636 136.095 172.579 130.43 166.99C129.767 166.379 128.598 166.239 127.9 166.605C124.983 168.752 124.665 172.07 123.283 175.056Z" fill="#FF9DBA"/>
<path fill-rule="evenodd" clip-rule="evenodd" d="M136.227 134.493C135.37 136.518 136.083 138.404 137.513 139.435C137.354 141.094 139.273 142.142 140.688 140.92C143.326 138.371 144.708 135.385 146.003 132.103C146.441 130.845 146.18 129.955 145.623 129.151C146.027 126.13 145.752 122.987 144.481 120.298C143.941 119.005 141.987 118.935 141.165 119.983C137.601 123.771 138.554 129.778 136.227 134.493Z" fill="#FF9DBA"/>
<path fill-rule="evenodd" clip-rule="evenodd" d="M137.761 90.1904C137.827 93.7178 138.87 97.2804 140.42 100.372C142.527 104.266 148.307 101.438 147.282 97.387C147.021 96.4963 146.847 95.9025 146.97 95.2215C147.198 94.3484 147.339 93.1785 147.95 92.5151C149 90.5945 148.094 88.6035 146.473 87.4681C146.089 87.2585 145.705 87.0489 145.13 86.7344C144.923 84.3769 144.123 82.194 142.624 80.3776C141.491 79.2597 139.71 79.7832 139.081 80.9356C137.42 83.5197 137.572 87.344 137.761 90.1904Z" fill="#FF9DBA"/>
<path fill-rule="evenodd" clip-rule="evenodd" d="M136.181 53.4135C136.073 56.3471 138.48 57.4128 140.749 56.9069C141.901 57.5358 142.878 57.571 144.326 58.1126C144.901 58.4271 145.531 57.2747 144.955 56.9602C144.293 56.3489 144.032 55.4583 143.771 54.5677L143.876 54.3756C144.209 53.3105 144.455 51.9484 144.212 50.5688C144.899 45.208 145.796 39.4631 143.131 34.7652C142.399 33.368 140.532 33.5946 139.797 34.9391C136.284 40.0024 136.397 47.5462 136.181 53.4135Z" fill="#FF9DBA"/>
<path fill-rule="evenodd" clip-rule="evenodd" d="M143.557 12.554C143.116 16.5528 149.048 17.5495 150.832 14.2844C153.456 9.48283 154.508 4.82061 155.195 -0.540199C155.372 -2.68803 153.174 -4.13792 151.549 -2.53172C150.431 -1.3969 149.61 -0.349338 148.683 0.890298C148.387 0.977557 147.985 1.25689 147.775 1.64101C145.311 4.78371 143.998 8.55526 143.557 12.554Z" fill="#FF9DBA"/>
<path fill-rule="evenodd" clip-rule="evenodd" d="M166.596 -36.4572C166.491 -36.2651 166.387 -36.0731 166.282 -35.881C165.547 -34.5366 164.708 -33.0001 163.973 -31.6556C163.134 -30.1191 163.376 -28.7395 164.318 -27.7265C164.213 -27.5344 164.213 -27.5345 164.3 -27.2376C164.159 -26.0676 165.885 -25.1243 166.794 -25.875C166.899 -26.0671 167.09 -25.9622 167.195 -26.1543C168.556 -25.9095 169.848 -26.4506 170.688 -27.9871C172.682 -31.6363 176.036 -35.0408 175.902 -39.354C175.938 -40.3319 175.083 -41.048 174.106 -41.0831C171.366 -41.0837 169.462 -39.8793 167.924 -37.9762C167.331 -37.8017 167.016 -37.2255 166.596 -36.4572Z" fill="#FF9DBA"/>
<path fill-rule="evenodd" clip-rule="evenodd" d="M193.363 -61.7378C197.17 -64.1468 201.727 -65.6476 203.373 -70.4843C203.915 -71.9336 202.905 -73.7325 201.562 -74.4662C200.411 -75.0951 199.329 -74.9382 198.334 -74.4843C197.164 -74.6243 195.872 -74.0833 195.243 -72.9309C193.897 -70.923 191.591 -69.4392 189.688 -68.2347C185.671 -65.4415 189.45 -59.1368 193.363 -61.7378Z" fill="#FF9DBA"/>
<path fill-rule="evenodd" clip-rule="evenodd" d="M230.023 -87.3454C232.397 -88.0434 234.684 -89.0383 236.972 -90.0332C238.648 -90.3646 239.94 -90.9057 241.441 -91.8308C245.249 -94.2398 242.725 -100.108 238.378 -98.9911C238.081 -98.9038 237.68 -98.6245 237.383 -98.5373C233.753 -98.2761 230.242 -95.9543 227.046 -94.2088C222.96 -92.2015 225.868 -86.1239 230.023 -87.3454Z" fill="#FF9DBA"/>
</svg>
