<svg width="44" height="52" viewBox="0 0 44 52" fill="none" xmlns="http://www.w3.org/2000/svg">
<path d="M34.5954 4.80483C33.728 4.41737 32.4879 4.1656 31.7148 4.21841C31.3265 4.24346 31.2241 4.27143 30.9136 4.42911C30.7065 4.53228 30.5382 4.64441 30.5106 4.69346C30.4312 4.8433 30.5305 5.08026 30.7443 5.24426C30.9041 5.37097 30.9959 5.40552 31.3702 5.47853C31.7446 5.55154 31.8145 5.55239 31.8814 5.47992C31.9953 5.36288 32.2417 5.23629 32.4751 5.18123C32.758 5.11083 33.1042 5.15058 33.4106 5.28436C33.6345 5.37998 33.6986 5.42536 33.8294 5.58358C34.0166 5.80832 34.0439 5.94458 33.9276 6.07062C33.7676 6.24391 33.6579 6.22241 33.3823 5.96581C33.1899 5.79145 33.1025 5.73305 32.9859 5.70616C32.8374 5.67569 32.4971 5.70611 32.4506 5.75652C32.439 5.76912 32.5542 5.89317 32.715 6.03157C33.0168 6.29805 33.116 6.45854 33.1523 6.73828C33.1797 6.98924 33.0436 7.21964 32.6243 7.62928C32.1816 8.06414 32.1192 8.18923 32.1512 8.56927C32.1748 8.84992 32.3208 9.15115 32.5624 9.41903L32.6742 9.54038L34.1997 7.86863C35.6728 6.2536 35.7247 6.19104 35.759 6.03269C35.8086 5.75558 35.7191 5.59733 35.3197 5.26437C35.0393 5.02576 34.8989 4.94176 34.5954 4.80483Z" fill="#6EA7E1"/>
<path d="M36.9568 6.64926C36.8529 6.62146 36.7184 6.60763 36.6587 6.61487C36.3797 6.65558 36.306 6.72266 34.809 8.31882C34.014 9.16731 33.3751 9.87219 33.3921 9.88567C33.4805 9.95577 34.131 9.95299 34.4775 9.88389C35.2044 9.73442 36.0275 9.21919 36.7168 8.47244C36.9117 8.26133 36.9597 8.22846 37.0767 8.22296C37.2349 8.21744 37.3428 8.29201 37.3808 8.44221C37.4081 8.54024 37.3888 8.57399 37.1532 8.82921L36.8943 9.10964L37.0866 9.13107C37.3875 9.16231 37.5668 9.25527 37.905 9.53971C38.1615 9.75944 38.2077 9.81788 38.202 9.90064C38.1881 10.0369 38.0916 10.1351 37.932 10.1613C37.8067 10.1821 37.7737 10.1668 37.5444 9.96865C37.401 9.84957 37.2256 9.72692 37.1504 9.7C37.078 9.66992 36.8266 9.66158 36.5902 9.68156C36.1898 9.71337 36.1558 9.72465 35.8061 9.94398C34.9612 10.4637 33.9915 10.6336 33.1937 10.3941L32.9495 10.3205L31.661 11.7164C30.9513 12.4852 30.3793 13.1176 30.3895 13.1257C30.4304 13.158 30.8304 13.2351 31.0057 13.243C31.1076 13.2474 31.4172 13.1928 31.6933 13.117C32.609 12.8715 32.8177 12.9006 33.7329 13.4023C34.5251 13.8393 35.0369 13.9612 35.4109 13.8048C35.6962 13.6872 35.7604 13.4325 35.6307 12.9478C35.4961 12.4428 35.0739 11.7644 34.7236 11.4867C34.5842 11.3762 34.522 11.3542 34.3992 11.366C34.3143 11.3751 34.2109 11.3531 34.1667 11.3181C34.0782 11.248 34.0376 10.9921 34.1016 10.9227C34.1801 10.8377 34.4873 10.792 34.6845 10.8337C35.2535 10.9573 35.9853 11.9575 36.2132 12.9293C36.2547 13.1204 36.3068 13.2873 36.3204 13.2981C36.3714 13.3385 36.85 13.2922 37.0135 13.2363C37.1304 13.1926 37.2347 13.1115 37.4354 12.8941C37.6681 12.6421 37.7015 12.5867 37.7197 12.4266C37.7596 12.109 37.5262 11.7494 36.9231 11.184C36.7953 11.0609 36.666 10.9202 36.6426 10.869C36.5842 10.7408 36.6612 10.5617 36.8029 10.5103C36.9106 10.4702 36.9271 10.4779 37.2478 10.743C37.9271 11.3087 38.3117 11.881 38.3113 12.328C38.3139 12.472 38.2627 12.6551 38.1852 12.8283C37.8778 13.474 37.206 13.8636 36.4385 13.8336C36.2254 13.8284 36.2162 13.832 36.0606 14.0197C35.5803 14.6102 34.5066 14.5612 33.4384 13.9C33.023 13.6417 32.7204 13.5164 32.5103 13.5081C32.4209 13.5027 32.1273 13.5592 31.8605 13.6314C31.5873 13.704 31.3073 13.7713 31.2384 13.7821C31.0156 13.8129 30.5088 13.7494 30.2276 13.6521L29.9595 13.5596L29.4389 14.1236C29.151 14.4356 28.9251 14.693 28.9319 14.6984C28.9761 14.7335 29.4904 14.5464 29.7077 14.4131C29.9827 14.2491 30.122 14.245 30.2324 14.387C30.3393 14.5263 30.2876 14.7036 30.1014 14.8288L29.9486 14.9369L30.2894 15.3652C30.5665 15.7158 30.7089 15.8615 31.0252 16.1122C31.3994 16.4087 31.4261 16.4245 31.6441 16.4499C32.0926 16.4999 32.4593 16.2176 32.7415 15.612C32.8674 15.3352 32.9381 15.2331 33.1117 15.0706C33.6974 14.5254 34.7069 14.4526 35.2982 14.9159C35.5057 15.0803 35.5169 15.1001 35.4918 15.2166C35.4667 15.3331 35.4492 15.352 35.3352 15.3926C35.261 15.4156 35.1532 15.4175 35.0974 15.395C34.6064 15.1804 34.4956 15.1473 34.283 15.1479C33.9243 15.1473 33.6677 15.2658 33.4549 15.5282C33.248 15.7843 33.2051 16.0285 33.2925 16.4252C33.4506 17.0961 34.0341 17.5423 34.769 17.5628C35.1093 17.5706 35.1258 17.5783 35.1881 17.715C35.2475 17.8548 35.1851 18.0181 35.0497 18.0691C34.763 18.1691 34.0891 18.0442 33.6631 17.8102C33.327 17.6256 33.0295 17.2971 32.8548 16.9185L32.7233 16.6397L32.5924 16.7433C32.2471 17.0152 31.6764 17.0976 31.2161 16.9455C30.981 16.8683 30.9106 16.8234 30.5918 16.5434C30.3688 16.3448 30.1355 16.0999 29.9711 15.8823C29.8248 15.6899 29.6401 15.4562 29.556 15.3622L29.4082 15.1905L28.3918 15.2579L27.8479 15.8471C27.1732 16.5781 26.7744 17.1187 26.5837 17.5677C26.5677 17.6041 26.6561 17.636 26.8755 17.679C27.2567 17.7574 27.619 17.9136 27.8809 18.1212C28.0713 18.2722 28.0844 18.2771 28.3023 18.2261C28.592 18.1611 28.8729 17.9909 29.1085 17.7357C29.3382 17.4867 29.4146 17.2636 29.3803 16.969C29.3538 16.7297 29.4415 16.6028 29.6429 16.5824C29.8191 16.5638 29.8808 16.6182 29.9442 16.8431C30.0568 17.2379 29.8996 17.708 29.5273 18.1113C29.2801 18.3792 29.106 18.4976 28.7596 18.6432C28.6276 18.6968 28.5243 18.7513 28.5219 18.7603C28.5258 18.7688 28.5793 18.8768 28.6401 18.9959C28.7886 19.2881 28.6844 19.4839 28.397 19.4634C28.2597 19.4527 28.2563 19.45 28.0442 19.1183C27.8502 18.8117 27.7977 18.7537 27.5071 18.5452C27.2331 18.3444 27.134 18.2986 26.8748 18.2349C26.7 18.1946 26.4946 18.1682 26.4097 18.1773L26.2587 18.1941L26.1993 18.3925C26.1239 18.6656 26.1797 19.0262 26.3426 19.3027C26.4462 19.4776 26.5687 19.6129 26.8564 19.8627C27.544 20.4514 27.862 20.5343 28.8093 20.3631C30.204 20.1155 30.3234 20.101 30.8681 20.1235C31.6676 20.157 31.9655 20.0767 32.5577 19.6458C32.7555 19.508 32.9598 19.408 33.2994 19.2952C33.8365 19.1153 34.0456 18.9973 34.4917 18.6034C34.6871 18.4364 34.9718 18.2364 35.2264 18.0946C35.9172 17.7036 36.3561 17.3749 36.7691 16.9275C37.025 16.6502 37.168 16.4634 37.2551 16.2924C37.3636 16.0728 37.4188 16.013 37.7384 15.737C38.2882 15.2562 38.5925 14.7607 38.684 14.1894C38.7139 14.0167 38.7611 13.7868 38.793 13.6757C38.8283 13.5672 38.8994 13.318 38.9559 13.1227C39.084 12.6841 39.0816 12.2784 38.9437 11.8472C38.8296 11.473 38.8337 11.2198 38.9672 10.8837C39.0142 10.7627 39.0751 10.5818 39.0993 10.4918C39.1882 10.1531 39.0437 9.53113 38.6825 8.67189C38.2735 7.69844 37.4987 6.7896 36.9568 6.64926ZM32.7733 17.7979C32.809 17.9571 32.6864 18.1983 32.4189 18.4882C31.939 19.008 31.1597 19.2142 30.2328 19.0634C29.8338 18.9981 29.7123 18.9127 29.7295 18.7026C29.7462 18.4867 29.8632 18.443 30.2661 18.5169C30.6885 18.5953 31.1846 18.5683 31.4985 18.4516C31.6892 18.379 31.7702 18.3232 31.9505 18.1278C32.0697 17.9986 32.2161 17.8145 32.2752 17.725C32.3702 17.5711 32.3944 17.5576 32.5095 17.5669C32.676 17.5843 32.7411 17.6414 32.7733 17.7979Z" fill="#6EA7E1"/>
<path d="M31.8717 6.19239C31.7114 6.1363 31.3598 6.03223 31.0899 5.95464C30.5018 5.7941 30.3056 5.68766 30.1038 5.40221C29.992 5.24263 29.9501 5.12212 29.9323 4.91163L29.9087 4.63099L29.6694 4.61589C29.1742 4.57806 28.6506 4.69228 28.1607 4.94231C27.9962 5.02476 27.707 5.13384 27.5178 5.18572C27.3281 5.23176 27.0307 5.35614 26.8546 5.45119C26.5606 5.6165 26.5015 5.66782 25.9072 6.2989C25.5605 6.66801 25.1795 7.04254 25.0631 7.13035C24.9467 7.21815 24.7697 7.37797 24.6708 7.4851C24.4265 7.74977 23.9334 8.56473 23.7655 8.98272C23.6789 9.19779 23.518 9.47408 23.3247 9.74096C22.9753 10.2279 22.8412 10.5199 22.7743 10.9306C22.7208 11.2757 22.627 11.5177 22.4419 11.8075C22.1648 12.2481 22.1152 12.6017 22.2587 13.2502C22.3701 13.7804 22.382 13.9971 22.3389 14.8797C22.3011 15.6736 22.3222 15.8867 22.4595 16.1974C22.7603 16.8669 23.7998 17.489 24.4749 17.4021C24.7918 17.3587 25.0722 17.2208 25.6891 16.8204C26.2246 16.4701 26.2484 16.4507 26.9338 15.7337L27.6343 15.0067L27.1339 14.6045C26.698 14.2536 26.5945 14.1552 26.3684 13.845C25.7373 12.9846 25.5863 12.172 25.9819 11.7435C26.0604 11.6584 26.0783 11.6071 26.0491 11.5622C25.911 11.3545 25.7201 10.8594 25.6683 10.5837C25.5202 9.76796 25.4287 9.54809 25.0728 9.0914C24.8983 8.86575 25.0989 8.57188 25.3698 8.66116C25.5199 8.70917 25.7357 8.97302 25.8783 9.27156C25.9411 9.41409 25.998 9.52469 26.0043 9.52423C26.0107 9.52378 26.1358 9.42652 26.2842 9.30406C26.5513 9.0848 26.9006 8.89785 27.0195 8.91574C27.1351 8.93094 27.2367 9.04421 27.247 9.16699C27.2584 9.30147 27.1968 9.36179 26.8257 9.59148C26.6657 9.68831 26.5537 9.79051 26.3933 9.99619L26.1786 10.2734L26.2566 10.559C26.3014 10.7146 26.3959 10.9695 26.4689 11.1201C26.5988 11.3814 26.6197 11.4034 26.9195 11.6082C27.5083 12.004 27.4874 11.982 27.4575 12.1165C27.4169 12.3135 27.2165 12.3839 26.964 12.2874C26.8528 12.2483 26.7236 12.1841 26.676 12.1464C26.4588 11.9797 26.3299 12.1066 26.3386 12.4736C26.3523 12.9756 26.7807 13.6153 27.4615 14.1603C27.6961 14.3463 27.9225 14.5094 27.9682 14.5238C28.0396 14.5422 28.1045 14.4845 28.6542 13.889L29.2621 13.2305L28.8986 12.9097C28.1557 12.2662 27.8441 11.5445 27.9572 10.7393C28.0452 10.1271 28.3965 9.62528 29.0561 9.16596C29.5988 8.7886 29.7757 8.55232 29.7922 8.18348C29.8002 7.97703 29.7526 7.93928 29.6091 8.04375C29.1905 8.35039 28.1523 8.34584 27.3577 8.03254C26.724 7.78118 26.2054 7.23916 26.2574 6.87659C26.2795 6.725 26.4172 6.62683 26.5871 6.64693C26.709 6.66168 26.726 6.67516 26.8102 6.84556C26.8598 6.94492 26.9542 7.08517 27.014 7.15439C27.4086 7.58182 28.6235 7.87364 29.1552 7.66765C29.3891 7.5802 29.4671 7.48928 29.494 7.28146C29.5123 7.12132 29.485 7.02329 29.2952 6.65462C29.2232 6.5157 29.2227 6.47162 29.2973 6.378C29.3545 6.30329 29.4268 6.2569 29.5054 6.24829C29.6908 6.2261 29.8565 6.42297 30.113 6.98095C30.6387 8.13422 30.4464 8.86572 29.4265 9.6069C28.9178 9.97299 28.6493 10.2894 28.5657 10.616C28.3865 11.3142 28.6577 11.9711 29.3617 12.5292L29.678 12.7799L32.2928 9.9473L32.1844 9.82865C31.7542 9.35672 31.5805 9.02807 31.5451 8.6071C31.5361 8.46363 31.5577 8.22972 31.6002 8.0943C31.6694 7.85991 31.7062 7.80725 32.1003 7.36119C32.634 6.76389 32.6485 6.70991 32.3545 6.46052C32.2179 6.34683 32.0712 6.26329 31.8717 6.19239ZM24.3182 12.4164C24.3159 12.5018 24.2626 12.5851 24.0736 12.7899C23.6722 13.2247 23.5364 13.6845 23.6946 14.0554C23.7564 14.1863 23.8376 14.2834 24.028 14.4343C24.2428 14.61 24.3157 14.646 24.5152 14.6786C24.7599 14.7198 25.1661 14.6435 25.3402 14.525C25.3911 14.489 25.4886 14.4408 25.5624 14.412C25.8389 14.3038 26.055 14.7206 25.8091 14.8912C25.5782 15.052 25.143 15.1981 24.8057 15.2253L24.4465 15.2571L24.4234 15.4352C24.3898 15.6759 24.262 15.9675 24.1195 16.1219C23.974 16.2794 23.7663 16.3003 23.6632 16.1695C23.5631 16.0355 23.564 15.9707 23.6836 15.7709C23.9001 15.4024 23.9099 15.0664 23.7171 14.9626C23.4155 14.8109 23.1075 14.2448 23.0861 13.8023C23.0667 13.4595 23.1198 13.2234 23.284 12.9115C23.4259 12.6366 23.8646 12.155 23.9898 12.1342C24.1708 12.0976 24.3146 12.2225 24.3182 12.4164Z" fill="#6EA7E1"/>
<path d="M8.43535 11.4418C10.808 11.8271 12.0987 11.4829 12.3074 10.4095C12.3927 9.97032 12.2849 9.56957 11.9838 9.20722C11.7038 8.84897 11.3005 8.61868 10.7741 8.51635C9.25795 8.22165 7.63698 8.18509 5.91121 8.40666L6.22349 1.4034C8.5421 0.942592 10.8175 0.92912 13.0496 1.36298C15.5344 1.84596 17.435 2.86102 18.7514 4.40816C20.0679 5.9553 20.4961 7.91213 20.0361 10.2786C19.5429 12.8159 18.3252 14.4149 16.383 15.0754C17.3484 15.6176 18.0685 16.4664 18.5432 17.6221C19.0436 18.7575 19.154 20.0448 18.8742 21.4843C18.3478 24.1924 17.1306 26.0699 15.2225 27.1169C13.3355 28.1679 10.9706 28.4172 8.12785 27.8646C6.94862 27.6354 5.78731 27.2578 4.64392 26.7317C3.49579 26.2301 2.62958 25.7958 2.04527 25.4291C1.48675 25.042 1.21224 24.8241 1.22173 24.7753L3.71433 17.854C5.53196 19.296 7.18832 20.1623 8.68342 20.4529C10.3259 20.7722 11.2586 20.3585 11.4815 19.2118C11.7233 17.9676 10.844 17.151 8.84354 16.7622C8.35921 16.668 7.98833 16.6086 7.7309 16.5839L8.43535 11.4418Z" fill="#6EA7E1"/>
<path d="M34.1295 35.0111L43.1827 43.2435L37.913 48.5615L29.4383 39.703L31.2936 48.3829L24.4017 50.0464L19.2017 25.6856C21.037 25.2716 23.3958 24.7049 26.2781 23.9853L28.079 32.7124L32.1849 22.1894L39.2052 24.222L34.1295 35.0111Z" fill="#6EA7E1"/>
<path d="M16.6529 33.7044C17.2551 34.3102 17.8506 34.9084 18.4453 35.5075C18.8193 35.8847 18.9215 36.3743 18.717 36.7991C18.3648 37.5297 17.489 37.6621 16.8972 37.0715C16.3594 36.5353 15.8253 35.9952 15.2923 35.4542C15.2298 35.3903 15.1786 35.316 15.1303 35.2551C14.9287 35.4589 14.7544 35.6361 14.5632 35.8294C14.8264 36.0914 15.1067 36.3667 15.3832 36.6458C15.7515 37.0191 16.1321 37.3821 16.4777 37.7754C16.8441 38.1926 16.7902 38.8499 16.3934 39.2366C15.9882 39.6319 15.3538 39.6757 14.9429 39.2985C14.4723 38.8661 14.0311 38.4022 13.5785 37.9507C13.3881 37.7612 13.2016 37.5668 12.9999 37.3611C11.6582 38.7175 10.3289 40.0615 8.99476 41.4102C9.13679 41.5293 9.30343 41.655 9.45398 41.797C10.0259 42.3351 10.4198 42.9781 10.5523 43.7649C10.6849 44.5545 10.5249 45.2917 10.1215 45.9738C9.46724 47.0796 8.47683 47.734 7.26486 48.0721C6.08604 48.4008 4.88638 48.4189 3.67914 48.2893C2.73135 48.1874 1.80438 47.9874 0.892564 47.7064C0.756217 47.6645 0.696566 47.593 0.654904 47.4587C0.34055 46.451 0.135084 45.4213 0.0470266 44.3688C-0.0609143 43.0838 -0.00410362 41.8132 0.440916 40.5873C0.840487 39.4881 1.51749 38.6146 2.56754 38.0736C3.8117 37.4325 5.19221 37.6183 6.22901 38.5622C6.44584 38.7594 6.62858 38.9937 6.82553 39.2118C6.85772 39.248 6.88612 39.2871 6.89275 39.2957C7.29232 38.9099 7.69284 38.5365 8.0801 38.1479C10.3847 35.8314 12.6865 33.512 14.9893 31.1936C15.5328 30.6468 16.1965 30.542 16.8404 30.8992C17.5656 31.3012 17.7872 32.3785 17.2683 33.0271C17.0818 33.2605 16.8669 33.4701 16.6529 33.7034V33.7044ZM5.01042 46.1985C5.44975 46.1481 5.89288 46.1204 6.32654 46.0404C6.97986 45.9204 7.56975 45.6613 8.02613 45.147C8.48251 44.6326 8.5308 44.0792 8.12366 43.5886C7.71083 43.0924 7.16829 42.8314 6.52822 42.7819C6.26026 42.7609 5.99135 42.7514 5.72339 42.7419C5.63439 42.739 5.58894 42.7152 5.58705 42.6123C5.58231 42.3618 5.56622 42.1113 5.55296 41.8617C5.51793 41.2045 5.26228 40.6501 4.7756 40.211C4.38928 39.8624 3.91491 39.8129 3.49451 40.0701C3.17447 40.2663 2.92072 40.532 2.72851 40.8559C2.38385 41.4388 2.25319 42.0837 2.20679 42.7485C2.13578 43.7611 2.25792 44.7583 2.46149 45.749C2.47948 45.8385 2.52683 45.8718 2.60826 45.8899C3.39888 46.0595 4.19707 46.1614 5.00947 46.1976L5.01042 46.1985Z" fill="#6EA7E1"/>
</svg>
