<svg width="140" height="164" viewBox="0 0 140 164" fill="none" xmlns="http://www.w3.org/2000/svg">
<path d="M109.575 15.9176C106.827 14.6904 102.9 13.8929 100.451 14.0602C99.2208 14.1396 98.8965 14.2281 97.9132 14.7276C97.2571 15.0543 96.7241 15.4095 96.6366 15.5648C96.3851 16.0394 96.6996 16.79 97.3767 17.3094C97.8831 17.7107 98.1738 17.8202 99.3594 18.0514C100.545 18.2827 100.766 18.2853 100.978 18.0558C101.339 17.6851 102.12 17.2842 102.859 17.1098C103.755 16.8868 104.851 17.0127 105.822 17.4364C106.531 17.7393 106.734 17.883 107.148 18.3841C107.741 19.096 107.828 19.5275 107.459 19.9267C106.953 20.4756 106.605 20.4075 105.732 19.5948C105.123 19.0425 104.846 18.8576 104.477 18.7724C104.006 18.6759 102.929 18.7722 102.781 18.9319C102.744 18.9718 103.109 19.3647 103.619 19.8031C104.575 20.6471 104.889 21.1554 105.004 22.0414C105.091 22.8363 104.66 23.5661 103.331 24.8635C101.929 26.2409 101.732 26.6371 101.833 27.8408C101.908 28.7297 102.37 29.6838 103.135 30.5322L103.49 30.9166L108.321 25.6216C112.987 20.5063 113.151 20.3082 113.26 19.8066C113.417 18.9289 113.134 18.4277 111.869 17.3731C110.981 16.6173 110.536 16.3513 109.575 15.9176Z" fill="#F9F6EE"/>
<path d="M117.054 21.7595C116.725 21.6714 116.299 21.6276 116.11 21.6506C115.226 21.7795 114.992 21.992 110.251 27.0475C107.733 29.735 105.709 31.9676 105.763 32.0102C106.043 32.2323 108.104 32.2235 109.201 32.0046C111.504 31.5312 114.111 29.8993 116.294 27.5341C116.911 26.8654 117.063 26.7613 117.434 26.7439C117.935 26.7264 118.276 26.9626 118.397 27.4383C118.483 27.7488 118.422 27.8557 117.676 28.6641L116.856 29.5523L117.465 29.6202C118.418 29.7191 118.986 30.0136 120.057 30.9145C120.87 31.6104 121.016 31.7955 120.998 32.0577C120.954 32.4894 120.648 32.8002 120.142 32.8832C119.746 32.9491 119.641 32.9007 118.915 32.2731C118.461 31.8959 117.905 31.5074 117.667 31.4221C117.438 31.3269 116.641 31.3005 115.893 31.3638C114.624 31.4645 114.517 31.5002 113.409 32.1949C110.733 33.8411 107.662 34.3793 105.135 33.6206L104.361 33.3876L100.28 37.8086C98.0326 40.2437 96.2209 42.2468 96.2532 42.2724C96.3825 42.3748 97.6496 42.6188 98.2047 42.644C98.5276 42.658 99.5082 42.4848 100.383 42.2448C103.283 41.4674 103.944 41.5595 106.843 43.1484C109.352 44.5325 110.973 44.9187 112.158 44.4234C113.061 44.0508 113.265 43.2443 112.854 41.7089C112.427 40.1094 111.09 37.9608 109.981 37.0813C109.539 36.7312 109.342 36.6615 108.953 36.6989C108.684 36.7276 108.357 36.6581 108.217 36.5471C107.936 36.3251 107.808 35.5146 108.011 35.295C108.259 35.0255 109.232 34.8809 109.857 35.0128C111.659 35.4046 113.977 38.5724 114.699 41.6504C114.83 42.2558 114.995 42.7842 115.038 42.8183C115.2 42.9464 116.716 42.7999 117.233 42.6228C117.604 42.4843 117.934 42.2276 118.57 41.539C119.307 40.7406 119.412 40.5653 119.47 40.0581C119.597 39.0522 118.857 37.9131 116.947 36.1225C116.542 35.7325 116.133 35.2869 116.059 35.1246C115.874 34.7187 116.118 34.1515 116.566 33.9888C116.907 33.8617 116.96 33.8859 117.975 34.7256C120.127 36.5174 121.345 38.3299 121.344 39.746C121.352 40.2019 121.19 40.7818 120.945 41.3305C119.971 43.3756 117.843 44.6096 115.412 44.5148C114.737 44.4982 114.708 44.5096 114.215 45.1041C112.694 46.9744 109.293 46.8191 105.91 44.7248C104.594 43.9067 103.636 43.51 102.97 43.4835C102.687 43.4666 101.757 43.6455 100.912 43.8741C100.047 44.1042 99.16 44.3172 98.9417 44.3515C98.2361 44.449 96.6308 44.248 95.7403 43.9396L94.8912 43.6468L93.2423 45.4332C92.3303 46.4212 91.6148 47.2367 91.6364 47.2537C91.7764 47.3647 93.4054 46.7722 94.0936 46.3499C94.9647 45.8307 95.4059 45.8175 95.7554 46.2674C96.0942 46.7087 95.9304 47.2702 95.3406 47.6667L94.8567 48.009L95.9361 49.3658C96.8138 50.4763 97.2648 50.9375 98.2667 51.7316C99.4517 52.6709 99.5363 52.7207 100.227 52.8013C101.647 52.9597 102.809 52.0655 103.703 50.1473C104.101 49.2708 104.325 48.9472 104.875 48.4325C106.73 46.7058 109.928 46.4752 111.801 47.9425C112.458 48.4633 112.493 48.526 112.414 48.895C112.334 49.2641 112.279 49.324 111.918 49.4525C111.683 49.5253 111.341 49.5313 111.164 49.4602C109.609 48.7805 109.259 48.6754 108.585 48.6773C107.449 48.6754 106.636 49.0508 105.962 49.8819C105.307 50.693 105.171 51.4667 105.448 52.723C105.948 54.8481 107.797 56.2612 110.124 56.3263C111.202 56.351 111.255 56.3752 111.452 56.8081C111.64 57.251 111.442 57.7683 111.014 57.9296C110.105 58.2467 107.971 57.8509 106.622 57.1098C105.557 56.5252 104.615 55.4845 104.061 54.2855L103.645 53.4025L103.23 53.7305C102.137 54.5919 100.329 54.8526 98.8711 54.3709C98.1267 54.1265 97.9036 53.9842 96.8939 53.0975C96.1875 52.4684 95.4485 51.6926 94.928 51.0035C94.4645 50.3941 93.8794 49.6538 93.613 49.3563L93.145 48.8125L89.9259 49.0259L88.2032 50.8921C86.066 53.2075 84.8028 54.9194 84.1988 56.3417C84.1482 56.4571 84.4281 56.5581 85.1232 56.6943C86.3304 56.9426 87.4779 57.4374 88.3074 58.0949C88.9107 58.5731 88.9522 58.5887 89.6423 58.4272C90.5599 58.2213 91.4494 57.6821 92.1956 56.8737C92.9234 56.0853 93.1654 55.3785 93.0566 54.4454C92.9727 53.6876 93.2505 53.2857 93.8884 53.221C94.4464 53.1622 94.6419 53.3344 94.8427 54.0465C95.1993 55.297 94.7015 56.7862 93.5224 58.0636C92.7393 58.9119 92.1878 59.287 91.0907 59.748C90.6727 59.9179 90.3455 60.0905 90.3378 60.119C90.3502 60.1461 90.5197 60.4879 90.7123 60.8652C91.1824 61.7909 90.8526 62.4108 89.9424 62.346C89.5072 62.3122 89.4965 62.3037 88.8249 61.2528C88.2102 60.2818 88.044 60.0981 87.1238 59.4379C86.2559 58.8018 85.942 58.6567 85.1208 58.4551C84.5672 58.3273 83.9167 58.2438 83.6477 58.2725L83.1696 58.3256L82.9813 58.954C82.7425 59.8189 82.9192 60.9613 83.4354 61.8371C83.7635 62.391 84.1515 62.8195 85.0626 63.6108C87.2404 65.4753 88.2477 65.738 91.2481 65.1956C95.6657 64.4113 96.0439 64.3654 97.7689 64.4367C100.301 64.5429 101.245 64.2885 103.12 62.9237C103.747 62.4872 104.394 62.1704 105.47 61.8134C107.171 61.2436 107.833 60.8698 109.246 59.6221C109.865 59.0931 110.767 58.4598 111.573 58.0104C113.761 56.772 115.151 55.7309 116.459 54.3138C117.27 53.4356 117.723 52.844 117.999 52.3024C118.342 51.6069 118.517 51.4173 119.529 50.5432C121.271 49.0203 122.235 47.451 122.524 45.6415C122.619 45.0944 122.769 44.3663 122.87 44.0143C122.982 43.6709 123.207 42.8815 123.386 42.2631C123.791 40.8737 123.784 39.5887 123.347 38.2229C122.986 37.0379 122.999 36.2358 123.422 35.1713C123.57 34.788 123.763 34.2151 123.84 33.9301C124.121 32.8572 123.664 30.8873 122.52 28.1658C121.224 25.0826 118.77 22.204 117.054 21.7595ZM103.803 57.0708C103.916 57.575 103.528 58.3389 102.681 59.2571C101.161 60.9037 98.6924 61.5568 95.7569 61.0791C94.4929 60.8721 94.1082 60.6018 94.1627 59.9364C94.2157 59.2526 94.586 59.1141 95.8624 59.3481C97.2003 59.5963 98.7714 59.511 99.7656 59.1412C100.37 58.9113 100.626 58.7345 101.197 58.1157C101.575 57.7066 102.039 57.1235 102.226 56.8399C102.526 56.3524 102.603 56.3096 102.968 56.3392C103.495 56.3944 103.701 56.5751 103.803 57.0708Z" fill="#F9F6EE"/>
<path d="M100.948 20.3124C100.44 20.1348 99.3265 19.8052 98.4714 19.5594C96.6089 19.0509 95.9874 18.7138 95.3482 17.8097C94.994 17.3042 94.8613 16.9225 94.8051 16.2559L94.7302 15.367L93.9722 15.3192C92.4039 15.1993 90.7455 15.5611 89.1936 16.353C88.6728 16.6142 87.7569 16.9597 87.1575 17.124C86.5566 17.2698 85.6146 17.6638 85.0569 17.9648C84.1259 18.4884 83.9385 18.651 82.0561 20.6498C80.9583 21.8189 79.7513 23.0051 79.3827 23.2832C79.014 23.5613 78.4535 24.0675 78.1403 24.4068C77.3665 25.2451 75.8046 27.8264 75.2727 29.1503C74.9984 29.8315 74.489 30.7066 73.8766 31.5519C72.7701 33.0942 72.3453 34.0192 72.1332 35.32C71.9639 36.4128 71.6666 37.1795 71.0805 38.0974C70.2028 39.4928 70.0458 40.6127 70.5004 42.6666C70.853 44.346 70.8908 45.0326 70.7543 47.8278C70.6344 50.3424 70.7014 51.0176 71.1361 52.0016C72.0889 54.1221 75.3815 56.0925 77.5197 55.8172C78.5234 55.6796 79.4115 55.243 81.3656 53.9749C83.0615 52.8652 83.1368 52.8039 85.3079 50.5327L87.5266 48.2301L85.9415 46.9564C84.561 45.8449 84.2332 45.5332 83.517 44.5508C81.5181 41.8257 81.0398 39.2518 82.2927 37.8945C82.5414 37.6251 82.5981 37.4626 82.5057 37.3203C82.0682 36.6624 81.4636 35.0944 81.2996 34.2213C80.8305 31.6374 80.5406 30.941 79.4134 29.4945C78.8606 28.7798 79.496 27.849 80.3542 28.1318C80.8294 28.2839 81.5131 29.1196 81.9647 30.0651C82.1636 30.5166 82.3439 30.8669 82.3639 30.8654C82.3839 30.864 82.7802 30.556 83.2502 30.1681C84.0964 29.4736 85.2026 28.8815 85.5794 28.9382C85.9454 28.9863 86.2671 29.3451 86.2999 29.7339C86.3358 30.1599 86.1408 30.3509 84.9655 31.0784C84.4586 31.3851 84.1038 31.7088 83.5957 32.3603L82.9157 33.2384L83.1628 34.1428C83.3049 34.6356 83.6042 35.4431 83.8354 35.9202C84.2469 36.7476 84.3131 36.8173 85.2625 37.4662C87.1274 38.7197 87.0612 38.65 86.9664 39.076C86.838 39.7001 86.2034 39.9229 85.4035 39.6172C85.0513 39.4936 84.6421 39.2902 84.4913 39.1706C83.8034 38.6427 83.3949 39.0447 83.4225 40.2072C83.466 41.797 84.823 43.8231 86.979 45.5494C87.7224 46.1386 88.4394 46.6552 88.584 46.7006C88.8101 46.7589 89.0159 46.5764 90.757 44.6902L92.6823 42.6044L91.5311 41.5882C89.1778 39.55 88.191 37.2643 88.5492 34.714C88.8281 32.7749 89.9408 31.1855 92.0299 29.7307C93.7488 28.5355 94.309 27.7871 94.3614 26.6189C94.3867 25.9649 94.2359 25.8454 93.7812 26.1763C92.4556 27.1475 89.167 27.1331 86.6506 26.1408C84.6432 25.3446 83.0007 23.6279 83.1653 22.4795C83.2354 21.9994 83.6717 21.6884 84.2098 21.7521C84.5958 21.7988 84.6497 21.8415 84.9163 22.3812C85.0735 22.6959 85.3723 23.1402 85.5617 23.3594C86.8118 24.7132 90.6596 25.6375 92.3438 24.9851C93.0845 24.7081 93.3316 24.4201 93.4169 23.7619C93.4747 23.2547 93.3882 22.9442 92.7872 21.7765C92.5591 21.3364 92.5574 21.1968 92.7938 20.9003C92.9749 20.6637 93.2038 20.5168 93.4528 20.4895C94.04 20.4192 94.5651 21.0428 95.3775 22.81C97.0424 26.4628 96.4334 28.7797 93.2031 31.1273C91.5918 32.2868 90.7413 33.289 90.4766 34.3235C89.909 36.535 90.7679 38.6156 92.9978 40.3832L93.9997 41.1773L102.281 32.2054L101.938 31.8296C100.576 30.3349 100.025 29.2939 99.9131 27.9606C99.8849 27.5062 99.9532 26.7653 100.088 26.3364C100.307 25.594 100.424 25.4272 101.672 24.0144C103.362 22.1226 103.408 21.9516 102.477 21.1617C102.044 20.8016 101.58 20.537 100.948 20.3124ZM77.0235 40.0258C77.0161 40.2965 76.8474 40.5602 76.2486 41.2089C74.9773 42.5861 74.5471 44.0424 75.0482 45.2173C75.2439 45.6317 75.5011 45.9392 76.1043 46.4174C76.7846 46.9738 77.0153 47.0876 77.6473 47.1911C78.4224 47.3215 79.7089 47.0797 80.2604 46.7046C80.4216 46.5905 80.7305 46.4378 80.9641 46.3464C81.84 46.0038 82.5242 47.3239 81.7454 47.8644C81.0142 48.3736 79.6357 48.8363 78.5673 48.9227L77.4298 49.0233L77.3567 49.5875C77.25 50.3498 76.8453 51.2733 76.3939 51.7623C75.9333 52.2613 75.2753 52.3273 74.9489 51.913C74.6316 51.4888 74.6344 51.2836 75.0134 50.6508C75.6992 49.4835 75.7302 48.4192 75.1194 48.0907C74.1641 47.6099 73.1886 45.8171 73.1208 44.4154C73.0595 43.3299 73.2277 42.5818 73.7476 41.5941C74.197 40.7233 75.5865 39.1978 75.9831 39.132C76.5564 39.0161 77.012 39.4118 77.0235 40.0258Z" fill="#F9F6EE"/>
<path d="M26.7172 36.9392C34.2323 38.1593 38.3202 37.0694 38.9811 33.6693C39.2515 32.2784 38.9098 31.0091 37.9562 29.8614C37.0693 28.7267 35.7922 27.9973 34.1247 27.6732C29.3226 26.7398 24.1885 26.624 18.7224 27.3258L19.7115 5.14423C27.0553 3.68471 34.2621 3.64204 41.3319 5.01622C49.2021 6.54597 55.222 9.76098 59.3915 14.6613C63.561 19.5615 64.9173 25.7595 63.4604 33.255C61.8984 41.2914 58.0415 46.3558 51.8899 48.448C54.9477 50.165 57.2284 52.8537 58.7318 56.5141C60.317 60.1101 60.6665 64.1877 59.7804 68.7468C58.1132 77.3242 54.2578 83.2709 48.2144 86.5871C42.2376 89.9162 34.7472 90.7056 25.7432 88.9555C22.0082 88.2295 18.33 87.0334 14.7085 85.3672C11.072 83.7782 8.32842 82.4029 6.47772 81.2413C4.70874 80.0153 3.83927 79.3251 3.86931 79.1705L11.7642 57.2486C17.5212 61.8159 22.7674 64.5598 27.5029 65.4802C32.7052 66.4914 35.6594 65.1811 36.3653 61.5492C37.1313 57.6083 34.3462 55.022 28.01 53.7904C26.476 53.4923 25.3013 53.304 24.4859 53.2257L26.7172 36.9392Z" fill="#F9F6EE"/>
<path d="M108.099 111.591L136.774 137.665L120.083 154.509L93.2407 126.451L99.1172 153.943L77.2883 159.212L60.8183 82.0536C66.631 80.7426 74.1021 78.9475 83.2314 76.6682L88.9353 104.31L101.94 70.98L124.176 77.4182L108.099 111.591Z" fill="#F9F6EE"/>
<path d="M52.745 107.451C54.6524 109.37 56.5387 111.264 58.4221 113.162C59.6067 114.357 59.9306 115.907 59.2828 117.253C58.1672 119.567 55.3931 119.986 53.5188 118.116C51.8153 116.417 50.1239 114.707 48.4355 112.993C48.2376 112.791 48.0756 112.556 47.9227 112.362C47.2839 113.008 46.7321 113.569 46.1263 114.182C46.96 115.011 47.8477 115.883 48.7234 116.767C49.89 117.95 51.0956 119.099 52.1902 120.345C53.3508 121.667 53.1799 123.748 51.9233 124.973C50.6397 126.225 48.6304 126.364 47.3289 125.169C45.8384 123.8 44.4409 122.33 43.0073 120.9C42.4045 120.3 41.8137 119.684 41.175 119.033C36.9254 123.329 32.7148 127.586 28.4893 131.858C28.9391 132.235 29.467 132.633 29.9438 133.083C31.7552 134.787 33.0028 136.824 33.4226 139.316C33.8425 141.817 33.3356 144.152 32.0581 146.312C29.9858 149.815 26.8489 151.887 23.0102 152.958C19.2764 153.999 15.4767 154.056 11.653 153.646C8.65105 153.323 5.71505 152.69 2.82704 151.8C2.39518 151.667 2.20625 151.441 2.07429 151.015C1.07863 147.823 0.427853 144.562 0.148948 141.228C-0.192935 137.159 -0.0129975 133.134 1.39652 129.251C2.66209 125.77 4.80636 123.003 8.13223 121.29C12.0729 119.259 16.4454 119.847 19.7293 122.837C20.416 123.462 20.9948 124.204 21.6186 124.895C21.7206 125.009 21.8106 125.133 21.8316 125.16C23.0971 123.938 24.3657 122.756 25.5923 121.525C32.8918 114.188 40.1823 106.841 47.4758 99.4983C49.1972 97.7665 51.2995 97.4347 53.3388 98.566C55.636 99.8392 56.3378 103.251 54.6944 105.306C54.1036 106.045 53.4228 106.709 52.745 107.448V107.451ZM15.8696 147.024C17.2611 146.864 18.6646 146.776 20.0382 146.523C22.1075 146.143 23.9758 145.322 25.4213 143.693C26.8668 142.064 27.0198 140.311 25.7302 138.757C24.4227 137.186 22.7043 136.359 20.677 136.202C19.8282 136.136 18.9765 136.106 18.1278 136.075C17.8459 136.066 17.702 135.991 17.696 135.665C17.681 134.872 17.63 134.078 17.588 133.288C17.477 131.206 16.6673 129.45 15.1258 128.059C13.9023 126.955 12.3998 126.798 11.0682 127.613C10.0546 128.234 9.25085 129.076 8.64205 130.102C7.55043 131.948 7.13657 133.991 6.98962 136.097C6.76469 139.304 7.15156 142.462 7.79634 145.6C7.85332 145.883 8.00327 145.989 8.26118 146.046C10.7653 146.583 13.2935 146.906 15.8666 147.021L15.8696 147.024Z" fill="#F9F6EE"/>
</svg>
