<svg width="788" height="568" viewBox="0 0 788 568" fill="none" xmlns="http://www.w3.org/2000/svg">
<path d="M1 3C285.5 74 -140.5 306.5 128.5 414M135 414C135 414 230.179 419.823 232.5 379.5C234.177 350.365 222.5 322.5 195 318.5C136.383 309.974 107.375 395.638 114 454.5C123.139 535.703 210.666 556.608 292 564.5C401.292 575.105 637.743 406.727 514.743 366.227C364.243 366.227 495.651 535.077 543.5 545.5C576.82 552.758 609.656 535.149 619.5 502.5C632.206 460.357 668.892 432.01 668.892 432.01C727.75 441.77 744.7 431 785.5 391" stroke="#FF9DBA" stroke-width="6" stroke-dasharray="12 12"/>
</svg>
