<svg width="56" height="45" viewBox="0 0 56 45" fill="none" xmlns="http://www.w3.org/2000/svg">
<path fill-rule="evenodd" clip-rule="evenodd" d="M29.8766 33.9241C29.6984 33.8351 29.5202 33.7461 29.3421 33.568C28.8967 33.2118 28.4513 33.2118 28.095 33.568C27.7386 33.9241 27.3823 34.1022 26.9369 34.1912C25.7789 34.4584 24.8881 35.1707 23.8192 35.6159C23.4628 35.794 23.1065 36.0611 22.6611 36.0611C21.8594 36.0611 21.2359 36.2392 20.6123 36.7734C19.9887 37.3077 19.0979 37.3967 18.6525 38.109C18.029 38.2871 17.4054 38.4652 16.7819 38.5542C16.0692 38.6433 15.0894 37.9309 15.5348 36.9515C15.8911 35.972 15.8911 35.0817 15.6238 34.0132C15.3566 32.8557 15.0894 31.6091 15.3566 30.3626C15.4457 29.9174 15.1784 29.4722 15.1784 29.027C15.0894 28.6708 15.0894 28.3147 15.6238 28.3147C15.9802 28.2256 16.1583 27.8694 16.1583 27.5133C16.1583 27.2462 15.8911 27.0681 15.7129 27.1571C15.6239 27.1571 15.5348 27.3352 15.4457 27.3352C15.1785 27.4242 14.7331 27.2462 14.9112 26.9791C15.1785 26.4448 15.0003 25.7325 15.7129 25.4654L15.802 25.2873C15.7129 25.1982 15.6238 25.1092 15.5348 25.1092C14.9112 25.1092 14.9112 25.1092 14.8221 24.7531C14.7331 24.4859 14.644 24.1298 14.7331 23.9517C14.9112 23.4174 14.8221 22.9723 14.7331 22.438C14.7331 21.9928 15.0003 21.3695 14.644 20.9243C14.3767 20.5682 13.9313 20.3901 13.4859 20.123C13.2187 19.9449 12.9515 19.6778 12.6842 19.4997C12.5951 19.4107 12.417 19.2326 12.3279 19.1435C10.4572 18.6093 9.21013 17.1847 7.69578 16.1162C7.6067 16.0272 7.51762 15.9381 7.42854 15.8491C6.89406 14.8697 5.82511 14.3354 5.20156 13.445C5.11248 13.2669 5.0234 13.0889 4.84524 13.0889C3.95444 12.8217 3.59813 12.1985 3.41997 11.3081C3.41997 11.13 3.15273 11.219 3.06365 11.3971C2.88549 11.7533 2.61825 11.7532 2.35102 11.4861C1.9947 11.13 1.72746 10.6848 1.1039 10.5957C0.658506 10.5067 0.0349456 9.61631 0.0349456 9.17111C0.0349456 8.99303 0.213106 8.81494 0.391265 8.63686C0.302185 8.45879 0.124025 8.28069 0.0349456 8.01358C-0.0541339 7.74646 0.0349496 7.47934 0.213108 7.21222C0.391267 6.9451 1.01482 6.9451 1.28206 7.12318C1.5493 7.30126 1.72746 7.47934 1.9947 7.12318C2.08378 7.03414 2.17285 6.94512 2.26193 6.94512C2.88549 7.03415 3.50904 6.76704 4.04352 6.49992C4.22168 6.41088 4.39984 6.41088 4.578 6.49992C5.20156 6.76704 5.82511 6.678 6.35959 6.49992C6.98315 6.32184 7.6067 6.23278 8.23026 6.14374C8.58657 6.0547 8.85381 6.32184 9.12105 6.49992C9.38829 7.30127 8.67565 7.56838 8.23026 8.01358C8.14118 8.10262 7.96302 8.01357 7.87394 7.92453C7.51762 7.56837 7.25038 7.65743 6.80499 7.83551C6.35959 8.10263 5.64695 8.01359 5.20156 8.19167C4.75616 8.36975 4.39984 8.81494 3.95444 9.08206C3.86536 9.1711 3.59813 9.17111 3.41997 9.17111C3.15273 9.17111 2.88549 8.99302 2.61825 8.99302C2.26193 8.90398 1.81654 9.08207 1.90562 9.17111C2.08378 9.34919 2.26194 9.52727 2.44009 9.61631C3.24181 10.0615 4.1326 10.3286 4.66708 11.219C4.75616 11.3081 4.84523 11.3971 4.93431 11.3971C5.29063 11.3971 5.55788 11.4861 5.91419 11.7533C7.07223 12.5546 8.31934 13.356 9.56645 14.1573C9.83369 14.3354 10.0118 14.5135 10.19 14.7806C10.4572 15.3148 10.9026 15.671 11.4371 15.8491C11.9716 16.1162 12.2388 16.6504 12.5951 17.1847C12.6842 17.3628 12.8624 17.5408 12.9515 17.5408C13.8423 17.3628 14.1095 18.1641 14.644 18.5203C14.7331 18.6093 15.0003 18.5203 15.0894 18.5203C15.1784 18.5203 15.2675 18.3422 15.3566 18.2531C15.5348 18.1641 15.7129 18.1641 15.802 18.0751L15.8911 18.1641C15.8911 18.1641 15.802 18.1641 15.802 18.2531V18.1641C16.0692 17.986 16.3365 17.7189 16.6928 17.6299C17.4054 17.4518 18.1181 17.2737 18.7416 16.8285C20.256 16.5614 21.414 15.4039 22.9284 15.2258C23.3738 14.7806 23.9973 14.7806 24.5318 14.6916C24.8881 14.0683 25.5117 13.7121 26.2243 13.6231C26.6697 13.5341 27.1151 13.356 27.4714 13.1779C28.184 12.8217 28.9858 12.5546 29.7875 12.2875C31.7472 11.6642 33.707 11.0409 35.3995 10.0615C36.1121 9.61631 37.0029 9.43821 37.7155 8.90397C37.8937 8.72589 38.25 8.81495 38.5173 8.72591C38.8736 8.63687 39.2299 8.54781 39.4971 8.36973C40.477 7.65741 41.635 7.47933 42.704 7.03413C42.8822 6.94509 43.1494 6.9451 43.3276 6.76703C43.9511 6.05471 44.8419 5.87662 45.4655 5.34238C45.7327 5.07526 46.1781 5.07528 46.4453 4.71912C46.7126 4.452 47.0689 4.36296 47.3361 4.18488C47.6034 4.09584 47.8706 4.0068 48.1378 4.18488C48.4051 4.36296 48.4051 4.63007 48.4942 4.89719C48.1378 4.98623 47.6034 4.8972 47.6034 5.52047C47.6034 6.41087 47.3361 7.12318 46.5344 7.56838C46.3563 7.65742 46.2672 7.92454 46.1781 8.10262C45.9999 8.36974 45.7327 8.63685 45.4655 8.81493C44.6637 9.43821 43.862 9.97247 43.0603 10.5067C42.8822 10.5957 42.6149 10.5067 42.704 10.3286C42.7931 9.88342 42.6149 9.43822 43.1494 9.08206C43.4166 8.90398 43.5057 8.45878 43.4166 8.10262C43.4166 7.92454 43.0603 7.74647 42.8822 7.83551C42.7931 7.92455 42.704 7.92454 42.6149 8.01358C42.1695 8.45877 41.9023 9.08207 41.7241 9.61631C41.635 9.79439 41.3678 9.70534 41.3678 9.52726C41.2787 9.1711 41.1896 8.99303 40.7442 9.17111C40.2989 9.34919 39.8535 9.6163 39.319 9.88342C38.8736 10.0615 38.6063 10.4177 38.0719 10.3286C37.5374 10.2396 37.2701 10.7738 36.7357 10.9519C36.5575 11.0409 36.2903 11.13 36.1121 11.13C35.5776 11.13 35.2213 11.13 34.9541 11.6642C34.5087 11.7533 34.2414 12.2875 33.7961 12.2875C33.3507 12.2875 33.1725 12.4656 32.9943 12.8217C32.7271 13.1779 32.4599 13.445 32.1926 13.8012C32.0145 14.0683 31.7472 14.0683 31.3909 14.0683C31.3018 13.8012 31.2127 13.445 30.8564 13.5341C30.322 13.6231 29.8766 13.6231 29.4312 14.0683C28.8076 14.6916 27.9168 14.9587 27.1151 15.1368C26.6697 15.2258 26.2243 15.4039 25.9571 15.8491C25.6898 16.2052 25.4226 16.2943 25.0663 16.1162C24.8881 16.0272 24.6209 15.9381 24.4427 16.1162C23.9973 16.4724 23.5519 16.5614 23.0174 16.2943C22.9284 16.2943 22.7502 16.3833 22.7502 16.3833C22.7502 16.9175 22.3939 17.0956 22.0376 17.2737C21.5922 17.4518 21.2359 17.7189 20.7014 17.5408C20.4341 17.4518 20.3451 17.6299 20.1669 17.8079C20.0778 17.897 19.8106 17.986 19.7215 17.897C19.5433 17.808 19.3652 17.7189 19.187 17.897C18.5635 18.3422 17.8508 18.7874 17.1382 19.0545C15.9802 19.4107 16.2474 19.5887 16.1583 20.4791C16.0692 21.1915 16.4256 21.9038 15.9802 22.5271C16.3365 23.2394 15.9802 24.1298 16.5146 24.8421C16.871 25.2873 17.0491 25.9996 16.6037 26.6229C16.4256 26.89 16.3365 27.2462 16.5146 27.6023C17.6727 29.9173 16.871 29.5612 17.0491 32.3214C17.0491 32.5886 17.0491 32.8557 17.2273 33.1228C17.4054 33.3899 17.4054 33.7461 17.4945 34.1022C17.5836 34.6365 17.6727 35.1707 17.7618 35.6159C17.7618 35.7049 17.9399 35.794 18.029 35.794C18.029 35.794 18.1181 35.794 18.2071 35.794C18.6525 35.0817 19.187 34.3693 19.5433 33.568C19.8106 32.9447 20.4341 32.4995 20.6123 31.7872C20.6123 31.6091 20.9686 31.431 21.0577 31.253C21.414 30.6297 22.2157 30.1845 21.9485 29.2941C21.9485 29.205 22.0376 29.116 22.1266 29.027C22.7502 28.4037 22.6611 27.6023 22.572 26.801C22.572 26.5338 22.483 26.3558 22.483 26.0887C22.483 25.8215 22.8393 25.5544 23.1065 25.7325C23.4628 26.0886 23.8192 26.0886 24.1755 25.7325C24.6209 25.2873 25.2444 25.0202 25.6898 24.575C26.2243 24.1298 26.4025 23.6846 26.6697 23.1503C27.026 22.6161 27.8277 22.527 27.9168 21.7257C27.9168 21.4586 28.095 21.2805 28.3622 21.2805C28.7185 21.2805 28.8967 21.1915 29.0748 20.9243C29.3421 20.3011 30.1438 20.034 30.322 19.3216C30.411 18.9655 31.1237 19.0545 31.2127 18.5203C31.3018 17.808 31.8363 18.2532 32.1926 18.0751C32.3708 17.986 32.5489 17.897 32.5489 17.7189C32.638 17.5408 32.7271 17.2737 32.7271 17.0956C32.9053 16.3833 33.2616 16.2052 33.9742 16.2052C34.2415 16.2052 34.4196 16.2052 34.6868 16.2052C35.0432 16.1162 35.2213 15.671 34.9541 15.3148C34.865 15.1368 34.6869 15.0477 34.865 14.8696C35.4886 14.0683 36.1121 13.2669 36.7357 12.5546C36.7357 12.4656 36.9138 12.5546 37.0029 12.5546C37.0029 12.5546 37.092 12.6437 37.092 12.7327C37.0029 13.0889 36.9138 13.356 36.8248 13.7121C36.8248 13.8012 36.8248 13.8012 36.8248 13.8902C36.8248 13.8902 36.9138 13.9792 37.0029 13.9792C37.7155 13.8012 37.9828 13.356 37.8046 12.7327C37.7155 12.3765 37.7155 12.0204 37.7155 11.6642C37.7155 11.5752 37.8046 11.3971 37.8937 11.3971C37.9828 11.3971 38.0719 11.4861 38.1609 11.5752C38.25 11.6642 38.4282 12.0204 38.4282 12.0204C39.2299 11.6642 40.2098 12.0204 40.8333 11.219C40.9224 11.13 41.1006 10.9519 41.1896 10.8629C41.4569 10.6848 41.7241 10.5067 42.0804 10.3286C42.2586 10.2396 42.5258 10.4176 42.5258 10.6848C42.5258 11.4861 42.1695 12.1094 41.546 12.6437C40.6552 13.356 39.5862 13.8902 38.7845 14.6916C37.9828 15.582 37.0029 16.1162 36.1121 16.9175C35.7558 17.1847 35.4886 17.5408 34.9541 17.6299C34.7759 17.6299 34.5087 17.897 34.4196 18.0751C34.2415 18.4312 33.9742 18.7874 33.6179 18.9655C33.0834 19.2326 32.8162 19.9449 32.0145 19.7668C32.0145 20.4791 31.1237 20.5682 31.0346 21.2805C30.9455 21.8147 30.5892 22.1709 30.0547 22.438C29.8766 22.5271 29.6984 22.7051 29.4312 22.7942C29.3421 22.8832 29.253 22.9722 29.253 23.0613C29.3421 23.7736 28.8967 24.2188 28.5404 24.7531C28.095 25.3763 27.5605 25.6435 26.7588 25.6435C26.5806 25.6435 26.3134 25.8215 26.2243 25.9996C26.0461 26.3558 25.868 26.7119 25.6898 27.0681C25.6898 27.1571 25.7789 27.3352 25.7789 27.3352C26.4025 27.3352 26.4025 28.1366 26.9369 28.2256C27.4714 28.2256 27.4714 28.5818 27.4714 28.9379C27.4714 29.205 27.3823 29.4722 27.3823 29.8283C27.026 29.8283 26.8479 30.0064 26.8479 30.3626C26.9369 30.8968 26.7588 31.1639 26.2243 31.1639C26.2243 30.6297 26.1352 30.0954 26.1352 29.6502C26.1352 29.2941 26.1352 28.9379 25.868 28.6708C25.3335 28.0475 25.3335 28.0475 24.799 28.4037C24.4427 28.6708 24.3536 28.7599 24.71 29.205C24.9772 29.6502 24.8881 30.0064 24.6209 30.4516C24.2646 30.9858 23.7301 31.342 23.1065 31.6091C22.7502 31.6981 22.6611 31.9653 22.8393 32.3214C22.9284 32.4995 22.7502 32.7666 22.7502 32.9447L22.6611 33.0337V32.9447C23.1065 32.8557 23.5519 33.0338 23.9973 32.7666C24.3536 32.4995 24.71 32.5886 25.1553 32.7666C25.3335 32.8557 25.6007 32.7666 25.7789 32.6776C26.0461 32.5886 26.3134 32.4105 26.5806 32.3214C26.8479 32.2324 27.2042 32.3214 27.3823 32.1433C27.7387 31.8762 27.2933 31.5201 27.2933 31.1639C27.2042 30.7187 27.2042 30.2735 27.2042 29.7393C27.4714 29.7393 27.6496 29.7393 27.9168 29.7393C28.2731 30.0954 28.2731 30.0954 28.6294 29.7393C29.1639 30.0064 29.6093 30.3626 29.6984 30.9858C29.7875 31.253 29.9656 31.5201 30.0547 31.7872C30.1438 32.3214 30.322 32.0543 30.6783 32.0543C31.1237 32.0543 31.48 32.4995 31.5691 33.0337C31.6581 33.568 31.8363 33.9241 32.1035 34.2803C32.2817 34.4584 32.3708 34.8145 32.5489 35.0816C32.3708 34.9926 32.2817 34.9036 32.1035 34.9036C31.9254 34.8145 31.7472 35.0817 31.8363 35.1707C31.9254 35.2597 32.0145 35.2597 32.1035 35.2597C32.2817 35.2597 32.3708 35.0816 32.5489 35.0816C33.3507 35.4378 33.707 36.1501 34.4196 36.5953C34.6869 36.7734 34.6869 37.2186 34.865 37.4857C34.9541 37.5748 34.9541 37.6638 35.0432 37.7528C35.6667 38.3761 36.2012 39.0884 36.8248 39.6227C37.5374 40.1569 37.8046 41.2254 38.7845 41.5816C39.1408 41.7596 39.4081 42.2939 39.6753 42.561C39.8535 42.7391 40.1207 42.7391 40.2098 42.472C40.2989 42.2939 40.3879 42.2048 40.477 42.0268C40.9224 40.8692 41.3678 39.8008 41.635 38.5542C41.7241 37.9309 41.9023 37.3077 42.1695 36.7734C42.4368 36.2392 42.6149 35.7049 42.704 35.1707C42.704 34.9036 42.7931 34.6365 42.8822 34.3693C43.6839 32.1433 44.2183 29.8283 44.8419 27.5133C45.1091 26.4448 45.3764 25.3763 45.7327 24.3079C45.9109 23.7736 46.2672 23.2394 46.3563 22.7051C46.4453 22.1709 46.7126 21.6367 46.8907 21.1024C47.3361 20.123 47.5143 18.9655 48.0488 17.986C48.1378 17.808 48.1378 17.5408 48.1378 17.2737C48.0488 16.2052 48.6723 15.3148 48.7614 14.2464C48.7614 14.0683 48.9396 13.8012 49.0286 13.6231C49.3849 13.1779 49.8303 12.7327 50.0976 12.2875C50.3648 11.7533 50.3648 11.0409 50.543 10.4177C50.8993 9.26014 51.3447 8.10263 51.7901 6.94512C51.8792 6.76704 51.9683 6.41087 52.1464 6.32183C52.5918 6.14375 52.5027 5.78759 52.5027 5.43143C52.5027 4.89719 52.5027 4.36295 53.3044 4.45199C53.3044 4.45199 53.3935 4.18487 53.3935 4.00679C53.2154 3.56159 52.8591 3.47254 52.4137 3.47254C51.9683 3.47254 51.5229 3.73966 51.0775 3.47254C50.9884 3.02735 50.8102 2.49312 50.2757 2.40408C49.3849 2.226 49.5631 1.42464 49.3849 0.890397C49.3849 0.801358 49.474 0.712329 49.5631 0.623289C49.7413 0.534249 49.9194 0.534244 50.0976 0.534244C50.6321 0.534244 51.2556 0.356159 51.7901 0.445199C52.3246 0.534238 52.9481 0.17809 53.4826 0.17809C54.1952 0.26713 54.9079 0.0890397 55.6205 0C55.8878 0 56.0659 0.0890343 55.9768 0.356153C55.9768 0.534233 55.8877 0.712312 55.7987 0.801352C55.6205 0.979432 55.5314 1.24656 55.6205 1.42464C55.9768 2.04792 55.7096 2.40407 55.1751 2.67119C54.6406 2.93831 54.3734 3.47255 54.2843 4.09583C54.1952 4.71911 54.1952 5.34239 53.7498 5.87663C53.6608 6.05471 53.5717 6.32184 53.5717 6.49992C53.6608 7.92455 52.9481 9.17111 52.5027 10.5067C52.4137 10.7738 52.2355 11.0409 52.1464 11.3081C51.7901 12.3765 51.5229 13.356 51.0775 14.4244C50.7211 15.3148 50.2757 16.2052 50.1867 17.1847C50.0976 17.7189 49.7413 18.2532 49.474 18.7874C49.2068 19.3216 49.1177 20.0339 48.4942 20.3901C48.4051 20.4791 48.316 20.6572 48.316 20.8353C48.316 21.5476 48.316 22.2599 47.9597 22.8832C48.0488 24.1298 47.3361 25.1092 47.0689 26.1777C46.8016 27.2462 46.6235 28.3146 46.3563 29.3831C46.089 30.3625 45.7327 31.342 45.5545 32.4105C45.5545 32.6776 45.3764 33.0338 45.1982 33.2118C44.6637 33.7461 44.6637 34.4584 44.4856 35.0816C44.2183 36.4172 43.862 37.7528 43.5948 39.1775C43.5057 39.8008 42.8822 39.8898 42.7931 40.424C42.704 40.8692 42.7931 41.3144 42.704 41.7596C42.6149 42.1158 42.3477 42.472 42.0804 42.8281C41.9023 43.0952 42.1695 43.5404 41.8132 43.8076C41.4569 44.0747 41.546 44.4308 41.4569 44.787C41.3678 44.9651 41.2787 45.0541 41.1006 44.9651C39.5862 43.8966 38.1609 42.7391 36.8248 41.4035C36.6466 41.2254 36.6466 40.9583 36.5575 40.7802C36.5575 40.6912 36.6466 40.6912 36.6466 40.6021V40.5131C36.6466 40.6021 36.5575 40.6912 36.5575 40.7802C36.2903 40.6021 35.8449 40.5131 35.6667 40.335C34.7759 39.2665 33.6179 38.4652 32.8162 37.3076C32.5489 36.8624 32.1035 36.5953 31.6581 36.2392C30.9455 35.6159 30.2329 34.9036 29.6093 34.1912C29.9656 34.1912 29.8766 34.0132 29.8766 33.9241C30.0547 33.9241 30.322 33.9241 30.5001 33.9241C30.5892 33.9241 30.6783 33.7461 30.6783 33.7461C30.6783 33.657 30.5892 33.568 30.5001 33.4789C30.411 33.4789 30.2329 33.4789 30.2329 33.4789C30.0547 33.657 29.9656 33.7461 29.8766 33.9241ZM46.3563 6.23278C46.3563 6.14374 46.3563 6.05471 46.2672 5.96567L46.1781 5.87663C46.1781 5.96567 46.089 6.0547 46.089 6.14374C46.089 6.14374 46.2672 6.23278 46.3563 6.23278ZM29.0748 32.2324C29.0748 32.0543 29.0748 31.9653 28.9858 31.8762C28.9858 31.7872 28.8967 31.7872 28.8967 31.7872C28.8076 31.7872 28.7185 31.7872 28.6294 31.8762C28.5404 31.9653 28.5404 32.0543 28.5404 32.1433C28.5404 32.3214 28.6294 32.4105 28.7185 32.4995C28.8076 32.4105 28.9858 32.3214 29.0748 32.2324ZM51.6119 12.3765C51.6119 12.2875 51.5229 12.2875 51.5229 12.1985C51.4338 12.2875 51.4338 12.2875 51.3447 12.3765C51.4338 12.3765 51.4338 12.4656 51.5229 12.4656L51.6119 12.3765ZM23.4628 30.2735L23.3738 30.3626C23.3738 30.5406 23.4628 30.5406 23.5519 30.4516C23.5519 30.4516 23.641 30.3625 23.5519 30.2735C23.5519 30.2735 23.5519 30.2735 23.4628 30.2735ZM27.026 33.0337C27.026 32.9447 27.026 32.9447 27.026 32.8557L26.9369 32.7666L26.8479 32.8557C26.8479 32.9447 26.9369 33.0338 26.9369 33.1228C26.9369 33.1228 26.9369 33.1228 27.026 33.0337ZM38.4282 12.9108L38.3391 12.8217L38.25 12.9108H38.4282ZM54.5516 2.40408L54.4625 2.31504L54.3734 2.40408H54.5516Z" fill="#BEE173"/>
<path fill-rule="evenodd" clip-rule="evenodd" d="M20.7906 4.89648C20.9687 4.7184 21.0578 4.45128 21.236 4.45128C22.5722 4.2732 23.8193 3.82801 25.1555 3.73897C26.7589 3.64993 28.3623 3.38282 29.9657 3.38282C30.233 3.38282 30.4111 3.29377 30.6784 3.20473C31.2129 2.93761 31.8364 2.49242 32.46 2.93762C32.7272 2.75954 32.9054 2.6705 33.1726 2.49242C33.4398 2.40338 33.618 2.40337 33.7962 2.67049C33.9743 2.9376 34.0634 3.20473 34.4197 2.84858C34.776 2.49242 35.2214 2.31433 35.6668 2.22529C36.9139 2.13625 38.072 1.95817 39.3191 1.86913C40.388 1.78009 41.3679 1.42392 42.4369 1.69104C42.5259 1.69104 42.5259 1.69106 42.615 1.60203C43.7731 1.06779 45.0202 1.24586 46.1782 0.978736C46.3564 0.978736 46.6236 0.889696 46.8908 0.978736C47.3362 1.15682 47.6926 0.978725 48.0489 0.800646C48.227 0.711606 48.4943 0.622582 48.6724 0.622582C48.7615 0.622582 48.9397 0.711628 48.9397 0.711628C49.2069 0.978747 49.1178 1.24586 49.0287 1.51298C48.9397 1.7801 48.8506 2.04722 48.4943 2.04722C48.227 2.04722 47.9598 1.95818 47.8707 2.04722C47.4253 2.58146 46.7127 2.4924 46.0891 2.58144C45.2874 2.67048 44.4857 2.75952 43.684 3.02664C43.5058 3.11568 43.3277 3.11568 43.1495 3.11568C42.3478 2.84857 41.6351 3.11569 40.9225 3.29377C39.1409 3.56089 37.3593 3.73898 35.5777 3.82802C34.9542 3.82802 34.3306 3.91704 33.7071 3.91704C32.9054 4.00608 32.2818 4.27321 31.9255 5.07457C31.9255 5.16361 31.8364 5.16361 31.8364 5.16361C31.8364 5.07457 31.7473 4.98552 31.7473 4.89648C31.7473 4.62936 31.8364 4.45127 31.4801 4.36224C31.2129 4.36224 31.0347 4.36224 30.7675 4.36224C30.1439 4.45127 29.5203 4.80744 28.8968 4.45128C28.3623 4.80744 27.8278 4.62938 27.2934 4.71842C26.2244 4.98553 25.1555 5.16361 24.0865 5.16361C23.4629 5.16361 22.8394 5.43073 22.3049 5.60881C21.6814 5.78689 21.5923 5.78688 21.325 5.34168C21.0578 5.34168 20.8796 5.1636 20.7906 4.89648Z" fill="#BEE173"/>
<path fill-rule="evenodd" clip-rule="evenodd" d="M9.21024 6.67727C9.29932 6.41015 9.47748 6.14305 9.74471 6.05401C11.4372 5.96497 13.0407 5.51977 14.7332 5.51977C15.8912 5.51977 17.1383 5.43072 18.2963 4.98552C18.8308 4.71841 19.5435 4.71841 20.167 4.62937C20.3452 4.62937 20.6124 4.80744 20.7906 4.89648C20.8796 5.34168 20.9687 5.69785 20.6124 6.05401C20.2561 6.32113 19.9888 6.4992 19.5435 6.32112C19.1871 6.14304 19.009 6.41015 18.8308 6.58823C18.5636 6.85535 18.2963 6.9444 17.8509 6.85536C17.4946 6.76632 17.0492 6.76631 16.6929 6.67727C16.5148 6.67727 16.2475 6.58823 16.1584 6.67727C15.5349 7.30055 14.9113 7.03344 14.1987 6.85536C14.0205 6.85536 13.8424 6.94439 13.7533 7.03343C13.486 7.30055 13.1297 7.3896 12.7734 7.30056C12.0608 7.12248 11.4372 7.38959 10.7246 7.56767C10.012 7.74575 9.92288 7.74574 9.47748 7.03343C9.3884 6.94439 9.29932 6.76631 9.21024 6.67727Z" fill="#BEE173"/>
<path fill-rule="evenodd" clip-rule="evenodd" d="M48.7616 4.89754C49.0288 4.63042 48.9397 4.27426 49.0288 3.9181C49.0288 3.65098 49.2069 3.38387 49.296 3.20579C49.3851 3.11675 49.5633 3.0277 49.7414 3.0277C49.8305 3.0277 49.9196 3.20579 49.9196 3.29483C49.9196 3.47291 49.8305 3.651 49.9196 3.82908C49.9196 4.00716 50.0977 4.09619 50.1868 4.18523C50.0087 5.07563 49.2069 5.43178 48.4943 5.78794C48.4052 5.78794 48.3162 5.69889 48.2271 5.69889C48.2271 5.69889 48.2271 5.60987 48.2271 5.52083C48.4052 5.25371 48.5834 5.07562 48.7616 4.89754Z" fill="#BEE173"/>
<path fill-rule="evenodd" clip-rule="evenodd" d="M50.1868 4.18523C50.365 3.74003 50.6322 3.38368 51.2557 3.47272C50.9885 4.27408 50.9885 4.36331 50.1868 4.18523Z" fill="#BEE173"/>
<path fill-rule="evenodd" clip-rule="evenodd" d="M31.2129 6.41088C31.1238 6.49992 31.0347 6.67799 30.8565 6.76703C30.7675 6.85607 30.6784 6.76703 30.5893 6.76703C30.5893 6.67799 30.5893 6.49992 30.6784 6.49992C30.7675 6.41088 30.8565 6.32183 30.9456 6.32183C31.0347 6.23279 31.1238 6.32184 31.2129 6.41088Z" fill="#BEE173"/>
<path fill-rule="evenodd" clip-rule="evenodd" d="M29.7875 7.65778C29.7875 7.92489 29.6093 8.01394 29.4312 8.10297C29.3421 8.10297 29.253 8.10297 29.253 8.10297C29.1639 8.01394 29.1639 7.92491 29.1639 7.83587C29.253 7.65779 29.3421 7.56873 29.5203 7.47969C29.6093 7.47969 29.6984 7.47969 29.7875 7.47969C29.7875 7.56873 29.7875 7.65778 29.7875 7.65778Z" fill="#BEE173"/>
<path fill-rule="evenodd" clip-rule="evenodd" d="M24.9773 12.3765C24.8882 12.4656 24.7991 12.5546 24.621 12.6437C24.5319 12.6437 24.4428 12.5546 24.3537 12.5546C24.3537 12.5546 24.3537 12.4656 24.3537 12.3765C24.4428 12.2875 24.5319 12.1094 24.7101 12.0204C24.7991 12.0204 24.8882 12.1094 24.9773 12.1094C24.9773 12.1984 24.9773 12.2875 24.9773 12.3765Z" fill="#BEE173"/>
<path fill-rule="evenodd" clip-rule="evenodd" d="M27.7388 9.08198C27.8279 8.99294 27.8279 8.81485 28.006 8.90389V8.99294C28.006 8.99294 27.917 8.99294 27.7388 9.08198Z" fill="#BEE173"/>
<path fill-rule="evenodd" clip-rule="evenodd" d="M31.5692 13.9785C31.4801 14.5128 31.3911 14.958 31.0347 15.4032C30.4112 16.1155 29.6986 16.8278 29.1641 17.7182C28.6296 18.5196 27.917 19.2319 27.4716 20.1223C27.3825 20.3894 27.1152 20.5675 26.848 20.7456C26.7589 20.8346 26.5808 20.7456 26.5808 20.7456C26.4917 20.6565 26.4026 20.3894 26.4026 20.3004C26.4917 20.1223 26.5808 19.8552 26.7589 19.7661C27.2934 19.41 27.5606 18.9648 27.8279 18.4305C28.3624 17.5401 28.8968 16.6497 29.4313 15.7593C29.6095 15.4032 29.9658 15.047 30.3221 14.958C30.9457 14.6909 31.0347 13.9785 31.5692 13.9785Z" fill="#BEE173"/>
<path fill-rule="evenodd" clip-rule="evenodd" d="M22.1267 21.2808C22.1267 21.637 22.2158 22.0822 21.9486 22.4384C21.6814 22.8836 21.4141 23.3288 21.1469 23.774C20.8796 24.2192 20.7015 24.6644 20.4342 25.1096C19.8107 25.1986 19.2762 25.3767 19.3653 26.178C19.3653 26.3561 19.1871 26.5342 19.009 26.4452C18.9199 26.4452 18.8308 26.3561 18.7417 26.2671C18.4745 26 18.4745 25.7328 18.5636 25.4657C18.8308 24.7534 19.2762 24.1301 19.8107 23.5959C20.4342 22.9726 21.0578 22.4384 21.4141 21.637C21.5923 21.2809 21.9486 21.3699 22.1267 21.2808Z" fill="#BEE173"/>
<path fill-rule="evenodd" clip-rule="evenodd" d="M21.1469 28.3136C21.236 29.0259 20.8796 29.5601 20.6124 30.0944C20.3452 30.7177 19.8998 31.2519 19.9888 32.0532C19.9888 32.1423 19.7216 32.4094 19.5435 32.4984C19.4544 32.5875 19.1871 32.4094 19.0981 32.3204C18.7417 31.9642 18.6527 31.43 19.009 31.2519C19.7216 30.8067 19.8998 30.0944 20.3452 29.4711C20.5233 29.293 20.5233 28.9369 20.7015 28.6697C20.7015 28.4026 20.9687 28.4026 21.1469 28.3136Z" fill="#BEE173"/>
<path fill-rule="evenodd" clip-rule="evenodd" d="M34.4196 26.5328C33.9742 26.7999 33.7961 27.2451 33.6179 27.6903C33.5288 27.9574 33.5288 28.3136 33.0834 28.3136C32.9943 28.3136 32.9943 27.8684 32.9943 27.6903C32.8162 26.7999 33.3507 26.2657 33.8851 25.7314C33.9742 25.6424 34.2414 25.6424 34.3305 25.6424C34.4196 25.7314 34.5087 25.9095 34.5087 26.0876C34.5087 26.2657 34.4196 26.4438 34.4196 26.5328Z" fill="#BEE173"/>
<path fill-rule="evenodd" clip-rule="evenodd" d="M25.5118 22.4384C25.4227 22.3493 25.2445 22.2603 25.2445 22.1712C25.4227 21.726 25.6009 21.3699 25.8681 21.0137C25.8681 20.9247 26.1353 20.9247 26.2244 21.0137C26.3135 21.1028 26.4916 21.2808 26.4916 21.3699C26.4026 21.8151 26.1353 22.1712 25.6899 22.3493C25.6009 22.5274 25.6009 22.4384 25.5118 22.4384Z" fill="#BEE173"/>
<path fill-rule="evenodd" clip-rule="evenodd" d="M24.8883 23.5959C25.0665 24.3082 24.3538 24.3973 23.8194 24.7534C23.8194 24.7534 23.7303 24.7534 23.6412 24.7534C23.6412 24.6644 23.5521 24.4863 23.5521 24.4863C23.9084 24.0411 24.1757 23.5959 24.532 23.1507L24.7101 23.0616C24.7992 23.1507 24.7992 23.2397 24.8883 23.3288C24.9774 23.3288 24.9774 23.4178 24.8883 23.5959Z" fill="#BEE173"/>
<path fill-rule="evenodd" clip-rule="evenodd" d="M22.9284 20.4795C22.8393 20.3905 22.7502 20.3905 22.6611 20.3014C22.5721 20.2124 22.5721 20.0343 22.6611 20.0343C22.9284 19.6781 23.2847 19.411 23.641 19.0548C23.641 19.0548 23.7301 19.0548 23.8192 19.0548C23.9083 19.0548 23.9083 19.1439 23.9083 19.1439C23.8192 19.6781 23.4629 20.0343 23.1065 20.4795C23.1065 20.5685 23.0175 20.4795 22.9284 20.4795Z" fill="#BEE173"/>
<path fill-rule="evenodd" clip-rule="evenodd" d="M18.3854 32.6769C18.6527 32.7659 18.8308 33.033 18.9199 33.3001C18.9199 33.5673 18.8308 33.5673 18.6527 33.6563C18.3854 33.7454 18.2073 33.5673 18.1182 33.3001C18.0291 33.1221 18.1182 32.944 18.1182 32.8549C18.2073 32.6769 18.2964 32.6769 18.3854 32.6769Z" fill="#BEE173"/>
<path fill-rule="evenodd" clip-rule="evenodd" d="M21.1469 28.3136C21.236 28.0465 21.2359 27.7797 21.414 27.5126C21.5031 27.4235 21.6813 27.3345 21.7703 27.3345C22.0376 27.4235 22.2157 27.6906 22.1267 27.9578C21.9485 28.3139 21.7704 28.4026 21.1469 28.3136Z" fill="#BEE173"/>
<path fill-rule="evenodd" clip-rule="evenodd" d="M32.2818 28.404C32.3709 28.4931 32.549 28.5821 32.549 28.6712C32.6381 28.9383 32.5491 29.1164 32.2818 29.1164C32.1927 29.1164 32.0146 28.9383 31.9255 28.8492C31.9255 28.6711 32.0146 28.4931 32.2818 28.404Z" fill="#BEE173"/>
<path fill-rule="evenodd" clip-rule="evenodd" d="M35.8449 35.4368C36.0231 35.7929 36.1122 35.8819 36.2012 35.971C36.2012 36.06 36.1121 36.1491 36.1121 36.2381C36.0231 36.1491 35.8449 36.1491 35.8449 36.06C35.7558 35.971 35.8449 35.882 35.8449 35.4368Z" fill="#BEE173"/>
<path fill-rule="evenodd" clip-rule="evenodd" d="M28.8078 29.7395C28.5406 29.7395 28.3624 29.7395 28.0952 29.7395C28.0952 29.6505 28.0061 29.5615 28.0061 29.4724C28.0061 29.3834 28.0061 29.2053 28.0952 29.2053C28.2733 29.2053 28.4515 29.1163 28.5406 29.2053C28.6296 29.2943 28.7187 29.5614 28.8078 29.7395Z" fill="#BEE173"/>
<path fill-rule="evenodd" clip-rule="evenodd" d="M35.1324 26.178C35.0433 26.3561 35.0433 26.6232 34.9542 26.8013C34.7761 27.0684 34.5979 26.8904 34.4198 26.5342C34.687 26.4452 34.8652 26.3561 35.1324 26.178Z" fill="#BEE173"/>
<path fill-rule="evenodd" clip-rule="evenodd" d="M36.7358 22.8832C36.6467 22.9723 36.6467 23.0613 36.5576 23.0613C36.5576 23.0613 36.3795 22.9723 36.3795 22.8832C36.4685 22.7942 36.4685 22.7051 36.5576 22.7051C36.6467 22.7051 36.7358 22.7942 36.7358 22.8832Z" fill="#BEE173"/>
<path fill-rule="evenodd" clip-rule="evenodd" d="M39.4972 20.1229C39.4081 20.1229 39.319 20.212 39.23 20.212C39.23 20.1229 39.23 20.0339 39.23 19.9448C39.319 19.8558 39.4081 19.9448 39.4972 19.9448C39.4972 20.0339 39.4972 20.0339 39.4972 20.1229Z" fill="#BEE173"/>
<path fill-rule="evenodd" clip-rule="evenodd" d="M41.1008 10.8625C41.0117 10.9516 40.8335 11.1297 40.7444 11.2187C40.6554 11.1297 40.5663 10.9516 40.4772 10.8625C40.3881 10.6845 40.5663 10.5064 40.7444 10.5954C40.8335 10.5954 41.0117 10.7735 41.1008 10.8625Z" fill="#BEE173"/>
<path fill-rule="evenodd" clip-rule="evenodd" d="M24.8882 17.8959C24.7991 17.8959 24.71 17.985 24.6209 17.985C24.6209 17.8959 24.5319 17.8069 24.5319 17.7178C24.5319 17.6288 24.71 17.6288 24.7991 17.6288C24.8882 17.6288 24.8882 17.8069 24.8882 17.8959Z" fill="#BEE173"/>
<path fill-rule="evenodd" clip-rule="evenodd" d="M18.1182 26.9787V27.0677C18.0292 27.1568 17.7619 27.0677 17.851 26.8897L17.9401 26.8006C18.0292 26.8897 18.0292 26.9787 18.1182 26.9787Z" fill="#BEE173"/>
<path fill-rule="evenodd" clip-rule="evenodd" d="M39.5864 27.9588C39.5864 28.0479 39.5864 28.226 39.5864 28.315C39.3191 28.1369 39.6754 28.0479 39.5864 27.9588Z" fill="#BEE173"/>
<path fill-rule="evenodd" clip-rule="evenodd" d="M41.2788 25.2876L41.3679 25.3767L41.2788 25.4657C41.1898 25.4657 41.2788 25.3767 41.2788 25.2876Z" fill="#BEE173"/>
<path fill-rule="evenodd" clip-rule="evenodd" d="M20.4342 25.1085C20.5233 25.1975 20.6124 25.2866 20.7015 25.3756L20.6124 25.4647C20.3452 25.4647 20.4342 25.2866 20.4342 25.1085Z" fill="#BEE173"/>
<path fill-rule="evenodd" clip-rule="evenodd" d="M35.0432 24.9301H34.9541C34.9541 24.841 34.865 24.841 34.9541 24.752C34.9541 24.752 35.0432 24.752 35.0432 24.9301Z" fill="#BEE173"/>
<path fill-rule="evenodd" clip-rule="evenodd" d="M17.94 23.4168C17.8509 23.5058 17.8509 23.5948 17.7619 23.6839L17.6728 23.5948C17.6728 23.5058 17.7619 23.4168 17.8509 23.3277C17.8509 23.4168 17.94 23.4168 17.94 23.4168Z" fill="#BEE173"/>
<path fill-rule="evenodd" clip-rule="evenodd" d="M37.6265 21.9932C37.6265 21.9041 37.7156 21.8151 37.7156 21.726C37.8937 21.9041 37.6265 21.9041 37.6265 21.9932Z" fill="#BEE173"/>
<path fill-rule="evenodd" clip-rule="evenodd" d="M40.9225 18.074V18.2521L40.8334 18.163L40.9225 18.074Z" fill="#BEE173"/>
<path fill-rule="evenodd" clip-rule="evenodd" d="M43.6841 20.9233L43.595 20.7452H43.7732L43.6841 20.9233Z" fill="#BEE173"/>
<path fill-rule="evenodd" clip-rule="evenodd" d="M22.2159 21.3685C22.305 21.2794 22.305 21.2795 22.3941 21.1904V21.2794C22.305 21.2794 22.2159 21.2794 22.2159 21.3685Z" fill="#BEE173"/>
<path fill-rule="evenodd" clip-rule="evenodd" d="M35.1324 26.2671L35.2215 26.178H35.1324L35.1324 26.2671Z" fill="#BEE173"/>
<path fill-rule="evenodd" clip-rule="evenodd" d="M26.4026 31.0752C26.4026 31.2533 26.4917 31.4314 26.4026 31.5204C26.4026 31.6985 26.1354 31.7875 26.0463 31.6095C25.9572 31.5204 25.9572 31.2533 25.9572 31.1643C26.0463 31.1643 26.2245 31.1643 26.4026 31.0752Z" fill="#BEE173"/>
</svg>
