<svg width="91" height="54" viewBox="0 0 91 54" fill="none" xmlns="http://www.w3.org/2000/svg">
<path fill-rule="evenodd" clip-rule="evenodd" d="M29.3935 47.9953C29.5386 40.0296 40.1291 37.7123 45.3519 32.0639C46.9477 30.326 52.1705 22.5051 52.4606 19.3188C53.186 13.8153 50.7197 8.45657 45.3519 5.84962C36.5022 6.57377 29.1033 14.8291 22.2848 20.1878C18.5128 23.2293 13.7253 25.1121 11.9844 27.2845C9.80821 29.8915 6.32639 37.5675 6.47147 40.0296C6.61654 43.3607 8.35745 45.3884 11.259 47.1263C15.6113 47.7057 16.0465 44.5194 19.9635 44.809C23.5904 40.7538 27.3624 37.2778 32.7302 32.9329C36.9375 29.457 45.0617 24.6776 44.6265 20.1878C44.4814 18.305 43.1757 15.9877 41.4348 15.4084C35.3416 13.3808 31.8598 21.781 27.0723 26.5604C26.2018 27.4294 24.4609 29.3122 23.8806 29.7467C23.1552 30.326 21.4143 29.3122 20.6889 29.7467C19.8185 30.1812 18.6579 34.6709 15.9014 32.0639C17.062 27.8638 21.7045 22.2155 26.2018 18.5947C30.8443 14.8291 37.0825 10.0497 44.4814 12.2222C54.7818 17.7257 42.3053 31.6294 37.3727 35.9744C36.2121 36.9882 35.0515 36.4089 33.4556 37.5675C28.8132 40.7538 21.7045 51.7609 15.176 52.6299C9.51807 53.354 1.82903 48.285 0.813495 43.0711C-0.0569613 38.5813 3.8601 28.8776 6.32639 25.5465C9.08284 21.9258 15.7563 17.4361 20.6889 13.6705C30.6992 6.13927 34.3261 4.83577 45.3519 0.925342C49.8492 -0.667794 54.2015 6.57374 56.5227 9.61518C57.8284 24.9672 51.3 32.3536 43.0307 38.1468C39.2587 42.2021 35.0515 49.1539 29.3935 47.9953Z" fill="#6EA7E1"/>
<path fill-rule="evenodd" clip-rule="evenodd" d="M81.2729 37.6538C77.3055 35.6877 78.6585 29.8164 77.0621 25.85C76.5683 24.6352 73.8805 20.1525 72.3488 19.2494C69.7563 17.5769 66.4779 17.5423 63.8924 19.6194C62.1528 24.2375 64.5416 29.9167 65.6132 34.6159C66.2446 37.2338 66.0526 40.0865 66.7303 41.4775C67.5227 43.1903 70.5515 46.764 71.8229 47.2763C73.5309 47.9951 74.9634 47.6025 76.5261 46.5579C77.8516 44.509 76.3543 43.5331 77.4308 41.634C76.2556 38.8481 75.4058 36.1269 74.4988 32.3975C73.7525 29.4577 73.2824 24.2402 70.9233 23.3917C69.943 23.0171 68.4684 23.1223 67.7636 23.8592C65.2967 26.4384 68.6893 30.1842 69.9525 33.7254C70.1822 34.3692 70.7143 35.6913 70.7947 36.0861C70.9133 36.5883 69.9902 37.2219 70.0361 37.6896C70.0475 38.2302 72.0272 39.8804 70.0624 40.6455C68.2282 39.0642 66.4939 35.3894 65.7438 32.2694C64.9554 29.0421 64.037 24.7721 66.887 21.5714C72.1001 17.7046 76.1197 27.2773 77.1302 30.7881C77.3637 31.6121 76.7968 32.0575 76.9996 33.1346C77.4969 36.2242 81.3371 42.4117 80.222 45.8981C79.2411 48.9127 74.8669 51.5707 72.0061 50.8417C69.5436 50.2119 65.5997 45.9376 64.5123 43.9069C63.3485 41.6615 62.679 37.2417 61.9596 33.8686C60.5553 27.0496 60.7625 24.9177 61.4185 18.449C61.6871 15.811 66.3596 15.3456 68.4392 14.9023C76.4622 17.8952 78.6214 22.9306 79.5664 28.4619C80.7072 31.3208 83.1997 35.0867 81.2729 37.6538Z" fill="#BEE173"/>
</svg>
