<svg width="32" height="32" viewBox="0 0 32 32" fill="none" xmlns="http://www.w3.org/2000/svg">
<circle cx="16" cy="16" r="16" fill="#C79BFD"/>
<path fill-rule="evenodd" clip-rule="evenodd" d="M19.6667 3C21.076 3.67195 20.0343 5.44344 19.973 6.84842C19.9118 9.35294 19.973 12.1629 20.2794 14.2398C22.6691 15.4615 26.7132 15.4615 28 16.9276C27.4485 18.8213 24.9975 18.8213 23.527 19.6154C21.9951 20.4706 20.8922 21.7534 19.3603 22.3032C18.3799 24.3801 19.4216 28.5339 17.8897 30C15.4387 28.9615 15.0098 25.2964 14.0294 22.6086C10.4755 23.3416 9.25001 26.3959 5.08335 26.457C5.69609 23.0973 7.3505 20.8371 8.08579 17.5385C6.98285 14.9118 3.91912 14.1787 3 11.3077C5.6348 10.6968 8.69853 11.9186 11.027 11.3077C11.8848 11.0633 12.9265 9.71946 14.5809 8.07014C16.7255 5.99321 17.8284 4.89367 19.6667 3ZM17.8897 10.7579C15.8677 10.819 14.9485 11.9796 14.0294 13.1403C14.5809 13.9955 15.7451 12.1018 16.1128 12.8348C14.2132 14.4842 11.2108 15.0339 9.86275 17.2941C12.3137 16.9276 13.6618 15.7059 15.1936 14.6063C16.1128 13.9955 17.0931 13.4457 17.5833 12.5294C17.5221 11.491 16.2353 13.0792 16.4191 12.224C16.848 11.6742 17.951 11.7964 17.8897 10.7579ZM14.8873 16.6833C16.2966 16.3778 17.6446 16.0724 17.8897 14.6063C16.4191 14.7896 15.2549 15.3394 14.8873 16.6833ZM13.4167 17.2941C12.1912 18.638 10.1691 19.2489 9.25 20.8371C11.4559 20.2262 12.375 18.3937 14.5809 17.8439C13.4167 19.5543 11.027 20.043 9.80147 21.6923C11.5784 21.8145 13.049 18.6991 14.2745 20.2262C15.3775 19.9819 16.2353 19.4321 16.6642 18.4548C16.7868 17.5385 15.8064 19.1878 15.7451 18.1493C15.8677 17.1719 18.3186 16.9276 17.5221 16.0724C16.174 16.7443 15.3162 17.7828 13.4167 17.2941ZM10.4142 18.4548C10.9044 18.9434 11.7623 18.3326 11.8848 17.5385C10.9657 17.4163 10.7206 17.9661 10.4142 18.4548ZM15.5 20.8371C17.0931 20.6538 18.0735 19.8597 18.5025 18.4548C17.3382 19.1267 15.9902 19.5543 15.5 20.8371ZM19.6667 20.8371C20.7083 21.1425 21.9338 20.1652 21.1373 19.6765C20.7696 20.1652 19.7279 19.9819 19.6667 20.8371ZM16.1128 21.9977C17.0931 22.3032 18.0735 21.0204 17.277 20.5317C17.0931 21.2036 16.2966 21.3258 16.1128 21.9977Z" fill="#F9F6EE"/>
</svg>
