<svg width="43" height="46" viewBox="0 0 43 46" fill="none" xmlns="http://www.w3.org/2000/svg">
<path fill-rule="evenodd" clip-rule="evenodd" d="M28.6667 0C31.0907 1.1448 29.299 4.16289 29.1936 6.55656C29.0882 10.8235 29.1936 15.6109 29.7206 19.1493C33.8309 21.2308 40.7868 21.2308 43 23.7285C42.0515 26.9547 37.8358 26.9548 35.3064 28.3077C32.6716 29.7647 30.7745 31.9502 28.1397 32.8869C26.4534 36.4253 28.2451 43.5023 25.6103 46C21.3946 44.2308 20.6569 37.9864 18.9706 33.4072C12.8578 34.6561 10.75 39.8597 3.58336 39.9638C4.63728 34.2398 7.48286 30.3891 8.74756 24.7692C6.85051 20.2941 1.58088 19.0452 0 14.1538C4.53186 13.1131 9.80147 15.1946 13.8064 14.1538C15.2819 13.7376 17.0735 11.448 19.9191 8.63801C23.6079 5.09955 25.5049 3.22624 28.6667 0ZM25.6103 13.2172C22.1324 13.3213 20.5515 15.2986 18.9706 17.276C19.9191 18.733 21.9216 15.5068 22.5539 16.7557C19.2868 19.5656 14.1226 20.5023 11.8039 24.3529C16.0196 23.7285 18.3383 21.6471 20.9731 19.7738C22.5539 18.733 24.2402 17.7964 25.0833 16.2353C24.9779 14.4661 22.7647 17.1719 23.0809 15.7149C23.8186 14.7783 25.7157 14.9864 25.6103 13.2172ZM20.4461 23.3122C22.8701 22.7919 25.1887 22.2715 25.6103 19.7738C23.0809 20.086 21.0784 21.0226 20.4461 23.3122ZM17.9167 24.3529C15.8088 26.6425 12.3309 27.6833 10.75 30.3891C14.5441 29.3484 16.125 26.2262 19.9191 25.2896C17.9167 28.2036 13.8064 29.0362 11.6985 31.8462C14.7549 32.0543 17.2843 26.7466 19.3922 29.3484C21.2892 28.9321 22.7647 27.9955 23.5025 26.3303C23.7132 24.7692 22.027 27.5792 21.9216 25.81C22.1324 24.1448 26.348 23.7285 24.9779 22.2715C22.6593 23.4163 21.1838 25.1855 17.9167 24.3529ZM12.7525 26.3303C13.5956 27.1629 15.0711 26.1222 15.2819 24.7692C13.701 24.5611 13.2794 25.4977 12.7525 26.3303ZM21.5 30.3891C24.2402 30.0769 25.9265 28.724 26.6642 26.3303C24.6618 27.4751 22.3432 28.2036 21.5 30.3891ZM28.6667 30.3891C30.4583 30.9095 32.5662 29.2443 31.1961 28.4118C30.5637 29.2443 28.7721 28.9321 28.6667 30.3891ZM22.5539 32.3665C24.2402 32.8869 25.9265 30.7014 24.5564 29.8688C24.2402 31.0136 22.8701 31.2217 22.5539 32.3665Z" fill="#6EA7E1"/>
</svg>
