<svg width="32" height="32" viewBox="0 0 32 32" fill="none" xmlns="http://www.w3.org/2000/svg">
<circle cx="16" cy="16" r="16" fill="#FF9DBA"/>
<path fill-rule="evenodd" clip-rule="evenodd" d="M21.6667 2C23.076 2.67195 22.0343 4.44344 21.973 5.84842C21.9118 8.35294 21.973 11.1629 22.2794 13.2398C24.6691 14.4615 28.7132 14.4615 30 15.9276C29.4485 17.8213 26.9975 17.8213 25.527 18.6154C23.9951 19.4706 22.8922 20.7534 21.3603 21.3032C20.3799 23.3801 21.4216 27.5339 19.8897 29C17.4387 27.9615 17.0098 24.2964 16.0294 21.6086C12.4755 22.3416 11.25 25.3959 7.08335 25.457C7.69609 22.0973 9.3505 19.8371 10.0858 16.5385C8.98285 13.9118 5.91912 13.1787 5 10.3077C7.6348 9.69683 10.6985 10.9186 13.027 10.3077C13.8848 10.0633 14.9265 8.71946 16.5809 7.07014C18.7255 4.99321 19.8284 3.89367 21.6667 2ZM19.8897 9.75792C17.8677 9.81901 16.9485 10.9796 16.0294 12.1403C16.5809 12.9955 17.7451 11.1018 18.1128 11.8348C16.2132 13.4842 13.2108 14.0339 11.8627 16.2941C14.3137 15.9276 15.6618 14.7059 17.1936 13.6063C18.1128 12.9955 19.0931 12.4457 19.5833 11.5294C19.5221 10.491 18.2353 12.0792 18.4191 11.224C18.848 10.6742 19.951 10.7964 19.8897 9.75792ZM16.8873 15.6833C18.2966 15.3778 19.6446 15.0724 19.8897 13.6063C18.4191 13.7896 17.2549 14.3394 16.8873 15.6833ZM15.4167 16.2941C14.1912 17.638 12.1691 18.2489 11.25 19.8371C13.4559 19.2262 14.375 17.3937 16.5809 16.8439C15.4167 18.5543 13.027 19.043 11.8015 20.6923C13.5784 20.8145 15.049 17.6991 16.2745 19.2262C17.3775 18.9819 18.2353 18.4321 18.6642 17.4548C18.7868 16.5385 17.8064 18.1878 17.7451 17.1493C17.8677 16.1719 20.3186 15.9276 19.5221 15.0724C18.174 15.7443 17.3162 16.7828 15.4167 16.2941ZM12.4142 17.4548C12.9044 17.9434 13.7623 17.3326 13.8848 16.5385C12.9657 16.4163 12.7206 16.9661 12.4142 17.4548ZM17.5 19.8371C19.0931 19.6538 20.0735 18.8597 20.5025 17.4548C19.3382 18.1267 17.9902 18.5543 17.5 19.8371ZM21.6667 19.8371C22.7083 20.1425 23.9338 19.1652 23.1373 18.6765C22.7696 19.1652 21.7279 18.9819 21.6667 19.8371ZM18.1128 20.9977C19.0931 21.3032 20.0735 20.0204 19.277 19.5317C19.0931 20.2036 18.2966 20.3258 18.1128 20.9977Z" fill="#F9F6EE"/>
</svg>
