<svg width="47" height="43" viewBox="0 0 47 43" fill="none" xmlns="http://www.w3.org/2000/svg">
<path fill-rule="evenodd" clip-rule="evenodd" d="M46.7276 24.2514C46.7276 24.1159 46.5913 23.9804 46.5913 23.9804C45.9102 23.7094 45.2291 23.574 44.6841 23.032H44.5478C44.4116 23.303 44.4116 23.4385 44.2754 23.7094C43.5942 22.3546 43.5942 22.3546 42.0957 21.4062C41.8232 21.2707 41.687 21.1353 41.4145 21.1353C41.0058 20.9998 40.8696 20.7288 40.5972 20.4579C40.3247 20.1869 39.7797 20.1869 39.5072 19.9159C38.8261 19.2385 38.1449 18.4256 37.4638 17.6127C37.7362 16.3934 38.4174 15.445 39.0986 14.3612C39.2348 14.0902 39.6435 13.8192 39.6435 13.5483C39.7798 12.4644 40.5972 11.6515 41.0058 10.5676C41.0058 10.7031 40.8696 10.7031 40.8696 10.8386C40.8696 10.7031 40.8696 10.7031 40.7334 10.5676H40.8696C41.142 10.1612 41.142 9.61927 41.8232 9.61927C41.9594 9.07734 42.0957 8.5354 42.3682 8.12895H42.5044C42.7768 7.99347 42.7768 7.7225 42.5044 7.45154C42.3681 7.31606 42.3681 7.04509 42.2319 6.77413C43.3217 7.04509 43.3217 6.23218 43.5942 5.82573C43.0493 5.14832 43.0493 5.14834 42.913 4.06448C41.5507 3.38706 40.3247 3.11609 39.2349 4.6064C39.0986 4.74188 38.9623 4.87738 38.8261 4.87738C37.8725 5.01286 37.0551 5.55479 36.3739 6.2322C35.6928 6.90962 34.6029 6.77413 33.9218 7.58703C33.1044 7.31606 32.4232 7.58703 31.8783 8.26444C30.9247 7.99348 30.6522 8.67088 30.3798 9.48378C29.6986 9.34829 29.0175 9.21279 28.3363 9.89021C28.2001 10.1612 27.6551 10.1612 27.2464 10.1612C26.9739 10.1612 26.8377 9.75475 26.5652 9.61927C25.7478 9.07734 25.0667 8.39992 24.658 7.45154C24.658 7.31606 24.3856 7.31604 24.2493 7.18056C23.9769 6.90959 23.7044 6.63862 23.4319 6.36765C23.1594 5.96121 23.0232 5.55477 22.4783 5.82573C22.2058 5.41928 21.9334 4.7419 21.2522 4.87738V4.74189C21.3885 4.47092 21.5246 4.19994 21.7971 3.79349C20.9797 3.52253 20.2986 2.84514 19.4812 3.52255C19.4812 3.11611 19.4812 2.70963 19.2087 2.43867C19.0725 2.1677 18.6638 2.03222 18.3913 1.76126C18.2551 1.62577 18.2551 1.35482 18.2551 1.21933C18.1189 0.812887 17.8464 0.406448 17.7101 0C17.029 0.406448 16.3478 0.812887 15.6667 1.21933C15.9391 2.03223 16.2116 2.84513 16.4841 3.38706C16.2116 3.65803 15.9391 3.929 15.9391 4.19997C16.2116 5.69027 16.0754 7.31605 16.8928 8.67087C17.029 8.94184 17.029 9.3483 17.029 9.61927C16.8928 10.4322 17.029 11.245 17.7101 11.9224C17.8464 12.0579 17.8464 12.3289 17.8464 12.5999C17.8464 13.0063 17.8464 13.4128 17.8464 13.6837V13.8192C17.9827 13.9547 17.9827 13.9547 18.1189 14.0902C18.1189 14.0902 17.9826 14.0902 17.9826 14.2257C17.9826 14.0902 17.9827 13.9547 17.8464 13.9547C17.7102 14.4966 17.5739 15.0386 17.3015 15.5805C16.6203 15.9869 15.9391 16.6643 14.9855 16.7998C14.0319 16.9353 13.2145 17.4772 12.2609 17.8837C11.3072 18.2901 10.3537 18.9675 9.40003 19.374C8.31018 19.7804 7.22029 20.3224 6.13043 21.1353C5.31304 21.8127 4.35942 22.0837 3.4058 22.3546C2.86087 22.4901 2.17974 22.4901 1.90728 22.761C1.36235 23.4385 0.544977 23.5739 0.136282 24.1159C4.98891e-05 24.2514 0.136232 24.3869 0 24.5223C0.136232 24.6578 0.408729 24.7933 0.544961 24.7933C0.544961 25.3352 0.408762 25.7417 0.408762 26.1481C1.77108 26.961 2.99712 26.5546 4.35944 26.1481C4.90436 26.0126 5.17688 25.8771 5.85804 26.0126C6.40297 26.1481 7.08407 26.1481 7.76523 26.1481C8.17393 25.4707 8.85511 25.8772 9.40003 25.7417C9.53627 25.7417 9.67248 25.3352 9.80871 25.1998C10.4899 25.6062 10.8986 25.8772 11.171 25.7417C11.9884 25.4707 12.8058 25.7417 13.6232 25.7417C14.8493 25.8772 16.0754 25.7417 17.3015 25.6062C18.2551 25.4707 18.5276 25.4707 18.8001 26.0126C18.9363 26.4191 19.0725 26.8255 19.0725 27.232C19.0725 27.6384 18.9363 28.0449 19.2087 28.3158C19.8899 29.3997 19.6174 30.619 19.6174 31.7029C19.6174 32.3803 19.4812 32.9222 19.7536 33.5996C19.8899 33.8706 19.8899 34.1416 19.7536 34.4126C19.4812 36.0383 19.7536 37.6641 20.0261 39.2899C20.1623 39.9673 20.2986 40.6448 20.4348 41.3222C21.1159 43.0834 23.9768 43.6254 25.2029 42.1351C26.2928 40.7802 27.3826 39.4254 27.7913 37.6641C27.9276 36.9867 28.2 36.4448 28.4725 35.9029C28.8812 35.3609 29.1536 34.6835 29.2899 34.0061C29.4261 33.3287 29.8348 32.7867 30.2435 32.1093C30.516 31.5674 30.9247 31.0255 31.0609 30.3481C31.1972 28.8578 32.4232 27.9094 32.8319 26.69C33.3769 26.961 33.9218 27.232 34.4667 26.961C34.603 26.8255 35.0117 26.8255 35.1479 26.961C36.1015 27.3675 37.1914 27.0965 38.2812 27.5029C39.0986 27.7739 40.1884 27.6384 41.142 27.6384C41.687 27.0965 42.0957 27.3675 42.6406 27.5029C44.2754 28.0449 45.6377 27.3675 47 26.1481C46.4551 25.4707 46.7276 24.9288 46.7276 24.2514ZM39.6435 8.67087C39.6435 8.80636 39.6435 8.80636 39.6435 8.80636L39.5072 8.67087C39.5072 8.67087 39.5073 8.53539 39.6435 8.67087ZM18.5276 5.96122C18.3914 5.96122 18.3913 6.09671 18.2551 6.09671C18.2551 5.96123 18.1189 5.96121 18.1189 5.82573C18.2551 5.96121 18.3914 5.82574 18.5276 5.96122ZM16.7566 1.35483C16.8928 1.21934 17.029 0.948353 17.1653 0.948353C17.574 0.948353 17.574 1.21935 17.4377 1.49032C17.4377 1.6258 17.1653 1.76126 17.1653 1.76126C17.029 1.76126 16.8928 1.62579 16.7566 1.35483ZM17.1653 5.01283C16.8928 4.74186 16.8928 4.33545 17.1653 4.19997C17.8464 3.929 17.7102 3.38707 17.9826 2.84514C18.8 3.25159 17.9826 3.92897 18.3913 4.33542C18.3913 4.33542 18.3914 4.47091 18.5276 4.47091C18.3914 4.47091 18.3913 4.47091 18.2551 4.47091L18.3913 4.33542C17.9826 4.60638 17.574 4.74186 17.1653 5.01283ZM18.3913 21.9481C17.7101 22.2191 17.4377 21.2708 16.7566 21.6772C16.3479 21.9482 15.6667 21.5417 15.1218 21.4062C14.5769 21.4062 14.0319 21.4062 13.487 21.4062C13.487 21.2707 13.487 21.2708 13.3508 21.1353C14.8493 20.4579 16.2116 19.7805 17.8464 19.103C18.5276 19.645 18.5276 20.5933 18.8001 21.4062C18.6638 21.5417 18.3913 21.8127 18.3913 21.9481ZM38.8261 9.48378C38.1449 9.34829 38.145 9.34828 37.8725 8.53538C38.2812 8.80635 38.2812 8.80636 38.8261 9.48378ZM37.7362 10.0257C37.8725 10.2967 37.8725 10.7031 38.0087 11.1095C37.7363 11.3805 37.6 11.516 37.3276 11.787C37.1913 11.1095 37.6 11.1095 38.0087 11.1095C37.7363 10.7031 37.4638 10.2967 37.1914 9.89021C37.4638 9.61924 37.6 9.89021 37.7362 10.0257ZM29.971 10.1612C30.1072 10.1612 30.1073 10.1612 30.2435 10.2967C30.2435 10.2967 30.2435 10.4321 30.1073 10.4321C30.1073 10.4321 29.971 10.4322 29.971 10.2967C29.8348 10.2967 29.8348 10.1612 29.971 10.1612ZM25.0667 11.245C25.2029 11.3805 25.2029 11.516 25.3392 11.787C25.2029 11.9224 25.0667 12.0579 24.9305 12.0579C24.7943 11.9225 24.658 11.787 24.658 11.6515C24.658 11.516 24.9305 11.3805 25.0667 11.245ZM19.6174 20.1869C19.4812 20.0514 19.6174 20.0514 19.6174 20.1869V20.1869ZM19.6174 12.8708C19.4812 12.1934 19.2087 11.516 19.8899 10.9741C20.2986 10.7031 20.1624 10.2967 20.1624 9.89021C20.0262 8.94183 19.7537 7.99346 19.4812 6.63863C21.5247 7.99346 22.887 9.61925 24.1131 11.3805C23.9768 11.787 23.7044 12.0579 23.5682 12.4644C23.1595 12.5998 22.7508 12.5999 22.3421 12.7353C21.9334 12.8708 21.5246 13.0063 21.1159 13.2773C20.8435 13.0063 20.7072 12.5999 20.4348 12.1934C20.2986 12.4644 20.1623 12.7354 20.0261 13.0063C19.7536 12.8708 19.6174 12.8708 19.6174 12.8708ZM19.8899 27.7739V27.6384H20.0261V27.7739H19.8899ZM20.5711 18.8321C20.4348 18.8321 20.4348 18.8321 20.2986 18.8321C20.2986 18.5611 20.2986 18.4256 20.2986 18.1546C20.4348 18.1546 20.4348 18.1546 20.5711 18.1546C20.5711 18.4256 20.5711 18.6966 20.5711 18.8321ZM21.2522 21.5417L21.1159 21.6772C20.9797 21.5417 20.9798 21.5417 20.8435 21.4062C20.7073 21.1353 20.7073 20.9998 20.7073 20.7288C20.8435 20.7288 20.9797 20.7288 20.9797 20.7288C21.3884 20.8643 21.3885 21.2707 21.2522 21.5417ZM27.2464 28.3158C26.7015 28.7223 26.8377 29.2642 26.7015 29.9416C26.5653 30.3481 26.5653 30.7545 26.2928 31.0255C25.3392 31.5674 25.203 32.5158 24.9305 33.4642C24.658 34.1416 24.7943 34.819 23.9769 35.3609C23.8406 35.2255 23.7044 35.09 23.7044 34.9545C23.8406 32.9222 23.1594 30.89 22.7507 28.9932C22.6145 28.0449 22.4783 26.961 22.2059 26.0126C22.7508 25.7417 23.1595 25.4707 23.5682 25.0643C24.5218 25.7417 25.2029 26.0126 27.9275 26.4191C28.0638 26.961 28.0638 27.7739 27.2464 28.3158ZM30.9247 20.7288C30.6522 21.2707 30.6522 21.9481 30.516 22.6256C29.971 22.8965 29.2899 21.9482 28.745 22.761C28.745 22.761 28.4725 22.761 28.3363 22.6256C27.5189 22.2191 26.5653 21.8127 25.6117 22.0836C25.3392 22.0836 25.0667 22.0836 24.9305 21.9481C24.3856 21.5417 23.8406 21.5417 23.1594 21.9481C22.887 22.0836 22.3421 21.8127 21.9334 21.8127C21.5247 20.4579 21.3885 19.103 21.2522 17.6127C21.5247 16.9353 22.0696 16.6643 22.887 16.5288C23.8406 16.5288 24.5218 15.9869 24.658 15.0386C25.0667 15.5805 25.3391 15.5805 25.8841 15.174C26.2928 14.9031 26.5653 14.3611 27.1102 14.6321C27.3826 14.7676 27.6551 14.6321 27.7913 14.7676C29.1537 16.1224 30.7884 17.2063 31.8783 18.8321C31.4696 19.5095 31.1971 20.1869 30.9247 20.7288ZM32.4233 19.2385C32.4233 19.103 32.287 18.9676 32.287 18.9676C32.287 18.8321 32.5595 18.8321 32.5595 18.8321C32.6957 18.8321 32.6957 18.9676 32.6957 19.103C32.6957 19.2385 32.5595 19.2385 32.4233 19.2385ZM33.1044 15.0386C32.832 14.7676 32.6957 14.4966 32.4233 14.2257C32.1508 14.3611 31.8783 14.3612 31.6058 14.3612C30.1073 12.7354 30.6522 12.5998 31.8783 11.787C32.0145 11.6515 32.0145 11.516 32.1508 11.516C32.287 11.3805 32.287 11.3805 32.4233 11.245C32.6957 11.3805 33.1044 11.516 33.2406 11.516C33.7855 11.1096 34.1943 10.8386 34.8754 10.8386C35.4203 10.8386 35.9653 10.7031 36.6464 10.5676C36.1015 11.9224 35.829 13.1418 34.8754 14.0902C34.7392 14.2257 34.6029 14.4966 34.6029 14.7676C34.1942 15.445 33.6493 15.5805 33.1044 15.0386ZM36.2377 23.303C35.829 23.4384 35.5566 23.4385 35.1479 23.4385C34.7392 23.5739 34.4667 23.4385 34.1943 23.032C34.3305 22.6256 34.4667 22.0836 34.7391 21.5417C34.8754 21.5417 35.0116 21.5417 35.2841 21.5417C36.2377 21.6772 37.1913 21.9482 37.3276 23.032C36.9189 23.7094 36.5102 23.1675 36.2377 23.303Z" fill="#FFCE0E"/>
</svg>
